<?xml version="1.0" encoding="UTF-8" standalone="no"?>
<!-- Created with Inkscape (http://www.inkscape.org/) -->

<svg
   xmlns:dc="http://purl.org/dc/elements/1.1/"
   xmlns:cc="http://creativecommons.org/ns#"
   xmlns:rdf="http://www.w3.org/1999/02/22-rdf-syntax-ns#"
   xmlns:svg="http://www.w3.org/2000/svg"
   xmlns="http://www.w3.org/2000/svg"
   xmlns:xlink="http://www.w3.org/1999/xlink"
   xmlns:sodipodi="http://sodipodi.sourceforge.net/DTD/sodipodi-0.dtd"
   xmlns:inkscape="http://www.inkscape.org/namespaces/inkscape"
   width="120"
   height="120"
   id="svg2"
   version="1.1"
   inkscape:version="0.48.5 r10040"
   sodipodi:docname="ic_empty_emblem.svg"
   inkscape:export-filename="/Users/tughi/Projects/Aggregator/aggregator-android/app/src/main/res/drawable-xxxhdpi/ic_launcher.png"
   inkscape:export-xdpi="360"
   inkscape:export-ydpi="360">
  <defs
     id="defs4">
    <linearGradient
       id="linearGradient4815">
      <stop
         style="stop-color:#000000;stop-opacity:1;"
         offset="0"
         id="stop4817" />
      <stop
         id="stop4823"
         offset="0.5"
         style="stop-color:#c9c9c9;stop-opacity:1;" />
      <stop
         style="stop-color:#ffffff;stop-opacity:1"
         offset="1"
         id="stop4819" />
    </linearGradient>
    <linearGradient
       id="linearGradient4803">
      <stop
         style="stop-color:#ff6600;stop-opacity:1"
         offset="0"
         id="stop4805" />
      <stop
         id="stop4813"
         offset="0.63"
         style="stop-color:#ffffff;stop-opacity:1;" />
      <stop
         style="stop-color:#ffffff;stop-opacity:1"
         offset="1"
         id="stop4807" />
    </linearGradient>
    <linearGradient
       inkscape:collect="always"
       id="linearGradient3846">
      <stop
         style="stop-color:#000000;stop-opacity:0"
         offset="0"
         id="stop3848" />
      <stop
         style="stop-color:#000000;stop-opacity:0.1"
         offset="1"
         id="stop3850" />
    </linearGradient>
    <linearGradient
       id="linearGradient3839">
      <stop
         style="stop-color:#cccccc;stop-opacity:1"
         offset="0"
         id="stop3841" />
      <stop
         id="stop3847"
         offset="0.5"
         style="stop-color:#999999;stop-opacity:1" />
      <stop
         style="stop-color:#cccccc;stop-opacity:1"
         offset="1"
         id="stop3843" />
    </linearGradient>
    <linearGradient
       id="linearGradient3833">
      <stop
         style="stop-color:#ffffff;stop-opacity:0.49803922"
         offset="0"
         id="stop3835" />
      <stop
         style="stop-color:#ffffff;stop-opacity:0.12711865"
         offset="1"
         id="stop3837" />
    </linearGradient>
    <linearGradient
       id="linearGradient3830">
      <stop
         id="stop3832"
         offset="0"
         style="stop-color:#a0a0a0;stop-opacity:1" />
      <stop
         id="stop3834"
         offset="1"
         style="stop-color:#d7d7d7;stop-opacity:1" />
    </linearGradient>
    <linearGradient
       id="linearGradient4506">
      <stop
         id="stop4508"
         offset="0"
         style="stop-color:#ffffff;stop-opacity:0.78431374;" />
      <stop
         id="stop4510"
         offset="1"
         style="stop-color:#ffffff;stop-opacity:0" />
    </linearGradient>
    <linearGradient
       id="linearGradient4107">
      <stop
         id="stop4109"
         offset="0"
         style="stop-color:#ffffff;stop-opacity:0.53435117;" />
      <stop
         id="stop4113"
         offset="1"
         style="stop-color:#ffffff;stop-opacity:0;" />
    </linearGradient>
    <linearGradient
       id="linearGradient4000">
      <stop
         style="stop-color:#99cc33;stop-opacity:1"
         offset="0"
         id="stop4002" />
      <stop
         style="stop-color:#669900;stop-opacity:1"
         offset="1"
         id="stop4004" />
    </linearGradient>
    <linearGradient
       id="linearGradient3939">
      <stop
         style="stop-color:#000000;stop-opacity:1;"
         offset="0"
         id="stop3941" />
      <stop
         id="stop3947"
         offset="0.5"
         style="stop-color:#000000;stop-opacity:1;" />
      <stop
         style="stop-color:#cccccc;stop-opacity:1;"
         offset="1"
         id="stop3943" />
    </linearGradient>
    <linearGradient
       inkscape:collect="always"
       xlink:href="#linearGradient3939"
       id="linearGradient3945"
       x1="24"
       y1="4"
       x2="24"
       y2="24"
       gradientUnits="userSpaceOnUse" />
    <linearGradient
       inkscape:collect="always"
       xlink:href="#linearGradient3939"
       id="linearGradient3974"
       gradientUnits="userSpaceOnUse"
       x1="24"
       y1="4"
       x2="24"
       y2="24"
       gradientTransform="matrix(0.96592582,-0.25881905,0.25881905,0.96592582,-5.3938799,1011.3916)" />
    <linearGradient
       inkscape:collect="always"
       xlink:href="#linearGradient3939"
       id="linearGradient3978"
       gradientUnits="userSpaceOnUse"
       gradientTransform="matrix(0,-1,1,0,0,1052.3622)"
       x1="24"
       y1="4"
       x2="24"
       y2="24" />
    <linearGradient
       inkscape:collect="always"
       xlink:href="#linearGradient3939"
       id="linearGradient3982"
       gradientUnits="userSpaceOnUse"
       gradientTransform="matrix(-0.70710678,-0.70710678,0.70710678,-0.70710678,24,1062.3033)"
       x1="24"
       y1="4"
       x2="24"
       y2="24" />
    <linearGradient
       inkscape:collect="always"
       xlink:href="#linearGradient3939"
       id="linearGradient3986"
       gradientUnits="userSpaceOnUse"
       gradientTransform="matrix(-1,0,0,-1,47.999982,1052.3622)"
       x1="24"
       y1="4"
       x2="24"
       y2="24" />
    <linearGradient
       inkscape:collect="always"
       xlink:href="#linearGradient3939"
       id="linearGradient3990"
       gradientUnits="userSpaceOnUse"
       gradientTransform="matrix(-0.70710678,0.70710678,-0.70710678,-0.70710678,57.941111,1028.3622)"
       x1="24"
       y1="4"
       x2="24"
       y2="24" />
    <linearGradient
       inkscape:collect="always"
       xlink:href="#linearGradient3939"
       id="linearGradient3994"
       gradientUnits="userSpaceOnUse"
       gradientTransform="matrix(0,1,-1,0,47.999988,1004.3622)"
       x1="24"
       y1="4"
       x2="24"
       y2="24" />
    <linearGradient
       inkscape:collect="always"
       xlink:href="#linearGradient3939"
       id="linearGradient3998"
       gradientUnits="userSpaceOnUse"
       gradientTransform="matrix(0.70710678,0.70710678,-0.70710678,0.70710678,23.99999,994.42108)"
       x1="24"
       y1="4"
       x2="24"
       y2="24" />
    <linearGradient
       inkscape:collect="always"
       xlink:href="#linearGradient4000"
       id="linearGradient4006"
       x1="8"
       y1="24"
       x2="40"
       y2="24"
       gradientUnits="userSpaceOnUse" />
    <linearGradient
       inkscape:collect="always"
       xlink:href="#linearGradient3939"
       id="linearGradient4032"
       gradientUnits="userSpaceOnUse"
       gradientTransform="matrix(0.70710678,-0.70710678,0.70710678,0.70710678,-9.9411255,24)"
       x1="24"
       y1="4"
       x2="24"
       y2="24" />
    <linearGradient
       inkscape:collect="always"
       xlink:href="#linearGradient3939"
       id="linearGradient4055"
       gradientUnits="userSpaceOnUse"
       gradientTransform="matrix(0.25881905,0.96592582,-0.96592582,0.25881905,40.970552,998.96832)"
       x1="24"
       y1="4"
       x2="24"
       y2="24" />
    <linearGradient
       inkscape:collect="always"
       xlink:href="#linearGradient3939"
       id="linearGradient4057"
       gradientUnits="userSpaceOnUse"
       gradientTransform="matrix(-0.50000001,0.86602541,-0.86602541,-0.50000001,56.784607,1019.5776)"
       x1="24"
       y1="4"
       x2="24"
       y2="24" />
    <linearGradient
       inkscape:collect="always"
       xlink:href="#linearGradient3939"
       id="linearGradient4059"
       gradientUnits="userSpaceOnUse"
       gradientTransform="matrix(-0.96592582,0.25881905,-0.25881905,-0.96592582,53.393866,1045.3328)"
       x1="24"
       y1="4"
       x2="24"
       y2="24" />
    <linearGradient
       inkscape:collect="always"
       xlink:href="#linearGradient3939"
       id="linearGradient4061"
       gradientUnits="userSpaceOnUse"
       gradientTransform="matrix(-0.86602541,-0.50000001,0.50000001,-0.86602541,32.784586,1061.1468)"
       x1="24"
       y1="4"
       x2="24"
       y2="24" />
    <linearGradient
       inkscape:collect="always"
       xlink:href="#linearGradient3939"
       id="linearGradient4063"
       gradientUnits="userSpaceOnUse"
       gradientTransform="matrix(-0.25881905,-0.96592582,0.96592582,-0.25881905,7.0294458,1057.7561)"
       x1="24"
       y1="4"
       x2="24"
       y2="24" />
    <linearGradient
       inkscape:collect="always"
       xlink:href="#linearGradient3939"
       id="linearGradient4065"
       gradientUnits="userSpaceOnUse"
       gradientTransform="matrix(0.50000001,-0.86602541,0.86602541,0.50000001,-8.7846198,1037.1468)"
       x1="24"
       y1="4"
       x2="24"
       y2="24" />
    <linearGradient
       inkscape:collect="always"
       xlink:href="#linearGradient3939"
       id="linearGradient4067"
       gradientUnits="userSpaceOnUse"
       x1="24"
       y1="4"
       x2="24"
       y2="24"
       gradientTransform="matrix(0.86602541,0.50000001,-0.50000001,0.86602541,15.215391,995.57759)" />
    <linearGradient
       inkscape:collect="always"
       xlink:href="#linearGradient3939"
       id="linearGradient4081"
       gradientUnits="userSpaceOnUse"
       gradientTransform="matrix(0.86602541,0.50000001,-0.50000001,0.86602541,15.215391,995.57759)"
       x1="24"
       y1="4"
       x2="24"
       y2="24" />
    <linearGradient
       inkscape:collect="always"
       xlink:href="#linearGradient3939"
       id="linearGradient4083"
       gradientUnits="userSpaceOnUse"
       gradientTransform="matrix(0.96592582,-0.25881905,0.25881905,0.96592582,-5.3938799,1011.3916)"
       x1="24"
       y1="4"
       x2="24"
       y2="24" />
    <linearGradient
       inkscape:collect="always"
       xlink:href="#linearGradient3939"
       id="linearGradient4085"
       gradientUnits="userSpaceOnUse"
       gradientTransform="matrix(0.50000001,-0.86602541,0.86602541,0.50000001,-8.7846198,1037.1468)"
       x1="24"
       y1="4"
       x2="24"
       y2="24" />
    <linearGradient
       inkscape:collect="always"
       xlink:href="#linearGradient3939"
       id="linearGradient4087"
       gradientUnits="userSpaceOnUse"
       gradientTransform="matrix(-0.25881905,-0.96592582,0.96592582,-0.25881905,7.0294458,1057.7561)"
       x1="24"
       y1="4"
       x2="24"
       y2="24" />
    <linearGradient
       inkscape:collect="always"
       xlink:href="#linearGradient3939"
       id="linearGradient4089"
       gradientUnits="userSpaceOnUse"
       gradientTransform="matrix(-0.86602541,-0.50000001,0.50000001,-0.86602541,32.784586,1061.1468)"
       x1="24"
       y1="4"
       x2="24"
       y2="24" />
    <linearGradient
       inkscape:collect="always"
       xlink:href="#linearGradient3939"
       id="linearGradient4091"
       gradientUnits="userSpaceOnUse"
       gradientTransform="matrix(-0.96592582,0.25881905,-0.25881905,-0.96592582,53.393866,1045.3328)"
       x1="24"
       y1="4"
       x2="24"
       y2="24" />
    <linearGradient
       inkscape:collect="always"
       xlink:href="#linearGradient3939"
       id="linearGradient4093"
       gradientUnits="userSpaceOnUse"
       gradientTransform="matrix(-0.50000001,0.86602541,-0.86602541,-0.50000001,56.784607,1019.5776)"
       x1="24"
       y1="4"
       x2="24"
       y2="24" />
    <linearGradient
       inkscape:collect="always"
       xlink:href="#linearGradient3939"
       id="linearGradient4095"
       gradientUnits="userSpaceOnUse"
       gradientTransform="matrix(0.25881905,0.96592582,-0.96592582,0.25881905,40.970552,998.96832)"
       x1="24"
       y1="4"
       x2="24"
       y2="24" />
    <linearGradient
       inkscape:collect="always"
       xlink:href="#linearGradient4107"
       id="linearGradient4105"
       x1="8"
       y1="24"
       x2="40"
       y2="24"
       gradientUnits="userSpaceOnUse"
       gradientTransform="matrix(0,1,-1,0,48,0)" />
    <linearGradient
       inkscape:collect="always"
       xlink:href="#linearGradient4107"
       id="linearGradient4117"
       gradientUnits="userSpaceOnUse"
       x1="8"
       y1="24"
       x2="40"
       y2="24" />
    <linearGradient
       inkscape:collect="always"
       xlink:href="#linearGradient3939"
       id="linearGradient4304"
       gradientUnits="userSpaceOnUse"
       gradientTransform="matrix(0.25881905,0.96592582,-0.96592582,0.25881905,40.970552,998.96832)"
       x1="24"
       y1="4"
       x2="24"
       y2="24" />
    <linearGradient
       inkscape:collect="always"
       xlink:href="#linearGradient3939"
       id="linearGradient4307"
       gradientUnits="userSpaceOnUse"
       gradientTransform="matrix(-0.50000001,0.86602541,-0.86602541,-0.50000001,56.784607,1019.5776)"
       x1="24"
       y1="4"
       x2="24"
       y2="24" />
    <linearGradient
       inkscape:collect="always"
       xlink:href="#linearGradient3939"
       id="linearGradient4310"
       gradientUnits="userSpaceOnUse"
       gradientTransform="matrix(-0.96592582,0.25881905,-0.25881905,-0.96592582,53.393866,1045.3328)"
       x1="24"
       y1="4"
       x2="24"
       y2="24" />
    <linearGradient
       inkscape:collect="always"
       xlink:href="#linearGradient3939"
       id="linearGradient4313"
       gradientUnits="userSpaceOnUse"
       gradientTransform="matrix(-0.86602541,-0.50000001,0.50000001,-0.86602541,32.784586,1061.1468)"
       x1="24"
       y1="4"
       x2="24"
       y2="24" />
    <linearGradient
       inkscape:collect="always"
       xlink:href="#linearGradient3939"
       id="linearGradient4316"
       gradientUnits="userSpaceOnUse"
       gradientTransform="matrix(-0.25881905,-0.96592582,0.96592582,-0.25881905,7.0294458,1057.7561)"
       x1="24"
       y1="4"
       x2="24"
       y2="24" />
    <linearGradient
       inkscape:collect="always"
       xlink:href="#linearGradient3939"
       id="linearGradient4319"
       gradientUnits="userSpaceOnUse"
       gradientTransform="matrix(0.50000001,-0.86602541,0.86602541,0.50000001,-8.7846198,1037.1468)"
       x1="24"
       y1="4"
       x2="24"
       y2="24" />
    <linearGradient
       inkscape:collect="always"
       xlink:href="#linearGradient3939"
       id="linearGradient4322"
       gradientUnits="userSpaceOnUse"
       gradientTransform="matrix(0.96592582,-0.25881905,0.25881905,0.96592582,-5.3938799,1011.3916)"
       x1="24"
       y1="4"
       x2="24"
       y2="24" />
    <linearGradient
       inkscape:collect="always"
       xlink:href="#linearGradient3939"
       id="linearGradient4325"
       gradientUnits="userSpaceOnUse"
       gradientTransform="matrix(0.86602541,0.50000001,-0.50000001,0.86602541,15.215391,995.57759)"
       x1="24"
       y1="4"
       x2="24"
       y2="24" />
    <radialGradient
       inkscape:collect="always"
       xlink:href="#linearGradient4506"
       id="radialGradient4514"
       cx="13.5"
       cy="24"
       fx="13.5"
       fy="24"
       r="16"
       gradientUnits="userSpaceOnUse" />
    <linearGradient
       inkscape:collect="always"
       xlink:href="#linearGradient4000"
       id="linearGradient4671"
       gradientUnits="userSpaceOnUse"
       x1="8"
       y1="24"
       x2="40"
       y2="24" />
    <radialGradient
       inkscape:collect="always"
       xlink:href="#linearGradient3833"
       id="radialGradient4674"
       gradientUnits="userSpaceOnUse"
       cx="13.5"
       cy="24"
       fx="13.5"
       fy="24"
       r="16" />
    <filter
       id="filter4802"
       inkscape:label="Drop shadow"
       width="1.5"
       height="1.5"
       x="-0.25"
       y="-0.25"
       color-interpolation-filters="sRGB">
      <feGaussianBlur
         id="feGaussianBlur4804"
         in="SourceAlpha"
         stdDeviation="1"
         result="blur" />
      <feColorMatrix
         id="feColorMatrix4806"
         result="bluralpha"
         type="matrix"
         values="1 0 0 0 0 0 1 0 0 0 0 0 1 0 0 0 0 0 1 0 " />
      <feOffset
         id="feOffset4808"
         in="bluralpha"
         dx="0"
         dy="1"
         result="offsetBlur" />
      <feMerge
         id="feMerge4810">
        <feMergeNode
           id="feMergeNode4812"
           in="offsetBlur" />
        <feMergeNode
           id="feMergeNode4814"
           in="SourceGraphic" />
      </feMerge>
    </filter>
    <linearGradient
       inkscape:collect="always"
       xlink:href="#linearGradient3830"
       id="linearGradient3840"
       x1="23.958588"
       y1="8.9539347"
       x2="23.958588"
       y2="39.094296"
       gradientUnits="userSpaceOnUse" />
    <linearGradient
       inkscape:collect="always"
       xlink:href="#linearGradient3846"
       id="linearGradient3852"
       x1="24"
       y1="4"
       x2="24"
       y2="44"
       gradientUnits="userSpaceOnUse" />
    <linearGradient
       inkscape:collect="always"
       xlink:href="#linearGradient3846"
       id="linearGradient3870"
       gradientUnits="userSpaceOnUse"
       x1="24"
       y1="4"
       x2="24"
       y2="44"
       gradientTransform="matrix(1.05,0,0,1.05,-1.1999994,-1.2249986)" />
    <filter
       inkscape:collect="always"
       id="filter3874"
       color-interpolation-filters="sRGB">
      <feGaussianBlur
         inkscape:collect="always"
         stdDeviation="0.45875"
         id="feGaussianBlur3876" />
    </filter>
    <linearGradient
       inkscape:collect="always"
       xlink:href="#linearGradient4815"
       id="linearGradient4821"
       x1="24"
       y1="24"
       x2="44"
       y2="44"
       gradientUnits="userSpaceOnUse" />
  </defs>
  <sodipodi:namedview
     id="base"
     pagecolor="#000000"
     bordercolor="#666666"
     borderopacity="1.0"
     inkscape:pageopacity="0"
     inkscape:pageshadow="2"
     inkscape:zoom="4.575"
     inkscape:cx="60"
     inkscape:cy="60"
     inkscape:document-units="px"
     inkscape:current-layer="layer2"
     showgrid="false"
     inkscape:showpageshadow="false"
     borderlayer="true"
     showguides="true"
     inkscape:guide-bbox="true"
     inkscape:window-width="1276"
     inkscape:window-height="755"
     inkscape:window-x="0"
     inkscape:window-y="0"
     inkscape:window-maximized="1">
    <sodipodi:guide
       orientation="1,0"
       position="25,60"
       id="guide2985" />
    <sodipodi:guide
       id="guide2987"
       position="10,60"
       orientation="1,0" />
    <sodipodi:guide
       orientation="1,0"
       position="20,60"
       id="guide2989" />
    <sodipodi:guide
       orientation="0,1"
       position="60,60"
       id="guide2993" />
  </sodipodi:namedview>
  <metadata
     id="metadata7">
    <rdf:RDF>
      <cc:Work
         rdf:about="">
        <dc:format>image/svg+xml</dc:format>
        <dc:type
           rdf:resource="http://purl.org/dc/dcmitype/StillImage" />
        <dc:title></dc:title>
      </cc:Work>
    </rdf:RDF>
  </metadata>
  <g
     inkscape:groupmode="layer"
     id="layer2"
     inkscape:label="Emblem"
     style="display:inline"
     transform="translate(0,72)">
    <path
       style="opacity:0.5;fill:#808080;fill-opacity:1;fill-rule:nonzero;stroke:none"
       d="M 54.0625 2.65625 C 51.067988 2.963212 48.09523 3.414505 45.09375 4.21875 C 42.09227 5.022995 39.246805 6.112331 36.5 7.34375 L 37.1875 15.625 C 37.01025 15.71551 36.89457 15.75127 36.71875 15.84375 C 36.5927 15.90315 36.466385 16.02789 36.34375 16.09375 C 36.07107 16.244158 35.83513 16.409471 35.5625 16.5625 C 35.23654 16.745473 34.947567 16.907855 34.625 17.09375 C 34.483025 17.17925 34.297438 17.257603 34.15625 17.34375 C 34.0791 17.38211 33.979275 17.455273 33.90625 17.5 C 33.68745 17.634002 33.49813 17.737497 33.28125 17.875 C 33.23058 17.90714 33.175525 17.998858 33.125 18.03125 C 32.9786 18.1096 32.794578 18.19083 32.65625 18.28125 C 32.60562 18.31479 32.5508 18.30962 32.5 18.34375 C 32.281525 18.48919 32.08665 18.662181 31.875 18.8125 C 31.489562 19.076475 31.158648 19.317777 30.78125 19.59375 C 30.499035 19.806838 30.221245 20.004753 29.9375 20.21875 C 29.778975 20.338305 29.532933 20.408332 29.375 20.53125 C 29.32667 20.56877 29.266925 20.649802 29.21875 20.6875 C 28.980125 20.87465 28.83026 21.11731 28.59375 21.3125 C 27.987858 21.812538 27.388452 22.296723 26.8125 22.8125 C 26.60395 22.99907 26.39267 23.15168 26.1875 23.34375 C 25.750067 23.753258 25.272055 24.266311 24.84375 24.6875 C 24.669397 24.858965 24.48344 24.980906 24.3125 25.15625 C 24.089243 25.3831 23.906401 25.610872 23.6875 25.84375 C 23.576857 25.958525 23.482893 26.03905 23.375 26.15625 C 23.266892 26.2738 23.075867 26.443763 22.96875 26.5625 L 15.3125 23.65625 C 13.412115 25.990742 11.553681 28.402695 10 31.09375 C 8.446319 33.784803 7.25904 36.62447 6.1875 39.4375 L 12.5 44.6875 C 12.344893 45.166368 12.259773 45.673598 12.125 46.15625 C 12.11495 46.19228 12.13535 46.21412 12.125 46.25 C 12.1184 46.2725 12.1315 46.28969 12.125 46.3125 C 12.11457 46.34838 12.04167 46.432875 12.03125 46.46875 C 11.96421 46.6538 11.92672 46.840505 11.875 47.03125 C 11.85915 47.08972 11.7969 47.12895 11.78125 47.1875 C 11.75571 47.28293 11.7437 47.4045 11.71875 47.5 C 11.67236 47.676975 11.66934 47.852668 11.625 48.03125 C 11.58922 48.172975 11.5899 48.293393 11.5625 48.4375 C 11.5145 48.62855 11.356215 48.776195 11.3125 48.96875 C 11.3072 48.99275 11.4118 49.0386 11.40625 49.0625 C 11.36584 49.242325 11.288903 49.413877 11.25 49.59375 C 11.16461 49.90144 11.060439 50.219275 11 50.53125 C 10.9884 50.59148 10.94821 50.6273 10.9375 50.6875 C 10.90255 50.867475 10.87595 51.070503 10.84375 51.25 C 10.83945 51.274 10.84805 51.28837 10.84375 51.3125 C 10.83935 51.3377 10.94191 51.38112 10.9375 51.40625 C 10.90196 51.647375 10.819858 51.850858 10.78125 52.09375 C 10.7619 52.21465 10.70453 52.379093 10.6875 52.5 C 10.65583 52.7051 10.65329 52.919525 10.625 53.125 C 10.59317 53.354975 10.55981 53.58236 10.53125 53.8125 C 10.52125 53.89815 10.54153 53.9768 10.53125 54.0625 C 10.5168 54.181225 10.48262 54.318445 10.46875 54.4375 C 10.40942 54.787658 10.34502 55.113033 10.3125 55.46875 C 10.30217 55.581725 10.31 55.730772 10.3125 55.84375 C 10.299 55.988775 10.23104 56.1047 10.21875 56.25 C 10.218214 56.30258 10.31629 56.353875 10.3125 56.40625 C 10.3097 56.441 10.2215 56.52775 10.21875 56.5625 C 10.20257 56.795675 10.16911 57.01683 10.15625 57.25 C 10.13912 57.559692 10.16115 57.875872 10.15625 58.1875 C 10.14925 58.362675 10.16085 58.481105 10.15625 58.65625 C 10.14293 58.82805 10.06516 59.04302 10.0625 59.21875 C 10.0599 59.3897 10.063308 59.516312 10.0625 59.6875 C 10.0605 60.025015 10.0576 60.350375 10.0625 60.6875 C 10.0717 61.27474 10.1259 61.910519 10.15625 62.5 L 2.65625 65.9375 C 2.963212 68.932015 3.414505 71.99852 4.21875 75 C 5.022995 78.00148 6.112331 80.753196 7.34375 83.5 L 15.53125 82.8125 C 15.62176 82.98975 15.751273 83.10543 15.84375 83.28125 C 15.85615 83.305 15.92502 83.35152 15.9375 83.375 C 15.98849 83.475125 16.040553 83.5884 16.09375 83.6875 C 16.244158 83.960177 16.40947 84.19612 16.5625 84.46875 C 16.747598 84.791472 16.906588 85.14756 17.09375 85.46875 C 17.220535 85.6863 17.368654 85.87956 17.5 86.09375 C 17.59053 86.2415 17.626535 86.4161 17.71875 86.5625 C 17.76738 86.6344 17.829163 86.64648 17.875 86.71875 C 17.986023 86.915225 18.06451 87.15559 18.1875 87.34375 C 18.22056 87.3942 18.310568 87.44965 18.34375 87.5 C 18.905413 88.352285 19.540214 89.180172 20.15625 90 C 20.19241 90.04815 20.18246 90.04582 20.21875 90.09375 C 20.32635 90.2605 20.40816 90.466847 20.53125 90.625 C 20.56877 90.67332 20.649802 90.733075 20.6875 90.78125 C 20.876642 91.02055 21.120163 91.26319 21.3125 91.5 C 21.812538 92.105892 22.296723 92.7053 22.8125 93.28125 C 22.97432 93.46215 23.111134 93.669138 23.28125 93.84375 C 23.30593 93.87047 23.3191 93.8171 23.34375 93.84375 C 23.670442 94.19722 24.03433 94.508857 24.375 94.84375 C 24.46249 94.92945 24.600693 95.069925 24.6875 95.15625 C 24.861223 95.328975 24.980906 95.54781 25.15625 95.71875 C 25.25395 95.81278 25.371125 95.843225 25.46875 95.9375 C 25.60085 96.0645 25.71308 96.216497 25.84375 96.34375 C 25.958525 96.4544 26.03905 96.610862 26.15625 96.71875 C 26.2738 96.826875 26.35 96.92415 26.46875 97.03125 L 23.65625 104.78125 C 25.990742 106.68163 28.402695 108.54007 31.09375 110.09375 C 33.784802 111.64743 36.62447 112.77221 39.4375 113.84375 L 44.6875 107.5 C 45.166368 107.6551 45.704847 107.74025 46.1875 107.875 C 46.2235 107.885 46.21412 107.95837 46.25 107.96875 C 46.367675 108.00253 46.538793 107.99824 46.65625 108.03125 C 46.7848 108.07792 46.900388 108.14997 47.03125 108.1875 C 47.08972 108.20325 47.12895 108.17175 47.1875 108.1875 C 47.2829 108.21295 47.342 108.25629 47.4375 108.28125 C 47.614475 108.32762 47.79017 108.39317 47.96875 108.4375 C 48.242737 108.50575 48.57017 108.5259 48.84375 108.59375 C 48.90328 108.60775 48.94032 108.64247 49 108.65625 C 49.0599 108.67 49.09642 108.64275 49.15625 108.65625 C 49.608188 108.76583 50.107445 108.8806 50.5625 108.96875 C 50.62275 108.98025 50.65855 109.05169 50.71875 109.0625 C 50.8977 109.10062 51.070495 109.12404 51.25 109.15625 C 51.540255 109.19992 51.832423 109.17225 52.125 109.21875 C 52.2459 109.23825 52.379093 109.29547 52.5 109.3125 C 52.706475 109.34445 52.916695 109.43973 53.125 109.46875 C 53.354975 109.5006 53.613607 109.4402 53.84375 109.46875 C 53.9294 109.47875 53.9768 109.521 54.0625 109.53125 C 54.14807 109.5425 54.226975 109.51975 54.3125 109.53125 C 54.39753 109.54175 54.539525 109.5205 54.625 109.53125 C 54.925598 109.58518 55.16871 109.65775 55.46875 109.6875 C 55.72907 109.7115 55.991895 109.76177 56.25 109.78125 C 56.33728 109.78845 56.413325 109.77475 56.5 109.78125 C 56.733175 109.7975 56.954328 109.83089 57.1875 109.84375 C 57.52334 109.8625 57.880693 109.83925 58.21875 109.84375 C 58.367525 109.84955 58.538718 109.93359 58.6875 109.9375 C 58.859325 109.942 59.046967 109.9345 59.21875 109.9375 C 59.389725 109.94 59.51631 109.9367 59.6875 109.9375 C 60.02501 109.9395 60.38162 109.9425 60.71875 109.9375 C 61.305987 109.9283 61.91052 109.87393 62.5 109.84375 L 65.9375 117.34375 C 68.932012 117.03679 71.93602 116.58549 74.9375 115.78125 C 77.93898 114.97701 80.784445 113.88767 83.53125 112.65625 L 82.8125 104.4375 C 82.98975 104.347 83.105427 104.21747 83.28125 104.125 C 83.404725 104.06002 83.565655 104.03597 83.6875 103.96875 C 83.960572 103.8217 84.198077 103.65525 84.46875 103.5 C 84.79471 103.31703 85.083682 103.0609 85.40625 102.875 C 85.50317 102.81918 85.614775 102.76238 85.71875 102.71875 C 85.76387 102.69145 85.83 102.68373 85.875 102.65625 C 85.95215 102.61792 86.020725 102.54473 86.09375 102.5 C 86.31255 102.366 86.501865 102.23125 86.71875 102.09375 C 86.76925 102.06227 86.822325 101.9657 86.875 101.9375 C 87.06335 101.81675 87.310528 101.7522 87.5 101.625 C 87.716475 101.48233 87.911055 101.39652 88.125 101.25 C 88.50661 100.97896 88.847657 100.65519 89.21875 100.375 C 89.501342 100.16773 89.81589 99.960322 90.09375 99.75 C 90.252275 99.63045 90.46707 99.560425 90.625 99.4375 C 90.67335 99.4001 90.733075 99.31895 90.78125 99.28125 C 91.0199 99.094075 91.16974 98.94519 91.40625 98.75 C 92.012142 98.249965 92.6428 97.703275 93.21875 97.1875 C 93.4273 97.000925 93.63858 96.817068 93.84375 96.625 C 94.281185 96.21549 94.727945 95.796193 95.15625 95.375 C 95.3306 95.203525 95.547812 95.0191 95.71875 94.84375 C 95.942 94.6169 96.124848 94.451627 96.34375 94.21875 C 96.4544 94.103975 96.548375 93.929687 96.65625 93.8125 C 96.764375 93.69495 96.924112 93.61875 97.03125 93.5 L 104.6875 96.3125 C 106.58788 93.978008 108.44631 91.597307 110 88.90625 C 111.55368 86.215196 112.77221 83.344279 113.84375 80.53125 L 107.5 75.3125 C 107.65512 74.83363 107.7715 74.295152 107.90625 73.8125 C 107.91675 73.7766 107.89575 73.78588 107.90625 73.75 C 107.91325 73.72725 107.89925 73.67903 107.90625 73.65625 C 107.91675 73.61957 107.95575 73.62956 107.96875 73.59375 C 108.02365 73.404825 108.07083 73.220303 108.125 73.03125 C 108.1407 72.97277 108.1717 72.87105 108.1875 72.8125 C 108.2129 72.7171 108.25635 72.658 108.28125 72.5625 C 108.32765 72.385525 108.29945 72.209833 108.34375 72.03125 C 108.43315 71.676927 108.51032 71.296108 108.59375 70.9375 C 108.63725 70.75945 108.70092 70.551853 108.75 70.375 C 108.8354 70.067307 108.9083 69.749475 108.96875 69.4375 C 108.98025 69.37725 109.0517 69.34145 109.0625 69.28125 C 109.0975 69.101275 109.0929 68.929495 109.125 68.75 C 109.13 68.72575 109.121 68.6804 109.125 68.65625 C 109.13 68.63105 109.058 68.61888 109.0625 68.59375 C 109.0981 68.352625 109.18013 68.117897 109.21875 67.875 C 109.27115 67.547637 109.33553 67.20243 109.375 66.875 C 109.4069 66.645025 109.409 66.386392 109.4375 66.15625 C 109.4475 66.0706 109.4273 66.0232 109.4375 65.9375 C 109.4548 65.8165 109.51085 65.7453 109.53125 65.625 C 109.57165 65.27761 109.65283 64.88081 109.6875 64.53125 C 109.7113 64.27161 109.7475 64.00809 109.75 63.75 C 109.754 63.69745 109.6831 63.64635 109.6875 63.59375 C 109.6905 63.55845 109.7476 63.53528 109.75 63.5 C 109.7662 63.266825 109.83095 63.045675 109.84375 62.8125 C 109.86075 62.50281 109.83875 62.186627 109.84375 61.875 C 109.84975 61.702225 109.83055 61.484313 109.84375 61.3125 C 109.84775 61.140675 109.90335 61.015532 109.90625 60.84375 C 109.90825 60.672775 109.90545 60.48369 109.90625 60.3125 C 109.90825 59.974987 109.91125 59.618377 109.90625 59.28125 C 109.89725 58.69401 109.87385 58.08948 109.84375 57.5 L 117.34375 54.0625 C 117.03686 51.067963 116.58549 48.06398 115.78125 45.0625 C 114.97701 42.06102 113.88767 39.215555 112.65625 36.46875 L 104.4375 37.25 C 104.3469 37.07278 104.21747 36.894573 104.125 36.71875 C 104.1128 36.695 104.075 36.64843 104.0625 36.625 C 104.0115 36.524875 103.95947 36.411588 103.90625 36.3125 C 103.75582 36.03982 103.59053 35.80388 103.4375 35.53125 C 103.25239 35.208528 103.06216 34.91494 102.875 34.59375 C 102.74693 34.37735 102.6311 34.1203 102.5 33.90625 C 102.366 33.68745 102.23125 33.498133 102.09375 33.28125 C 101.98275 33.084775 101.90422 32.844418 101.78125 32.65625 C 101.74815 32.60583 101.65818 32.61283 101.625 32.5625 C 101.06334 31.710213 100.45978 30.882325 99.84375 30.0625 C 99.80768 30.0141 99.78278 29.956975 99.75 29.90625 C 99.6424 29.7395 99.560575 29.53315 99.4375 29.375 C 99.4001 29.32665 99.31895 29.32943 99.28125 29.28125 C 99.0921 29.04195 98.84859 28.830563 98.65625 28.59375 C 98.156215 27.987858 97.703275 27.357203 97.1875 26.78125 C 97.025675 26.600375 96.888862 26.424613 96.71875 26.25 C 96.35963 25.881372 95.994382 25.518087 95.625 25.15625 C 95.53805 25.07077 95.3999 24.991126 95.3125 24.90625 C 95.138702 24.733467 95.0191 24.545937 94.84375 24.375 C 94.74635 24.28 94.628275 24.15792 94.53125 24.0625 C 94.39915 23.935503 94.255655 23.783499 94.125 23.65625 C 94.0088 23.54697 93.930325 23.45041 93.8125 23.34375 C 93.69495 23.23564 93.61875 23.13837 93.5 23.03125 L 96.3125 15.3125 C 93.978005 13.412115 91.597305 11.553682 88.90625 10 C 86.215195 8.446321 83.34428 7.227791 80.53125 6.15625 L 75.3125 12.5 C 74.833632 12.344895 74.295155 12.228525 73.8125 12.09375 C 73.77615 12.0832 73.78603 12.1054 73.75 12.09375 C 73.501425 12.02239 73.21699 11.942718 72.96875 11.875 C 72.91027 11.85915 72.87105 11.79691 72.8125 11.78125 C 72.71765 11.75576 72.657623 11.74368 72.5625 11.71875 C 72.38695 11.67294 72.21011 11.66566 72.03125 11.625 C 71.757262 11.55674 71.42983 11.474098 71.15625 11.40625 C 71.0966 11.39207 71.05998 11.41765 71 11.40625 C 70.9401 11.39265 70.90357 11.32593 70.84375 11.3125 C 70.388908 11.207696 69.89082 11.100201 69.4375 11 C 69.147312 10.9441 68.884228 10.98031 68.59375 10.9375 C 68.353903 10.89521 68.116222 10.817165 67.875 10.78125 C 67.7541 10.7619 67.620908 10.70454 67.5 10.6875 C 67.293525 10.65554 67.083305 10.654 66.875 10.625 C 66.645025 10.59317 66.386392 10.55981 66.15625 10.53125 C 66.07065 10.52022 66.023075 10.54247 65.9375 10.53125 C 65.8531 10.52097 65.7725 10.54182 65.6875 10.53125 C 65.6037 10.52135 65.459525 10.48393 65.375 10.46875 C 65.0744 10.41482 64.83129 10.342253 64.53125 10.3125 C 64.27093 10.2887 64.008103 10.23824 63.75 10.21875 C 63.66272 10.21135 63.586675 10.22525 63.5 10.21875 C 63.266825 10.20257 63.045672 10.16911 62.8125 10.15625 C 62.640775 10.14725 62.421883 10.16315 62.25 10.15625 C 62.083925 10.16325 61.946967 10.22094 61.78125 10.21875 C 61.632475 10.21305 61.461282 10.16014 61.3125 10.15625 C 61.140675 10.15175 60.953032 10.06539 60.78125 10.0625 C 60.6103 10.0599 60.483688 10.063308 60.3125 10.0625 C 59.974987 10.0605 59.618377 10.0576 59.28125 10.0625 C 58.69402 10.0718 58.08948 10.1259 57.5 10.15625 L 54.0625 2.65625 z M 60 22 C 80.98682 22 98 39.01318 98 60 C 98 80.98682 80.98682 98 60 98 C 39.01318 98 22 80.98682 22 60 C 22 39.01318 39.01318 22 60 22 z "
       transform="translate(0,-72)"
       id="path3877" />
    <path
       style="opacity:0.5;fill:#808080;fill-opacity:1;fill-rule:nonzero;stroke:none"
       d="m 45.07813,-36.921903 0.234375,8.046875 c 22.597025,0.37825 31.918625,19.1345005 31.5625,31.8750005 l 8.125,0.07813 C 84.825182,-16.819626 70.969427,-35.67972 45.07813,-36.921898 z"
       id="path3873" />
    <path
       style="opacity:0.5;fill:#808080;fill-opacity:1;fill-rule:nonzero;stroke:none"
       d="m 45.15626,-23.562528 0,7.890625 c 10.271775,0.43725 18.384375,6.7322505 18.515625,18.7500005 l 7.890625,0 C 71.33286,-10.573251 61.98963,-22.64631 45.156255,-23.562528 z"
       id="path3871" />
    <path
       style="opacity:0.5;fill:#808080;fill-opacity:1;fill-rule:nonzero;stroke:none"
       d="m 50.62501,-8.0156525 c -3.089225,0 -5.625,2.46125 -5.625,5.46875 0,3.007475 2.535775,5.390625 5.625,5.390625 3.089225,0 5.625,-2.38315 5.625,-5.390625 0,-3.0075 -2.535775,-5.46875 -5.625,-5.46875 z"
       id="path4247" />
  </g>
</svg>
