<?xml version="1.0" encoding="UTF-8" standalone="no"?>
<!-- Created with Inkscape (http://www.inkscape.org/) -->

<svg
   xmlns:dc="http://purl.org/dc/elements/1.1/"
   xmlns:cc="http://creativecommons.org/ns#"
   xmlns:rdf="http://www.w3.org/1999/02/22-rdf-syntax-ns#"
   xmlns:svg="http://www.w3.org/2000/svg"
   xmlns="http://www.w3.org/2000/svg"
   xmlns:xlink="http://www.w3.org/1999/xlink"
   xmlns:sodipodi="http://sodipodi.sourceforge.net/DTD/sodipodi-0.dtd"
   xmlns:inkscape="http://www.inkscape.org/namespaces/inkscape"
   width="48"
   height="48"
   id="svg2"
   version="1.1"
   inkscape:version="0.48.5 r10040"
   sodipodi:docname="ic_launcher.svg"
   inkscape:export-filename="/Users/tughi/Projects/Aggregator/aggregator-android/app/src/main/res/drawable-xxxhdpi/ic_launcher.png"
   inkscape:export-xdpi="360"
   inkscape:export-ydpi="360">
  <defs
     id="defs4">
    <linearGradient
       inkscape:collect="always"
       id="linearGradient3846">
      <stop
         style="stop-color:#000000;stop-opacity:0"
         offset="0"
         id="stop3848" />
      <stop
         style="stop-color:#000000;stop-opacity:0.1"
         offset="1"
         id="stop3850" />
    </linearGradient>
    <linearGradient
       id="linearGradient3839">
      <stop
         style="stop-color:#cccccc;stop-opacity:1"
         offset="0"
         id="stop3841" />
      <stop
         id="stop3847"
         offset="0.5"
         style="stop-color:#999999;stop-opacity:1" />
      <stop
         style="stop-color:#cccccc;stop-opacity:1"
         offset="1"
         id="stop3843" />
    </linearGradient>
    <linearGradient
       id="linearGradient3833">
      <stop
         style="stop-color:#ffffff;stop-opacity:0.49803922"
         offset="0"
         id="stop3835" />
      <stop
         style="stop-color:#ffffff;stop-opacity:0.12711865"
         offset="1"
         id="stop3837" />
    </linearGradient>
    <linearGradient
       id="linearGradient3830">
      <stop
         id="stop3832"
         offset="0"
         style="stop-color:#a0a0a0;stop-opacity:1" />
      <stop
         id="stop3834"
         offset="1"
         style="stop-color:#d7d7d7;stop-opacity:1" />
    </linearGradient>
    <linearGradient
       id="linearGradient4506">
      <stop
         id="stop4508"
         offset="0"
         style="stop-color:#ffffff;stop-opacity:0.78431374;" />
      <stop
         id="stop4510"
         offset="1"
         style="stop-color:#ffffff;stop-opacity:0" />
    </linearGradient>
    <linearGradient
       id="linearGradient4107">
      <stop
         id="stop4109"
         offset="0"
         style="stop-color:#ffffff;stop-opacity:0.53435117;" />
      <stop
         id="stop4113"
         offset="1"
         style="stop-color:#ffffff;stop-opacity:0;" />
    </linearGradient>
    <linearGradient
       id="linearGradient4000">
      <stop
         style="stop-color:#99cc33;stop-opacity:1"
         offset="0"
         id="stop4002" />
      <stop
         style="stop-color:#669900;stop-opacity:1"
         offset="1"
         id="stop4004" />
    </linearGradient>
    <linearGradient
       id="linearGradient3939">
      <stop
         style="stop-color:#000000;stop-opacity:1;"
         offset="0"
         id="stop3941" />
      <stop
         id="stop3947"
         offset="0.5"
         style="stop-color:#000000;stop-opacity:1;" />
      <stop
         style="stop-color:#cccccc;stop-opacity:1;"
         offset="1"
         id="stop3943" />
    </linearGradient>
    <linearGradient
       inkscape:collect="always"
       xlink:href="#linearGradient3939"
       id="linearGradient3945"
       x1="24"
       y1="4"
       x2="24"
       y2="24"
       gradientUnits="userSpaceOnUse" />
    <linearGradient
       inkscape:collect="always"
       xlink:href="#linearGradient3939"
       id="linearGradient3974"
       gradientUnits="userSpaceOnUse"
       x1="24"
       y1="4"
       x2="24"
       y2="24"
       gradientTransform="matrix(0.96592582,-0.25881905,0.25881905,0.96592582,-5.3938799,1011.3916)" />
    <linearGradient
       inkscape:collect="always"
       xlink:href="#linearGradient3939"
       id="linearGradient3978"
       gradientUnits="userSpaceOnUse"
       gradientTransform="matrix(0,-1,1,0,0,1052.3622)"
       x1="24"
       y1="4"
       x2="24"
       y2="24" />
    <linearGradient
       inkscape:collect="always"
       xlink:href="#linearGradient3939"
       id="linearGradient3982"
       gradientUnits="userSpaceOnUse"
       gradientTransform="matrix(-0.70710678,-0.70710678,0.70710678,-0.70710678,24,1062.3033)"
       x1="24"
       y1="4"
       x2="24"
       y2="24" />
    <linearGradient
       inkscape:collect="always"
       xlink:href="#linearGradient3939"
       id="linearGradient3986"
       gradientUnits="userSpaceOnUse"
       gradientTransform="matrix(-1,0,0,-1,47.999982,1052.3622)"
       x1="24"
       y1="4"
       x2="24"
       y2="24" />
    <linearGradient
       inkscape:collect="always"
       xlink:href="#linearGradient3939"
       id="linearGradient3990"
       gradientUnits="userSpaceOnUse"
       gradientTransform="matrix(-0.70710678,0.70710678,-0.70710678,-0.70710678,57.941111,1028.3622)"
       x1="24"
       y1="4"
       x2="24"
       y2="24" />
    <linearGradient
       inkscape:collect="always"
       xlink:href="#linearGradient3939"
       id="linearGradient3994"
       gradientUnits="userSpaceOnUse"
       gradientTransform="matrix(0,1,-1,0,47.999988,1004.3622)"
       x1="24"
       y1="4"
       x2="24"
       y2="24" />
    <linearGradient
       inkscape:collect="always"
       xlink:href="#linearGradient3939"
       id="linearGradient3998"
       gradientUnits="userSpaceOnUse"
       gradientTransform="matrix(0.70710678,0.70710678,-0.70710678,0.70710678,23.99999,994.42108)"
       x1="24"
       y1="4"
       x2="24"
       y2="24" />
    <linearGradient
       inkscape:collect="always"
       xlink:href="#linearGradient4000"
       id="linearGradient4006"
       x1="8"
       y1="24"
       x2="40"
       y2="24"
       gradientUnits="userSpaceOnUse" />
    <linearGradient
       inkscape:collect="always"
       xlink:href="#linearGradient3939"
       id="linearGradient4032"
       gradientUnits="userSpaceOnUse"
       gradientTransform="matrix(0.70710678,-0.70710678,0.70710678,0.70710678,-9.9411255,24)"
       x1="24"
       y1="4"
       x2="24"
       y2="24" />
    <linearGradient
       inkscape:collect="always"
       xlink:href="#linearGradient3939"
       id="linearGradient4055"
       gradientUnits="userSpaceOnUse"
       gradientTransform="matrix(0.25881905,0.96592582,-0.96592582,0.25881905,40.970552,998.96832)"
       x1="24"
       y1="4"
       x2="24"
       y2="24" />
    <linearGradient
       inkscape:collect="always"
       xlink:href="#linearGradient3939"
       id="linearGradient4057"
       gradientUnits="userSpaceOnUse"
       gradientTransform="matrix(-0.50000001,0.86602541,-0.86602541,-0.50000001,56.784607,1019.5776)"
       x1="24"
       y1="4"
       x2="24"
       y2="24" />
    <linearGradient
       inkscape:collect="always"
       xlink:href="#linearGradient3939"
       id="linearGradient4059"
       gradientUnits="userSpaceOnUse"
       gradientTransform="matrix(-0.96592582,0.25881905,-0.25881905,-0.96592582,53.393866,1045.3328)"
       x1="24"
       y1="4"
       x2="24"
       y2="24" />
    <linearGradient
       inkscape:collect="always"
       xlink:href="#linearGradient3939"
       id="linearGradient4061"
       gradientUnits="userSpaceOnUse"
       gradientTransform="matrix(-0.86602541,-0.50000001,0.50000001,-0.86602541,32.784586,1061.1468)"
       x1="24"
       y1="4"
       x2="24"
       y2="24" />
    <linearGradient
       inkscape:collect="always"
       xlink:href="#linearGradient3939"
       id="linearGradient4063"
       gradientUnits="userSpaceOnUse"
       gradientTransform="matrix(-0.25881905,-0.96592582,0.96592582,-0.25881905,7.0294458,1057.7561)"
       x1="24"
       y1="4"
       x2="24"
       y2="24" />
    <linearGradient
       inkscape:collect="always"
       xlink:href="#linearGradient3939"
       id="linearGradient4065"
       gradientUnits="userSpaceOnUse"
       gradientTransform="matrix(0.50000001,-0.86602541,0.86602541,0.50000001,-8.7846198,1037.1468)"
       x1="24"
       y1="4"
       x2="24"
       y2="24" />
    <linearGradient
       inkscape:collect="always"
       xlink:href="#linearGradient3939"
       id="linearGradient4067"
       gradientUnits="userSpaceOnUse"
       x1="24"
       y1="4"
       x2="24"
       y2="24"
       gradientTransform="matrix(0.86602541,0.50000001,-0.50000001,0.86602541,15.215391,995.57759)" />
    <linearGradient
       inkscape:collect="always"
       xlink:href="#linearGradient3939"
       id="linearGradient4081"
       gradientUnits="userSpaceOnUse"
       gradientTransform="matrix(0.86602541,0.50000001,-0.50000001,0.86602541,15.215391,995.57759)"
       x1="24"
       y1="4"
       x2="24"
       y2="24" />
    <linearGradient
       inkscape:collect="always"
       xlink:href="#linearGradient3939"
       id="linearGradient4083"
       gradientUnits="userSpaceOnUse"
       gradientTransform="matrix(0.96592582,-0.25881905,0.25881905,0.96592582,-5.3938799,1011.3916)"
       x1="24"
       y1="4"
       x2="24"
       y2="24" />
    <linearGradient
       inkscape:collect="always"
       xlink:href="#linearGradient3939"
       id="linearGradient4085"
       gradientUnits="userSpaceOnUse"
       gradientTransform="matrix(0.50000001,-0.86602541,0.86602541,0.50000001,-8.7846198,1037.1468)"
       x1="24"
       y1="4"
       x2="24"
       y2="24" />
    <linearGradient
       inkscape:collect="always"
       xlink:href="#linearGradient3939"
       id="linearGradient4087"
       gradientUnits="userSpaceOnUse"
       gradientTransform="matrix(-0.25881905,-0.96592582,0.96592582,-0.25881905,7.0294458,1057.7561)"
       x1="24"
       y1="4"
       x2="24"
       y2="24" />
    <linearGradient
       inkscape:collect="always"
       xlink:href="#linearGradient3939"
       id="linearGradient4089"
       gradientUnits="userSpaceOnUse"
       gradientTransform="matrix(-0.86602541,-0.50000001,0.50000001,-0.86602541,32.784586,1061.1468)"
       x1="24"
       y1="4"
       x2="24"
       y2="24" />
    <linearGradient
       inkscape:collect="always"
       xlink:href="#linearGradient3939"
       id="linearGradient4091"
       gradientUnits="userSpaceOnUse"
       gradientTransform="matrix(-0.96592582,0.25881905,-0.25881905,-0.96592582,53.393866,1045.3328)"
       x1="24"
       y1="4"
       x2="24"
       y2="24" />
    <linearGradient
       inkscape:collect="always"
       xlink:href="#linearGradient3939"
       id="linearGradient4093"
       gradientUnits="userSpaceOnUse"
       gradientTransform="matrix(-0.50000001,0.86602541,-0.86602541,-0.50000001,56.784607,1019.5776)"
       x1="24"
       y1="4"
       x2="24"
       y2="24" />
    <linearGradient
       inkscape:collect="always"
       xlink:href="#linearGradient3939"
       id="linearGradient4095"
       gradientUnits="userSpaceOnUse"
       gradientTransform="matrix(0.25881905,0.96592582,-0.96592582,0.25881905,40.970552,998.96832)"
       x1="24"
       y1="4"
       x2="24"
       y2="24" />
    <linearGradient
       inkscape:collect="always"
       xlink:href="#linearGradient4107"
       id="linearGradient4105"
       x1="8"
       y1="24"
       x2="40"
       y2="24"
       gradientUnits="userSpaceOnUse"
       gradientTransform="matrix(0,1,-1,0,48,0)" />
    <linearGradient
       inkscape:collect="always"
       xlink:href="#linearGradient4107"
       id="linearGradient4117"
       gradientUnits="userSpaceOnUse"
       x1="8"
       y1="24"
       x2="40"
       y2="24" />
    <linearGradient
       inkscape:collect="always"
       xlink:href="#linearGradient3939"
       id="linearGradient4304"
       gradientUnits="userSpaceOnUse"
       gradientTransform="matrix(0.25881905,0.96592582,-0.96592582,0.25881905,40.970552,998.96832)"
       x1="24"
       y1="4"
       x2="24"
       y2="24" />
    <linearGradient
       inkscape:collect="always"
       xlink:href="#linearGradient3939"
       id="linearGradient4307"
       gradientUnits="userSpaceOnUse"
       gradientTransform="matrix(-0.50000001,0.86602541,-0.86602541,-0.50000001,56.784607,1019.5776)"
       x1="24"
       y1="4"
       x2="24"
       y2="24" />
    <linearGradient
       inkscape:collect="always"
       xlink:href="#linearGradient3939"
       id="linearGradient4310"
       gradientUnits="userSpaceOnUse"
       gradientTransform="matrix(-0.96592582,0.25881905,-0.25881905,-0.96592582,53.393866,1045.3328)"
       x1="24"
       y1="4"
       x2="24"
       y2="24" />
    <linearGradient
       inkscape:collect="always"
       xlink:href="#linearGradient3939"
       id="linearGradient4313"
       gradientUnits="userSpaceOnUse"
       gradientTransform="matrix(-0.86602541,-0.50000001,0.50000001,-0.86602541,32.784586,1061.1468)"
       x1="24"
       y1="4"
       x2="24"
       y2="24" />
    <linearGradient
       inkscape:collect="always"
       xlink:href="#linearGradient3939"
       id="linearGradient4316"
       gradientUnits="userSpaceOnUse"
       gradientTransform="matrix(-0.25881905,-0.96592582,0.96592582,-0.25881905,7.0294458,1057.7561)"
       x1="24"
       y1="4"
       x2="24"
       y2="24" />
    <linearGradient
       inkscape:collect="always"
       xlink:href="#linearGradient3939"
       id="linearGradient4319"
       gradientUnits="userSpaceOnUse"
       gradientTransform="matrix(0.50000001,-0.86602541,0.86602541,0.50000001,-8.7846198,1037.1468)"
       x1="24"
       y1="4"
       x2="24"
       y2="24" />
    <linearGradient
       inkscape:collect="always"
       xlink:href="#linearGradient3939"
       id="linearGradient4322"
       gradientUnits="userSpaceOnUse"
       gradientTransform="matrix(0.96592582,-0.25881905,0.25881905,0.96592582,-5.3938799,1011.3916)"
       x1="24"
       y1="4"
       x2="24"
       y2="24" />
    <linearGradient
       inkscape:collect="always"
       xlink:href="#linearGradient3939"
       id="linearGradient4325"
       gradientUnits="userSpaceOnUse"
       gradientTransform="matrix(0.86602541,0.50000001,-0.50000001,0.86602541,15.215391,995.57759)"
       x1="24"
       y1="4"
       x2="24"
       y2="24" />
    <radialGradient
       inkscape:collect="always"
       xlink:href="#linearGradient4506"
       id="radialGradient4514"
       cx="13.5"
       cy="24"
       fx="13.5"
       fy="24"
       r="16"
       gradientUnits="userSpaceOnUse" />
    <linearGradient
       inkscape:collect="always"
       xlink:href="#linearGradient4000"
       id="linearGradient4671"
       gradientUnits="userSpaceOnUse"
       x1="8"
       y1="24"
       x2="40"
       y2="24" />
    <radialGradient
       inkscape:collect="always"
       xlink:href="#linearGradient3833"
       id="radialGradient4674"
       gradientUnits="userSpaceOnUse"
       cx="13.5"
       cy="24"
       fx="13.5"
       fy="24"
       r="16" />
    <filter
       id="filter4802"
       inkscape:label="Drop shadow"
       width="1.5"
       height="1.5"
       x="-.25"
       y="-.25">
      <feGaussianBlur
         id="feGaussianBlur4804"
         in="SourceAlpha"
         stdDeviation="1"
         result="blur" />
      <feColorMatrix
         id="feColorMatrix4806"
         result="bluralpha"
         type="matrix"
         values="1 0 0 0 0 0 1 0 0 0 0 0 1 0 0 0 0 0 1 0 " />
      <feOffset
         id="feOffset4808"
         in="bluralpha"
         dx="0"
         dy="1"
         result="offsetBlur" />
      <feMerge
         id="feMerge4810">
        <feMergeNode
           id="feMergeNode4812"
           in="offsetBlur" />
        <feMergeNode
           id="feMergeNode4814"
           in="SourceGraphic" />
      </feMerge>
    </filter>
    <linearGradient
       inkscape:collect="always"
       xlink:href="#linearGradient3830"
       id="linearGradient3840"
       x1="23.958588"
       y1="8.9539347"
       x2="23.958588"
       y2="39.094296"
       gradientUnits="userSpaceOnUse" />
    <linearGradient
       inkscape:collect="always"
       xlink:href="#linearGradient3846"
       id="linearGradient3852"
       x1="24"
       y1="4"
       x2="24"
       y2="44"
       gradientUnits="userSpaceOnUse" />
    <linearGradient
       inkscape:collect="always"
       xlink:href="#linearGradient3846"
       id="linearGradient3870"
       gradientUnits="userSpaceOnUse"
       x1="24"
       y1="4"
       x2="24"
       y2="44"
       gradientTransform="matrix(1.05,0,0,1.05,-1.1999994,-1.2249986)" />
    <filter
       inkscape:collect="always"
       id="filter3876">
      <feGaussianBlur
         inkscape:collect="always"
         stdDeviation="0.87385092"
         id="feGaussianBlur3878" />
    </filter>
  </defs>
  <sodipodi:namedview
     id="base"
     pagecolor="#000000"
     bordercolor="#666666"
     borderopacity="1.0"
     inkscape:pageopacity="0"
     inkscape:pageshadow="2"
     inkscape:zoom="17.291667"
     inkscape:cx="24"
     inkscape:cy="24"
     inkscape:document-units="px"
     inkscape:current-layer="layer3"
     showgrid="false"
     inkscape:showpageshadow="false"
     borderlayer="true"
     showguides="false"
     inkscape:guide-bbox="true"
     inkscape:window-width="1916"
     inkscape:window-height="1036"
     inkscape:window-x="0"
     inkscape:window-y="0"
     inkscape:window-maximized="1">
    <sodipodi:guide
       orientation="1,0"
       position="24,24"
       id="guide2985" />
    <sodipodi:guide
       id="guide2987"
       position="4,4"
       orientation="1,0" />
    <sodipodi:guide
       orientation="1,0"
       position="44,44"
       id="guide2989" />
    <sodipodi:guide
       orientation="0,1"
       position="44,44"
       id="guide2991" />
    <sodipodi:guide
       orientation="0,1"
       position="4,4"
       id="guide2993" />
  </sodipodi:namedview>
  <metadata
     id="metadata7">
    <rdf:RDF>
      <cc:Work
         rdf:about="">
        <dc:format>image/svg+xml</dc:format>
        <dc:type
           rdf:resource="http://purl.org/dc/dcmitype/StillImage" />
        <dc:title></dc:title>
      </cc:Work>
    </rdf:RDF>
  </metadata>
  <g
     inkscape:groupmode="layer"
     id="layer2"
     inkscape:label="Wheel"
     style="display:inline">
    <path
       style="opacity:0.75000000000000000;fill:#000000;fill-opacity:1;fill-rule:nonzero;stroke:none;filter:url(#filter3876)"
       d="M 18.305981,3.2496318 C 17.16256,3.5560107 16.082709,3.9801501 15.036307,4.4492622 l 0.287573,3.1258306 c -0.06752,0.034479 -0.128141,0.081757 -0.19512,0.1169871 -0.04802,0.022629 -0.09612,0.045536 -0.142838,0.070626 -0.103878,0.057298 -0.203914,0.1212276 -0.307773,0.1795246 -0.124175,0.069704 -0.237172,0.1550687 -0.360055,0.225886 -0.05409,0.03257 -0.119237,0.045896 -0.173023,0.078714 -0.02939,0.014614 -0.05465,0.03741 -0.08247,0.054449 -0.08335,0.051049 -0.164781,0.1109664 -0.247402,0.1633484 -0.0193,0.012242 -0.03303,0.034021 -0.05228,0.046361 -0.05577,0.029847 -0.120327,0.044269 -0.173023,0.078714 -0.01929,0.012778 -0.03292,0.033361 -0.05228,0.046361 -0.08323,0.055406 -0.166774,0.1060841 -0.247402,0.1633484 -0.146834,0.100562 -0.290664,0.2053878 -0.434435,0.3105206 -0.10751,0.081176 -0.213688,0.1664604 -0.321781,0.2479831 -0.06039,0.045545 -0.134956,0.070161 -0.19512,0.116987 -0.01841,0.014291 -0.03392,0.032 -0.05228,0.046361 -0.09091,0.07129 -0.171312,0.157449 -0.261411,0.231807 -0.230816,0.19049 -0.468348,0.376026 -0.687758,0.572512 -0.07945,0.07107 -0.153066,0.150549 -0.231226,0.223719 -0.166641,0.156003 -0.321385,0.325258 -0.484549,0.485711 -0.06642,0.06532 -0.144009,0.118647 -0.209129,0.185445 -0.08505,0.08642 -0.169932,0.173277 -0.253323,0.261992 -0.04215,0.04372 -0.08556,0.08635 -0.126662,0.130996 -0.041184,0.04478 -0.085855,0.08576 -0.1266617,0.130996 L 6.9615788,10.656927 c -0.7239562,0.889331 -1.4297924,1.81356 -2.0216709,2.838724 -0.5918785,1.025163 -1.039366,2.09855 -1.4475717,3.17018 l 2.4139644,2.006076 c -0.059089,0.182426 -0.090915,0.371887 -0.1422572,0.555755 -0.00383,0.01372 -0.018155,0.0246 -0.022097,0.03827 -0.00251,0.0086 0.010574,0.0215 0.00809,0.03018 -0.00397,0.01367 -0.018128,0.0246 -0.022097,0.03827 -0.025538,0.0705 -0.05251,0.1408 -0.072212,0.213464 -0.00604,0.02228 -0.00805,0.04615 -0.014009,0.06846 -0.00973,0.03635 -0.026604,0.07035 -0.036106,0.106732 -0.017671,0.06742 -0.025138,0.137344 -0.042027,0.205375 -0.01363,0.05399 -0.0095,0.112204 -0.01993,0.167102 -0.018285,0.07278 -0.055559,0.140109 -0.072212,0.213464 -0.00201,0.0091 0.010203,0.02108 0.00809,0.03018 -0.015394,0.0685 -0.027207,0.136852 -0.042027,0.205375 -0.032529,0.117215 -0.077206,0.231533 -0.1002301,0.350381 -0.00442,0.02294 -0.00993,0.04552 -0.014009,0.06846 -0.013315,0.06856 -0.029762,0.136995 -0.042027,0.205375 -0.00166,0.0091 0.00973,0.021 0.00809,0.03019 -0.00169,0.0096 0.00977,0.02061 0.00809,0.03018 -0.013538,0.09186 -0.041329,0.181303 -0.056036,0.273834 -0.00737,0.04606 -0.021531,0.09086 -0.028018,0.136917 -0.012065,0.07813 -0.023163,0.157284 -0.033939,0.23556 -0.012127,0.08761 -0.014972,0.178073 -0.025851,0.265746 -0.0038,0.03263 -0.00201,0.06599 -0.00592,0.09864 -0.0055,0.04523 -0.022738,0.09156 -0.028018,0.136916 -0.022601,0.133393 -0.041481,0.267151 -0.053869,0.402663 -0.00393,0.04304 0.0012,0.08579 0.00217,0.128829 -0.00514,0.05525 -0.01525,0.111748 -0.01993,0.167102 -2.041e-4,0.02003 0.017621,0.04042 0.016176,0.06037 -0.00107,0.01324 -0.02105,0.02503 -0.022097,0.03827 -0.00616,0.08883 -0.020955,0.176918 -0.025851,0.265745 -0.00652,0.117978 2.629e-4,0.237587 -0.00159,0.356302 -0.00269,0.06673 -0.010101,0.130565 -0.011842,0.197287 -0.00508,0.06545 -0.01083,0.130342 -0.011842,0.197287 -9.843e-4,0.06512 -0.011534,0.132074 -0.011842,0.197288 -7.493e-4,0.128577 0.00464,0.258057 0.0065,0.386486 0.00351,0.22371 0.00736,0.449765 0.018924,0.674329 l -2.8508354,1.31387 c 0.116938,1.140767 0.2895479,2.288015 0.5959267,3.431436 0.3063789,1.143421 0.7305183,2.223272 1.1996304,3.269674 L 7.0750928,33.17612 c 0.034479,0.06752 0.081757,0.128141 0.1169871,0.19512 0.00472,0.009 0.00333,0.02125 0.00809,0.03019 0.019424,0.03814 0.042272,0.07491 0.062538,0.112653 0.057298,0.103878 0.1212276,0.203914 0.1795246,0.307773 0.070513,0.122942 0.1545861,0.237697 0.225886,0.360055 0.048299,0.08288 0.083127,0.173893 0.1331632,0.25549 0.03449,0.05629 0.07377,0.109163 0.1088989,0.164935 0.018527,0.02739 0.036989,0.05493 0.05445,0.08247 0.042294,0.07485 0.078222,0.153626 0.1250751,0.225306 0.012593,0.01922 0.03372,0.0331 0.046361,0.05228 0.2139668,0.32468 0.4408105,0.639021 0.6754907,0.951336 0.013776,0.01834 0.032537,0.03402 0.046361,0.05228 0.04099,0.06352 0.070095,0.134872 0.116987,0.19512 0.014291,0.01841 0.032,0.03392 0.046361,0.05228 0.072054,0.09116 0.1585355,0.171197 0.2318068,0.261411 0.1904905,0.230816 0.3760261,0.468348 0.5725127,0.687758 0.061646,0.06891 0.12064,0.14261 0.1854461,0.209129 0.0094,0.01018 0.02888,0.01194 0.03827,0.0221 0.124454,0.134656 0.263209,0.252407 0.392988,0.379985 0.03333,0.03265 0.05965,0.07168 0.09272,0.104564 0.06618,0.0658 0.118647,0.144009 0.185445,0.209129 0.03722,0.03582 0.08571,0.06056 0.122908,0.09648 0.05032,0.04838 0.08931,0.108369 0.139084,0.156846 0.04372,0.04215 0.08635,0.08556 0.130996,0.126662 0.04478,0.04119 0.08576,0.08586 0.130996,0.126662 l -1.087516,2.944294 c 0.889331,0.723956 1.81356,1.429792 2.838724,2.021671 1.025163,0.591878 2.09855,1.039366 3.17018,1.447572 l 2.006076,-2.413965 c 0.182426,0.05909 0.371887,0.09092 0.555755,0.142258 0.01371,0.0038 0.0246,0.01815 0.03827,0.0221 0.04483,0.01287 0.09217,0.01545 0.136917,0.02802 0.04897,0.01778 0.09515,0.04391 0.145005,0.0582 0.02228,0.006 0.04615,0.008 0.06846,0.01401 0.03634,0.0097 0.07035,0.02661 0.106732,0.03611 0.06742,0.01767 0.137344,0.02514 0.205375,0.04203 0.104376,0.026 0.207886,0.05229 0.312107,0.07813 0.02268,0.0053 0.04572,0.0088 0.06846,0.01401 0.02282,0.0052 0.04567,0.0089 0.06846,0.01401 0.172167,0.04174 0.344129,0.08658 0.517483,0.12016 0.02295,0.0044 0.04552,0.0099 0.06846,0.01401 0.06817,0.01452 0.136992,0.02976 0.205375,0.04203 0.110574,0.01664 0.222747,0.02214 0.334205,0.03986 0.04606,0.0074 0.09086,0.02153 0.136917,0.02802 0.07866,0.01217 0.156206,0.02289 0.23556,0.03394 0.08761,0.01213 0.178073,0.01497 0.265746,0.02585 0.03263,0.0038 0.06599,0.002 0.09864,0.0059 0.0326,0.0043 0.06606,0.0015 0.09864,0.0059 0.03239,0.004 0.06608,0.0018 0.09864,0.0059 0.114513,0.02054 0.227991,0.05871 0.342292,0.07005 0.09917,0.0091 0.197605,0.01034 0.295931,0.01776 0.03325,0.0028 0.06562,0.0034 0.09864,0.0059 0.08883,0.0062 0.176917,0.02095 0.265745,0.02585 0.127939,0.0071 0.257703,-0.0082 0.386487,-0.0065 0.05668,0.0022 0.110423,0.01845 0.167102,0.01993 0.06546,0.0017 0.131846,0.01074 0.197287,0.01184 0.06513,9.89e-4 0.132073,0.01153 0.197288,0.01184 0.128576,7.48e-4 0.258056,-0.0046 0.386486,-0.0065 0.22371,-0.0035 0.449765,-0.0074 0.674329,-0.01892 l 1.31387,2.850835 c 1.140767,-0.116938 2.288015,-0.289548 3.431436,-0.595927 1.143421,-0.306379 2.223272,-0.730518 3.269674,-1.19963 L 32.67612,41.424907 c 0.06752,-0.03448 0.12814,-0.08176 0.19512,-0.116987 0.04704,-0.02475 0.09642,-0.04502 0.142838,-0.07063 0.104027,-0.05602 0.20466,-0.120381 0.307773,-0.179524 0.124175,-0.0697 0.237172,-0.155069 0.360055,-0.225886 0.03692,-0.02127 0.07304,-0.04592 0.112652,-0.06254 0.01719,-0.0104 0.04323,-0.0057 0.06037,-0.01618 0.02939,-0.0146 0.05465,-0.03741 0.08247,-0.05445 0.08335,-0.05105 0.16478,-0.11097 0.247402,-0.163349 0.01924,-0.01199 0.03221,-0.03562 0.05228,-0.04636 0.07175,-0.046 0.153125,-0.07662 0.225305,-0.125075 0.08247,-0.05435 0.165899,-0.107532 0.247402,-0.163349 0.145375,-0.103254 0.293067,-0.203781 0.434435,-0.31052 0.107655,-0.07896 0.21593,-0.16786 0.321781,-0.247983 0.06039,-0.04554 0.134956,-0.07016 0.19512,-0.116987 0.01842,-0.01425 0.03392,-0.032 0.05228,-0.04636 0.09091,-0.0713 0.171312,-0.157449 0.261411,-0.231807 0.230816,-0.19049 0.468348,-0.376026 0.687758,-0.572512 0.07945,-0.07108 0.153066,-0.15055 0.231226,-0.223719 0.166641,-0.156004 0.321385,-0.325257 0.484549,-0.485711 0.06642,-0.06532 0.14401,-0.118645 0.209129,-0.185445 0.08505,-0.08642 0.169932,-0.173277 0.253323,-0.261992 0.04215,-0.04372 0.08556,-0.08635 0.126662,-0.130996 0.04119,-0.04478 0.08585,-0.08576 0.126662,-0.130996 l 2.944294,1.087516 c 0.723956,-0.889332 1.429792,-1.81356 2.021671,-2.838724 0.591879,-1.025164 1.039366,-2.09855 1.447572,-3.17018 l -2.413965,-2.006076 c 0.05909,-0.182426 0.09092,-0.371887 0.142258,-0.555755 0.004,-0.01368 0.01813,-0.0246 0.0221,-0.03827 0.0025,-0.0087 -0.01053,-0.02151 -0.0081,-0.03018 0.004,-0.01397 0.01715,-0.02463 0.0221,-0.03827 0.0209,-0.07197 0.05157,-0.141444 0.07221,-0.213464 0.006,-0.02228 0.008,-0.04615 0.01401,-0.06846 0.0097,-0.03634 0.02661,-0.07035 0.03611,-0.106732 0.01767,-0.06742 0.02514,-0.137344 0.04203,-0.205375 0.03408,-0.13498 0.05227,-0.274138 0.08405,-0.410751 0.01658,-0.06783 0.02333,-0.138003 0.04203,-0.205375 0.03253,-0.117216 0.0772,-0.231533 0.10023,-0.350381 0.0044,-0.02295 0.0099,-0.04552 0.01401,-0.06846 0.01332,-0.06856 0.02977,-0.136996 0.04203,-0.205375 0.0017,-0.0092 -0.0098,-0.02099 -0.0081,-0.03019 0.0017,-0.0096 -0.0098,-0.02061 -0.0081,-0.03018 0.01354,-0.09186 0.04132,-0.181302 0.05604,-0.273834 0.01996,-0.12471 0.04692,-0.247742 0.06196,-0.372477 0.01213,-0.08761 0.01497,-0.178073 0.02585,-0.265746 0.0038,-0.03263 0.002,-0.06599 0.0059,-0.09864 0.0066,-0.0461 0.02026,-0.09109 0.02802,-0.136916 0.0154,-0.132339 0.04066,-0.269497 0.05387,-0.402663 0.009,-0.09891 0.01678,-0.197611 0.01776,-0.295931 0.0017,-0.02002 -0.01785,-0.04033 -0.01618,-0.06037 0.0011,-0.01345 0.02116,-0.02483 0.0221,-0.03827 0.0062,-0.08883 0.02095,-0.176917 0.02585,-0.265745 0.0065,-0.117977 -2.61e-4,-0.237587 0.0016,-0.356302 0.0024,-0.06582 0.0068,-0.131834 0.01184,-0.197287 0.0017,-0.06546 0.01074,-0.131846 0.01184,-0.197287 9.89e-4,-0.06513 0.01153,-0.132073 0.01184,-0.197288 7.48e-4,-0.128576 -0.0046,-0.258056 -0.0065,-0.386486 -0.0035,-0.22371 -0.0074,-0.449765 -0.01892,-0.674329 l 2.850835,-1.31387 c -0.116911,-1.140776 -0.289521,-2.288024 -0.5959,-3.431445 -0.306379,-1.143421 -0.730518,-2.223272 -1.19963,-3.269674 l -3.125831,0.287573 c -0.03448,-0.06752 -0.08176,-0.12814 -0.116987,-0.19512 -0.0047,-0.009 -0.0033,-0.02126 -0.0081,-0.03018 -0.01943,-0.03814 -0.04227,-0.07491 -0.06254,-0.112653 -0.0573,-0.103878 -0.121227,-0.203914 -0.179524,-0.307773 -0.07051,-0.122942 -0.154588,-0.237697 -0.225886,-0.360055 -0.04879,-0.08244 -0.08322,-0.173947 -0.133163,-0.25549 -0.05105,-0.08335 -0.11097,-0.16478 -0.163349,-0.247402 -0.04229,-0.07485 -0.07823,-0.153624 -0.125075,-0.225306 -0.0126,-0.01921 -0.03372,-0.0331 -0.04636,-0.05228 -0.213966,-0.324681 -0.44081,-0.639021 -0.675491,-0.951336 -0.01374,-0.01844 -0.03388,-0.03295 -0.04636,-0.05228 -0.04099,-0.06352 -0.0701,-0.134872 -0.116987,-0.19512 -0.01425,-0.01842 -0.032,-0.03392 -0.04636,-0.05228 -0.07206,-0.09116 -0.158535,-0.171197 -0.231807,-0.261411 -0.19049,-0.230816 -0.376026,-0.468348 -0.572512,-0.687758 -0.06165,-0.06891 -0.120641,-0.14261 -0.185446,-0.209129 -0.136807,-0.140429 -0.290543,-0.264239 -0.431261,-0.402082 -0.03312,-0.03256 -0.05943,-0.07223 -0.09272,-0.104564 -0.06618,-0.0658 -0.118645,-0.14401 -0.185445,-0.209129 -0.0371,-0.03619 -0.08595,-0.06013 -0.122908,-0.09648 -0.05032,-0.04838 -0.08931,-0.10837 -0.139084,-0.156846 -0.04427,-0.04163 -0.08611,-0.08603 -0.130996,-0.126662 -0.04478,-0.04119 -0.08576,-0.08585 -0.130996,-0.126662 L 37.843073,7.4615788 C 36.953741,6.7376227 36.029513,6.0317867 35.004349,5.4399079 33.979185,4.8480301 32.905799,4.4005421 31.834169,3.9923362 l -2.006076,2.4139644 c -0.182426,-0.059088 -0.371887,-0.090914 -0.555755,-0.1422572 -0.01385,-0.00402 -0.02454,-0.01766 -0.03827,-0.022097 -0.09469,-0.027185 -0.187354,-0.060424 -0.281922,-0.086221 -0.02228,-0.00604 -0.04615,-0.00805 -0.06846,-0.014009 -0.03613,-0.00971 -0.0705,-0.02661 -0.106732,-0.036106 -0.06688,-0.01745 -0.137237,-0.026537 -0.205375,-0.042027 -0.104376,-0.026002 -0.207886,-0.052287 -0.312107,-0.078133 -0.02272,-0.0054 -0.04561,-0.00967 -0.06846,-0.014009 -0.02282,-0.00518 -0.04567,-0.0089 -0.06846,-0.014009 -0.173262,-0.039925 -0.34479,-0.081988 -0.517483,-0.12016 -0.110548,-0.021294 -0.223546,-0.023554 -0.334204,-0.03986 -0.09137,-0.016109 -0.18194,-0.042354 -0.273834,-0.056036 -0.04606,-0.00737 -0.09086,-0.021528 -0.136917,-0.028018 -0.07866,-0.012176 -0.156206,-0.022891 -0.23556,-0.033939 -0.08761,-0.012127 -0.178073,-0.014972 -0.265746,-0.025851 -0.03261,-0.0042 -0.06604,-0.00165 -0.09864,-0.00592 -0.03215,-0.00391 -0.06626,-0.0019 -0.09864,-0.00592 -0.03192,-0.00377 -0.06644,-1.423e-4 -0.09864,-0.00592 -0.114514,-0.020546 -0.227991,-0.05871 -0.342292,-0.070045 -0.09917,-0.00907 -0.197606,-0.010341 -0.295931,-0.017763 -0.03325,-0.00281 -0.06562,-0.00345 -0.09864,-0.00592 -0.08883,-0.00616 -0.176917,-0.020954 -0.265745,-0.025851 -0.06542,-0.00344 -0.131809,-0.00923 -0.197288,-0.011842 -0.06327,0.00269 -0.126069,0.01918 -0.189199,0.018343 -0.05668,-0.00216 -0.110423,-0.018449 -0.167102,-0.01993 -0.06546,-0.00171 -0.131846,-0.010742 -0.197287,-0.011842 -0.06512,-9.843e-4 -0.132074,-0.011534 -0.197288,-0.011842 -0.128577,-7.489e-4 -0.258057,0.00464 -0.386486,0.0065 -0.223709,0.00351 -0.449765,0.00736 -0.674329,0.018924 L 21.737417,2.6537051 C 20.59665,2.7706431 19.449402,2.943253 18.305981,3.2496318 z"
       id="path4581"
       inkscape:connector-curvature="0"
       transform="matrix(1.05,0,0,1.05,-1.1999994,-1.2249986)" />
    <path
       style="fill:#cccccc;fill-opacity:1;fill-rule:nonzero;stroke:none"
       d="M 18.021281,1.6621148 C 16.820689,1.9838126 15.686845,2.429159 14.588123,2.9217267 l 0.301952,3.2821221 c -0.0709,0.036203 -0.134548,0.085845 -0.204876,0.1228365 -0.05042,0.02376 -0.100926,0.047813 -0.14998,0.074157 -0.109072,0.060163 -0.21411,0.127289 -0.323162,0.1885008 -0.130384,0.073189 -0.249031,0.1628222 -0.378058,0.2371803 -0.05679,0.034198 -0.125199,0.048191 -0.181674,0.08265 -0.03086,0.015345 -0.05738,0.03928 -0.08659,0.057171 -0.08752,0.053601 -0.17302,0.1165147 -0.259772,0.1715158 -0.02027,0.012854 -0.03468,0.035722 -0.05489,0.048679 -0.05856,0.031339 -0.126344,0.046482 -0.181675,0.08265 -0.02025,0.013417 -0.03457,0.035029 -0.05489,0.048679 -0.08739,0.058176 -0.175112,0.1113883 -0.259772,0.1715158 -0.154175,0.1055901 -0.305197,0.2156572 -0.456156,0.3260466 -0.112886,0.085235 -0.224373,0.1747835 -0.337871,0.2603823 -0.06341,0.047822 -0.141703,0.073669 -0.204876,0.1228363 -0.01933,0.015006 -0.03562,0.0336 -0.05489,0.048679 -0.09545,0.07486 -0.179877,0.1653213 -0.274481,0.2433971 -0.242357,0.2000151 -0.491765,0.3948274 -0.722146,0.6011384 -0.08342,0.074628 -0.160719,0.1580764 -0.242787,0.2349044 -0.174973,0.1638031 -0.337455,0.3415209 -0.5087767,0.5099965 -0.069741,0.068586 -0.1512095,0.1245794 -0.2195855,0.194717 -0.089303,0.09074 -0.1784286,0.181941 -0.2659891,0.275092 -0.044257,0.04591 -0.089838,0.09067 -0.1329951,0.137546 -0.043243,0.04702 -0.090148,0.09005 -0.1329948,0.137545 L 6.1096583,9.4397747 C 5.3495043,10.373572 4.6083763,11.344013 3.9869038,12.420435 3.3654314,13.496856 2.8955695,14.623912 2.4669536,15.749124 l 2.5346626,2.10638 c -0.062043,0.191547 -0.095461,0.390481 -0.1493701,0.583542 -0.00402,0.01441 -0.019063,0.02583 -0.023202,0.04018 -0.00264,0.009 0.011103,0.02257 0.00849,0.03169 -0.00417,0.01435 -0.019034,0.02583 -0.023202,0.04018 -0.026815,0.07402 -0.055135,0.14784 -0.075823,0.224138 -0.00634,0.02339 -0.00845,0.04846 -0.014709,0.07188 -0.010217,0.03817 -0.027934,0.07387 -0.037911,0.112068 -0.018555,0.07079 -0.026395,0.144211 -0.044128,0.215644 -0.014311,0.05669 -0.00997,0.117814 -0.020926,0.175457 -0.019199,0.07642 -0.058337,0.147115 -0.075823,0.224137 -0.00211,0.0096 0.010713,0.02213 0.00849,0.03169 -0.016164,0.07193 -0.028567,0.143695 -0.044128,0.215644 -0.034156,0.123076 -0.081066,0.24311 -0.1052416,0.3679 -0.00464,0.02409 -0.010427,0.0478 -0.01471,0.07188 -0.013981,0.07199 -0.03125,0.143845 -0.044128,0.215644 -0.00174,0.0096 0.010217,0.02205 0.00849,0.0317 -0.00177,0.01008 0.010258,0.02164 0.00849,0.03169 -0.014215,0.09645 -0.043395,0.190369 -0.058838,0.287526 -0.00774,0.04836 -0.022608,0.0954 -0.029419,0.143763 -0.012668,0.08204 -0.024321,0.165148 -0.035636,0.247338 -0.012733,0.09199 -0.015721,0.186977 -0.027144,0.279033 -0.00399,0.03426 -0.00211,0.06929 -0.00622,0.103572 -0.00578,0.04749 -0.023875,0.09614 -0.029419,0.143762 -0.023731,0.140063 -0.043555,0.280509 -0.056563,0.422796 -0.00413,0.04519 0.00126,0.09008 0.00228,0.135271 -0.0054,0.05801 -0.016012,0.117335 -0.020926,0.175457 -2.143e-4,0.02103 0.018502,0.04244 0.016985,0.06339 -0.00112,0.0139 -0.022103,0.02628 -0.023202,0.04018 -0.00647,0.09327 -0.022003,0.185764 -0.027144,0.279032 -0.00685,0.123877 2.761e-4,0.249466 -0.00167,0.374117 -0.00282,0.07007 -0.010606,0.137093 -0.012434,0.207151 -0.00533,0.06872 -0.011372,0.13686 -0.012434,0.207152 -0.00103,0.06838 -0.012111,0.138677 -0.012434,0.207152 -7.867e-4,0.135006 0.00487,0.27096 0.00682,0.40581 0.00369,0.234896 0.00773,0.472254 0.01987,0.708046 L 1.0613959,26.35069 c 0.1227849,1.197806 0.3040253,2.402416 0.6257231,3.603008 0.3216978,1.200592 0.7670442,2.334436 1.2596119,3.433158 L 6.228848,33.084927 c 0.036203,0.0709 0.085845,0.134548 0.1228364,0.204876 0.00496,0.0095 0.0035,0.02231 0.00849,0.0317 0.020395,0.04005 0.044386,0.07865 0.065665,0.118286 0.060163,0.109071 0.127289,0.214109 0.1885009,0.323161 0.074039,0.129089 0.1623154,0.249582 0.2371803,0.378058 0.050714,0.08702 0.087283,0.182588 0.1398213,0.268264 0.036214,0.0591 0.077458,0.114622 0.1143439,0.173182 0.019453,0.02876 0.038838,0.05768 0.057173,0.08659 0.044409,0.07859 0.082133,0.161307 0.1313288,0.236571 0.013223,0.02018 0.035406,0.03475 0.048679,0.05489 0.2246651,0.340914 0.462851,0.670972 0.7092652,0.998903 0.014465,0.01926 0.034164,0.03572 0.048679,0.05489 0.04304,0.0667 0.0736,0.141615 0.1228363,0.204876 0.015006,0.01933 0.0336,0.03562 0.048679,0.05489 0.075657,0.09572 0.1664622,0.179757 0.2433971,0.274481 0.200015,0.242357 0.3948274,0.491766 0.6011383,0.722146 0.064728,0.07236 0.126672,0.149741 0.1947185,0.219586 0.00987,0.01069 0.030324,0.01254 0.040183,0.0232 0.1306767,0.141388 0.2763694,0.265027 0.4126374,0.398984 0.034997,0.03428 0.062633,0.07526 0.097356,0.109792 0.069489,0.06909 0.1245793,0.15121 0.1947169,0.219586 0.03908,0.03761 0.09,0.06359 0.129054,0.101304 0.05284,0.0508 0.09377,0.113787 0.146038,0.164688 0.04591,0.04426 0.09067,0.08984 0.137546,0.132995 0.04702,0.04325 0.09005,0.09015 0.137546,0.132995 l -1.1418923,3.091509 c 0.9337973,0.760154 1.9042383,1.501281 2.9806603,2.122754 1.076421,0.621472 2.203477,1.091335 3.328689,1.519951 l 2.10638,-2.534663 c 0.191547,0.06204 0.390481,0.09547 0.583542,0.149371 0.0144,0.004 0.02583,0.01906 0.04018,0.02321 0.04707,0.01351 0.09678,0.01622 0.143763,0.02942 0.05142,0.01867 0.09991,0.0461 0.152255,0.06111 0.02339,0.0063 0.04846,0.0084 0.07188,0.01471 0.03816,0.01018 0.07387,0.02794 0.112069,0.03792 0.07079,0.01855 0.144211,0.0264 0.215643,0.04413 0.109595,0.0273 0.218281,0.0549 0.327713,0.08204 0.02381,0.0056 0.04801,0.0092 0.07188,0.01471 0.02396,0.0055 0.04795,0.0093 0.07188,0.01471 0.180775,0.04383 0.361335,0.09091 0.543357,0.126168 0.0241,0.0046 0.0478,0.01039 0.07188,0.01471 0.07158,0.01525 0.143842,0.03125 0.215644,0.04413 0.116102,0.01747 0.233884,0.02325 0.350915,0.04185 0.04836,0.0078 0.0954,0.02261 0.143763,0.02942 0.08259,0.01278 0.164016,0.02403 0.247338,0.03564 0.09199,0.01274 0.186976,0.01572 0.279033,0.02714 0.03426,0.004 0.06929,0.0021 0.103572,0.0062 0.03423,0.0045 0.06936,0.0016 0.103572,0.0062 0.03401,0.0042 0.06938,0.0019 0.103572,0.0062 0.120239,0.02157 0.239391,0.06165 0.359407,0.07355 0.104128,0.0096 0.207485,0.01086 0.310727,0.01865 0.03491,0.0029 0.0689,0.0036 0.103572,0.0062 0.09327,0.0065 0.185763,0.022 0.279032,0.02714 0.134336,0.0075 0.270589,-0.0086 0.405812,-0.0068 0.05951,0.0023 0.115944,0.01937 0.175457,0.02093 0.06873,0.0018 0.138438,0.01128 0.207151,0.01243 0.06839,0.001 0.138677,0.01211 0.207153,0.01243 0.135004,7.85e-4 0.270958,-0.0048 0.40581,-0.0068 0.234895,-0.0037 0.472253,-0.0078 0.708045,-0.01987 l 1.379564,2.993376 c 1.197805,-0.122785 2.402416,-0.304025 3.603008,-0.625723 1.200592,-0.321698 2.334435,-0.767044 3.433157,-1.259612 l -0.301934,-3.282063 c 0.0709,-0.0362 0.134547,-0.08585 0.204876,-0.122837 0.04939,-0.02599 0.101241,-0.04727 0.149979,-0.07416 0.109229,-0.05882 0.214893,-0.1264 0.323162,-0.1885 0.130384,-0.07319 0.249031,-0.162823 0.378058,-0.237181 0.03877,-0.02233 0.07669,-0.04822 0.118284,-0.06567 0.01805,-0.01092 0.04539,-0.006 0.06339,-0.01699 0.03086,-0.01533 0.05738,-0.03928 0.08659,-0.05717 0.08752,-0.0536 0.173019,-0.116519 0.259773,-0.171517 0.0202,-0.01259 0.03382,-0.0374 0.05489,-0.04868 0.07534,-0.0483 0.160781,-0.08045 0.23657,-0.131328 0.08659,-0.05707 0.174194,-0.112909 0.259772,-0.171517 0.152644,-0.108416 0.30772,-0.21397 0.456157,-0.326046 0.113037,-0.08291 0.226726,-0.176253 0.33787,-0.260382 0.06341,-0.04782 0.141704,-0.07367 0.204876,-0.122836 0.01934,-0.01496 0.03562,-0.0336 0.05489,-0.04868 0.09546,-0.07487 0.179877,-0.165322 0.274481,-0.243398 0.242357,-0.200014 0.491766,-0.394827 0.722146,-0.601137 0.08342,-0.07463 0.160719,-0.158078 0.242787,-0.234905 0.174974,-0.163804 0.337455,-0.34152 0.508777,-0.509997 0.06974,-0.06859 0.15121,-0.124577 0.219585,-0.194717 0.0893,-0.09074 0.178429,-0.181941 0.26599,-0.275092 0.04426,-0.04591 0.08984,-0.09067 0.132995,-0.137545 0.04325,-0.04702 0.09014,-0.09005 0.132995,-0.137546 l 3.091508,1.141892 c 0.760154,-0.933799 1.501282,-1.904238 2.122755,-2.980661 0.621473,-1.076422 1.091334,-2.203477 1.519951,-3.328689 L 42.99838,30.094491 c 0.06205,-0.191548 0.09547,-0.390482 0.149371,-0.583543 0.0042,-0.01436 0.01904,-0.02583 0.0232,-0.04018 0.0026,-0.0091 -0.01106,-0.02258 -0.0085,-0.03169 0.0042,-0.01467 0.01801,-0.02586 0.02321,-0.04018 0.02194,-0.07557 0.05415,-0.148516 0.07582,-0.224137 0.0063,-0.02339 0.0084,-0.04846 0.01471,-0.07188 0.01018,-0.03816 0.02794,-0.07387 0.03792,-0.112069 0.01855,-0.07079 0.0264,-0.144211 0.04413,-0.215644 0.03578,-0.141729 0.05488,-0.287845 0.08825,-0.431288 0.01741,-0.07122 0.0245,-0.144903 0.04413,-0.215644 0.03416,-0.123077 0.08106,-0.24311 0.105242,-0.3679 0.0046,-0.0241 0.01039,-0.0478 0.01471,-0.07188 0.01399,-0.07199 0.03126,-0.143846 0.04413,-0.215644 0.0018,-0.0097 -0.01029,-0.02204 -0.0085,-0.0317 0.0018,-0.01008 -0.01029,-0.02164 -0.0085,-0.03169 0.01422,-0.09645 0.04339,-0.190367 0.05884,-0.287526 0.02096,-0.130945 0.04927,-0.260129 0.06506,-0.391101 0.01274,-0.09199 0.01572,-0.186976 0.02714,-0.279033 0.004,-0.03426 0.0021,-0.06929 0.0062,-0.103572 0.0069,-0.0484 0.02127,-0.09564 0.02942,-0.143762 0.01617,-0.138956 0.04269,-0.282972 0.05656,-0.422796 0.0095,-0.103856 0.01762,-0.207492 0.01865,-0.310728 0.0018,-0.02102 -0.01874,-0.04235 -0.01699,-0.06339 0.0012,-0.01412 0.02222,-0.02607 0.0232,-0.04018 0.0065,-0.09327 0.022,-0.185762 0.02714,-0.279032 0.0068,-0.123876 -2.74e-4,-0.249466 0.0017,-0.374117 0.0025,-0.06911 0.0071,-0.138426 0.01243,-0.207151 0.0018,-0.06873 0.01128,-0.138439 0.01243,-0.207152 0.001,-0.06839 0.01211,-0.138676 0.01243,-0.207152 7.86e-4,-0.135005 -0.0048,-0.270959 -0.0068,-0.40581 -0.0037,-0.234896 -0.0078,-0.472254 -0.01987,-0.708046 l 2.993377,-1.379563 c -0.122757,-1.197815 -0.303997,-2.402426 -0.625695,-3.603018 -0.321698,-1.200592 -0.767044,-2.334435 -1.259612,-3.433157 l -3.282122,0.301951 c -0.0362,-0.0709 -0.08585,-0.134547 -0.122836,-0.204876 -0.0049,-0.0095 -0.0035,-0.02232 -0.0085,-0.03169 -0.0204,-0.04005 -0.04438,-0.07865 -0.06567,-0.118285 -0.06017,-0.109072 -0.127289,-0.21411 -0.188501,-0.323162 -0.07404,-0.129089 -0.162317,-0.249582 -0.23718,-0.378058 -0.05123,-0.08656 -0.08738,-0.182644 -0.139821,-0.268264 -0.0536,-0.08752 -0.116519,-0.173019 -0.171517,-0.259772 -0.0444,-0.07859 -0.08214,-0.161305 -0.131328,-0.236572 -0.01323,-0.02017 -0.03541,-0.03476 -0.04868,-0.05489 -0.224665,-0.340915 -0.462851,-0.670972 -0.709266,-0.998902 -0.01443,-0.01936 -0.03557,-0.0346 -0.04868,-0.05489 -0.04304,-0.0667 -0.07361,-0.141616 -0.122836,-0.204876 -0.01496,-0.01934 -0.0336,-0.03562 -0.04868,-0.05489 -0.07566,-0.09572 -0.166462,-0.179757 -0.243398,-0.274482 -0.200014,-0.242357 -0.394827,-0.491765 -0.601137,-0.722146 -0.06473,-0.07235 -0.126673,-0.14974 -0.194718,-0.219585 -0.143648,-0.147451 -0.305071,-0.277451 -0.452824,-0.422186 -0.03478,-0.03419 -0.0624,-0.075842 -0.09736,-0.1097926 C 38.06874,9.8586554 38.013651,9.7765349 37.943511,9.70816 37.904556,9.6701605 37.853264,9.6450235 37.814458,9.606856 37.761622,9.556057 37.720682,9.4930675 37.66842,9.4421677 37.621936,9.3984562 37.578004,9.3518362 37.530874,9.3091726 37.483855,9.2659283 37.440826,9.2190259 37.393328,9.1761778 L 38.535227,6.0846591 C 37.601429,5.3245052 36.630989,4.5833774 35.554567,3.9619047 34.478145,3.340433 33.35109,2.8705706 32.225878,2.4419544 l -2.10638,2.5346626 c -0.191547,-0.062042 -0.390481,-0.09546 -0.583543,-0.14937 -0.01454,-0.00422 -0.02577,-0.018543 -0.04018,-0.023202 -0.09943,-0.028544 -0.196722,-0.063445 -0.296018,-0.090532 -0.02339,-0.00634 -0.04846,-0.00845 -0.07188,-0.01471 -0.03794,-0.010196 -0.07402,-0.02794 -0.112069,-0.037911 -0.07022,-0.018323 -0.144099,-0.027864 -0.215643,-0.044128 -0.109595,-0.027302 -0.218281,-0.054901 -0.327713,-0.08204 -0.02386,-0.00567 -0.04789,-0.010153 -0.07188,-0.014709 -0.02396,-0.00544 -0.04795,-0.00934 -0.07188,-0.014709 C 28.146755,4.4633842 27.966651,4.419218 27.785323,4.3791374 27.669248,4.3567787 27.5506,4.3544057 27.434409,4.3372844 27.33847,4.32037 27.243372,4.2928127 27.146883,4.2784466 c -0.04836,-0.00774 -0.0954,-0.022604 -0.143763,-0.029419 -0.08259,-0.012785 -0.164016,-0.024036 -0.247338,-0.035636 -0.09199,-0.012733 -0.186976,-0.015721 -0.279033,-0.027144 -0.03424,-0.00441 -0.06934,-0.00173 -0.103572,-0.00622 -0.03376,-0.00411 -0.06957,-0.00199 -0.103572,-0.00622 -0.03352,-0.00396 -0.06976,-1.494e-4 -0.103572,-0.00622 -0.12024,-0.021573 -0.239391,-0.061646 -0.359407,-0.073547 -0.104128,-0.00952 -0.207486,-0.010858 -0.310727,-0.018651 -0.03491,-0.00295 -0.0689,-0.00362 -0.103572,-0.00622 -0.09327,-0.00647 -0.185763,-0.022002 -0.279032,-0.027143 -0.06869,-0.00361 -0.1384,-0.00969 -0.207153,-0.012434 -0.06643,0.00282 -0.132372,0.020139 -0.198659,0.01926 -0.05951,-0.00227 -0.115944,-0.019371 -0.175457,-0.020926 -0.06873,-0.0018 -0.138438,-0.011279 -0.207151,-0.012434 -0.06838,-0.00103 -0.138678,-0.012111 -0.207153,-0.012434 -0.135005,-7.863e-4 -0.270959,0.00487 -0.40581,0.00683 -0.234894,0.00369 -0.472253,0.00773 -0.708045,0.01987 l -1.379579,-2.993377 c -1.197805,0.1227849 -2.402415,0.3040252 -3.603007,0.625723 z"
       id="path3919"
       inkscape:connector-curvature="0" />
  </g>
  <g
     inkscape:groupmode="layer"
     id="layer3"
     inkscape:label="Emblem"
     style="display:inline">
    <path
       sodipodi:type="arc"
       style="fill:#ff6600;fill-opacity:1;fill-rule:nonzero;stroke:#ffffff;stroke-opacity:1"
       id="path4630"
       sodipodi:cx="24"
       sodipodi:cy="24"
       sodipodi:rx="14.5"
       sodipodi:ry="14.5"
       d="m 38.5,24 a 14.5,14.5 0 1 1 -29,0 14.5,14.5 0 1 1 29,0 z"
       transform="matrix(1.05,0,0,1.05,-1.1999994,-1.2249986)" />
    <path
       style="fill:#ffffff;fill-opacity:1;fill-rule:nonzero;stroke:none;stroke-opacity:1;stroke-width:0.50000000000000000;stroke-miterlimit:4;stroke-dasharray:none;stroke-linecap:round;stroke-linejoin:round"
       d="m 18.015675,14.000025 0.0937,3.21875 c 9.03881,0.1513 12.7987,7.6538 12.65625,12.75 l 3.25,0.0312 c -0.07,-7.9672 -5.62311,-15.517 -16,-16 z m 0.0312,5.34375 0.0312,3.15625 c 4.10871,0.1749 7.35375,2.6929 7.40625,7.5 l 3.15625,0 c -0.092,-5.469 -3.84067,-10.30305 -10.59375,-10.65625 z m 2.1875,6.21875 c -1.23569,0 -2.25,0.9845 -2.25,2.1875 0,1.20299 1.01431,2.15625 2.25,2.15625 1.23569,0 2.25,-0.95326 2.25,-2.15625 0,-1.203 -1.01431,-2.1875 -2.25,-2.1875 z"
       id="path5270"
       inkscape:connector-curvature="0" />
  </g>
</svg>
