<?xml version="1.0" encoding="UTF-8" standalone="no"?>
<!-- Created with Inkscape (http://www.inkscape.org/) -->

<svg
   xmlns:dc="http://purl.org/dc/elements/1.1/"
   xmlns:cc="http://creativecommons.org/ns#"
   xmlns:rdf="http://www.w3.org/1999/02/22-rdf-syntax-ns#"
   xmlns:svg="http://www.w3.org/2000/svg"
   xmlns="http://www.w3.org/2000/svg"
   xmlns:xlink="http://www.w3.org/1999/xlink"
   xmlns:sodipodi="http://sodipodi.sourceforge.net/DTD/sodipodi-0.dtd"
   xmlns:inkscape="http://www.inkscape.org/namespaces/inkscape"
   width="48"
   height="48"
   id="svg2"
   version="1.1"
   inkscape:version="0.48.5 r10040"
   sodipodi:docname="ic_launcher.svg"
   inkscape:export-filename="/Users/tughi/Projects/Aggregator/aggregator-android/app/src/main/res/drawable-xxxhdpi/ic_launcher.png"
   inkscape:export-xdpi="360"
   inkscape:export-ydpi="360">
  <defs
     id="defs4">
    <linearGradient
       id="linearGradient4815">
      <stop
         style="stop-color:#000000;stop-opacity:1;"
         offset="0"
         id="stop4817" />
      <stop
         id="stop4823"
         offset="0.5"
         style="stop-color:#c9c9c9;stop-opacity:1;" />
      <stop
         style="stop-color:#ffffff;stop-opacity:1"
         offset="1"
         id="stop4819" />
    </linearGradient>
    <linearGradient
       id="linearGradient4803">
      <stop
         style="stop-color:#ff6600;stop-opacity:1"
         offset="0"
         id="stop4805" />
      <stop
         id="stop4813"
         offset="0.63"
         style="stop-color:#ffffff;stop-opacity:1;" />
      <stop
         style="stop-color:#ffffff;stop-opacity:1"
         offset="1"
         id="stop4807" />
    </linearGradient>
    <linearGradient
       inkscape:collect="always"
       id="linearGradient3846">
      <stop
         style="stop-color:#000000;stop-opacity:0"
         offset="0"
         id="stop3848" />
      <stop
         style="stop-color:#000000;stop-opacity:0.1"
         offset="1"
         id="stop3850" />
    </linearGradient>
    <linearGradient
       id="linearGradient3839">
      <stop
         style="stop-color:#cccccc;stop-opacity:1"
         offset="0"
         id="stop3841" />
      <stop
         id="stop3847"
         offset="0.5"
         style="stop-color:#999999;stop-opacity:1" />
      <stop
         style="stop-color:#cccccc;stop-opacity:1"
         offset="1"
         id="stop3843" />
    </linearGradient>
    <linearGradient
       id="linearGradient3833">
      <stop
         style="stop-color:#ffffff;stop-opacity:0.49803922"
         offset="0"
         id="stop3835" />
      <stop
         style="stop-color:#ffffff;stop-opacity:0.12711865"
         offset="1"
         id="stop3837" />
    </linearGradient>
    <linearGradient
       id="linearGradient3830">
      <stop
         id="stop3832"
         offset="0"
         style="stop-color:#a0a0a0;stop-opacity:1" />
      <stop
         id="stop3834"
         offset="1"
         style="stop-color:#d7d7d7;stop-opacity:1" />
    </linearGradient>
    <linearGradient
       id="linearGradient4506">
      <stop
         id="stop4508"
         offset="0"
         style="stop-color:#ffffff;stop-opacity:0.78431374;" />
      <stop
         id="stop4510"
         offset="1"
         style="stop-color:#ffffff;stop-opacity:0" />
    </linearGradient>
    <linearGradient
       id="linearGradient4107">
      <stop
         id="stop4109"
         offset="0"
         style="stop-color:#ffffff;stop-opacity:0.53435117;" />
      <stop
         id="stop4113"
         offset="1"
         style="stop-color:#ffffff;stop-opacity:0;" />
    </linearGradient>
    <linearGradient
       id="linearGradient4000">
      <stop
         style="stop-color:#99cc33;stop-opacity:1"
         offset="0"
         id="stop4002" />
      <stop
         style="stop-color:#669900;stop-opacity:1"
         offset="1"
         id="stop4004" />
    </linearGradient>
    <linearGradient
       id="linearGradient3939">
      <stop
         style="stop-color:#000000;stop-opacity:1;"
         offset="0"
         id="stop3941" />
      <stop
         id="stop3947"
         offset="0.5"
         style="stop-color:#000000;stop-opacity:1;" />
      <stop
         style="stop-color:#cccccc;stop-opacity:1;"
         offset="1"
         id="stop3943" />
    </linearGradient>
    <linearGradient
       inkscape:collect="always"
       xlink:href="#linearGradient3939"
       id="linearGradient3945"
       x1="24"
       y1="4"
       x2="24"
       y2="24"
       gradientUnits="userSpaceOnUse" />
    <linearGradient
       inkscape:collect="always"
       xlink:href="#linearGradient3939"
       id="linearGradient3974"
       gradientUnits="userSpaceOnUse"
       x1="24"
       y1="4"
       x2="24"
       y2="24"
       gradientTransform="matrix(0.96592582,-0.25881905,0.25881905,0.96592582,-5.3938799,1011.3916)" />
    <linearGradient
       inkscape:collect="always"
       xlink:href="#linearGradient3939"
       id="linearGradient3978"
       gradientUnits="userSpaceOnUse"
       gradientTransform="matrix(0,-1,1,0,0,1052.3622)"
       x1="24"
       y1="4"
       x2="24"
       y2="24" />
    <linearGradient
       inkscape:collect="always"
       xlink:href="#linearGradient3939"
       id="linearGradient3982"
       gradientUnits="userSpaceOnUse"
       gradientTransform="matrix(-0.70710678,-0.70710678,0.70710678,-0.70710678,24,1062.3033)"
       x1="24"
       y1="4"
       x2="24"
       y2="24" />
    <linearGradient
       inkscape:collect="always"
       xlink:href="#linearGradient3939"
       id="linearGradient3986"
       gradientUnits="userSpaceOnUse"
       gradientTransform="matrix(-1,0,0,-1,47.999982,1052.3622)"
       x1="24"
       y1="4"
       x2="24"
       y2="24" />
    <linearGradient
       inkscape:collect="always"
       xlink:href="#linearGradient3939"
       id="linearGradient3990"
       gradientUnits="userSpaceOnUse"
       gradientTransform="matrix(-0.70710678,0.70710678,-0.70710678,-0.70710678,57.941111,1028.3622)"
       x1="24"
       y1="4"
       x2="24"
       y2="24" />
    <linearGradient
       inkscape:collect="always"
       xlink:href="#linearGradient3939"
       id="linearGradient3994"
       gradientUnits="userSpaceOnUse"
       gradientTransform="matrix(0,1,-1,0,47.999988,1004.3622)"
       x1="24"
       y1="4"
       x2="24"
       y2="24" />
    <linearGradient
       inkscape:collect="always"
       xlink:href="#linearGradient3939"
       id="linearGradient3998"
       gradientUnits="userSpaceOnUse"
       gradientTransform="matrix(0.70710678,0.70710678,-0.70710678,0.70710678,23.99999,994.42108)"
       x1="24"
       y1="4"
       x2="24"
       y2="24" />
    <linearGradient
       inkscape:collect="always"
       xlink:href="#linearGradient4000"
       id="linearGradient4006"
       x1="8"
       y1="24"
       x2="40"
       y2="24"
       gradientUnits="userSpaceOnUse" />
    <linearGradient
       inkscape:collect="always"
       xlink:href="#linearGradient3939"
       id="linearGradient4032"
       gradientUnits="userSpaceOnUse"
       gradientTransform="matrix(0.70710678,-0.70710678,0.70710678,0.70710678,-9.9411255,24)"
       x1="24"
       y1="4"
       x2="24"
       y2="24" />
    <linearGradient
       inkscape:collect="always"
       xlink:href="#linearGradient3939"
       id="linearGradient4055"
       gradientUnits="userSpaceOnUse"
       gradientTransform="matrix(0.25881905,0.96592582,-0.96592582,0.25881905,40.970552,998.96832)"
       x1="24"
       y1="4"
       x2="24"
       y2="24" />
    <linearGradient
       inkscape:collect="always"
       xlink:href="#linearGradient3939"
       id="linearGradient4057"
       gradientUnits="userSpaceOnUse"
       gradientTransform="matrix(-0.50000001,0.86602541,-0.86602541,-0.50000001,56.784607,1019.5776)"
       x1="24"
       y1="4"
       x2="24"
       y2="24" />
    <linearGradient
       inkscape:collect="always"
       xlink:href="#linearGradient3939"
       id="linearGradient4059"
       gradientUnits="userSpaceOnUse"
       gradientTransform="matrix(-0.96592582,0.25881905,-0.25881905,-0.96592582,53.393866,1045.3328)"
       x1="24"
       y1="4"
       x2="24"
       y2="24" />
    <linearGradient
       inkscape:collect="always"
       xlink:href="#linearGradient3939"
       id="linearGradient4061"
       gradientUnits="userSpaceOnUse"
       gradientTransform="matrix(-0.86602541,-0.50000001,0.50000001,-0.86602541,32.784586,1061.1468)"
       x1="24"
       y1="4"
       x2="24"
       y2="24" />
    <linearGradient
       inkscape:collect="always"
       xlink:href="#linearGradient3939"
       id="linearGradient4063"
       gradientUnits="userSpaceOnUse"
       gradientTransform="matrix(-0.25881905,-0.96592582,0.96592582,-0.25881905,7.0294458,1057.7561)"
       x1="24"
       y1="4"
       x2="24"
       y2="24" />
    <linearGradient
       inkscape:collect="always"
       xlink:href="#linearGradient3939"
       id="linearGradient4065"
       gradientUnits="userSpaceOnUse"
       gradientTransform="matrix(0.50000001,-0.86602541,0.86602541,0.50000001,-8.7846198,1037.1468)"
       x1="24"
       y1="4"
       x2="24"
       y2="24" />
    <linearGradient
       inkscape:collect="always"
       xlink:href="#linearGradient3939"
       id="linearGradient4067"
       gradientUnits="userSpaceOnUse"
       x1="24"
       y1="4"
       x2="24"
       y2="24"
       gradientTransform="matrix(0.86602541,0.50000001,-0.50000001,0.86602541,15.215391,995.57759)" />
    <linearGradient
       inkscape:collect="always"
       xlink:href="#linearGradient3939"
       id="linearGradient4081"
       gradientUnits="userSpaceOnUse"
       gradientTransform="matrix(0.86602541,0.50000001,-0.50000001,0.86602541,15.215391,995.57759)"
       x1="24"
       y1="4"
       x2="24"
       y2="24" />
    <linearGradient
       inkscape:collect="always"
       xlink:href="#linearGradient3939"
       id="linearGradient4083"
       gradientUnits="userSpaceOnUse"
       gradientTransform="matrix(0.96592582,-0.25881905,0.25881905,0.96592582,-5.3938799,1011.3916)"
       x1="24"
       y1="4"
       x2="24"
       y2="24" />
    <linearGradient
       inkscape:collect="always"
       xlink:href="#linearGradient3939"
       id="linearGradient4085"
       gradientUnits="userSpaceOnUse"
       gradientTransform="matrix(0.50000001,-0.86602541,0.86602541,0.50000001,-8.7846198,1037.1468)"
       x1="24"
       y1="4"
       x2="24"
       y2="24" />
    <linearGradient
       inkscape:collect="always"
       xlink:href="#linearGradient3939"
       id="linearGradient4087"
       gradientUnits="userSpaceOnUse"
       gradientTransform="matrix(-0.25881905,-0.96592582,0.96592582,-0.25881905,7.0294458,1057.7561)"
       x1="24"
       y1="4"
       x2="24"
       y2="24" />
    <linearGradient
       inkscape:collect="always"
       xlink:href="#linearGradient3939"
       id="linearGradient4089"
       gradientUnits="userSpaceOnUse"
       gradientTransform="matrix(-0.86602541,-0.50000001,0.50000001,-0.86602541,32.784586,1061.1468)"
       x1="24"
       y1="4"
       x2="24"
       y2="24" />
    <linearGradient
       inkscape:collect="always"
       xlink:href="#linearGradient3939"
       id="linearGradient4091"
       gradientUnits="userSpaceOnUse"
       gradientTransform="matrix(-0.96592582,0.25881905,-0.25881905,-0.96592582,53.393866,1045.3328)"
       x1="24"
       y1="4"
       x2="24"
       y2="24" />
    <linearGradient
       inkscape:collect="always"
       xlink:href="#linearGradient3939"
       id="linearGradient4093"
       gradientUnits="userSpaceOnUse"
       gradientTransform="matrix(-0.50000001,0.86602541,-0.86602541,-0.50000001,56.784607,1019.5776)"
       x1="24"
       y1="4"
       x2="24"
       y2="24" />
    <linearGradient
       inkscape:collect="always"
       xlink:href="#linearGradient3939"
       id="linearGradient4095"
       gradientUnits="userSpaceOnUse"
       gradientTransform="matrix(0.25881905,0.96592582,-0.96592582,0.25881905,40.970552,998.96832)"
       x1="24"
       y1="4"
       x2="24"
       y2="24" />
    <linearGradient
       inkscape:collect="always"
       xlink:href="#linearGradient4107"
       id="linearGradient4105"
       x1="8"
       y1="24"
       x2="40"
       y2="24"
       gradientUnits="userSpaceOnUse"
       gradientTransform="matrix(0,1,-1,0,48,0)" />
    <linearGradient
       inkscape:collect="always"
       xlink:href="#linearGradient4107"
       id="linearGradient4117"
       gradientUnits="userSpaceOnUse"
       x1="8"
       y1="24"
       x2="40"
       y2="24" />
    <linearGradient
       inkscape:collect="always"
       xlink:href="#linearGradient3939"
       id="linearGradient4304"
       gradientUnits="userSpaceOnUse"
       gradientTransform="matrix(0.25881905,0.96592582,-0.96592582,0.25881905,40.970552,998.96832)"
       x1="24"
       y1="4"
       x2="24"
       y2="24" />
    <linearGradient
       inkscape:collect="always"
       xlink:href="#linearGradient3939"
       id="linearGradient4307"
       gradientUnits="userSpaceOnUse"
       gradientTransform="matrix(-0.50000001,0.86602541,-0.86602541,-0.50000001,56.784607,1019.5776)"
       x1="24"
       y1="4"
       x2="24"
       y2="24" />
    <linearGradient
       inkscape:collect="always"
       xlink:href="#linearGradient3939"
       id="linearGradient4310"
       gradientUnits="userSpaceOnUse"
       gradientTransform="matrix(-0.96592582,0.25881905,-0.25881905,-0.96592582,53.393866,1045.3328)"
       x1="24"
       y1="4"
       x2="24"
       y2="24" />
    <linearGradient
       inkscape:collect="always"
       xlink:href="#linearGradient3939"
       id="linearGradient4313"
       gradientUnits="userSpaceOnUse"
       gradientTransform="matrix(-0.86602541,-0.50000001,0.50000001,-0.86602541,32.784586,1061.1468)"
       x1="24"
       y1="4"
       x2="24"
       y2="24" />
    <linearGradient
       inkscape:collect="always"
       xlink:href="#linearGradient3939"
       id="linearGradient4316"
       gradientUnits="userSpaceOnUse"
       gradientTransform="matrix(-0.25881905,-0.96592582,0.96592582,-0.25881905,7.0294458,1057.7561)"
       x1="24"
       y1="4"
       x2="24"
       y2="24" />
    <linearGradient
       inkscape:collect="always"
       xlink:href="#linearGradient3939"
       id="linearGradient4319"
       gradientUnits="userSpaceOnUse"
       gradientTransform="matrix(0.50000001,-0.86602541,0.86602541,0.50000001,-8.7846198,1037.1468)"
       x1="24"
       y1="4"
       x2="24"
       y2="24" />
    <linearGradient
       inkscape:collect="always"
       xlink:href="#linearGradient3939"
       id="linearGradient4322"
       gradientUnits="userSpaceOnUse"
       gradientTransform="matrix(0.96592582,-0.25881905,0.25881905,0.96592582,-5.3938799,1011.3916)"
       x1="24"
       y1="4"
       x2="24"
       y2="24" />
    <linearGradient
       inkscape:collect="always"
       xlink:href="#linearGradient3939"
       id="linearGradient4325"
       gradientUnits="userSpaceOnUse"
       gradientTransform="matrix(0.86602541,0.50000001,-0.50000001,0.86602541,15.215391,995.57759)"
       x1="24"
       y1="4"
       x2="24"
       y2="24" />
    <radialGradient
       inkscape:collect="always"
       xlink:href="#linearGradient4506"
       id="radialGradient4514"
       cx="13.5"
       cy="24"
       fx="13.5"
       fy="24"
       r="16"
       gradientUnits="userSpaceOnUse" />
    <linearGradient
       inkscape:collect="always"
       xlink:href="#linearGradient4000"
       id="linearGradient4671"
       gradientUnits="userSpaceOnUse"
       x1="8"
       y1="24"
       x2="40"
       y2="24" />
    <radialGradient
       inkscape:collect="always"
       xlink:href="#linearGradient3833"
       id="radialGradient4674"
       gradientUnits="userSpaceOnUse"
       cx="13.5"
       cy="24"
       fx="13.5"
       fy="24"
       r="16" />
    <filter
       id="filter4802"
       inkscape:label="Drop shadow"
       width="1.5"
       height="1.5"
       x="-.25"
       y="-.25">
      <feGaussianBlur
         id="feGaussianBlur4804"
         in="SourceAlpha"
         stdDeviation="1"
         result="blur" />
      <feColorMatrix
         id="feColorMatrix4806"
         result="bluralpha"
         type="matrix"
         values="1 0 0 0 0 0 1 0 0 0 0 0 1 0 0 0 0 0 1 0 " />
      <feOffset
         id="feOffset4808"
         in="bluralpha"
         dx="0"
         dy="1"
         result="offsetBlur" />
      <feMerge
         id="feMerge4810">
        <feMergeNode
           id="feMergeNode4812"
           in="offsetBlur" />
        <feMergeNode
           id="feMergeNode4814"
           in="SourceGraphic" />
      </feMerge>
    </filter>
    <linearGradient
       inkscape:collect="always"
       xlink:href="#linearGradient3830"
       id="linearGradient3840"
       x1="23.958588"
       y1="8.9539347"
       x2="23.958588"
       y2="39.094296"
       gradientUnits="userSpaceOnUse" />
    <linearGradient
       inkscape:collect="always"
       xlink:href="#linearGradient3846"
       id="linearGradient3852"
       x1="24"
       y1="4"
       x2="24"
       y2="44"
       gradientUnits="userSpaceOnUse" />
    <linearGradient
       inkscape:collect="always"
       xlink:href="#linearGradient3846"
       id="linearGradient3870"
       gradientUnits="userSpaceOnUse"
       x1="24"
       y1="4"
       x2="24"
       y2="44"
       gradientTransform="matrix(1.05,0,0,1.05,-1.1999994,-1.2249986)" />
    <filter
       inkscape:collect="always"
       id="filter3874">
      <feGaussianBlur
         inkscape:collect="always"
         stdDeviation="0.45875"
         id="feGaussianBlur3876" />
    </filter>
    <linearGradient
       inkscape:collect="always"
       xlink:href="#linearGradient4815"
       id="linearGradient4821"
       x1="24"
       y1="24"
       x2="44"
       y2="44"
       gradientUnits="userSpaceOnUse" />
  </defs>
  <sodipodi:namedview
     id="base"
     pagecolor="#000000"
     bordercolor="#666666"
     borderopacity="1.0"
     inkscape:pageopacity="0"
     inkscape:pageshadow="2"
     inkscape:zoom="17.270833"
     inkscape:cx="24"
     inkscape:cy="24"
     inkscape:document-units="px"
     inkscape:current-layer="layer2"
     showgrid="false"
     inkscape:showpageshadow="false"
     borderlayer="true"
     showguides="false"
     inkscape:guide-bbox="true"
     inkscape:window-width="1916"
     inkscape:window-height="1035"
     inkscape:window-x="0"
     inkscape:window-y="0"
     inkscape:window-maximized="1">
    <sodipodi:guide
       orientation="1,0"
       position="24,24"
       id="guide2985" />
    <sodipodi:guide
       id="guide2987"
       position="4,4"
       orientation="1,0" />
    <sodipodi:guide
       orientation="1,0"
       position="44,44"
       id="guide2989" />
    <sodipodi:guide
       orientation="0,1"
       position="44,44"
       id="guide2991" />
    <sodipodi:guide
       orientation="0,1"
       position="4,4"
       id="guide2993" />
  </sodipodi:namedview>
  <metadata
     id="metadata7">
    <rdf:RDF>
      <cc:Work
         rdf:about="">
        <dc:format>image/svg+xml</dc:format>
        <dc:type
           rdf:resource="http://purl.org/dc/dcmitype/StillImage" />
        <dc:title />
      </cc:Work>
    </rdf:RDF>
  </metadata>
  <g
     inkscape:groupmode="layer"
     id="layer2"
     inkscape:label="Wheel"
     style="display:inline">
    <path
       style="fill:#000000;fill-opacity:1;fill-rule:nonzero;stroke:none;opacity:0.75;filter:url(#filter3874)"
       d="m 21.625,1.03125 c -1.197805,0.1227849 -2.393158,0.3033022 -3.59375,0.625 -1.200592,0.3216978 -2.338778,0.7574323 -3.4375,1.25 l 0.28125,3.3125 c -0.0709,0.036203 -0.117172,0.056758 -0.1875,0.09375 -0.05042,0.02376 -0.107196,0.067406 -0.15625,0.09375 -0.109072,0.060163 -0.203448,0.1262882 -0.3125,0.1875 -0.130384,0.073189 -0.245973,0.1443919 -0.375,0.21875 -0.05679,0.034198 -0.131025,0.059291 -0.1875,0.09375 C 13.62539,6.921595 13.59171,6.950859 13.5625,6.96875 13.47498,7.022351 13.399252,7.0699989 13.3125,7.125 13.29223,7.137854 13.27021,7.174543 13.25,7.1875 13.19144,7.218839 13.117831,7.245082 13.0625,7.28125 13.04225,7.294667 13.02032,7.29885 13,7.3125 12.91261,7.370676 12.83466,7.4398725 12.75,7.5 12.595825,7.6055901 12.463459,7.7021106 12.3125,7.8125 12.199614,7.897735 12.082248,7.9769012 11.96875,8.0625 11.90534,8.110322 11.813173,8.1383327 11.75,8.1875 11.73067,8.202506 11.70677,8.234921 11.6875,8.25 c -0.09545,0.07486 -0.155396,0.1719242 -0.25,0.25 -0.242357,0.2000151 -0.488369,0.387439 -0.71875,0.59375 -0.08342,0.074628 -0.167932,0.141922 -0.25,0.21875 -0.174973,0.1638031 -0.359928,0.3627744 -0.53125,0.53125 -0.069741,0.068586 -0.150374,0.1173624 -0.21875,0.1875 -0.089303,0.09074 -0.1624395,0.188099 -0.25,0.28125 -0.044257,0.04591 -0.081843,0.07812 -0.125,0.125 -0.043243,0.04702 -0.1134032,0.108755 -0.15625,0.15625 L 6.125,9.4375 C 5.364846,10.371297 4.6214725,11.329828 4,12.40625 3.3785276,13.482671 2.8973659,14.624788 2.46875,15.75 L 5,17.84375 c -0.062043,0.191547 -0.1023409,0.400689 -0.15625,0.59375 -0.00402,0.01441 0.00414,0.0169 0,0.03125 -0.00264,0.009 0.00261,0.02213 0,0.03125 -0.00417,0.01435 -0.027082,0.04815 -0.03125,0.0625 -0.026815,0.07402 -0.041812,0.142452 -0.0625,0.21875 -0.00634,0.02339 -0.024991,0.03908 -0.03125,0.0625 -0.010217,0.03817 -0.021273,0.0868 -0.03125,0.125 C 4.668945,19.03954 4.673983,19.116067 4.65625,19.1875 4.641939,19.24419 4.635956,19.286107 4.625,19.34375 4.605801,19.42017 4.548736,19.485478 4.53125,19.5625 4.52914,19.5721 4.564723,19.58419 4.5625,19.59375 4.546336,19.66568 4.515561,19.740551 4.5,19.8125 4.465844,19.935576 4.4304256,20.06271 4.40625,20.1875 4.40161,20.21159 4.379283,20.22592 4.375,20.25 c -0.013981,0.07199 -0.018372,0.146951 -0.03125,0.21875 -0.00174,0.0096 0.00173,0.0216 0,0.03125 C 4.34198,20.51008 4.376768,20.5212 4.375,20.53125 4.360785,20.6277 4.327943,20.715343 4.3125,20.8125 4.30476,20.86086 4.288061,20.920387 4.28125,20.96875 4.268582,21.05079 4.261315,21.13656 4.25,21.21875 4.237267,21.31074 4.230173,21.407944 4.21875,21.5 c -0.00399,0.03426 0.00411,0.05947 0,0.09375 C 4.21297,21.64124 4.193044,21.702378 4.1875,21.75 4.163769,21.890063 4.138008,22.013963 4.125,22.15625 c -0.00413,0.04519 -0.00102,0.111059 0,0.15625 -0.0054,0.05801 -0.026336,0.09813 -0.03125,0.15625 -2.143e-4,0.02103 0.032767,0.04155 0.03125,0.0625 -0.00112,0.0139 -0.030151,0.0486 -0.03125,0.0625 -0.00647,0.09327 -0.026109,0.187982 -0.03125,0.28125 -0.00685,0.123877 0.00195,0.250349 0,0.375 -0.00282,0.07007 0.00183,0.117442 0,0.1875 -0.00533,0.06872 -0.030188,0.148458 -0.03125,0.21875 -0.00103,0.06838 3.23e-4,0.119025 0,0.1875 -7.867e-4,0.135006 -0.00195,0.2714 0,0.40625 0.00369,0.234896 0.01911,0.482958 0.03125,0.71875 l -3,1.375 c 0.1227849,1.197806 0.3033022,2.424408 0.625,3.625 0.3216978,1.200592 0.7574323,2.307528 1.25,3.40625 l 3.28125,-0.28125 c 0.036203,0.0709 0.088009,0.117172 0.125,0.1875 0.00496,0.0095 0.02626,0.02186 0.03125,0.03125 0.020395,0.04005 0.041221,0.08536 0.0625,0.125 0.060163,0.109071 0.1262881,0.203448 0.1875,0.3125 0.074039,0.129089 0.1438851,0.277774 0.21875,0.40625 0.050714,0.08702 0.1037117,0.164324 0.15625,0.25 0.036214,0.0591 0.056864,0.12894 0.09375,0.1875 0.019453,0.02876 0.044165,0.03359 0.0625,0.0625 0.044409,0.07859 0.075804,0.174736 0.125,0.25 0.013223,0.02018 0.049227,0.04236 0.0625,0.0625 0.2246651,0.340914 0.4723358,0.672069 0.71875,1 0.014465,0.01926 0.016735,0.01208 0.03125,0.03125 0.04304,0.0667 0.075764,0.155489 0.125,0.21875 0.015006,0.01933 0.047421,0.04323 0.0625,0.0625 0.075657,0.09572 0.1730651,0.186526 0.25,0.28125 0.200015,0.242357 0.3874391,0.48837 0.59375,0.71875 0.064728,0.07236 0.1194535,0.148905 0.1875,0.21875 0.00987,0.01069 0.021391,-0.01066 0.03125,0 0.1306767,0.141388 0.269982,0.272293 0.40625,0.40625 0.034997,0.03428 0.090277,0.09047 0.125,0.125 0.069489,0.06909 0.1173624,0.150374 0.1875,0.21875 0.03908,0.03761 0.08595,0.05604 0.125,0.09375 0.05284,0.0508 0.103982,0.105349 0.15625,0.15625 0.04591,0.04426 0.07812,0.113095 0.125,0.15625 0.04702,0.04325 0.0775,0.08216 0.125,0.125 l -1.125,3.09375 c 0.933797,0.760154 1.892328,1.503527 2.96875,2.125 1.076421,0.621472 2.218538,1.071384 3.34375,1.5 L 17.875,42.96875 c 0.191547,0.06204 0.400689,0.102349 0.59375,0.15625 0.0144,0.004 0.0169,0.0271 0.03125,0.03125 0.04707,0.01351 0.109267,0.01805 0.15625,0.03125 0.05142,0.01867 0.103905,0.04749 0.15625,0.0625 0.02339,0.0063 0.03908,-0.0063 0.0625,0 0.03816,0.01018 0.05555,0.02127 0.09375,0.03125 0.07079,0.01855 0.147318,0.04477 0.21875,0.0625 0.109595,0.0273 0.234318,0.03536 0.34375,0.0625 0.02381,0.0056 0.03863,0.02574 0.0625,0.03125 0.02396,0.0055 0.03857,-0.0054 0.0625,0 0.180775,0.04383 0.380478,0.08974 0.5625,0.125 0.0241,0.0046 0.03842,0.02693 0.0625,0.03125 0.07158,0.01525 0.146948,0.01837 0.21875,0.03125 0.116102,0.01747 0.226719,0.01265 0.34375,0.03125 0.04836,0.0078 0.107887,0.02444 0.15625,0.03125 0.08259,0.01278 0.166678,0.05089 0.25,0.0625 0.09199,0.01274 0.189193,-0.01142 0.28125,0 0.03426,0.004 0.05947,0.02715 0.09375,0.03125 0.03423,0.0045 0.05954,-0.0046 0.09375,0 0.03401,0.0042 0.09081,-0.0043 0.125,0 0.120239,0.02157 0.223734,0.0506 0.34375,0.0625 0.104128,0.0096 0.209258,0.02346 0.3125,0.03125 0.03491,0.0029 0.05908,-0.0026 0.09375,0 0.09327,0.0065 0.187981,0.02611 0.28125,0.03125 0.134336,0.0075 0.271027,-0.0018 0.40625,0 0.05951,0.0023 0.127987,0.02969 0.1875,0.03125 0.06873,0.0018 0.150037,-0.0012 0.21875,0 0.06839,10e-4 0.119024,-3.2e-4 0.1875,0 0.135004,7.85e-4 0.271398,0.002 0.40625,0 C 24.516145,43.9338 24.764208,43.91832 25,43.90625 l 1.375,3 c 1.197805,-0.122785 2.393158,-0.303302 3.59375,-0.625 1.200592,-0.321698 2.338778,-0.757432 3.4375,-1.25 L 33.125,41.75 c 0.0709,-0.0362 0.117171,-0.08801 0.1875,-0.125 0.04939,-0.02599 0.107512,-0.03561 0.15625,-0.0625 0.109229,-0.05882 0.204231,-0.1254 0.3125,-0.1875 0.130384,-0.07319 0.245973,-0.175642 0.375,-0.25 0.03877,-0.02233 0.08341,-0.04505 0.125,-0.0625 0.01805,-0.01092 0.0445,-0.02026 0.0625,-0.03125 0.03086,-0.01533 0.06454,-0.04461 0.09375,-0.0625 0.08752,-0.0536 0.163246,-0.101252 0.25,-0.15625 0.0202,-0.01259 0.04143,-0.05122 0.0625,-0.0625 0.07534,-0.0483 0.174211,-0.07412 0.25,-0.125 0.08659,-0.05707 0.164422,-0.09764 0.25,-0.15625 0.152644,-0.108416 0.289063,-0.231674 0.4375,-0.34375 0.113037,-0.08291 0.232606,-0.165871 0.34375,-0.25 0.06341,-0.04782 0.155578,-0.07583 0.21875,-0.125 0.01934,-0.01496 0.04323,-0.04742 0.0625,-0.0625 0.09546,-0.07487 0.155396,-0.140674 0.25,-0.21875 0.242357,-0.200014 0.48837,-0.41869 0.71875,-0.625 0.08342,-0.07463 0.167932,-0.141923 0.25,-0.21875 0.174974,-0.163804 0.359928,-0.331523 0.53125,-0.5 0.06974,-0.06859 0.150375,-0.14861 0.21875,-0.21875 0.0893,-0.09074 0.162439,-0.156849 0.25,-0.25 0.04426,-0.04591 0.08185,-0.109375 0.125,-0.15625 0.04325,-0.04702 0.113395,-0.0775 0.15625,-0.125 L 41.875,38.5 c 0.760154,-0.933799 1.503527,-1.892327 2.125,-2.96875 0.621473,-1.076422 1.102633,-2.218538 1.53125,-3.34375 L 43,30.09375 c 0.06205,-0.191548 0.102349,-0.400689 0.15625,-0.59375 0.0042,-0.01436 -0.0042,-0.0169 0,-0.03125 0.0026,-0.0091 -0.0026,-0.02214 0,-0.03125 0.0042,-0.01467 0.02605,-0.01693 0.03125,-0.03125 0.02194,-0.07557 0.04083,-0.143129 0.0625,-0.21875 0.0063,-0.02339 0.02494,-0.07033 0.03125,-0.09375 0.01018,-0.03816 0.02127,-0.05555 0.03125,-0.09375 0.01855,-0.07079 0.01352,-0.147317 0.03125,-0.21875 0.03578,-0.141729 0.06038,-0.294057 0.09375,-0.4375 0.01741,-0.07122 0.04287,-0.148009 0.0625,-0.21875 0.03416,-0.123077 0.06957,-0.25021 0.09375,-0.375 0.0046,-0.0241 0.02693,-0.03842 0.03125,-0.0625 0.01399,-0.07199 0.01838,-0.146952 0.03125,-0.21875 0.0018,-0.0097 -0.0018,-0.02159 0,-0.03125 0.0018,-0.01008 -0.03304,-0.0212 -0.03125,-0.03125 0.01422,-0.09645 0.04705,-0.184091 0.0625,-0.28125 0.02096,-0.130945 0.04671,-0.275278 0.0625,-0.40625 0.01274,-0.09199 0.01983,-0.189193 0.03125,-0.28125 0.004,-0.03426 -0.0041,-0.05947 0,-0.09375 0.0069,-0.0484 0.0231,-0.07688 0.03125,-0.125 0.01617,-0.138956 0.04863,-0.297676 0.0625,-0.4375 0.0095,-0.103856 0.03022,-0.209264 0.03125,-0.3125 0.0018,-0.02102 -0.033,-0.04146 -0.03125,-0.0625 0.0012,-0.01412 0.03027,-0.01714 0.03125,-0.03125 0.0065,-0.09327 0.02611,-0.18798 0.03125,-0.28125 0.0068,-0.123876 -0.002,-0.250349 0,-0.375 0.0025,-0.06911 -0.0053,-0.150025 0,-0.21875 0.0018,-0.06873 0.0301,-0.118787 0.03125,-0.1875 10e-4,-0.06839 -3.2e-4,-0.150274 0,-0.21875 7.86e-4,-0.135005 0.002,-0.271399 0,-0.40625 -0.0037,-0.234896 -0.01918,-0.482958 -0.03125,-0.71875 l 3,-1.375 C 46.814743,20.395935 46.634198,19.200592 46.3125,18 c -0.321698,-1.200592 -0.757432,-2.338778 -1.25,-3.4375 l -3.28125,0.3125 c -0.0362,-0.0709 -0.08801,-0.148421 -0.125,-0.21875 C 41.65135,14.64675 41.63,14.63437 41.625,14.625 41.6046,14.58495 41.58379,14.539635 41.5625,14.5 41.50233,14.390928 41.436212,14.296552 41.375,14.1875 41.30096,14.058411 41.231113,13.940976 41.15625,13.8125 41.10502,13.72594 41.052441,13.61687 41,13.53125 c -0.0536,-0.08752 -0.101252,-0.163247 -0.15625,-0.25 -0.0444,-0.07859 -0.07581,-0.174733 -0.125,-0.25 C 40.70552,13.01108 40.66952,13.02013 40.65625,13 40.431585,12.659085 40.183915,12.32793 39.9375,12 c -0.01443,-0.01936 -0.01814,-0.04221 -0.03125,-0.0625 -0.04304,-0.0667 -0.07577,-0.15549 -0.125,-0.21875 -0.01496,-0.01934 -0.04742,-0.01198 -0.0625,-0.03125 -0.07566,-0.09572 -0.173064,-0.186525 -0.25,-0.28125 C 39.268736,11.163893 39.08131,10.917881 38.875,10.6875 38.81027,10.61515 38.755545,10.538595 38.6875,10.46875 38.543852,10.321299 38.397753,10.175985 38.25,10.03125 38.21522,9.99706 38.15996,9.9714506 38.125,9.9375 38.055481,9.868387 38.00764,9.7871249 37.9375,9.71875 c -0.03896,-0.037999 -0.08619,-0.086832 -0.125,-0.125 -0.05284,-0.050799 -0.103988,-0.1053502 -0.15625,-0.15625 -0.04648,-0.043712 -0.07787,-0.082336 -0.125,-0.125 -0.04702,-0.043244 -0.0775,-0.082152 -0.125,-0.125 l 1.125,-3.09375 C 37.597452,5.3335961 36.638922,4.5902227 35.5625,3.96875 34.486078,3.3472783 33.343962,2.8661162 32.21875,2.4375 L 30.125,4.96875 C 29.933453,4.906708 29.724312,4.86641 29.53125,4.8125 29.51671,4.80828 29.51441,4.817159 29.5,4.8125 29.40057,4.783956 29.286796,4.745837 29.1875,4.71875 29.16411,4.71241 29.14842,4.69376 29.125,4.6875 29.08706,4.677304 29.069299,4.666221 29.03125,4.65625 28.96103,4.637927 28.884044,4.641264 28.8125,4.625 28.702905,4.597698 28.578182,4.558389 28.46875,4.53125 c -0.02386,-0.00567 -0.03851,0.00456 -0.0625,0 C 28.38229,4.52581 28.36768,4.505369 28.34375,4.5 28.161813,4.4580782 27.962578,4.4150806 27.78125,4.375 27.665175,4.3526413 27.553691,4.3608713 27.4375,4.34375 27.341561,4.3268356 27.252739,4.2956161 27.15625,4.28125 27.10789,4.27351 27.048363,4.256815 27,4.25 26.91741,4.237215 26.833322,4.23035 26.75,4.21875 26.65801,4.206017 26.560807,4.198923 26.46875,4.1875 c -0.03424,-0.00441 -0.05952,0.00449 -0.09375,0 -0.03376,-0.00411 -0.05975,0.00423 -0.09375,0 -0.03352,-0.00396 -0.09119,-0.025179 -0.125,-0.03125 C 26.03601,4.134677 25.932516,4.105651 25.8125,4.09375 25.708372,4.08423 25.603241,4.070293 25.5,4.0625 c -0.03491,-0.00295 -0.05908,0.0026 -0.09375,0 C 25.31298,4.05603 25.218269,4.036391 25.125,4.03125 c -0.06869,-0.00361 -0.149997,0.00274 -0.21875,0 C 24.83982,4.03407 24.785037,4.063379 24.71875,4.0625 24.65924,4.06023 24.590763,4.032805 24.53125,4.03125 24.46252,4.02945 24.381213,4.001155 24.3125,4 24.24412,3.99897 24.193475,4.000323 24.125,4 23.989995,3.9992137 23.853601,3.99804 23.71875,4 23.483856,4.00369 23.235792,4.01911 23,4.03125 l -1.375,-3 z"
       id="path4257" />
    <path
       style="fill:#ffffff;fill-opacity:1;fill-rule:nonzero;stroke:none;opacity:1"
       d="m 21.625,1.03125 c -1.197805,0.1227849 -2.393158,0.3033022 -3.59375,0.625 -1.200592,0.3216978 -2.338778,0.7574323 -3.4375,1.25 l 0.28125,3.3125 c -0.0709,0.036203 -0.117172,0.056758 -0.1875,0.09375 -0.05042,0.02376 -0.107196,0.067406 -0.15625,0.09375 -0.109072,0.060163 -0.203448,0.1262882 -0.3125,0.1875 -0.130384,0.073189 -0.245973,0.1443919 -0.375,0.21875 -0.05679,0.034198 -0.131025,0.059291 -0.1875,0.09375 C 13.62539,6.921595 13.59171,6.950859 13.5625,6.96875 13.47498,7.022351 13.399252,7.0699989 13.3125,7.125 13.29223,7.137854 13.27021,7.174543 13.25,7.1875 13.19144,7.218839 13.117831,7.245082 13.0625,7.28125 13.04225,7.294667 13.02032,7.29885 13,7.3125 12.91261,7.370676 12.83466,7.4398725 12.75,7.5 12.595825,7.6055901 12.463459,7.7021106 12.3125,7.8125 12.199614,7.897735 12.082248,7.9769012 11.96875,8.0625 11.90534,8.110322 11.813173,8.1383327 11.75,8.1875 11.73067,8.202506 11.70677,8.234921 11.6875,8.25 c -0.09545,0.07486 -0.155396,0.1719242 -0.25,0.25 -0.242357,0.2000151 -0.488369,0.387439 -0.71875,0.59375 -0.08342,0.074628 -0.167932,0.141922 -0.25,0.21875 -0.174973,0.1638031 -0.359928,0.3627744 -0.53125,0.53125 -0.069741,0.068586 -0.150374,0.1173624 -0.21875,0.1875 -0.089303,0.09074 -0.1624395,0.188099 -0.25,0.28125 -0.044257,0.04591 -0.081843,0.07812 -0.125,0.125 -0.043243,0.04702 -0.1134032,0.108755 -0.15625,0.15625 L 6.125,9.4375 C 5.364846,10.371297 4.6214725,11.329828 4,12.40625 3.3785276,13.482671 2.8973659,14.624788 2.46875,15.75 L 5,17.84375 c -0.062043,0.191547 -0.1023409,0.400689 -0.15625,0.59375 -0.00402,0.01441 0.00414,0.0169 0,0.03125 -0.00264,0.009 0.00261,0.02213 0,0.03125 -0.00417,0.01435 -0.027082,0.04815 -0.03125,0.0625 -0.026815,0.07402 -0.041812,0.142452 -0.0625,0.21875 -0.00634,0.02339 -0.024991,0.03908 -0.03125,0.0625 -0.010217,0.03817 -0.021273,0.0868 -0.03125,0.125 C 4.668945,19.03954 4.673983,19.116067 4.65625,19.1875 4.641939,19.24419 4.635956,19.286107 4.625,19.34375 4.605801,19.42017 4.548736,19.485478 4.53125,19.5625 4.52914,19.5721 4.564723,19.58419 4.5625,19.59375 4.546336,19.66568 4.515561,19.740551 4.5,19.8125 4.465844,19.935576 4.4304256,20.06271 4.40625,20.1875 4.40161,20.21159 4.379283,20.22592 4.375,20.25 c -0.013981,0.07199 -0.018372,0.146951 -0.03125,0.21875 -0.00174,0.0096 0.00173,0.0216 0,0.03125 C 4.34198,20.51008 4.376768,20.5212 4.375,20.53125 4.360785,20.6277 4.327943,20.715343 4.3125,20.8125 4.30476,20.86086 4.288061,20.920387 4.28125,20.96875 4.268582,21.05079 4.261315,21.13656 4.25,21.21875 4.237267,21.31074 4.230173,21.407944 4.21875,21.5 c -0.00399,0.03426 0.00411,0.05947 0,0.09375 C 4.21297,21.64124 4.193044,21.702378 4.1875,21.75 4.163769,21.890063 4.138008,22.013963 4.125,22.15625 c -0.00413,0.04519 -0.00102,0.111059 0,0.15625 -0.0054,0.05801 -0.026336,0.09813 -0.03125,0.15625 -2.143e-4,0.02103 0.032767,0.04155 0.03125,0.0625 -0.00112,0.0139 -0.030151,0.0486 -0.03125,0.0625 -0.00647,0.09327 -0.026109,0.187982 -0.03125,0.28125 -0.00685,0.123877 0.00195,0.250349 0,0.375 -0.00282,0.07007 0.00183,0.117442 0,0.1875 -0.00533,0.06872 -0.030188,0.148458 -0.03125,0.21875 -0.00103,0.06838 3.23e-4,0.119025 0,0.1875 -7.867e-4,0.135006 -0.00195,0.2714 0,0.40625 0.00369,0.234896 0.01911,0.482958 0.03125,0.71875 l -3,1.375 c 0.1227849,1.197806 0.3033022,2.424408 0.625,3.625 0.3216978,1.200592 0.7574323,2.307528 1.25,3.40625 l 3.28125,-0.28125 c 0.036203,0.0709 0.088009,0.117172 0.125,0.1875 0.00496,0.0095 0.02626,0.02186 0.03125,0.03125 0.020395,0.04005 0.041221,0.08536 0.0625,0.125 0.060163,0.109071 0.1262881,0.203448 0.1875,0.3125 0.074039,0.129089 0.1438851,0.277774 0.21875,0.40625 0.050714,0.08702 0.1037117,0.164324 0.15625,0.25 0.036214,0.0591 0.056864,0.12894 0.09375,0.1875 0.019453,0.02876 0.044165,0.03359 0.0625,0.0625 0.044409,0.07859 0.075804,0.174736 0.125,0.25 0.013223,0.02018 0.049227,0.04236 0.0625,0.0625 0.2246651,0.340914 0.4723358,0.672069 0.71875,1 0.014465,0.01926 0.016735,0.01208 0.03125,0.03125 0.04304,0.0667 0.075764,0.155489 0.125,0.21875 0.015006,0.01933 0.047421,0.04323 0.0625,0.0625 0.075657,0.09572 0.1730651,0.186526 0.25,0.28125 0.200015,0.242357 0.3874391,0.48837 0.59375,0.71875 0.064728,0.07236 0.1194535,0.148905 0.1875,0.21875 0.00987,0.01069 0.021391,-0.01066 0.03125,0 0.1306767,0.141388 0.269982,0.272293 0.40625,0.40625 0.034997,0.03428 0.090277,0.09047 0.125,0.125 0.069489,0.06909 0.1173624,0.150374 0.1875,0.21875 0.03908,0.03761 0.08595,0.05604 0.125,0.09375 0.05284,0.0508 0.103982,0.105349 0.15625,0.15625 0.04591,0.04426 0.07812,0.113095 0.125,0.15625 0.04702,0.04325 0.0775,0.08216 0.125,0.125 l -1.125,3.09375 c 0.933797,0.760154 1.892328,1.503527 2.96875,2.125 1.076421,0.621472 2.218538,1.071384 3.34375,1.5 L 17.875,42.96875 c 0.191547,0.06204 0.400689,0.102349 0.59375,0.15625 0.0144,0.004 0.0169,0.0271 0.03125,0.03125 0.04707,0.01351 0.109267,0.01805 0.15625,0.03125 0.05142,0.01867 0.103905,0.04749 0.15625,0.0625 0.02339,0.0063 0.03908,-0.0063 0.0625,0 0.03816,0.01018 0.05555,0.02127 0.09375,0.03125 0.07079,0.01855 0.147318,0.04477 0.21875,0.0625 0.109595,0.0273 0.234318,0.03536 0.34375,0.0625 0.02381,0.0056 0.03863,0.02574 0.0625,0.03125 0.02396,0.0055 0.03857,-0.0054 0.0625,0 0.180775,0.04383 0.380478,0.08974 0.5625,0.125 0.0241,0.0046 0.03842,0.02693 0.0625,0.03125 0.07158,0.01525 0.146948,0.01837 0.21875,0.03125 0.116102,0.01747 0.226719,0.01265 0.34375,0.03125 0.04836,0.0078 0.107887,0.02444 0.15625,0.03125 0.08259,0.01278 0.166678,0.05089 0.25,0.0625 0.09199,0.01274 0.189193,-0.01142 0.28125,0 0.03426,0.004 0.05947,0.02715 0.09375,0.03125 0.03423,0.0045 0.05954,-0.0046 0.09375,0 0.03401,0.0042 0.09081,-0.0043 0.125,0 0.120239,0.02157 0.223734,0.0506 0.34375,0.0625 0.104128,0.0096 0.209258,0.02346 0.3125,0.03125 0.03491,0.0029 0.05908,-0.0026 0.09375,0 0.09327,0.0065 0.187981,0.02611 0.28125,0.03125 0.134336,0.0075 0.271027,-0.0018 0.40625,0 0.05951,0.0023 0.127987,0.02969 0.1875,0.03125 0.06873,0.0018 0.150037,-0.0012 0.21875,0 0.06839,10e-4 0.119024,-3.2e-4 0.1875,0 0.135004,7.85e-4 0.271398,0.002 0.40625,0 C 24.516145,43.9338 24.764208,43.91832 25,43.90625 l 1.375,3 c 1.197805,-0.122785 2.393158,-0.303302 3.59375,-0.625 1.200592,-0.321698 2.338778,-0.757432 3.4375,-1.25 L 33.125,41.75 c 0.0709,-0.0362 0.117171,-0.08801 0.1875,-0.125 0.04939,-0.02599 0.107512,-0.03561 0.15625,-0.0625 0.109229,-0.05882 0.204231,-0.1254 0.3125,-0.1875 0.130384,-0.07319 0.245973,-0.175642 0.375,-0.25 0.03877,-0.02233 0.08341,-0.04505 0.125,-0.0625 0.01805,-0.01092 0.0445,-0.02026 0.0625,-0.03125 0.03086,-0.01533 0.06454,-0.04461 0.09375,-0.0625 0.08752,-0.0536 0.163246,-0.101252 0.25,-0.15625 0.0202,-0.01259 0.04143,-0.05122 0.0625,-0.0625 0.07534,-0.0483 0.174211,-0.07412 0.25,-0.125 0.08659,-0.05707 0.164422,-0.09764 0.25,-0.15625 0.152644,-0.108416 0.289063,-0.231674 0.4375,-0.34375 0.113037,-0.08291 0.232606,-0.165871 0.34375,-0.25 0.06341,-0.04782 0.155578,-0.07583 0.21875,-0.125 0.01934,-0.01496 0.04323,-0.04742 0.0625,-0.0625 0.09546,-0.07487 0.155396,-0.140674 0.25,-0.21875 0.242357,-0.200014 0.48837,-0.41869 0.71875,-0.625 0.08342,-0.07463 0.167932,-0.141923 0.25,-0.21875 0.174974,-0.163804 0.359928,-0.331523 0.53125,-0.5 0.06974,-0.06859 0.150375,-0.14861 0.21875,-0.21875 0.0893,-0.09074 0.162439,-0.156849 0.25,-0.25 0.04426,-0.04591 0.08185,-0.109375 0.125,-0.15625 0.04325,-0.04702 0.113395,-0.0775 0.15625,-0.125 L 41.875,38.5 c 0.760154,-0.933799 1.503527,-1.892327 2.125,-2.96875 0.621473,-1.076422 1.102633,-2.218538 1.53125,-3.34375 L 43,30.09375 c 0.06205,-0.191548 0.102349,-0.400689 0.15625,-0.59375 0.0042,-0.01436 -0.0042,-0.0169 0,-0.03125 0.0026,-0.0091 -0.0026,-0.02214 0,-0.03125 0.0042,-0.01467 0.02605,-0.01693 0.03125,-0.03125 0.02194,-0.07557 0.04083,-0.143129 0.0625,-0.21875 0.0063,-0.02339 0.02494,-0.07033 0.03125,-0.09375 0.01018,-0.03816 0.02127,-0.05555 0.03125,-0.09375 0.01855,-0.07079 0.01352,-0.147317 0.03125,-0.21875 0.03578,-0.141729 0.06038,-0.294057 0.09375,-0.4375 0.01741,-0.07122 0.04287,-0.148009 0.0625,-0.21875 0.03416,-0.123077 0.06957,-0.25021 0.09375,-0.375 0.0046,-0.0241 0.02693,-0.03842 0.03125,-0.0625 0.01399,-0.07199 0.01838,-0.146952 0.03125,-0.21875 0.0018,-0.0097 -0.0018,-0.02159 0,-0.03125 0.0018,-0.01008 -0.03304,-0.0212 -0.03125,-0.03125 0.01422,-0.09645 0.04705,-0.184091 0.0625,-0.28125 0.02096,-0.130945 0.04671,-0.275278 0.0625,-0.40625 0.01274,-0.09199 0.01983,-0.189193 0.03125,-0.28125 0.004,-0.03426 -0.0041,-0.05947 0,-0.09375 0.0069,-0.0484 0.0231,-0.07688 0.03125,-0.125 0.01617,-0.138956 0.04863,-0.297676 0.0625,-0.4375 0.0095,-0.103856 0.03022,-0.209264 0.03125,-0.3125 0.0018,-0.02102 -0.033,-0.04146 -0.03125,-0.0625 0.0012,-0.01412 0.03027,-0.01714 0.03125,-0.03125 0.0065,-0.09327 0.02611,-0.18798 0.03125,-0.28125 0.0068,-0.123876 -0.002,-0.250349 0,-0.375 0.0025,-0.06911 -0.0053,-0.150025 0,-0.21875 0.0018,-0.06873 0.0301,-0.118787 0.03125,-0.1875 10e-4,-0.06839 -3.2e-4,-0.150274 0,-0.21875 7.86e-4,-0.135005 0.002,-0.271399 0,-0.40625 -0.0037,-0.234896 -0.01918,-0.482958 -0.03125,-0.71875 l 3,-1.375 C 46.814743,20.395935 46.634198,19.200592 46.3125,18 c -0.321698,-1.200592 -0.757432,-2.338778 -1.25,-3.4375 l -3.28125,0.3125 c -0.0362,-0.0709 -0.08801,-0.148421 -0.125,-0.21875 C 41.65135,14.64675 41.63,14.63437 41.625,14.625 41.6046,14.58495 41.58379,14.539635 41.5625,14.5 41.50233,14.390928 41.436212,14.296552 41.375,14.1875 41.30096,14.058411 41.231113,13.940976 41.15625,13.8125 41.10502,13.72594 41.052441,13.61687 41,13.53125 c -0.0536,-0.08752 -0.101252,-0.163247 -0.15625,-0.25 -0.0444,-0.07859 -0.07581,-0.174733 -0.125,-0.25 C 40.70552,13.01108 40.66952,13.02013 40.65625,13 40.431585,12.659085 40.183915,12.32793 39.9375,12 c -0.01443,-0.01936 -0.01814,-0.04221 -0.03125,-0.0625 -0.04304,-0.0667 -0.07577,-0.15549 -0.125,-0.21875 -0.01496,-0.01934 -0.04742,-0.01198 -0.0625,-0.03125 -0.07566,-0.09572 -0.173064,-0.186525 -0.25,-0.28125 C 39.268736,11.163893 39.08131,10.917881 38.875,10.6875 38.81027,10.61515 38.755545,10.538595 38.6875,10.46875 38.543852,10.321299 38.397753,10.175985 38.25,10.03125 38.21522,9.99706 38.15996,9.9714506 38.125,9.9375 38.055481,9.868387 38.00764,9.7871249 37.9375,9.71875 c -0.03896,-0.037999 -0.08619,-0.086832 -0.125,-0.125 -0.05284,-0.050799 -0.103988,-0.1053502 -0.15625,-0.15625 -0.04648,-0.043712 -0.07787,-0.082336 -0.125,-0.125 -0.04702,-0.043244 -0.0775,-0.082152 -0.125,-0.125 l 1.125,-3.09375 C 37.597452,5.3335961 36.638922,4.5902227 35.5625,3.96875 34.486078,3.3472783 33.343962,2.8661162 32.21875,2.4375 L 30.125,4.96875 C 29.933453,4.906708 29.724312,4.86641 29.53125,4.8125 29.51671,4.80828 29.51441,4.817159 29.5,4.8125 29.40057,4.783956 29.286796,4.745837 29.1875,4.71875 29.16411,4.71241 29.14842,4.69376 29.125,4.6875 29.08706,4.677304 29.069299,4.666221 29.03125,4.65625 28.96103,4.637927 28.884044,4.641264 28.8125,4.625 28.702905,4.597698 28.578182,4.558389 28.46875,4.53125 c -0.02386,-0.00567 -0.03851,0.00456 -0.0625,0 C 28.38229,4.52581 28.36768,4.505369 28.34375,4.5 28.161813,4.4580782 27.962578,4.4150806 27.78125,4.375 27.665175,4.3526413 27.553691,4.3608713 27.4375,4.34375 27.341561,4.3268356 27.252739,4.2956161 27.15625,4.28125 27.10789,4.27351 27.048363,4.256815 27,4.25 26.91741,4.237215 26.833322,4.23035 26.75,4.21875 26.65801,4.206017 26.560807,4.198923 26.46875,4.1875 c -0.03424,-0.00441 -0.05952,0.00449 -0.09375,0 -0.03376,-0.00411 -0.05975,0.00423 -0.09375,0 -0.03352,-0.00396 -0.09119,-0.025179 -0.125,-0.03125 C 26.03601,4.134677 25.932516,4.105651 25.8125,4.09375 25.708372,4.08423 25.603241,4.070293 25.5,4.0625 c -0.03491,-0.00295 -0.05908,0.0026 -0.09375,0 C 25.31298,4.05603 25.218269,4.036391 25.125,4.03125 c -0.06869,-0.00361 -0.149997,0.00274 -0.21875,0 C 24.83982,4.03407 24.785037,4.063379 24.71875,4.0625 24.65924,4.06023 24.590763,4.032805 24.53125,4.03125 24.46252,4.02945 24.381213,4.001155 24.3125,4 24.24412,3.99897 24.193475,4.000323 24.125,4 23.989995,3.9992137 23.853601,3.99804 23.71875,4 23.483856,4.00369 23.235792,4.01911 23,4.03125 l -1.375,-3 z"
       id="path4247" />
    <path
       style="fill:url(#linearGradient4821);fill-opacity:1;fill-rule:nonzero;stroke:none;opacity:0.25"
       d="M 33.90625 14.09375 L 14.09375 33.90625 L 24.15625 43.9375 C 24.197949 43.937387 24.239757 43.938115 24.28125 43.9375 C 24.516145 43.9338 24.764208 43.91832 25 43.90625 L 25.75 45.53125 L 27.03125 46.8125 C 28.007806 46.692673 28.989396 46.543667 29.96875 46.28125 C 31.169342 45.959552 32.307528 45.523818 33.40625 45.03125 L 33.125 41.75 C 33.1959 41.7138 33.242171 41.66199 33.3125 41.625 C 33.36189 41.59901 33.420012 41.58939 33.46875 41.5625 C 33.577979 41.50368 33.672981 41.4371 33.78125 41.375 C 33.911634 41.30181 34.027223 41.199358 34.15625 41.125 C 34.19502 41.10267 34.23966 41.07995 34.28125 41.0625 C 34.2993 41.05158 34.32575 41.04224 34.34375 41.03125 C 34.37461 41.01592 34.40829 40.98664 34.4375 40.96875 C 34.52502 40.91515 34.600746 40.867498 34.6875 40.8125 C 34.7077 40.79991 34.72893 40.76128 34.75 40.75 C 34.82534 40.7017 34.924211 40.67588 35 40.625 C 35.08659 40.56793 35.164422 40.52736 35.25 40.46875 C 35.402644 40.360334 35.539063 40.237076 35.6875 40.125 C 35.800537 40.04209 35.920106 39.959129 36.03125 39.875 C 36.09466 39.82718 36.186828 39.79917 36.25 39.75 C 36.26934 39.73504 36.29323 39.70258 36.3125 39.6875 C 36.40796 39.61263 36.467896 39.546826 36.5625 39.46875 C 36.804857 39.268736 37.05087 39.05006 37.28125 38.84375 C 37.36467 38.76912 37.449182 38.701827 37.53125 38.625 C 37.706224 38.461196 37.891178 38.293477 38.0625 38.125 C 38.13224 38.05641 38.212875 37.97639 38.28125 37.90625 C 38.37055 37.81551 38.443689 37.749401 38.53125 37.65625 C 38.57551 37.61034 38.6131 37.546875 38.65625 37.5 C 38.6995 37.45298 38.769645 37.4225 38.8125 37.375 L 41.875 38.5 C 42.635154 37.566201 43.378527 36.607673 44 35.53125 C 44.621473 34.454828 45.102633 33.312712 45.53125 32.1875 L 43 30.09375 C 43.06205 29.902202 43.102349 29.693061 43.15625 29.5 C 43.16045 29.48564 43.15205 29.4831 43.15625 29.46875 C 43.15885 29.45965 43.15365 29.44661 43.15625 29.4375 C 43.16045 29.42283 43.1823 29.42057 43.1875 29.40625 C 43.20944 29.33068 43.22833 29.263121 43.25 29.1875 C 43.2563 29.16411 43.27494 29.11717 43.28125 29.09375 C 43.29143 29.05559 43.30252 29.0382 43.3125 29 C 43.33105 28.92921 43.32602 28.852683 43.34375 28.78125 C 43.37953 28.639521 43.40413 28.487193 43.4375 28.34375 C 43.45491 28.27253 43.48037 28.195741 43.5 28.125 C 43.53416 28.001923 43.56957 27.87479 43.59375 27.75 C 43.59835 27.7259 43.62068 27.71158 43.625 27.6875 C 43.63899 27.61551 43.64338 27.540548 43.65625 27.46875 C 43.65805 27.45905 43.65445 27.44716 43.65625 27.4375 C 43.65805 27.42742 43.62321 27.4163 43.625 27.40625 C 43.63922 27.3098 43.67205 27.222159 43.6875 27.125 C 43.70846 26.994055 43.73421 26.849722 43.75 26.71875 C 43.76274 26.62676 43.76983 26.529557 43.78125 26.4375 C 43.78525 26.40324 43.77715 26.37803 43.78125 26.34375 C 43.78815 26.29535 43.80435 26.26687 43.8125 26.21875 C 43.82867 26.079794 43.86113 25.921074 43.875 25.78125 C 43.8845 25.677394 43.90522 25.571986 43.90625 25.46875 C 43.90805 25.44773 43.87325 25.42729 43.875 25.40625 C 43.8762 25.39213 43.90527 25.38911 43.90625 25.375 C 43.91275 25.28173 43.93236 25.18702 43.9375 25.09375 C 43.9443 24.969874 43.9355 24.843401 43.9375 24.71875 C 43.94 24.64964 43.9322 24.568725 43.9375 24.5 C 43.9393 24.43127 43.9676 24.381213 43.96875 24.3125 C 43.969321 24.27342 43.968955 24.230373 43.96875 24.1875 L 33.90625 14.09375 z "
       id="rect4259" />
  </g>
  <g
     inkscape:groupmode="layer"
     id="layer3"
     inkscape:label="Emblem"
     style="display:inline">
    <path
       sodipodi:type="arc"
       style="fill:#ff6600;fill-opacity:1;fill-rule:nonzero;stroke:none"
       id="path4630"
       sodipodi:cx="24"
       sodipodi:cy="24"
       sodipodi:rx="14"
       sodipodi:ry="14"
       d="m 38,24 a 14,14 0 1 1 -28,0 14,14 0 1 1 28,0 z" />
    <path
       style="fill:#ffffff;fill-opacity:1;fill-rule:nonzero;stroke:none;stroke-opacity:1;stroke-width:0.50000000000000000;stroke-miterlimit:4;stroke-dasharray:none;stroke-linecap:round;stroke-linejoin:round"
       d="m 18.015675,14.000025 0.0937,3.21875 c 9.03881,0.1513 12.7987,7.6538 12.65625,12.75 l 3.25,0.0312 c -0.07,-7.9672 -5.62311,-15.517 -16,-16 z m 0.0312,5.34375 0.0312,3.15625 c 4.10871,0.1749 7.35375,2.6929 7.40625,7.5 l 3.15625,0 c -0.092,-5.469 -3.84067,-10.30305 -10.59375,-10.65625 z m 2.1875,6.21875 c -1.23569,0 -2.25,0.9845 -2.25,2.1875 0,1.20299 1.01431,2.15625 2.25,2.15625 1.23569,0 2.25,-0.95326 2.25,-2.15625 0,-1.203 -1.01431,-2.1875 -2.25,-2.1875 z"
       id="path5270"
       inkscape:connector-curvature="0" />
  </g>
</svg>
