<?xml version="1.0" encoding="UTF-8" standalone="no"?>
<!-- Created with Inkscape (http://www.inkscape.org/) -->

<svg
   xmlns:dc="http://purl.org/dc/elements/1.1/"
   xmlns:cc="http://creativecommons.org/ns#"
   xmlns:rdf="http://www.w3.org/1999/02/22-rdf-syntax-ns#"
   xmlns:svg="http://www.w3.org/2000/svg"
   xmlns="http://www.w3.org/2000/svg"
   xmlns:xlink="http://www.w3.org/1999/xlink"
   xmlns:sodipodi="http://sodipodi.sourceforge.net/DTD/sodipodi-0.dtd"
   xmlns:inkscape="http://www.inkscape.org/namespaces/inkscape"
   width="48"
   height="48"
   id="svg2"
   version="1.1"
   inkscape:version="0.48.5 r10040"
   sodipodi:docname="ic_launcher.svg"
   inkscape:export-filename="/Users/tughi/Projects/Aggregator/aggregator-android/app/src/main/res/drawable-xxxhdpi/ic_launcher.png"
   inkscape:export-xdpi="360"
   inkscape:export-ydpi="360">
  <defs
     id="defs4">
    <linearGradient
       inkscape:collect="always"
       id="linearGradient3846">
      <stop
         style="stop-color:#000000;stop-opacity:0"
         offset="0"
         id="stop3848" />
      <stop
         style="stop-color:#000000;stop-opacity:0.1"
         offset="1"
         id="stop3850" />
    </linearGradient>
    <linearGradient
       id="linearGradient3839">
      <stop
         style="stop-color:#cccccc;stop-opacity:1"
         offset="0"
         id="stop3841" />
      <stop
         id="stop3847"
         offset="0.5"
         style="stop-color:#999999;stop-opacity:1" />
      <stop
         style="stop-color:#cccccc;stop-opacity:1"
         offset="1"
         id="stop3843" />
    </linearGradient>
    <linearGradient
       id="linearGradient3833">
      <stop
         style="stop-color:#ffffff;stop-opacity:0.49803922"
         offset="0"
         id="stop3835" />
      <stop
         style="stop-color:#ffffff;stop-opacity:0.12711865"
         offset="1"
         id="stop3837" />
    </linearGradient>
    <linearGradient
       id="linearGradient3830">
      <stop
         id="stop3832"
         offset="0"
         style="stop-color:#a0a0a0;stop-opacity:1" />
      <stop
         id="stop3834"
         offset="1"
         style="stop-color:#d7d7d7;stop-opacity:1" />
    </linearGradient>
    <linearGradient
       id="linearGradient4506">
      <stop
         id="stop4508"
         offset="0"
         style="stop-color:#ffffff;stop-opacity:0.78431374;" />
      <stop
         id="stop4510"
         offset="1"
         style="stop-color:#ffffff;stop-opacity:0" />
    </linearGradient>
    <linearGradient
       id="linearGradient4107">
      <stop
         id="stop4109"
         offset="0"
         style="stop-color:#ffffff;stop-opacity:0.53435117;" />
      <stop
         id="stop4113"
         offset="1"
         style="stop-color:#ffffff;stop-opacity:0;" />
    </linearGradient>
    <linearGradient
       id="linearGradient4000">
      <stop
         style="stop-color:#99cc33;stop-opacity:1"
         offset="0"
         id="stop4002" />
      <stop
         style="stop-color:#669900;stop-opacity:1"
         offset="1"
         id="stop4004" />
    </linearGradient>
    <linearGradient
       id="linearGradient3939">
      <stop
         style="stop-color:#000000;stop-opacity:1;"
         offset="0"
         id="stop3941" />
      <stop
         id="stop3947"
         offset="0.5"
         style="stop-color:#000000;stop-opacity:1;" />
      <stop
         style="stop-color:#cccccc;stop-opacity:1;"
         offset="1"
         id="stop3943" />
    </linearGradient>
    <linearGradient
       inkscape:collect="always"
       xlink:href="#linearGradient3939"
       id="linearGradient3945"
       x1="24"
       y1="4"
       x2="24"
       y2="24"
       gradientUnits="userSpaceOnUse" />
    <linearGradient
       inkscape:collect="always"
       xlink:href="#linearGradient3939"
       id="linearGradient3974"
       gradientUnits="userSpaceOnUse"
       x1="24"
       y1="4"
       x2="24"
       y2="24"
       gradientTransform="matrix(0.96592582,-0.25881905,0.25881905,0.96592582,-5.3938799,1011.3916)" />
    <linearGradient
       inkscape:collect="always"
       xlink:href="#linearGradient3939"
       id="linearGradient3978"
       gradientUnits="userSpaceOnUse"
       gradientTransform="matrix(0,-1,1,0,0,1052.3622)"
       x1="24"
       y1="4"
       x2="24"
       y2="24" />
    <linearGradient
       inkscape:collect="always"
       xlink:href="#linearGradient3939"
       id="linearGradient3982"
       gradientUnits="userSpaceOnUse"
       gradientTransform="matrix(-0.70710678,-0.70710678,0.70710678,-0.70710678,24,1062.3033)"
       x1="24"
       y1="4"
       x2="24"
       y2="24" />
    <linearGradient
       inkscape:collect="always"
       xlink:href="#linearGradient3939"
       id="linearGradient3986"
       gradientUnits="userSpaceOnUse"
       gradientTransform="matrix(-1,0,0,-1,47.999982,1052.3622)"
       x1="24"
       y1="4"
       x2="24"
       y2="24" />
    <linearGradient
       inkscape:collect="always"
       xlink:href="#linearGradient3939"
       id="linearGradient3990"
       gradientUnits="userSpaceOnUse"
       gradientTransform="matrix(-0.70710678,0.70710678,-0.70710678,-0.70710678,57.941111,1028.3622)"
       x1="24"
       y1="4"
       x2="24"
       y2="24" />
    <linearGradient
       inkscape:collect="always"
       xlink:href="#linearGradient3939"
       id="linearGradient3994"
       gradientUnits="userSpaceOnUse"
       gradientTransform="matrix(0,1,-1,0,47.999988,1004.3622)"
       x1="24"
       y1="4"
       x2="24"
       y2="24" />
    <linearGradient
       inkscape:collect="always"
       xlink:href="#linearGradient3939"
       id="linearGradient3998"
       gradientUnits="userSpaceOnUse"
       gradientTransform="matrix(0.70710678,0.70710678,-0.70710678,0.70710678,23.99999,994.42108)"
       x1="24"
       y1="4"
       x2="24"
       y2="24" />
    <linearGradient
       inkscape:collect="always"
       xlink:href="#linearGradient4000"
       id="linearGradient4006"
       x1="8"
       y1="24"
       x2="40"
       y2="24"
       gradientUnits="userSpaceOnUse" />
    <linearGradient
       inkscape:collect="always"
       xlink:href="#linearGradient3939"
       id="linearGradient4032"
       gradientUnits="userSpaceOnUse"
       gradientTransform="matrix(0.70710678,-0.70710678,0.70710678,0.70710678,-9.9411255,24)"
       x1="24"
       y1="4"
       x2="24"
       y2="24" />
    <linearGradient
       inkscape:collect="always"
       xlink:href="#linearGradient3939"
       id="linearGradient4055"
       gradientUnits="userSpaceOnUse"
       gradientTransform="matrix(0.25881905,0.96592582,-0.96592582,0.25881905,40.970552,998.96832)"
       x1="24"
       y1="4"
       x2="24"
       y2="24" />
    <linearGradient
       inkscape:collect="always"
       xlink:href="#linearGradient3939"
       id="linearGradient4057"
       gradientUnits="userSpaceOnUse"
       gradientTransform="matrix(-0.50000001,0.86602541,-0.86602541,-0.50000001,56.784607,1019.5776)"
       x1="24"
       y1="4"
       x2="24"
       y2="24" />
    <linearGradient
       inkscape:collect="always"
       xlink:href="#linearGradient3939"
       id="linearGradient4059"
       gradientUnits="userSpaceOnUse"
       gradientTransform="matrix(-0.96592582,0.25881905,-0.25881905,-0.96592582,53.393866,1045.3328)"
       x1="24"
       y1="4"
       x2="24"
       y2="24" />
    <linearGradient
       inkscape:collect="always"
       xlink:href="#linearGradient3939"
       id="linearGradient4061"
       gradientUnits="userSpaceOnUse"
       gradientTransform="matrix(-0.86602541,-0.50000001,0.50000001,-0.86602541,32.784586,1061.1468)"
       x1="24"
       y1="4"
       x2="24"
       y2="24" />
    <linearGradient
       inkscape:collect="always"
       xlink:href="#linearGradient3939"
       id="linearGradient4063"
       gradientUnits="userSpaceOnUse"
       gradientTransform="matrix(-0.25881905,-0.96592582,0.96592582,-0.25881905,7.0294458,1057.7561)"
       x1="24"
       y1="4"
       x2="24"
       y2="24" />
    <linearGradient
       inkscape:collect="always"
       xlink:href="#linearGradient3939"
       id="linearGradient4065"
       gradientUnits="userSpaceOnUse"
       gradientTransform="matrix(0.50000001,-0.86602541,0.86602541,0.50000001,-8.7846198,1037.1468)"
       x1="24"
       y1="4"
       x2="24"
       y2="24" />
    <linearGradient
       inkscape:collect="always"
       xlink:href="#linearGradient3939"
       id="linearGradient4067"
       gradientUnits="userSpaceOnUse"
       x1="24"
       y1="4"
       x2="24"
       y2="24"
       gradientTransform="matrix(0.86602541,0.50000001,-0.50000001,0.86602541,15.215391,995.57759)" />
    <linearGradient
       inkscape:collect="always"
       xlink:href="#linearGradient3939"
       id="linearGradient4081"
       gradientUnits="userSpaceOnUse"
       gradientTransform="matrix(0.86602541,0.50000001,-0.50000001,0.86602541,15.215391,995.57759)"
       x1="24"
       y1="4"
       x2="24"
       y2="24" />
    <linearGradient
       inkscape:collect="always"
       xlink:href="#linearGradient3939"
       id="linearGradient4083"
       gradientUnits="userSpaceOnUse"
       gradientTransform="matrix(0.96592582,-0.25881905,0.25881905,0.96592582,-5.3938799,1011.3916)"
       x1="24"
       y1="4"
       x2="24"
       y2="24" />
    <linearGradient
       inkscape:collect="always"
       xlink:href="#linearGradient3939"
       id="linearGradient4085"
       gradientUnits="userSpaceOnUse"
       gradientTransform="matrix(0.50000001,-0.86602541,0.86602541,0.50000001,-8.7846198,1037.1468)"
       x1="24"
       y1="4"
       x2="24"
       y2="24" />
    <linearGradient
       inkscape:collect="always"
       xlink:href="#linearGradient3939"
       id="linearGradient4087"
       gradientUnits="userSpaceOnUse"
       gradientTransform="matrix(-0.25881905,-0.96592582,0.96592582,-0.25881905,7.0294458,1057.7561)"
       x1="24"
       y1="4"
       x2="24"
       y2="24" />
    <linearGradient
       inkscape:collect="always"
       xlink:href="#linearGradient3939"
       id="linearGradient4089"
       gradientUnits="userSpaceOnUse"
       gradientTransform="matrix(-0.86602541,-0.50000001,0.50000001,-0.86602541,32.784586,1061.1468)"
       x1="24"
       y1="4"
       x2="24"
       y2="24" />
    <linearGradient
       inkscape:collect="always"
       xlink:href="#linearGradient3939"
       id="linearGradient4091"
       gradientUnits="userSpaceOnUse"
       gradientTransform="matrix(-0.96592582,0.25881905,-0.25881905,-0.96592582,53.393866,1045.3328)"
       x1="24"
       y1="4"
       x2="24"
       y2="24" />
    <linearGradient
       inkscape:collect="always"
       xlink:href="#linearGradient3939"
       id="linearGradient4093"
       gradientUnits="userSpaceOnUse"
       gradientTransform="matrix(-0.50000001,0.86602541,-0.86602541,-0.50000001,56.784607,1019.5776)"
       x1="24"
       y1="4"
       x2="24"
       y2="24" />
    <linearGradient
       inkscape:collect="always"
       xlink:href="#linearGradient3939"
       id="linearGradient4095"
       gradientUnits="userSpaceOnUse"
       gradientTransform="matrix(0.25881905,0.96592582,-0.96592582,0.25881905,40.970552,998.96832)"
       x1="24"
       y1="4"
       x2="24"
       y2="24" />
    <linearGradient
       inkscape:collect="always"
       xlink:href="#linearGradient4107"
       id="linearGradient4105"
       x1="8"
       y1="24"
       x2="40"
       y2="24"
       gradientUnits="userSpaceOnUse"
       gradientTransform="matrix(0,1,-1,0,48,0)" />
    <linearGradient
       inkscape:collect="always"
       xlink:href="#linearGradient4107"
       id="linearGradient4117"
       gradientUnits="userSpaceOnUse"
       x1="8"
       y1="24"
       x2="40"
       y2="24" />
    <linearGradient
       inkscape:collect="always"
       xlink:href="#linearGradient3939"
       id="linearGradient4304"
       gradientUnits="userSpaceOnUse"
       gradientTransform="matrix(0.25881905,0.96592582,-0.96592582,0.25881905,40.970552,998.96832)"
       x1="24"
       y1="4"
       x2="24"
       y2="24" />
    <linearGradient
       inkscape:collect="always"
       xlink:href="#linearGradient3939"
       id="linearGradient4307"
       gradientUnits="userSpaceOnUse"
       gradientTransform="matrix(-0.50000001,0.86602541,-0.86602541,-0.50000001,56.784607,1019.5776)"
       x1="24"
       y1="4"
       x2="24"
       y2="24" />
    <linearGradient
       inkscape:collect="always"
       xlink:href="#linearGradient3939"
       id="linearGradient4310"
       gradientUnits="userSpaceOnUse"
       gradientTransform="matrix(-0.96592582,0.25881905,-0.25881905,-0.96592582,53.393866,1045.3328)"
       x1="24"
       y1="4"
       x2="24"
       y2="24" />
    <linearGradient
       inkscape:collect="always"
       xlink:href="#linearGradient3939"
       id="linearGradient4313"
       gradientUnits="userSpaceOnUse"
       gradientTransform="matrix(-0.86602541,-0.50000001,0.50000001,-0.86602541,32.784586,1061.1468)"
       x1="24"
       y1="4"
       x2="24"
       y2="24" />
    <linearGradient
       inkscape:collect="always"
       xlink:href="#linearGradient3939"
       id="linearGradient4316"
       gradientUnits="userSpaceOnUse"
       gradientTransform="matrix(-0.25881905,-0.96592582,0.96592582,-0.25881905,7.0294458,1057.7561)"
       x1="24"
       y1="4"
       x2="24"
       y2="24" />
    <linearGradient
       inkscape:collect="always"
       xlink:href="#linearGradient3939"
       id="linearGradient4319"
       gradientUnits="userSpaceOnUse"
       gradientTransform="matrix(0.50000001,-0.86602541,0.86602541,0.50000001,-8.7846198,1037.1468)"
       x1="24"
       y1="4"
       x2="24"
       y2="24" />
    <linearGradient
       inkscape:collect="always"
       xlink:href="#linearGradient3939"
       id="linearGradient4322"
       gradientUnits="userSpaceOnUse"
       gradientTransform="matrix(0.96592582,-0.25881905,0.25881905,0.96592582,-5.3938799,1011.3916)"
       x1="24"
       y1="4"
       x2="24"
       y2="24" />
    <linearGradient
       inkscape:collect="always"
       xlink:href="#linearGradient3939"
       id="linearGradient4325"
       gradientUnits="userSpaceOnUse"
       gradientTransform="matrix(0.86602541,0.50000001,-0.50000001,0.86602541,15.215391,995.57759)"
       x1="24"
       y1="4"
       x2="24"
       y2="24" />
    <radialGradient
       inkscape:collect="always"
       xlink:href="#linearGradient4506"
       id="radialGradient4514"
       cx="13.5"
       cy="24"
       fx="13.5"
       fy="24"
       r="16"
       gradientUnits="userSpaceOnUse" />
    <linearGradient
       inkscape:collect="always"
       xlink:href="#linearGradient4000"
       id="linearGradient4671"
       gradientUnits="userSpaceOnUse"
       x1="8"
       y1="24"
       x2="40"
       y2="24" />
    <radialGradient
       inkscape:collect="always"
       xlink:href="#linearGradient3833"
       id="radialGradient4674"
       gradientUnits="userSpaceOnUse"
       cx="13.5"
       cy="24"
       fx="13.5"
       fy="24"
       r="16" />
    <filter
       id="filter4802"
       inkscape:label="Drop shadow"
       width="1.5"
       height="1.5"
       x="-.25"
       y="-.25">
      <feGaussianBlur
         id="feGaussianBlur4804"
         in="SourceAlpha"
         stdDeviation="1"
         result="blur" />
      <feColorMatrix
         id="feColorMatrix4806"
         result="bluralpha"
         type="matrix"
         values="1 0 0 0 0 0 1 0 0 0 0 0 1 0 0 0 0 0 1 0 " />
      <feOffset
         id="feOffset4808"
         in="bluralpha"
         dx="0"
         dy="1"
         result="offsetBlur" />
      <feMerge
         id="feMerge4810">
        <feMergeNode
           id="feMergeNode4812"
           in="offsetBlur" />
        <feMergeNode
           id="feMergeNode4814"
           in="SourceGraphic" />
      </feMerge>
    </filter>
    <linearGradient
       inkscape:collect="always"
       xlink:href="#linearGradient3830"
       id="linearGradient3840"
       x1="23.958588"
       y1="8.9539347"
       x2="23.958588"
       y2="39.094296"
       gradientUnits="userSpaceOnUse" />
    <linearGradient
       inkscape:collect="always"
       xlink:href="#linearGradient3846"
       id="linearGradient3852"
       x1="24"
       y1="4"
       x2="24"
       y2="44"
       gradientUnits="userSpaceOnUse" />
    <linearGradient
       inkscape:collect="always"
       xlink:href="#linearGradient3846"
       id="linearGradient3870"
       gradientUnits="userSpaceOnUse"
       x1="24"
       y1="4"
       x2="24"
       y2="44"
       gradientTransform="matrix(1.05,0,0,1.05,-1.1999994,-1.2249986)" />
    <filter
       inkscape:collect="always"
       id="filter3856">
      <feGaussianBlur
         inkscape:collect="always"
         stdDeviation="0.45875"
         id="feGaussianBlur3858" />
    </filter>
    <filter
       inkscape:collect="always"
       id="filter3874">
      <feGaussianBlur
         inkscape:collect="always"
         stdDeviation="0.45875"
         id="feGaussianBlur3876" />
    </filter>
  </defs>
  <sodipodi:namedview
     id="base"
     pagecolor="#000000"
     bordercolor="#666666"
     borderopacity="1.0"
     inkscape:pageopacity="0"
     inkscape:pageshadow="2"
     inkscape:zoom="17.291667"
     inkscape:cx="24"
     inkscape:cy="24"
     inkscape:document-units="px"
     inkscape:current-layer="layer2"
     showgrid="false"
     inkscape:showpageshadow="false"
     borderlayer="true"
     showguides="false"
     inkscape:guide-bbox="true"
     inkscape:window-width="1916"
     inkscape:window-height="1036"
     inkscape:window-x="0"
     inkscape:window-y="0"
     inkscape:window-maximized="1">
    <sodipodi:guide
       orientation="1,0"
       position="24,24"
       id="guide2985" />
    <sodipodi:guide
       id="guide2987"
       position="4,4"
       orientation="1,0" />
    <sodipodi:guide
       orientation="1,0"
       position="44,44"
       id="guide2989" />
    <sodipodi:guide
       orientation="0,1"
       position="44,44"
       id="guide2991" />
    <sodipodi:guide
       orientation="0,1"
       position="4,4"
       id="guide2993" />
  </sodipodi:namedview>
  <metadata
     id="metadata7">
    <rdf:RDF>
      <cc:Work
         rdf:about="">
        <dc:format>image/svg+xml</dc:format>
        <dc:type
           rdf:resource="http://purl.org/dc/dcmitype/StillImage" />
        <dc:title />
      </cc:Work>
    </rdf:RDF>
  </metadata>
  <g
     inkscape:groupmode="layer"
     id="layer2"
     inkscape:label="Wheel"
     style="display:inline">
    <path
       id="path3860"
       d="M 21.625 1.03125 C 20.427195 1.1540349 19.231842 1.3345522 18.03125 1.65625 C 16.830658 1.9779478 15.692472 2.4136823 14.59375 2.90625 L 14.875 6.21875 C 14.8041 6.254953 14.757828 6.2755085 14.6875 6.3125 C 14.63708 6.33626 14.580304 6.379906 14.53125 6.40625 C 14.422178 6.466413 14.327802 6.5325382 14.21875 6.59375 C 14.088366 6.666939 13.972777 6.7381419 13.84375 6.8125 C 13.78696 6.846698 13.712725 6.871791 13.65625 6.90625 C 13.62539 6.921595 13.59171 6.950859 13.5625 6.96875 C 13.47498 7.022351 13.399252 7.0699989 13.3125 7.125 C 13.29223 7.137854 13.27021 7.174543 13.25 7.1875 C 13.19144 7.218839 13.117831 7.245082 13.0625 7.28125 C 13.04225 7.294667 13.02032 7.29885 13 7.3125 C 12.91261 7.370676 12.83466 7.4398725 12.75 7.5 C 12.595825 7.6055901 12.463459 7.7021106 12.3125 7.8125 C 12.199614 7.897735 12.082248 7.9769012 11.96875 8.0625 C 11.90534 8.110322 11.813173 8.1383327 11.75 8.1875 C 11.73067 8.202506 11.70677 8.234921 11.6875 8.25 C 11.59205 8.32486 11.532104 8.4219242 11.4375 8.5 C 11.195143 8.7000151 10.949131 8.887439 10.71875 9.09375 C 10.63533 9.168378 10.550818 9.235672 10.46875 9.3125 C 10.293777 9.4763031 10.108822 9.6752744 9.9375 9.84375 C 9.867759 9.912336 9.787126 9.9611124 9.71875 10.03125 C 9.629447 10.12199 9.5563105 10.219349 9.46875 10.3125 C 9.424493 10.35841 9.3869071 10.390624 9.34375 10.4375 C 9.300507 10.48452 9.2303468 10.546255 9.1875 10.59375 L 6.125 9.4375 C 5.364846 10.371297 4.6214725 11.329828 4 12.40625 C 3.3785276 13.482671 2.8973659 14.624788 2.46875 15.75 L 5 17.84375 C 4.937957 18.035297 4.8976591 18.244439 4.84375 18.4375 C 4.83973 18.45191 4.847889 18.4544 4.84375 18.46875 C 4.84111 18.47775 4.846363 18.49088 4.84375 18.5 C 4.83958 18.51435 4.816668 18.54815 4.8125 18.5625 C 4.785685 18.63652 4.770688 18.704952 4.75 18.78125 C 4.74366 18.80464 4.725009 18.82033 4.71875 18.84375 C 4.708533 18.88192 4.697477 18.930552 4.6875 18.96875 C 4.668945 19.03954 4.673983 19.116067 4.65625 19.1875 C 4.641939 19.24419 4.635956 19.286107 4.625 19.34375 C 4.605801 19.42017 4.548736 19.485478 4.53125 19.5625 C 4.52914 19.5721 4.564723 19.58419 4.5625 19.59375 C 4.546336 19.66568 4.515561 19.740551 4.5 19.8125 C 4.465844 19.935576 4.4304256 20.06271 4.40625 20.1875 C 4.40161 20.21159 4.379283 20.22592 4.375 20.25 C 4.361019 20.32199 4.356628 20.396951 4.34375 20.46875 C 4.34201 20.47835 4.345477 20.49035 4.34375 20.5 C 4.34198 20.51008 4.376768 20.5212 4.375 20.53125 C 4.360785 20.6277 4.327943 20.715343 4.3125 20.8125 C 4.30476 20.86086 4.288061 20.920387 4.28125 20.96875 C 4.268582 21.05079 4.261315 21.13656 4.25 21.21875 C 4.237267 21.31074 4.230173 21.407944 4.21875 21.5 C 4.21476 21.53426 4.22286 21.559468 4.21875 21.59375 C 4.21297 21.64124 4.193044 21.702378 4.1875 21.75 C 4.163769 21.890063 4.138008 22.013963 4.125 22.15625 C 4.12087 22.20144 4.12398 22.267309 4.125 22.3125 C 4.1196 22.37051 4.098664 22.410628 4.09375 22.46875 C 4.0935357 22.48978 4.126517 22.5103 4.125 22.53125 C 4.12388 22.54515 4.094849 22.57985 4.09375 22.59375 C 4.08728 22.68702 4.067641 22.781732 4.0625 22.875 C 4.05565 22.998877 4.0644461 23.125349 4.0625 23.25 C 4.05968 23.32007 4.064328 23.367442 4.0625 23.4375 C 4.05717 23.50622 4.032312 23.585958 4.03125 23.65625 C 4.03022 23.72463 4.031573 23.775275 4.03125 23.84375 C 4.0304633 23.978756 4.0293 24.11515 4.03125 24.25 C 4.03494 24.484896 4.05036 24.732958 4.0625 24.96875 L 1.0625 26.34375 C 1.1852849 27.541556 1.3658022 28.768158 1.6875 29.96875 C 2.0091978 31.169342 2.4449323 32.276278 2.9375 33.375 L 6.21875 33.09375 C 6.254953 33.16465 6.3067586 33.210922 6.34375 33.28125 C 6.34871 33.29075 6.37001 33.30311 6.375 33.3125 C 6.395395 33.35255 6.416221 33.397864 6.4375 33.4375 C 6.497663 33.546571 6.5637881 33.640948 6.625 33.75 C 6.699039 33.879089 6.7688851 34.027774 6.84375 34.15625 C 6.894464 34.24327 6.9474617 34.320574 7 34.40625 C 7.036214 34.46535 7.0568641 34.53519 7.09375 34.59375 C 7.113203 34.62251 7.137915 34.62734 7.15625 34.65625 C 7.200659 34.73484 7.2320542 34.830986 7.28125 34.90625 C 7.294473 34.92643 7.330477 34.94861 7.34375 34.96875 C 7.5684151 35.309664 7.8160858 35.640819 8.0625 35.96875 C 8.076965 35.98801 8.079235 35.98083 8.09375 36 C 8.13679 36.0667 8.1695137 36.155489 8.21875 36.21875 C 8.233756 36.23808 8.266171 36.26198 8.28125 36.28125 C 8.356907 36.37697 8.4543151 36.467776 8.53125 36.5625 C 8.731265 36.804857 8.9186891 37.05087 9.125 37.28125 C 9.189728 37.35361 9.2444535 37.430155 9.3125 37.5 C 9.32237 37.51069 9.333891 37.48934 9.34375 37.5 C 9.4744267 37.641388 9.613732 37.772293 9.75 37.90625 C 9.784997 37.94053 9.840277 37.996718 9.875 38.03125 C 9.944489 38.10034 9.9923624 38.181624 10.0625 38.25 C 10.10158 38.28761 10.148446 38.306036 10.1875 38.34375 C 10.24034 38.39455 10.291482 38.449099 10.34375 38.5 C 10.38966 38.54426 10.421874 38.613095 10.46875 38.65625 C 10.51577 38.6995 10.546254 38.738405 10.59375 38.78125 L 9.46875 41.875 C 10.402547 42.635154 11.361078 43.378527 12.4375 44 C 13.513921 44.621472 14.656038 45.071384 15.78125 45.5 L 17.875 42.96875 C 18.066547 43.03079 18.275689 43.071099 18.46875 43.125 C 18.48315 43.129 18.48565 43.1521 18.5 43.15625 C 18.54707 43.16976 18.609267 43.1743 18.65625 43.1875 C 18.70767 43.20617 18.760155 43.23499 18.8125 43.25 C 18.83589 43.2563 18.85158 43.24369 18.875 43.25 C 18.91316 43.26018 18.930551 43.27127 18.96875 43.28125 C 19.03954 43.2998 19.116068 43.32602 19.1875 43.34375 C 19.297095 43.37105 19.421818 43.37911 19.53125 43.40625 C 19.55506 43.41185 19.56988 43.43199 19.59375 43.4375 C 19.61771 43.443 19.63232 43.43209 19.65625 43.4375 C 19.837025 43.48133 20.036728 43.527242 20.21875 43.5625 C 20.24285 43.5671 20.25717 43.58943 20.28125 43.59375 C 20.35283 43.609 20.428198 43.61212 20.5 43.625 C 20.616102 43.64247 20.726719 43.63765 20.84375 43.65625 C 20.89211 43.66405 20.951637 43.68069 21 43.6875 C 21.08259 43.70028 21.166678 43.73839 21.25 43.75 C 21.34199 43.76274 21.439193 43.73858 21.53125 43.75 C 21.56551 43.754 21.590718 43.77715 21.625 43.78125 C 21.65923 43.78575 21.684538 43.77665 21.71875 43.78125 C 21.75276 43.78545 21.809558 43.77695 21.84375 43.78125 C 21.963989 43.80282 22.067484 43.83185 22.1875 43.84375 C 22.291628 43.85335 22.396758 43.86721 22.5 43.875 C 22.53491 43.8779 22.559078 43.8724 22.59375 43.875 C 22.68702 43.8815 22.781731 43.90111 22.875 43.90625 C 23.009336 43.91375 23.146027 43.90445 23.28125 43.90625 C 23.34076 43.90855 23.409237 43.93594 23.46875 43.9375 C 23.53748 43.9393 23.618787 43.93635 23.6875 43.9375 C 23.75589 43.9385 23.806524 43.93718 23.875 43.9375 C 24.010004 43.938285 24.146398 43.9395 24.28125 43.9375 C 24.516145 43.9338 24.764208 43.91832 25 43.90625 L 26.375 46.90625 C 27.572805 46.783465 28.768158 46.602948 29.96875 46.28125 C 31.169342 45.959552 32.307528 45.523818 33.40625 45.03125 L 33.125 41.75 C 33.1959 41.7138 33.242171 41.661987 33.3125 41.625 C 33.36189 41.59901 33.420012 41.58939 33.46875 41.5625 C 33.577979 41.50368 33.672981 41.4371 33.78125 41.375 C 33.911634 41.30181 34.027223 41.199358 34.15625 41.125 C 34.19502 41.10267 34.239656 41.07995 34.28125 41.0625 C 34.2993 41.05158 34.32575 41.04224 34.34375 41.03125 C 34.37461 41.01592 34.40829 40.98664 34.4375 40.96875 C 34.52502 40.91515 34.600746 40.867498 34.6875 40.8125 C 34.7077 40.79991 34.72893 40.76128 34.75 40.75 C 34.82534 40.7017 34.924211 40.675878 35 40.625 C 35.08659 40.56793 35.164422 40.527358 35.25 40.46875 C 35.402644 40.360334 35.539063 40.237076 35.6875 40.125 C 35.800537 40.04209 35.920106 39.959129 36.03125 39.875 C 36.09466 39.82718 36.186828 39.799166 36.25 39.75 C 36.26934 39.73504 36.29323 39.70258 36.3125 39.6875 C 36.40796 39.61263 36.467896 39.546826 36.5625 39.46875 C 36.804857 39.268736 37.05087 39.05006 37.28125 38.84375 C 37.36467 38.76912 37.449182 38.701827 37.53125 38.625 C 37.706224 38.461196 37.891178 38.293477 38.0625 38.125 C 38.13224 38.05641 38.212875 37.97639 38.28125 37.90625 C 38.37055 37.81551 38.443689 37.749401 38.53125 37.65625 C 38.57551 37.61034 38.613095 37.546875 38.65625 37.5 C 38.6995 37.45298 38.769645 37.422496 38.8125 37.375 L 41.875 38.5 C 42.635154 37.566201 43.378527 36.607673 44 35.53125 C 44.621473 34.454828 45.102633 33.312712 45.53125 32.1875 L 43 30.09375 C 43.06205 29.902202 43.102349 29.693061 43.15625 29.5 C 43.16045 29.48564 43.15209 29.4831 43.15625 29.46875 C 43.15885 29.45965 43.15369 29.44661 43.15625 29.4375 C 43.16045 29.42283 43.1823 29.42057 43.1875 29.40625 C 43.20944 29.33068 43.22833 29.263121 43.25 29.1875 C 43.2563 29.16411 43.27494 29.11717 43.28125 29.09375 C 43.29143 29.05559 43.30252 29.038199 43.3125 29 C 43.33105 28.92921 43.32602 28.852683 43.34375 28.78125 C 43.37953 28.639521 43.40413 28.487193 43.4375 28.34375 C 43.45491 28.27253 43.48037 28.195741 43.5 28.125 C 43.53416 28.001923 43.569568 27.87479 43.59375 27.75 C 43.59835 27.7259 43.62068 27.71158 43.625 27.6875 C 43.63899 27.61551 43.64338 27.540548 43.65625 27.46875 C 43.65805 27.45905 43.65446 27.44716 43.65625 27.4375 C 43.65805 27.42742 43.62321 27.4163 43.625 27.40625 C 43.63922 27.3098 43.67205 27.222159 43.6875 27.125 C 43.70846 26.994055 43.73421 26.849722 43.75 26.71875 C 43.76274 26.62676 43.76983 26.529557 43.78125 26.4375 C 43.78525 26.40324 43.77715 26.378032 43.78125 26.34375 C 43.78815 26.29535 43.80435 26.266872 43.8125 26.21875 C 43.82867 26.079794 43.86113 25.921074 43.875 25.78125 C 43.8845 25.677394 43.90522 25.571986 43.90625 25.46875 C 43.90805 25.44773 43.87325 25.42729 43.875 25.40625 C 43.8762 25.39213 43.90527 25.38911 43.90625 25.375 C 43.91275 25.28173 43.93236 25.18702 43.9375 25.09375 C 43.9443 24.969874 43.935526 24.843401 43.9375 24.71875 C 43.94 24.64964 43.93217 24.568725 43.9375 24.5 C 43.9393 24.43127 43.9676 24.381213 43.96875 24.3125 C 43.96975 24.24411 43.96843 24.162226 43.96875 24.09375 C 43.969536 23.958745 43.97075 23.822351 43.96875 23.6875 C 43.96505 23.452604 43.94957 23.204542 43.9375 22.96875 L 46.9375 21.59375 C 46.814743 20.395935 46.634198 19.200592 46.3125 18 C 45.990802 16.799408 45.555068 15.661222 45.0625 14.5625 L 41.78125 14.875 C 41.74505 14.8041 41.693236 14.726579 41.65625 14.65625 C 41.65135 14.64675 41.63 14.63437 41.625 14.625 C 41.6046 14.58495 41.58379 14.539635 41.5625 14.5 C 41.50233 14.390928 41.436212 14.296552 41.375 14.1875 C 41.30096 14.058411 41.231113 13.940976 41.15625 13.8125 C 41.10502 13.72594 41.052441 13.61687 41 13.53125 C 40.9464 13.44373 40.898748 13.368003 40.84375 13.28125 C 40.79935 13.20266 40.767938 13.106517 40.71875 13.03125 C 40.70552 13.01108 40.66952 13.02013 40.65625 13 C 40.431585 12.659085 40.183915 12.32793 39.9375 12 C 39.92307 11.98064 39.91936 11.95779 39.90625 11.9375 C 39.86321 11.8708 39.830476 11.78201 39.78125 11.71875 C 39.76629 11.69941 39.73383 11.70677 39.71875 11.6875 C 39.64309 11.59178 39.545686 11.500975 39.46875 11.40625 C 39.268736 11.163893 39.08131 10.917881 38.875 10.6875 C 38.81027 10.61515 38.755545 10.538595 38.6875 10.46875 C 38.543852 10.321299 38.397753 10.175985 38.25 10.03125 C 38.21522 9.99706 38.15996 9.9714506 38.125 9.9375 C 38.055481 9.868387 38.00764 9.7871249 37.9375 9.71875 C 37.898545 9.6807505 37.851306 9.6319175 37.8125 9.59375 C 37.759664 9.542951 37.708512 9.4883998 37.65625 9.4375 C 37.609766 9.3937885 37.57838 9.3551636 37.53125 9.3125 C 37.484231 9.2692557 37.453748 9.2303481 37.40625 9.1875 L 38.53125 6.09375 C 37.597452 5.3335961 36.638922 4.5902227 35.5625 3.96875 C 34.486078 3.3472783 33.343962 2.8661162 32.21875 2.4375 L 30.125 4.96875 C 29.933453 4.906708 29.724312 4.86641 29.53125 4.8125 C 29.51671 4.80828 29.51441 4.817159 29.5 4.8125 C 29.40057 4.783956 29.286796 4.745837 29.1875 4.71875 C 29.16411 4.71241 29.14842 4.69376 29.125 4.6875 C 29.08706 4.677304 29.069299 4.666221 29.03125 4.65625 C 28.96103 4.637927 28.884044 4.641264 28.8125 4.625 C 28.702905 4.597698 28.578182 4.558389 28.46875 4.53125 C 28.44489 4.52558 28.43024 4.535806 28.40625 4.53125 C 28.38229 4.52581 28.36768 4.505369 28.34375 4.5 C 28.161813 4.4580782 27.962578 4.4150806 27.78125 4.375 C 27.665175 4.3526413 27.553691 4.3608713 27.4375 4.34375 C 27.341561 4.3268356 27.252739 4.2956161 27.15625 4.28125 C 27.10789 4.27351 27.048363 4.256815 27 4.25 C 26.91741 4.237215 26.833322 4.23035 26.75 4.21875 C 26.65801 4.206017 26.560807 4.198923 26.46875 4.1875 C 26.43451 4.18309 26.409232 4.19199 26.375 4.1875 C 26.34124 4.18339 26.315252 4.19173 26.28125 4.1875 C 26.24773 4.18354 26.190062 4.1623206 26.15625 4.15625 C 26.03601 4.134677 25.932516 4.105651 25.8125 4.09375 C 25.708372 4.08423 25.603241 4.070293 25.5 4.0625 C 25.46509 4.05955 25.440922 4.0651 25.40625 4.0625 C 25.31298 4.05603 25.218269 4.036391 25.125 4.03125 C 25.05631 4.02764 24.975003 4.033994 24.90625 4.03125 C 24.83982 4.03407 24.785037 4.063379 24.71875 4.0625 C 24.65924 4.06023 24.590763 4.032805 24.53125 4.03125 C 24.46252 4.02945 24.381213 4.001155 24.3125 4 C 24.24412 3.99897 24.193475 4.000323 24.125 4 C 23.989995 3.9992137 23.853601 3.99804 23.71875 4 C 23.483856 4.00369 23.235792 4.01911 23 4.03125 L 21.625 1.03125 z M 24 8.21875 C 32.692266 8.21875 39.75 15.276484 39.75 23.96875 C 39.75 32.661017 32.692266 39.71875 24 39.71875 C 15.307733 39.71875 8.25 32.661017 8.25 23.96875 C 8.25 15.276484 15.307733 8.21875 24 8.21875 z "
       style="fill:#000000;fill-opacity:1;fill-rule:nonzero;stroke:none;opacity:0.75;filter:url(#filter3874)" />
    <path
       style="fill:#ffffff;fill-opacity:1;fill-rule:nonzero;stroke:none"
       d="M 21.625 1.03125 C 20.427195 1.1540349 19.231842 1.3345522 18.03125 1.65625 C 16.830658 1.9779478 15.692472 2.4136823 14.59375 2.90625 L 14.875 6.21875 C 14.8041 6.254953 14.757828 6.2755085 14.6875 6.3125 C 14.63708 6.33626 14.580304 6.379906 14.53125 6.40625 C 14.422178 6.466413 14.327802 6.5325382 14.21875 6.59375 C 14.088366 6.666939 13.972777 6.7381419 13.84375 6.8125 C 13.78696 6.846698 13.712725 6.871791 13.65625 6.90625 C 13.62539 6.921595 13.59171 6.950859 13.5625 6.96875 C 13.47498 7.022351 13.399252 7.0699989 13.3125 7.125 C 13.29223 7.137854 13.27021 7.174543 13.25 7.1875 C 13.19144 7.218839 13.117831 7.245082 13.0625 7.28125 C 13.04225 7.294667 13.02032 7.29885 13 7.3125 C 12.91261 7.370676 12.83466 7.4398725 12.75 7.5 C 12.595825 7.6055901 12.463459 7.7021106 12.3125 7.8125 C 12.199614 7.897735 12.082248 7.9769012 11.96875 8.0625 C 11.90534 8.110322 11.813173 8.1383327 11.75 8.1875 C 11.73067 8.202506 11.70677 8.234921 11.6875 8.25 C 11.59205 8.32486 11.532104 8.4219242 11.4375 8.5 C 11.195143 8.7000151 10.949131 8.887439 10.71875 9.09375 C 10.63533 9.168378 10.550818 9.235672 10.46875 9.3125 C 10.293777 9.4763031 10.108822 9.6752744 9.9375 9.84375 C 9.867759 9.912336 9.787126 9.9611124 9.71875 10.03125 C 9.629447 10.12199 9.5563105 10.219349 9.46875 10.3125 C 9.424493 10.35841 9.3869071 10.390624 9.34375 10.4375 C 9.300507 10.48452 9.2303468 10.546255 9.1875 10.59375 L 6.125 9.4375 C 5.364846 10.371297 4.6214725 11.329828 4 12.40625 C 3.3785276 13.482671 2.8973659 14.624788 2.46875 15.75 L 5 17.84375 C 4.937957 18.035297 4.8976591 18.244439 4.84375 18.4375 C 4.83973 18.45191 4.847889 18.4544 4.84375 18.46875 C 4.84111 18.47775 4.846363 18.49088 4.84375 18.5 C 4.83958 18.51435 4.816668 18.54815 4.8125 18.5625 C 4.785685 18.63652 4.770688 18.704952 4.75 18.78125 C 4.74366 18.80464 4.725009 18.82033 4.71875 18.84375 C 4.708533 18.88192 4.697477 18.930552 4.6875 18.96875 C 4.668945 19.03954 4.673983 19.116067 4.65625 19.1875 C 4.641939 19.24419 4.635956 19.286107 4.625 19.34375 C 4.605801 19.42017 4.548736 19.485478 4.53125 19.5625 C 4.52914 19.5721 4.564723 19.58419 4.5625 19.59375 C 4.546336 19.66568 4.515561 19.740551 4.5 19.8125 C 4.465844 19.935576 4.4304256 20.06271 4.40625 20.1875 C 4.40161 20.21159 4.379283 20.22592 4.375 20.25 C 4.361019 20.32199 4.356628 20.396951 4.34375 20.46875 C 4.34201 20.47835 4.345477 20.49035 4.34375 20.5 C 4.34198 20.51008 4.376768 20.5212 4.375 20.53125 C 4.360785 20.6277 4.327943 20.715343 4.3125 20.8125 C 4.30476 20.86086 4.288061 20.920387 4.28125 20.96875 C 4.268582 21.05079 4.261315 21.13656 4.25 21.21875 C 4.237267 21.31074 4.230173 21.407944 4.21875 21.5 C 4.21476 21.53426 4.22286 21.559468 4.21875 21.59375 C 4.21297 21.64124 4.193044 21.702378 4.1875 21.75 C 4.163769 21.890063 4.138008 22.013963 4.125 22.15625 C 4.12087 22.20144 4.12398 22.267309 4.125 22.3125 C 4.1196 22.37051 4.098664 22.410628 4.09375 22.46875 C 4.0935357 22.48978 4.126517 22.5103 4.125 22.53125 C 4.12388 22.54515 4.094849 22.57985 4.09375 22.59375 C 4.08728 22.68702 4.067641 22.781732 4.0625 22.875 C 4.05565 22.998877 4.0644461 23.125349 4.0625 23.25 C 4.05968 23.32007 4.064328 23.367442 4.0625 23.4375 C 4.05717 23.50622 4.032312 23.585958 4.03125 23.65625 C 4.03022 23.72463 4.031573 23.775275 4.03125 23.84375 C 4.0304633 23.978756 4.0293 24.11515 4.03125 24.25 C 4.03494 24.484896 4.05036 24.732958 4.0625 24.96875 L 1.0625 26.34375 C 1.1852849 27.541556 1.3658022 28.768158 1.6875 29.96875 C 2.0091978 31.169342 2.4449323 32.276278 2.9375 33.375 L 6.21875 33.09375 C 6.254953 33.16465 6.3067586 33.210922 6.34375 33.28125 C 6.34871 33.29075 6.37001 33.30311 6.375 33.3125 C 6.395395 33.35255 6.416221 33.397864 6.4375 33.4375 C 6.497663 33.546571 6.5637881 33.640948 6.625 33.75 C 6.699039 33.879089 6.7688851 34.027774 6.84375 34.15625 C 6.894464 34.24327 6.9474617 34.320574 7 34.40625 C 7.036214 34.46535 7.0568641 34.53519 7.09375 34.59375 C 7.113203 34.62251 7.137915 34.62734 7.15625 34.65625 C 7.200659 34.73484 7.2320542 34.830986 7.28125 34.90625 C 7.294473 34.92643 7.330477 34.94861 7.34375 34.96875 C 7.5684151 35.309664 7.8160858 35.640819 8.0625 35.96875 C 8.076965 35.98801 8.079235 35.98083 8.09375 36 C 8.13679 36.0667 8.1695137 36.155489 8.21875 36.21875 C 8.233756 36.23808 8.266171 36.26198 8.28125 36.28125 C 8.356907 36.37697 8.4543151 36.467776 8.53125 36.5625 C 8.731265 36.804857 8.9186891 37.05087 9.125 37.28125 C 9.189728 37.35361 9.2444535 37.430155 9.3125 37.5 C 9.32237 37.51069 9.333891 37.48934 9.34375 37.5 C 9.4744267 37.641388 9.613732 37.772293 9.75 37.90625 C 9.784997 37.94053 9.840277 37.996718 9.875 38.03125 C 9.944489 38.10034 9.9923624 38.181624 10.0625 38.25 C 10.10158 38.28761 10.148446 38.306036 10.1875 38.34375 C 10.24034 38.39455 10.291482 38.449099 10.34375 38.5 C 10.38966 38.54426 10.421874 38.613095 10.46875 38.65625 C 10.51577 38.6995 10.546254 38.738405 10.59375 38.78125 L 9.46875 41.875 C 10.402547 42.635154 11.361078 43.378527 12.4375 44 C 13.513921 44.621472 14.656038 45.071384 15.78125 45.5 L 17.875 42.96875 C 18.066547 43.03079 18.275689 43.071099 18.46875 43.125 C 18.48315 43.129 18.48565 43.1521 18.5 43.15625 C 18.54707 43.16976 18.609267 43.1743 18.65625 43.1875 C 18.70767 43.20617 18.760155 43.23499 18.8125 43.25 C 18.83589 43.2563 18.85158 43.24369 18.875 43.25 C 18.91316 43.26018 18.930551 43.27127 18.96875 43.28125 C 19.03954 43.2998 19.116068 43.32602 19.1875 43.34375 C 19.297095 43.37105 19.421818 43.37911 19.53125 43.40625 C 19.55506 43.41185 19.56988 43.43199 19.59375 43.4375 C 19.61771 43.443 19.63232 43.43209 19.65625 43.4375 C 19.837025 43.48133 20.036728 43.527242 20.21875 43.5625 C 20.24285 43.5671 20.25717 43.58943 20.28125 43.59375 C 20.35283 43.609 20.428198 43.61212 20.5 43.625 C 20.616102 43.64247 20.726719 43.63765 20.84375 43.65625 C 20.89211 43.66405 20.951637 43.68069 21 43.6875 C 21.08259 43.70028 21.166678 43.73839 21.25 43.75 C 21.34199 43.76274 21.439193 43.73858 21.53125 43.75 C 21.56551 43.754 21.590718 43.77715 21.625 43.78125 C 21.65923 43.78575 21.684538 43.77665 21.71875 43.78125 C 21.75276 43.78545 21.809558 43.77695 21.84375 43.78125 C 21.963989 43.80282 22.067484 43.83185 22.1875 43.84375 C 22.291628 43.85335 22.396758 43.86721 22.5 43.875 C 22.53491 43.8779 22.559078 43.8724 22.59375 43.875 C 22.68702 43.8815 22.781731 43.90111 22.875 43.90625 C 23.009336 43.91375 23.146027 43.90445 23.28125 43.90625 C 23.34076 43.90855 23.409237 43.93594 23.46875 43.9375 C 23.53748 43.9393 23.618787 43.93635 23.6875 43.9375 C 23.75589 43.9385 23.806524 43.93718 23.875 43.9375 C 24.010004 43.938285 24.146398 43.9395 24.28125 43.9375 C 24.516145 43.9338 24.764208 43.91832 25 43.90625 L 26.375 46.90625 C 27.572805 46.783465 28.768158 46.602948 29.96875 46.28125 C 31.169342 45.959552 32.307528 45.523818 33.40625 45.03125 L 33.125 41.75 C 33.1959 41.7138 33.242171 41.661987 33.3125 41.625 C 33.36189 41.59901 33.420012 41.58939 33.46875 41.5625 C 33.577979 41.50368 33.672981 41.4371 33.78125 41.375 C 33.911634 41.30181 34.027223 41.199358 34.15625 41.125 C 34.19502 41.10267 34.239656 41.07995 34.28125 41.0625 C 34.2993 41.05158 34.32575 41.04224 34.34375 41.03125 C 34.37461 41.01592 34.40829 40.98664 34.4375 40.96875 C 34.52502 40.91515 34.600746 40.867498 34.6875 40.8125 C 34.7077 40.79991 34.72893 40.76128 34.75 40.75 C 34.82534 40.7017 34.924211 40.675878 35 40.625 C 35.08659 40.56793 35.164422 40.527358 35.25 40.46875 C 35.402644 40.360334 35.539063 40.237076 35.6875 40.125 C 35.800537 40.04209 35.920106 39.959129 36.03125 39.875 C 36.09466 39.82718 36.186828 39.799166 36.25 39.75 C 36.26934 39.73504 36.29323 39.70258 36.3125 39.6875 C 36.40796 39.61263 36.467896 39.546826 36.5625 39.46875 C 36.804857 39.268736 37.05087 39.05006 37.28125 38.84375 C 37.36467 38.76912 37.449182 38.701827 37.53125 38.625 C 37.706224 38.461196 37.891178 38.293477 38.0625 38.125 C 38.13224 38.05641 38.212875 37.97639 38.28125 37.90625 C 38.37055 37.81551 38.443689 37.749401 38.53125 37.65625 C 38.57551 37.61034 38.613095 37.546875 38.65625 37.5 C 38.6995 37.45298 38.769645 37.422496 38.8125 37.375 L 41.875 38.5 C 42.635154 37.566201 43.378527 36.607673 44 35.53125 C 44.621473 34.454828 45.102633 33.312712 45.53125 32.1875 L 43 30.09375 C 43.06205 29.902202 43.102349 29.693061 43.15625 29.5 C 43.16045 29.48564 43.15209 29.4831 43.15625 29.46875 C 43.15885 29.45965 43.15369 29.44661 43.15625 29.4375 C 43.16045 29.42283 43.1823 29.42057 43.1875 29.40625 C 43.20944 29.33068 43.22833 29.263121 43.25 29.1875 C 43.2563 29.16411 43.27494 29.11717 43.28125 29.09375 C 43.29143 29.05559 43.30252 29.038199 43.3125 29 C 43.33105 28.92921 43.32602 28.852683 43.34375 28.78125 C 43.37953 28.639521 43.40413 28.487193 43.4375 28.34375 C 43.45491 28.27253 43.48037 28.195741 43.5 28.125 C 43.53416 28.001923 43.569568 27.87479 43.59375 27.75 C 43.59835 27.7259 43.62068 27.71158 43.625 27.6875 C 43.63899 27.61551 43.64338 27.540548 43.65625 27.46875 C 43.65805 27.45905 43.65446 27.44716 43.65625 27.4375 C 43.65805 27.42742 43.62321 27.4163 43.625 27.40625 C 43.63922 27.3098 43.67205 27.222159 43.6875 27.125 C 43.70846 26.994055 43.73421 26.849722 43.75 26.71875 C 43.76274 26.62676 43.76983 26.529557 43.78125 26.4375 C 43.78525 26.40324 43.77715 26.378032 43.78125 26.34375 C 43.78815 26.29535 43.80435 26.266872 43.8125 26.21875 C 43.82867 26.079794 43.86113 25.921074 43.875 25.78125 C 43.8845 25.677394 43.90522 25.571986 43.90625 25.46875 C 43.90805 25.44773 43.87325 25.42729 43.875 25.40625 C 43.8762 25.39213 43.90527 25.38911 43.90625 25.375 C 43.91275 25.28173 43.93236 25.18702 43.9375 25.09375 C 43.9443 24.969874 43.935526 24.843401 43.9375 24.71875 C 43.94 24.64964 43.93217 24.568725 43.9375 24.5 C 43.9393 24.43127 43.9676 24.381213 43.96875 24.3125 C 43.96975 24.24411 43.96843 24.162226 43.96875 24.09375 C 43.969536 23.958745 43.97075 23.822351 43.96875 23.6875 C 43.96505 23.452604 43.94957 23.204542 43.9375 22.96875 L 46.9375 21.59375 C 46.814743 20.395935 46.634198 19.200592 46.3125 18 C 45.990802 16.799408 45.555068 15.661222 45.0625 14.5625 L 41.78125 14.875 C 41.74505 14.8041 41.693236 14.726579 41.65625 14.65625 C 41.65135 14.64675 41.63 14.63437 41.625 14.625 C 41.6046 14.58495 41.58379 14.539635 41.5625 14.5 C 41.50233 14.390928 41.436212 14.296552 41.375 14.1875 C 41.30096 14.058411 41.231113 13.940976 41.15625 13.8125 C 41.10502 13.72594 41.052441 13.61687 41 13.53125 C 40.9464 13.44373 40.898748 13.368003 40.84375 13.28125 C 40.79935 13.20266 40.767938 13.106517 40.71875 13.03125 C 40.70552 13.01108 40.66952 13.02013 40.65625 13 C 40.431585 12.659085 40.183915 12.32793 39.9375 12 C 39.92307 11.98064 39.91936 11.95779 39.90625 11.9375 C 39.86321 11.8708 39.830476 11.78201 39.78125 11.71875 C 39.76629 11.69941 39.73383 11.70677 39.71875 11.6875 C 39.64309 11.59178 39.545686 11.500975 39.46875 11.40625 C 39.268736 11.163893 39.08131 10.917881 38.875 10.6875 C 38.81027 10.61515 38.755545 10.538595 38.6875 10.46875 C 38.543852 10.321299 38.397753 10.175985 38.25 10.03125 C 38.21522 9.99706 38.15996 9.9714506 38.125 9.9375 C 38.055481 9.868387 38.00764 9.7871249 37.9375 9.71875 C 37.898545 9.6807505 37.851306 9.6319175 37.8125 9.59375 C 37.759664 9.542951 37.708512 9.4883998 37.65625 9.4375 C 37.609766 9.3937885 37.57838 9.3551636 37.53125 9.3125 C 37.484231 9.2692557 37.453748 9.2303481 37.40625 9.1875 L 38.53125 6.09375 C 37.597452 5.3335961 36.638922 4.5902227 35.5625 3.96875 C 34.486078 3.3472783 33.343962 2.8661162 32.21875 2.4375 L 30.125 4.96875 C 29.933453 4.906708 29.724312 4.86641 29.53125 4.8125 C 29.51671 4.80828 29.51441 4.817159 29.5 4.8125 C 29.40057 4.783956 29.286796 4.745837 29.1875 4.71875 C 29.16411 4.71241 29.14842 4.69376 29.125 4.6875 C 29.08706 4.677304 29.069299 4.666221 29.03125 4.65625 C 28.96103 4.637927 28.884044 4.641264 28.8125 4.625 C 28.702905 4.597698 28.578182 4.558389 28.46875 4.53125 C 28.44489 4.52558 28.43024 4.535806 28.40625 4.53125 C 28.38229 4.52581 28.36768 4.505369 28.34375 4.5 C 28.161813 4.4580782 27.962578 4.4150806 27.78125 4.375 C 27.665175 4.3526413 27.553691 4.3608713 27.4375 4.34375 C 27.341561 4.3268356 27.252739 4.2956161 27.15625 4.28125 C 27.10789 4.27351 27.048363 4.256815 27 4.25 C 26.91741 4.237215 26.833322 4.23035 26.75 4.21875 C 26.65801 4.206017 26.560807 4.198923 26.46875 4.1875 C 26.43451 4.18309 26.409232 4.19199 26.375 4.1875 C 26.34124 4.18339 26.315252 4.19173 26.28125 4.1875 C 26.24773 4.18354 26.190062 4.1623206 26.15625 4.15625 C 26.03601 4.134677 25.932516 4.105651 25.8125 4.09375 C 25.708372 4.08423 25.603241 4.070293 25.5 4.0625 C 25.46509 4.05955 25.440922 4.0651 25.40625 4.0625 C 25.31298 4.05603 25.218269 4.036391 25.125 4.03125 C 25.05631 4.02764 24.975003 4.033994 24.90625 4.03125 C 24.83982 4.03407 24.785037 4.063379 24.71875 4.0625 C 24.65924 4.06023 24.590763 4.032805 24.53125 4.03125 C 24.46252 4.02945 24.381213 4.001155 24.3125 4 C 24.24412 3.99897 24.193475 4.000323 24.125 4 C 23.989995 3.9992137 23.853601 3.99804 23.71875 4 C 23.483856 4.00369 23.235792 4.01911 23 4.03125 L 21.625 1.03125 z M 24 8.21875 C 32.692266 8.21875 39.75 15.276484 39.75 23.96875 C 39.75 32.661017 32.692266 39.71875 24 39.71875 C 15.307733 39.71875 8.25 32.661017 8.25 23.96875 C 8.25 15.276484 15.307733 8.21875 24 8.21875 z "
       id="path3919" />
  </g>
  <g
     inkscape:groupmode="layer"
     id="layer3"
     inkscape:label="Emblem"
     style="display:inline">
    <path
       sodipodi:type="arc"
       style="fill:#ff6600;fill-opacity:1;fill-rule:nonzero;stroke:none"
       id="path4630"
       sodipodi:cx="24"
       sodipodi:cy="24"
       sodipodi:rx="13"
       sodipodi:ry="13"
       d="m 37,24 a 13,13 0 1 1 -26,0 13,13 0 1 1 26,0 z"
       transform="matrix(1.05,0,0,1.05,-1.1999994,-1.2249986)" />
    <path
       style="fill:#ffffff;fill-opacity:1;fill-rule:nonzero;stroke:none;stroke-opacity:1;stroke-width:0.50000000000000000;stroke-miterlimit:4;stroke-dasharray:none;stroke-linecap:round;stroke-linejoin:round"
       d="m 18.015675,14.000025 0.0937,3.21875 c 9.03881,0.1513 12.7987,7.6538 12.65625,12.75 l 3.25,0.0312 c -0.07,-7.9672 -5.62311,-15.517 -16,-16 z m 0.0312,5.34375 0.0312,3.15625 c 4.10871,0.1749 7.35375,2.6929 7.40625,7.5 l 3.15625,0 c -0.092,-5.469 -3.84067,-10.30305 -10.59375,-10.65625 z m 2.1875,6.21875 c -1.23569,0 -2.25,0.9845 -2.25,2.1875 0,1.20299 1.01431,2.15625 2.25,2.15625 1.23569,0 2.25,-0.95326 2.25,-2.15625 0,-1.203 -1.01431,-2.1875 -2.25,-2.1875 z"
       id="path5270"
       inkscape:connector-curvature="0" />
  </g>
</svg>
