<?xml version="1.0" encoding="UTF-8" standalone="no"?>
<!-- Created with Inkscape (http://www.inkscape.org/) -->

<svg
   xmlns:dc="http://purl.org/dc/elements/1.1/"
   xmlns:cc="http://creativecommons.org/ns#"
   xmlns:rdf="http://www.w3.org/1999/02/22-rdf-syntax-ns#"
   xmlns:svg="http://www.w3.org/2000/svg"
   xmlns="http://www.w3.org/2000/svg"
   xmlns:xlink="http://www.w3.org/1999/xlink"
   xmlns:sodipodi="http://sodipodi.sourceforge.net/DTD/sodipodi-0.dtd"
   xmlns:inkscape="http://www.inkscape.org/namespaces/inkscape"
   width="48"
   height="48"
   id="svg2"
   version="1.1"
   inkscape:version="0.48.5 r10040"
   sodipodi:docname="ic_launcher.svg"
   inkscape:export-filename="/Users/tughi/Projects/Aggregator/aggregator-android/app/src/main/res/drawable-xxxhdpi/ic_launcher.png"
   inkscape:export-xdpi="360"
   inkscape:export-ydpi="360">
  <defs
     id="defs4">
    <linearGradient
       inkscape:collect="always"
       id="linearGradient4669">
      <stop
         style="stop-color:#ffffff;stop-opacity:0.1"
         offset="0"
         id="stop4671" />
      <stop
         style="stop-color:#ffffff;stop-opacity:0;"
         offset="1"
         id="stop4673" />
    </linearGradient>
    <linearGradient
       id="linearGradient4638">
      <stop
         style="stop-color:#c0360c;stop-opacity:0.2;"
         offset="0"
         id="stop4640" />
      <stop
         style="stop-color:#ffffff;stop-opacity:0.2;"
         offset="1"
         id="stop4642" />
    </linearGradient>
    <linearGradient
       inkscape:collect="always"
       id="linearGradient4628">
      <stop
         style="stop-color:#bf360c;stop-opacity:0"
         offset="0"
         id="stop4630" />
      <stop
         style="stop-color:#000000;stop-opacity:0;"
         offset="1"
         id="stop4632" />
    </linearGradient>
    <linearGradient
       id="linearGradient4618">
      <stop
         style="stop-color:#ffffff;stop-opacity:0.2"
         offset="0"
         id="stop4620" />
      <stop
         style="stop-color:#bf360c;stop-opacity:1;"
         offset="1"
         id="stop4622" />
    </linearGradient>
    <linearGradient
       id="linearGradient4606">
      <stop
         style="stop-color:#212121;stop-opacity:0.4"
         offset="0"
         id="stop4608" />
      <stop
         id="stop4614"
         offset="0.75"
         style="stop-color:#e0e0e0;stop-opacity:0;" />
      <stop
         style="stop-color:#e0e0e0;stop-opacity:0"
         offset="1"
         id="stop4610" />
    </linearGradient>
    <linearGradient
       inkscape:collect="always"
       id="linearGradient4525">
      <stop
         style="stop-color:#ffffff;stop-opacity:0.40000001"
         offset="0"
         id="stop4527" />
      <stop
         id="stop4533"
         offset="0.47808158"
         style="stop-color:#e0e0e0;stop-opacity:0.2" />
      <stop
         style="stop-color:#212121;stop-opacity:0.2"
         offset="1"
         id="stop4529" />
    </linearGradient>
    <linearGradient
       id="linearGradient4198">
      <stop
         style="stop-color:#ffffff;stop-opacity:0.4"
         offset="0"
         id="stop4200" />
      <stop
         id="stop4208"
         offset="0.5"
         style="stop-color:#e0e0e0;stop-opacity:0.2" />
      <stop
         style="stop-color:#212121;stop-opacity:0.2"
         offset="1"
         id="stop4202" />
    </linearGradient>
    <linearGradient
       id="linearGradient4815">
      <stop
         style="stop-color:#212121;stop-opacity:0.2"
         offset="0"
         id="stop4817" />
      <stop
         id="stop4595"
         offset="0.5"
         style="stop-color:#e0e0e0;stop-opacity:0.2;" />
      <stop
         style="stop-color:#e0e0e0;stop-opacity:0;"
         offset="1"
         id="stop4819" />
    </linearGradient>
    <linearGradient
       id="linearGradient4803">
      <stop
         style="stop-color:#ff6600;stop-opacity:1"
         offset="0"
         id="stop4805" />
      <stop
         id="stop4813"
         offset="0.63"
         style="stop-color:#ffffff;stop-opacity:1;" />
      <stop
         style="stop-color:#ffffff;stop-opacity:1"
         offset="1"
         id="stop4807" />
    </linearGradient>
    <linearGradient
       inkscape:collect="always"
       id="linearGradient3846">
      <stop
         style="stop-color:#000000;stop-opacity:0"
         offset="0"
         id="stop3848" />
      <stop
         style="stop-color:#000000;stop-opacity:0.1"
         offset="1"
         id="stop3850" />
    </linearGradient>
    <linearGradient
       id="linearGradient3839">
      <stop
         style="stop-color:#cccccc;stop-opacity:1"
         offset="0"
         id="stop3841" />
      <stop
         id="stop3847"
         offset="0.5"
         style="stop-color:#999999;stop-opacity:1" />
      <stop
         style="stop-color:#cccccc;stop-opacity:1"
         offset="1"
         id="stop3843" />
    </linearGradient>
    <linearGradient
       id="linearGradient3833">
      <stop
         style="stop-color:#ffffff;stop-opacity:0.49803922"
         offset="0"
         id="stop3835" />
      <stop
         style="stop-color:#ffffff;stop-opacity:0.12711865"
         offset="1"
         id="stop3837" />
    </linearGradient>
    <linearGradient
       id="linearGradient3830">
      <stop
         id="stop3832"
         offset="0"
         style="stop-color:#a0a0a0;stop-opacity:1" />
      <stop
         id="stop3834"
         offset="1"
         style="stop-color:#d7d7d7;stop-opacity:1" />
    </linearGradient>
    <linearGradient
       id="linearGradient4506">
      <stop
         id="stop4508"
         offset="0"
         style="stop-color:#ffffff;stop-opacity:0.78431374;" />
      <stop
         id="stop4510"
         offset="1"
         style="stop-color:#ffffff;stop-opacity:0" />
    </linearGradient>
    <linearGradient
       id="linearGradient4107">
      <stop
         id="stop4109"
         offset="0"
         style="stop-color:#ffffff;stop-opacity:0.53435117;" />
      <stop
         id="stop4113"
         offset="1"
         style="stop-color:#ffffff;stop-opacity:0;" />
    </linearGradient>
    <linearGradient
       id="linearGradient4000">
      <stop
         style="stop-color:#99cc33;stop-opacity:1"
         offset="0"
         id="stop4002" />
      <stop
         style="stop-color:#669900;stop-opacity:1"
         offset="1"
         id="stop4004" />
    </linearGradient>
    <linearGradient
       id="linearGradient3939">
      <stop
         style="stop-color:#000000;stop-opacity:1;"
         offset="0"
         id="stop3941" />
      <stop
         id="stop3947"
         offset="0.5"
         style="stop-color:#000000;stop-opacity:1;" />
      <stop
         style="stop-color:#cccccc;stop-opacity:1;"
         offset="1"
         id="stop3943" />
    </linearGradient>
    <linearGradient
       inkscape:collect="always"
       xlink:href="#linearGradient3939"
       id="linearGradient3945"
       x1="24"
       y1="4"
       x2="24"
       y2="24"
       gradientUnits="userSpaceOnUse" />
    <linearGradient
       inkscape:collect="always"
       xlink:href="#linearGradient3939"
       id="linearGradient3974"
       gradientUnits="userSpaceOnUse"
       x1="24"
       y1="4"
       x2="24"
       y2="24"
       gradientTransform="matrix(0.96592582,-0.25881905,0.25881905,0.96592582,-5.3938799,1011.3916)" />
    <linearGradient
       inkscape:collect="always"
       xlink:href="#linearGradient3939"
       id="linearGradient3978"
       gradientUnits="userSpaceOnUse"
       gradientTransform="matrix(0,-1,1,0,0,1052.3622)"
       x1="24"
       y1="4"
       x2="24"
       y2="24" />
    <linearGradient
       inkscape:collect="always"
       xlink:href="#linearGradient3939"
       id="linearGradient3982"
       gradientUnits="userSpaceOnUse"
       gradientTransform="matrix(-0.70710678,-0.70710678,0.70710678,-0.70710678,24,1062.3033)"
       x1="24"
       y1="4"
       x2="24"
       y2="24" />
    <linearGradient
       inkscape:collect="always"
       xlink:href="#linearGradient3939"
       id="linearGradient3986"
       gradientUnits="userSpaceOnUse"
       gradientTransform="matrix(-1,0,0,-1,47.999982,1052.3622)"
       x1="24"
       y1="4"
       x2="24"
       y2="24" />
    <linearGradient
       inkscape:collect="always"
       xlink:href="#linearGradient3939"
       id="linearGradient3990"
       gradientUnits="userSpaceOnUse"
       gradientTransform="matrix(-0.70710678,0.70710678,-0.70710678,-0.70710678,57.941111,1028.3622)"
       x1="24"
       y1="4"
       x2="24"
       y2="24" />
    <linearGradient
       inkscape:collect="always"
       xlink:href="#linearGradient3939"
       id="linearGradient3994"
       gradientUnits="userSpaceOnUse"
       gradientTransform="matrix(0,1,-1,0,47.999988,1004.3622)"
       x1="24"
       y1="4"
       x2="24"
       y2="24" />
    <linearGradient
       inkscape:collect="always"
       xlink:href="#linearGradient3939"
       id="linearGradient3998"
       gradientUnits="userSpaceOnUse"
       gradientTransform="matrix(0.70710678,0.70710678,-0.70710678,0.70710678,23.99999,994.42108)"
       x1="24"
       y1="4"
       x2="24"
       y2="24" />
    <linearGradient
       inkscape:collect="always"
       xlink:href="#linearGradient4000"
       id="linearGradient4006"
       x1="8"
       y1="24"
       x2="40"
       y2="24"
       gradientUnits="userSpaceOnUse" />
    <linearGradient
       inkscape:collect="always"
       xlink:href="#linearGradient3939"
       id="linearGradient4032"
       gradientUnits="userSpaceOnUse"
       gradientTransform="matrix(0.70710678,-0.70710678,0.70710678,0.70710678,-9.9411255,24)"
       x1="24"
       y1="4"
       x2="24"
       y2="24" />
    <linearGradient
       inkscape:collect="always"
       xlink:href="#linearGradient3939"
       id="linearGradient4055"
       gradientUnits="userSpaceOnUse"
       gradientTransform="matrix(0.25881905,0.96592582,-0.96592582,0.25881905,40.970552,998.96832)"
       x1="24"
       y1="4"
       x2="24"
       y2="24" />
    <linearGradient
       inkscape:collect="always"
       xlink:href="#linearGradient3939"
       id="linearGradient4057"
       gradientUnits="userSpaceOnUse"
       gradientTransform="matrix(-0.50000001,0.86602541,-0.86602541,-0.50000001,56.784607,1019.5776)"
       x1="24"
       y1="4"
       x2="24"
       y2="24" />
    <linearGradient
       inkscape:collect="always"
       xlink:href="#linearGradient3939"
       id="linearGradient4059"
       gradientUnits="userSpaceOnUse"
       gradientTransform="matrix(-0.96592582,0.25881905,-0.25881905,-0.96592582,53.393866,1045.3328)"
       x1="24"
       y1="4"
       x2="24"
       y2="24" />
    <linearGradient
       inkscape:collect="always"
       xlink:href="#linearGradient3939"
       id="linearGradient4061"
       gradientUnits="userSpaceOnUse"
       gradientTransform="matrix(-0.86602541,-0.50000001,0.50000001,-0.86602541,32.784586,1061.1468)"
       x1="24"
       y1="4"
       x2="24"
       y2="24" />
    <linearGradient
       inkscape:collect="always"
       xlink:href="#linearGradient3939"
       id="linearGradient4063"
       gradientUnits="userSpaceOnUse"
       gradientTransform="matrix(-0.25881905,-0.96592582,0.96592582,-0.25881905,7.0294458,1057.7561)"
       x1="24"
       y1="4"
       x2="24"
       y2="24" />
    <linearGradient
       inkscape:collect="always"
       xlink:href="#linearGradient3939"
       id="linearGradient4065"
       gradientUnits="userSpaceOnUse"
       gradientTransform="matrix(0.50000001,-0.86602541,0.86602541,0.50000001,-8.7846198,1037.1468)"
       x1="24"
       y1="4"
       x2="24"
       y2="24" />
    <linearGradient
       inkscape:collect="always"
       xlink:href="#linearGradient3939"
       id="linearGradient4067"
       gradientUnits="userSpaceOnUse"
       x1="24"
       y1="4"
       x2="24"
       y2="24"
       gradientTransform="matrix(0.86602541,0.50000001,-0.50000001,0.86602541,15.215391,995.57759)" />
    <linearGradient
       inkscape:collect="always"
       xlink:href="#linearGradient3939"
       id="linearGradient4081"
       gradientUnits="userSpaceOnUse"
       gradientTransform="matrix(0.86602541,0.50000001,-0.50000001,0.86602541,15.215391,995.57759)"
       x1="24"
       y1="4"
       x2="24"
       y2="24" />
    <linearGradient
       inkscape:collect="always"
       xlink:href="#linearGradient3939"
       id="linearGradient4083"
       gradientUnits="userSpaceOnUse"
       gradientTransform="matrix(0.96592582,-0.25881905,0.25881905,0.96592582,-5.3938799,1011.3916)"
       x1="24"
       y1="4"
       x2="24"
       y2="24" />
    <linearGradient
       inkscape:collect="always"
       xlink:href="#linearGradient3939"
       id="linearGradient4085"
       gradientUnits="userSpaceOnUse"
       gradientTransform="matrix(0.50000001,-0.86602541,0.86602541,0.50000001,-8.7846198,1037.1468)"
       x1="24"
       y1="4"
       x2="24"
       y2="24" />
    <linearGradient
       inkscape:collect="always"
       xlink:href="#linearGradient3939"
       id="linearGradient4087"
       gradientUnits="userSpaceOnUse"
       gradientTransform="matrix(-0.25881905,-0.96592582,0.96592582,-0.25881905,7.0294458,1057.7561)"
       x1="24"
       y1="4"
       x2="24"
       y2="24" />
    <linearGradient
       inkscape:collect="always"
       xlink:href="#linearGradient3939"
       id="linearGradient4089"
       gradientUnits="userSpaceOnUse"
       gradientTransform="matrix(-0.86602541,-0.50000001,0.50000001,-0.86602541,32.784586,1061.1468)"
       x1="24"
       y1="4"
       x2="24"
       y2="24" />
    <linearGradient
       inkscape:collect="always"
       xlink:href="#linearGradient3939"
       id="linearGradient4091"
       gradientUnits="userSpaceOnUse"
       gradientTransform="matrix(-0.96592582,0.25881905,-0.25881905,-0.96592582,53.393866,1045.3328)"
       x1="24"
       y1="4"
       x2="24"
       y2="24" />
    <linearGradient
       inkscape:collect="always"
       xlink:href="#linearGradient3939"
       id="linearGradient4093"
       gradientUnits="userSpaceOnUse"
       gradientTransform="matrix(-0.50000001,0.86602541,-0.86602541,-0.50000001,56.784607,1019.5776)"
       x1="24"
       y1="4"
       x2="24"
       y2="24" />
    <linearGradient
       inkscape:collect="always"
       xlink:href="#linearGradient3939"
       id="linearGradient4095"
       gradientUnits="userSpaceOnUse"
       gradientTransform="matrix(0.25881905,0.96592582,-0.96592582,0.25881905,40.970552,998.96832)"
       x1="24"
       y1="4"
       x2="24"
       y2="24" />
    <linearGradient
       inkscape:collect="always"
       xlink:href="#linearGradient4107"
       id="linearGradient4105"
       x1="8"
       y1="24"
       x2="40"
       y2="24"
       gradientUnits="userSpaceOnUse"
       gradientTransform="matrix(0,1,-1,0,48,0)" />
    <linearGradient
       inkscape:collect="always"
       xlink:href="#linearGradient4107"
       id="linearGradient4117"
       gradientUnits="userSpaceOnUse"
       x1="8"
       y1="24"
       x2="40"
       y2="24" />
    <linearGradient
       inkscape:collect="always"
       xlink:href="#linearGradient3939"
       id="linearGradient4304"
       gradientUnits="userSpaceOnUse"
       gradientTransform="matrix(0.25881905,0.96592582,-0.96592582,0.25881905,40.970552,998.96832)"
       x1="24"
       y1="4"
       x2="24"
       y2="24" />
    <linearGradient
       inkscape:collect="always"
       xlink:href="#linearGradient3939"
       id="linearGradient4307"
       gradientUnits="userSpaceOnUse"
       gradientTransform="matrix(-0.50000001,0.86602541,-0.86602541,-0.50000001,56.784607,1019.5776)"
       x1="24"
       y1="4"
       x2="24"
       y2="24" />
    <linearGradient
       inkscape:collect="always"
       xlink:href="#linearGradient3939"
       id="linearGradient4310"
       gradientUnits="userSpaceOnUse"
       gradientTransform="matrix(-0.96592582,0.25881905,-0.25881905,-0.96592582,53.393866,1045.3328)"
       x1="24"
       y1="4"
       x2="24"
       y2="24" />
    <linearGradient
       inkscape:collect="always"
       xlink:href="#linearGradient3939"
       id="linearGradient4313"
       gradientUnits="userSpaceOnUse"
       gradientTransform="matrix(-0.86602541,-0.50000001,0.50000001,-0.86602541,32.784586,1061.1468)"
       x1="24"
       y1="4"
       x2="24"
       y2="24" />
    <linearGradient
       inkscape:collect="always"
       xlink:href="#linearGradient3939"
       id="linearGradient4316"
       gradientUnits="userSpaceOnUse"
       gradientTransform="matrix(-0.25881905,-0.96592582,0.96592582,-0.25881905,7.0294458,1057.7561)"
       x1="24"
       y1="4"
       x2="24"
       y2="24" />
    <linearGradient
       inkscape:collect="always"
       xlink:href="#linearGradient3939"
       id="linearGradient4319"
       gradientUnits="userSpaceOnUse"
       gradientTransform="matrix(0.50000001,-0.86602541,0.86602541,0.50000001,-8.7846198,1037.1468)"
       x1="24"
       y1="4"
       x2="24"
       y2="24" />
    <linearGradient
       inkscape:collect="always"
       xlink:href="#linearGradient3939"
       id="linearGradient4322"
       gradientUnits="userSpaceOnUse"
       gradientTransform="matrix(0.96592582,-0.25881905,0.25881905,0.96592582,-5.3938799,1011.3916)"
       x1="24"
       y1="4"
       x2="24"
       y2="24" />
    <linearGradient
       inkscape:collect="always"
       xlink:href="#linearGradient3939"
       id="linearGradient4325"
       gradientUnits="userSpaceOnUse"
       gradientTransform="matrix(0.86602541,0.50000001,-0.50000001,0.86602541,15.215391,995.57759)"
       x1="24"
       y1="4"
       x2="24"
       y2="24" />
    <radialGradient
       inkscape:collect="always"
       xlink:href="#linearGradient4506"
       id="radialGradient4514"
       cx="13.5"
       cy="24"
       fx="13.5"
       fy="24"
       r="16"
       gradientUnits="userSpaceOnUse" />
    <linearGradient
       inkscape:collect="always"
       xlink:href="#linearGradient4000"
       id="linearGradient4671"
       gradientUnits="userSpaceOnUse"
       x1="8"
       y1="24"
       x2="40"
       y2="24" />
    <radialGradient
       inkscape:collect="always"
       xlink:href="#linearGradient3833"
       id="radialGradient4674"
       gradientUnits="userSpaceOnUse"
       cx="13.5"
       cy="24"
       fx="13.5"
       fy="24"
       r="16" />
    <filter
       id="filter4802"
       inkscape:label="Drop shadow"
       width="1.5"
       height="1.5"
       x="-.25"
       y="-.25">
      <feGaussianBlur
         id="feGaussianBlur4804"
         in="SourceAlpha"
         stdDeviation="1"
         result="blur" />
      <feColorMatrix
         id="feColorMatrix4806"
         result="bluralpha"
         type="matrix"
         values="1 0 0 0 0 0 1 0 0 0 0 0 1 0 0 0 0 0 1 0 " />
      <feOffset
         id="feOffset4808"
         in="bluralpha"
         dx="0"
         dy="1"
         result="offsetBlur" />
      <feMerge
         id="feMerge4810">
        <feMergeNode
           id="feMergeNode4812"
           in="offsetBlur" />
        <feMergeNode
           id="feMergeNode4814"
           in="SourceGraphic" />
      </feMerge>
    </filter>
    <linearGradient
       inkscape:collect="always"
       xlink:href="#linearGradient3830"
       id="linearGradient3840"
       x1="23.958588"
       y1="8.9539347"
       x2="23.958588"
       y2="39.094296"
       gradientUnits="userSpaceOnUse" />
    <linearGradient
       inkscape:collect="always"
       xlink:href="#linearGradient3846"
       id="linearGradient3852"
       x1="24"
       y1="4"
       x2="24"
       y2="44"
       gradientUnits="userSpaceOnUse" />
    <linearGradient
       inkscape:collect="always"
       xlink:href="#linearGradient3846"
       id="linearGradient3870"
       gradientUnits="userSpaceOnUse"
       x1="24"
       y1="4"
       x2="24"
       y2="44"
       gradientTransform="matrix(1.05,0,0,1.05,-1.1999994,-1.2249986)" />
    <linearGradient
       inkscape:collect="always"
       xlink:href="#linearGradient4815"
       id="linearGradient4821"
       x1="24"
       y1="24"
       x2="44"
       y2="44"
       gradientUnits="userSpaceOnUse" />
    <linearGradient
       inkscape:collect="always"
       xlink:href="#linearGradient4198"
       id="linearGradient4204"
       x1="0"
       y1="0"
       x2="0"
       y2="48"
       gradientUnits="userSpaceOnUse" />
    <filter
       style="color-interpolation-filters:sRGB;"
       inkscape:label="Drop Shadow"
       id="filter3525">
      <feFlood
         flood-opacity="0.2"
         flood-color="rgb(0,0,0)"
         result="flood"
         id="feFlood3527" />
      <feComposite
         in="flood"
         in2="SourceGraphic"
         operator="in"
         result="composite1"
         id="feComposite3529" />
      <feGaussianBlur
         in="composite"
         stdDeviation="0.6"
         result="blur"
         id="feGaussianBlur3531" />
      <feOffset
         dx="0"
         dy="0.6"
         result="offset"
         id="feOffset3533" />
      <feComposite
         in="SourceGraphic"
         in2="offset"
         operator="over"
         result="fbSourceGraphic"
         id="feComposite3535" />
      <feColorMatrix
         result="fbSourceGraphicAlpha"
         in="fbSourceGraphic"
         values="0 0 0 -1 0 0 0 0 -1 0 0 0 0 -1 0 0 0 0 1 0"
         id="feColorMatrix3573" />
      <feFlood
         id="feFlood3575"
         flood-opacity="0.2"
         flood-color="rgb(0,0,0)"
         result="flood"
         in="fbSourceGraphic" />
      <feComposite
         id="feComposite3577"
         in2="fbSourceGraphic"
         in="flood"
         operator="in"
         result="composite1" />
      <feGaussianBlur
         id="feGaussianBlur3579"
         in="composite"
         stdDeviation="0.6"
         result="blur" />
      <feOffset
         id="feOffset3581"
         dx="0"
         dy="0.6"
         result="offset" />
      <feComposite
         id="feComposite3583"
         in2="offset"
         in="fbSourceGraphic"
         operator="over"
         result="composite2" />
    </filter>
    <linearGradient
       inkscape:collect="always"
       xlink:href="#linearGradient4525"
       id="linearGradient4531"
       x1="0"
       y1="0"
       x2="0"
       y2="48"
       gradientUnits="userSpaceOnUse"
       gradientTransform="matrix(1.0335749,0,0,1.0335749,-0.80579789,-0.80474869)" />
    <filter
       style="color-interpolation-filters:sRGB;"
       inkscape:label="Drop Shadow"
       id="filter4571">
      <feFlood
         flood-opacity="0.5"
         flood-color="rgb(0,0,0)"
         result="flood"
         id="feFlood4573" />
      <feComposite
         in="flood"
         in2="SourceGraphic"
         operator="in"
         result="composite1"
         id="feComposite4575" />
      <feGaussianBlur
         in="composite"
         stdDeviation="0.6"
         result="blur"
         id="feGaussianBlur4577" />
      <feOffset
         dx="0"
         dy="0.6"
         result="offset"
         id="feOffset4579" />
      <feComposite
         in="SourceGraphic"
         in2="offset"
         operator="over"
         result="composite2"
         id="feComposite4581" />
    </filter>
    <linearGradient
       inkscape:collect="always"
       xlink:href="#linearGradient4525"
       id="linearGradient4603"
       gradientUnits="userSpaceOnUse"
       x1="0"
       y1="0"
       x2="0"
       y2="48" />
    <linearGradient
       inkscape:collect="always"
       xlink:href="#linearGradient4606"
       id="linearGradient4612"
       x1="25"
       y1="23"
       x2="40"
       y2="38"
       gradientUnits="userSpaceOnUse" />
    <linearGradient
       inkscape:collect="always"
       xlink:href="#linearGradient4618"
       id="linearGradient4624"
       x1="25"
       y1="10"
       x2="25"
       y2="38"
       gradientUnits="userSpaceOnUse" />
    <linearGradient
       inkscape:collect="always"
       xlink:href="#linearGradient4628"
       id="linearGradient4634"
       x1="25"
       y1="38"
       x2="25"
       y2="10"
       gradientUnits="userSpaceOnUse" />
    <linearGradient
       inkscape:collect="always"
       xlink:href="#linearGradient4638"
       id="linearGradient4644"
       x1="24"
       y1="38"
       x2="24"
       y2="10"
       gradientUnits="userSpaceOnUse" />
    <filter
       style="color-interpolation-filters:sRGB;"
       inkscape:label="Drop Shadow"
       id="filter4646">
      <feFlood
         flood-opacity="0.5"
         flood-color="rgb(0,0,0)"
         result="flood"
         id="feFlood4648" />
      <feComposite
         in="flood"
         in2="SourceGraphic"
         operator="in"
         result="composite1"
         id="feComposite4650" />
      <feGaussianBlur
         in="composite"
         stdDeviation="0.6"
         result="blur"
         id="feGaussianBlur4652" />
      <feOffset
         dx="0"
         dy="0.6"
         result="offset"
         id="feOffset4654" />
      <feComposite
         in="SourceGraphic"
         in2="offset"
         operator="over"
         result="composite2"
         id="feComposite4656" />
    </filter>
    <radialGradient
       inkscape:collect="always"
       xlink:href="#linearGradient4669"
       id="radialGradient4675"
       cx="1.3317705e-14"
       cy="8.4188359e-06"
       fx="1.3317705e-14"
       fy="8.4188359e-06"
       r="22.491604"
       gradientTransform="matrix(0,2.1341297,-2.1341298,0,1.7966889e-5,0)"
       gradientUnits="userSpaceOnUse" />
  </defs>
  <sodipodi:namedview
     id="base"
     pagecolor="#000000"
     bordercolor="#666666"
     borderopacity="1.0"
     inkscape:pageopacity="0"
     inkscape:pageshadow="2"
     inkscape:zoom="10.054942"
     inkscape:cx="23.999996"
     inkscape:cy="24.031249"
     inkscape:document-units="px"
     inkscape:current-layer="layer3"
     showgrid="false"
     inkscape:showpageshadow="false"
     borderlayer="true"
     showguides="false"
     inkscape:guide-bbox="true"
     inkscape:window-width="1276"
     inkscape:window-height="755"
     inkscape:window-x="0"
     inkscape:window-y="0"
     inkscape:window-maximized="1">
    <sodipodi:guide
       orientation="1,0"
       position="24,24"
       id="guide2985" />
    <sodipodi:guide
       id="guide2987"
       position="4,4"
       orientation="1,0" />
    <sodipodi:guide
       orientation="1,0"
       position="44,44"
       id="guide2989" />
    <sodipodi:guide
       orientation="0,1"
       position="44,44"
       id="guide2991" />
    <sodipodi:guide
       orientation="0,1"
       position="4,4"
       id="guide2993" />
    <inkscape:grid
       type="xygrid"
       id="grid4196" />
  </sodipodi:namedview>
  <metadata
     id="metadata7">
    <rdf:RDF>
      <cc:Work
         rdf:about="">
        <dc:format>image/svg+xml</dc:format>
        <dc:type
           rdf:resource="http://purl.org/dc/dcmitype/StillImage" />
        <dc:title />
      </cc:Work>
    </rdf:RDF>
  </metadata>
  <g
     inkscape:groupmode="layer"
     id="layer2"
     inkscape:label="Wheel"
     style="display:inline">
    <path
       style="fill:#e0e0e0;fill-opacity:1;fill-rule:nonzero;stroke:#e0e0e0;stroke-width:0.51678747000000003;stroke-linecap:butt;stroke-linejoin:miter;stroke-miterlimit:4;stroke-opacity:1;stroke-dasharray:none;filter:url(#filter4646)"
       d="M 21.671169,1.4771383 C 20.496648,1.5975364 19.324532,1.7745445 18.147277,2.0899887 16.970025,2.4054331 15.853964,2.8326971 14.7766,3.3156897 l 0.275782,3.2481075 c -0.06953,0.035498 -0.114894,0.055654 -0.183853,0.091927 -0.04944,0.023298 -0.105113,0.066095 -0.153213,0.091927 -0.106953,0.058992 -0.199494,0.1238332 -0.306426,0.1838551 -0.127849,0.071766 -0.241191,0.141585 -0.36771,0.2144976 -0.05569,0.033533 -0.128478,0.058139 -0.183856,0.091927 -0.03025,0.015047 -0.06329,0.043742 -0.09193,0.061286 -0.08582,0.052559 -0.160075,0.099281 -0.245139,0.1532125 -0.01988,0.012604 -0.04147,0.04858 -0.06129,0.061286 -0.05742,0.030729 -0.129599,0.056462 -0.183855,0.091927 -0.01985,0.013156 -0.04136,0.017258 -0.06129,0.030642 -0.08569,0.057045 -0.162125,0.1248964 -0.245139,0.1838551 -0.151179,0.1035376 -0.280971,0.1981817 -0.428997,0.3064253 -0.11069,0.083578 -0.225775,0.1612053 -0.337066,0.2451402 -0.06218,0.046892 -0.152554,0.074357 -0.214499,0.12257 -0.01896,0.014714 -0.0424,0.046499 -0.06129,0.061286 -0.0936,0.073405 -0.152375,0.1685821 -0.245139,0.2451402 -0.237646,0.1961269 -0.478876,0.3799075 -0.704778,0.5822079 -0.0818,0.073178 -0.164668,0.1391632 -0.24514,0.2144971 -0.171572,0.1606196 -0.352932,0.3557224 -0.520923,0.5209228 -0.06838,0.06725 -0.147452,0.115081 -0.214499,0.183855 -0.087575,0.08898 -0.1592812,0.184443 -0.2451392,0.275783 -0.0434,0.04502 -0.080257,0.0766 -0.1225706,0.122569 -0.042397,0.04611 -0.1111986,0.106642 -0.1532126,0.153213 L 6.4724766,9.7199765 C 5.7270994,10.635622 4.9981766,11.575519 4.388785,12.631016 3.7793935,13.686513 3.3075853,14.806429 2.8873013,15.909767 l 2.4820444,2.053049 c -0.060837,0.187823 -0.1003508,0.392899 -0.1532125,0.582208 -0.00394,0.01412 0.00405,0.01658 0,0.03064 -0.00258,0.0088 0.00255,0.0217 0,0.03063 -0.00408,0.01407 -0.026557,0.0472 -0.030642,0.06129 -0.026294,0.07258 -0.041,0.139682 -0.061286,0.214498 -0.00621,0.02292 -0.024505,0.03832 -0.030642,0.06129 -0.010015,0.03743 -0.020859,0.0851 -0.030642,0.122571 -0.018194,0.06941 -0.013255,0.144453 -0.030642,0.214498 -0.014033,0.05559 -0.019899,0.09669 -0.030642,0.153212 -0.018827,0.07493 -0.074781,0.138972 -0.091927,0.214498 -0.00207,0.0094 0.032822,0.02127 0.030642,0.03064 -0.01585,0.07054 -0.046026,0.143947 -0.061286,0.214498 -0.033493,0.120683 -0.068222,0.245346 -0.091927,0.367711 -0.00455,0.02363 -0.026443,0.03767 -0.030642,0.06129 -0.013709,0.0706 -0.018015,0.144094 -0.030642,0.214497 -0.00171,0.0094 0.0017,0.02119 0,0.03064 -0.00174,0.0099 0.032376,0.02079 0.030642,0.03064 -0.013939,0.09457 -0.046142,0.180516 -0.061286,0.275783 -0.00759,0.04742 -0.023965,0.10579 -0.030642,0.153213 -0.012422,0.08044 -0.019548,0.164549 -0.030642,0.24514 -0.012485,0.09021 -0.019442,0.185517 -0.030642,0.275783 -0.00391,0.0336 0.00403,0.05831 0,0.09193 -0.00567,0.04656 -0.025207,0.106516 -0.030642,0.153211 -0.023269,0.137341 -0.048531,0.258833 -0.061286,0.398353 -0.00405,0.04432 -9.996e-4,0.108901 0,0.153213 -0.00529,0.05688 -0.025824,0.09623 -0.030642,0.153212 -2.102e-4,0.02062 0.03213,0.04074 0.030642,0.06129 -0.00111,0.01363 -0.029564,0.04765 -0.030642,0.06129 -0.00635,0.09145 -0.025602,0.184329 -0.030642,0.275783 -0.00672,0.121469 0.00191,0.245483 0,0.36771 -0.00277,0.06871 0.0018,0.11516 0,0.183855 -0.00523,0.06739 -0.029601,0.145572 -0.030642,0.214497 -0.00101,0.06706 3.167e-4,0.116712 0,0.183856 -7.715e-4,0.132382 -0.00191,0.266124 0,0.398354 0.00362,0.230329 0.01874,0.473569 0.030642,0.704777 l -2.9416815,1.348278 c 0.1203981,1.174522 0.2974063,2.377279 0.6128504,3.554534 0.3154444,1.177252 0.7427085,2.262671 1.225701,3.340034 l 3.2174651,-0.275782 c 0.035499,0.06953 0.086298,0.114894 0.12257,0.183853 0.00487,0.0093 0.025749,0.02143 0.030642,0.03064 0.019999,0.03928 0.04042,0.0837 0.061286,0.12257 0.058992,0.106952 0.1238331,0.199494 0.1838551,0.306426 0.072599,0.126579 0.1410882,0.272375 0.2144976,0.398353 0.049728,0.08532 0.1016955,0.16113 0.1532127,0.24514 0.035509,0.05795 0.055758,0.126432 0.091927,0.183855 0.019075,0.02821 0.043307,0.03293 0.061286,0.06129 0.043546,0.07705 0.074331,0.171339 0.1225701,0.245141 0.012966,0.01978 0.048269,0.04154 0.061286,0.06129 0.2202978,0.334286 0.4631539,0.659004 0.7047779,0.980561 0.014184,0.01888 0.01641,0.01184 0.030642,0.03064 0.042203,0.0654 0.074291,0.152467 0.1225701,0.214498 0.014714,0.01895 0.046499,0.0424 0.061286,0.06129 0.074186,0.09386 0.1697009,0.182899 0.2451402,0.27578 0.1961268,0.237648 0.3799076,0.478878 0.5822079,0.704779 0.06347,0.07095 0.1171317,0.146011 0.1838552,0.214498 0.00972,0.01048 0.020971,-0.01045 0.030646,0 0.1281364,0.138639 0.2647336,0.267 0.398352,0.398353 0.03432,0.03362 0.08853,0.08871 0.122571,0.12257 0.06813,0.06775 0.11508,0.147451 0.183855,0.214498 0.03832,0.03688 0.08428,0.05494 0.122571,0.09193 0.0518,0.04982 0.101962,0.103306 0.153212,0.153213 0.04502,0.04341 0.0766,0.110897 0.122569,0.153213 0.04611,0.04242 0.076,0.08057 0.122571,0.122571 l -1.1031315,3.03361 c 0.9156445,0.745376 1.8555425,1.474299 2.9110395,2.083691 1.055496,0.609391 2.175412,1.050557 3.27875,1.47084 l 2.05305,-2.482043 c 0.187822,0.06084 0.3929,0.10036 0.582209,0.153213 0.01411,0.0039 0.01658,0.02656 0.03064,0.03063 0.04616,0.01324 0.107142,0.01771 0.153211,0.03064 0.05042,0.0183 0.10189,0.04656 0.153213,0.06129 0.02292,0.0062 0.03833,-0.0062 0.06129,0 0.03741,0.01003 0.05447,0.02086 0.09193,0.03064 0.06942,0.01819 0.144454,0.04391 0.214498,0.06129 0.107465,0.02677 0.229762,0.03468 0.337067,0.06129 0.02335,0.0055 0.03788,0.02524 0.06129,0.03064 0.02349,0.0054 0.03782,-0.0053 0.06129,0 0.177261,0.04298 0.373081,0.088 0.551565,0.12257 0.02364,0.0044 0.03767,0.02642 0.06129,0.03063 0.07019,0.01496 0.144091,0.01802 0.214498,0.03064 0.113844,0.01714 0.222312,0.0124 0.337067,0.03064 0.04742,0.0076 0.10579,0.02396 0.153213,0.03063 0.08098,0.01254 0.16344,0.0499 0.24514,0.06129 0.09021,0.0125 0.185516,-0.0112 0.275783,0 0.0336,0.0039 0.05831,0.02661 0.09193,0.03063 0.03357,0.0044 0.05838,-0.0044 0.09193,0 0.03335,0.0041 0.08904,-0.0042 0.122569,0 0.117902,0.02115 0.219386,0.04962 0.337068,0.06129 0.102106,0.0094 0.205191,0.023 0.306425,0.03063 0.03423,0.0028 0.05793,-0.0026 0.09193,0 0.09145,0.0064 0.184327,0.0256 0.275782,0.03063 0.131724,0.0073 0.265758,-0.0019 0.398353,0 0.05836,0.0024 0.1255,0.02912 0.183856,0.03064 0.0674,0.0019 0.14712,-0.0012 0.214498,0 0.06706,9.8e-4 0.116709,-3.14e-4 0.183854,0 0.13238,7.71e-4 0.266123,0.0021 0.398353,0 0.230328,-0.0036 0.47357,-0.0188 0.704778,-0.03064 l 1.348274,2.941719 c 1.174522,-0.120398 2.346637,-0.297406 3.523891,-0.612851 1.177253,-0.315444 2.293315,-0.742708 3.370678,-1.225701 l -0.275782,-3.217465 c 0.06953,-0.0355 0.114893,-0.08629 0.183853,-0.122571 0.04843,-0.02549 0.105423,-0.03491 0.153213,-0.06129 0.107107,-0.05768 0.200261,-0.122963 0.306426,-0.183855 0.127849,-0.07176 0.241191,-0.172228 0.36771,-0.24514 0.03802,-0.02189 0.08179,-0.04418 0.12257,-0.06129 0.0177,-0.01071 0.04364,-0.01987 0.06129,-0.03064 0.03025,-0.01503 0.06329,-0.04374 0.09193,-0.06129 0.08582,-0.05257 0.160073,-0.09929 0.24514,-0.153212 0.01981,-0.01234 0.04063,-0.05022 0.06129,-0.06129 0.07387,-0.04736 0.170824,-0.07268 0.24514,-0.12257 0.08491,-0.05596 0.161226,-0.09575 0.245139,-0.153213 0.149677,-0.106309 0.283444,-0.22717 0.428997,-0.337068 0.110839,-0.0813 0.228084,-0.162647 0.337066,-0.245141 0.06218,-0.04689 0.152556,-0.07435 0.214499,-0.12257 0.01897,-0.01467 0.0424,-0.04649 0.06129,-0.06129 0.0936,-0.07341 0.152375,-0.13794 0.24514,-0.214498 0.237646,-0.196126 0.478876,-0.410551 0.704777,-0.61285 0.0818,-0.07319 0.164668,-0.139165 0.24514,-0.214499 0.171573,-0.160619 0.352932,-0.325079 0.520924,-0.490279 0.06838,-0.06726 0.147452,-0.145723 0.214498,-0.214498 0.08758,-0.08898 0.159281,-0.1538 0.245139,-0.24514 0.04341,-0.04501 0.08027,-0.107249 0.122571,-0.153212 0.04242,-0.04611 0.111191,-0.076 0.153213,-0.122571 l 3.002967,1.10313 c 0.745377,-0.915646 1.4743,-1.855541 2.083691,-2.911039 0.609393,-1.055498 1.081199,-2.175411 1.501484,-3.278751 l -2.482045,-2.053048 c 0.06085,-0.187825 0.10036,-0.3929 0.153213,-0.582208 0.0041,-0.01408 -0.0041,-0.01658 0,-0.03064 0.0025,-0.0089 -0.0025,-0.02172 0,-0.03064 0.0041,-0.01439 0.02554,-0.01661 0.03064,-0.03064 0.02151,-0.07411 0.04004,-0.140346 0.06129,-0.214497 0.0062,-0.02292 0.02445,-0.06896 0.03063,-0.09193 0.01002,-0.03743 0.02086,-0.05448 0.03064,-0.09193 0.01819,-0.06941 0.01325,-0.144452 0.03063,-0.214497 0.03509,-0.138974 0.0592,-0.28834 0.09193,-0.428995 0.01707,-0.06983 0.04204,-0.145133 0.06129,-0.214498 0.0335,-0.120683 0.06822,-0.245346 0.09193,-0.367711 0.0045,-0.02364 0.02642,-0.03767 0.03064,-0.06129 0.01372,-0.07059 0.01803,-0.144096 0.03064,-0.214498 0.0019,-0.0095 -0.0019,-0.02118 0,-0.03064 0.0019,-0.0099 -0.0324,-0.02079 -0.03064,-0.03064 0.01395,-0.09457 0.04614,-0.180514 0.06129,-0.275784 0.02055,-0.1284 0.0458,-0.269925 0.06129,-0.398352 0.0125,-0.09021 0.01944,-0.185516 0.03064,-0.275783 0.0039,-0.0336 -0.004,-0.05831 0,-0.09193 0.0068,-0.04746 0.02266,-0.07538 0.03063,-0.12257 0.01586,-0.136254 0.04768,-0.291889 0.06129,-0.428995 0.0093,-0.101838 0.02963,-0.205195 0.03064,-0.306425 0.0019,-0.02061 -0.03236,-0.04066 -0.03064,-0.06129 0.0012,-0.01385 0.02967,-0.01679 0.03064,-0.03063 0.0064,-0.09145 0.0256,-0.184327 0.03063,-0.275783 0.0067,-0.121468 -0.0021,-0.245483 0,-0.367711 0.0025,-0.06777 -0.0052,-0.147108 0,-0.214497 0.0019,-0.06739 0.02952,-0.116479 0.03064,-0.183856 9.81e-4,-0.06705 -3.13e-4,-0.147352 0,-0.214497 7.71e-4,-0.132381 0.0021,-0.266124 0,-0.398353 -0.0036,-0.23033 -0.0188,-0.47357 -0.03064,-0.704778 L 46.4916,21.6399 c -0.120358,-1.174512 -0.297393,-2.346618 -0.612837,-3.523871 -0.315445,-1.177254 -0.74271,-2.293315 -1.225701,-3.370678 l -3.217465,0.306424 c -0.0355,-0.06953 -0.08629,-0.145535 -0.122572,-0.214496 -0.0048,-0.0093 -0.02574,-0.02145 -0.03064,-0.03064 -0.02001,-0.03928 -0.0404,-0.08371 -0.06129,-0.12257 -0.059,-0.106953 -0.123832,-0.199494 -0.183854,-0.306426 -0.0726,-0.126578 -0.141091,-0.241731 -0.214498,-0.367709 -0.05023,-0.08488 -0.101797,-0.191828 -0.153213,-0.275784 -0.05257,-0.08582 -0.09929,-0.160074 -0.153212,-0.245139 -0.04353,-0.07706 -0.07433,-0.171337 -0.122571,-0.24514 -0.01298,-0.01978 -0.04827,-0.0109 -0.06129,-0.03064 -0.220297,-0.334288 -0.463152,-0.659006 -0.704778,-0.98056 -0.01415,-0.01899 -0.01778,-0.04139 -0.03063,-0.06129 -0.0422,-0.06541 -0.07429,-0.152468 -0.122571,-0.214499 -0.01467,-0.01897 -0.04649,-0.01174 -0.06129,-0.03064 -0.07419,-0.09386 -0.169699,-0.182898 -0.24514,-0.275782 -0.196125,-0.237647 -0.379908,-0.478875 -0.582207,-0.704777 -0.06348,-0.07094 -0.117134,-0.146011 -0.183856,-0.214499 -0.140855,-0.144583 -0.284115,-0.287073 -0.428995,-0.428995 -0.03411,-0.03353 -0.08829,-0.05864 -0.12257,-0.09193 -0.06816,-0.06778 -0.115079,-0.147452 -0.183855,-0.2144972 -0.03821,-0.03726 -0.08451,-0.085146 -0.12257,-0.1225706 -0.0518,-0.049808 -0.101962,-0.1032955 -0.153207,-0.15321 -0.04557,-0.042862 -0.07636,-0.080732 -0.122572,-0.1225695 -0.0461,-0.042408 -0.07599,-0.080556 -0.122569,-0.1225705 L 38.248773,6.4412271 C 37.333128,5.69585 36.393231,4.9669273 35.337734,4.3575356 34.282236,3.7481448 33.162321,3.2763362 32.058983,2.8560518 L 30.005935,5.3380962 C 29.818111,5.27726 29.613037,5.2377454 29.423727,5.1848837 c -0.01425,-0.00413 -0.01652,0.00457 -0.03064,0 -0.0975,-0.027989 -0.209059,-0.065367 -0.306425,-0.091927 -0.02292,-0.00621 -0.03832,-0.024504 -0.06129,-0.030642 -0.03721,-0.00999 -0.05461,-0.020865 -0.09193,-0.030642 -0.06885,-0.017967 -0.144343,-0.014694 -0.214497,-0.030642 -0.107465,-0.026772 -0.229763,-0.065316 -0.337069,-0.091927 -0.0234,-0.00556 -0.03776,0.00446 -0.06129,0 -0.02349,-0.00533 -0.03782,-0.025377 -0.06129,-0.030642 -0.178402,-0.041106 -0.373764,-0.083269 -0.551567,-0.1225701 -0.113818,-0.021923 -0.223135,-0.013854 -0.337067,-0.030642 -0.09408,-0.016586 -0.181169,-0.047198 -0.275784,-0.061286 -0.04742,-0.00759 -0.105789,-0.02396 -0.153213,-0.030642 -0.08098,-0.012536 -0.163437,-0.019268 -0.245139,-0.030642 -0.09021,-0.012486 -0.185515,-0.019442 -0.275783,-0.030642 -0.03358,-0.00433 -0.05837,0.00439 -0.09193,0 -0.03311,-0.00403 -0.05859,0.00414 -0.09193,0 -0.03287,-0.00389 -0.08942,-0.02469 -0.122569,-0.030642 -0.117903,-0.021153 -0.219386,-0.049616 -0.337069,-0.061286 -0.102107,-0.00934 -0.205191,-0.023001 -0.306425,-0.030642 -0.03423,-0.00289 -0.05793,0.00254 -0.09193,0 -0.09145,-0.00635 -0.184328,-0.025602 -0.275784,-0.030642 -0.06736,-0.00353 -0.14708,0.00269 -0.214496,0 -0.06514,0.00277 -0.118856,0.031504 -0.183856,0.030642 -0.05835,-0.00223 -0.1255,-0.029118 -0.183855,-0.030642 -0.06739,-0.00177 -0.14712,-0.02951 -0.214497,-0.030642 -0.06705,-0.00101 -0.116712,3.167e-4 -0.183855,0 -0.132382,-7.711e-4 -0.266124,-0.00192 -0.398355,0 -0.230327,0.00362 -0.473569,0.01874 -0.704777,0.030642 L 21.67115,1.4771426 z"
       id="path4247"
       inkscape:connector-curvature="0" />
    <path
       style="fill:url(#linearGradient4612);fill-opacity:1;fill-rule:nonzero;stroke:none;stroke-width:0.50000000000000000;stroke-opacity:1;stroke-miterlimit:4;stroke-dasharray:none;stroke-linejoin:miter;stroke-linecap:butt"
       d="M 33.90625 14.09375 L 14.09375 33.90625 L 23.09375 42.875 C 23.168812 42.874068 23.237665 42.87395 23.3125 42.875 C 23.36896 42.8773 23.44354 42.90478 23.5 42.90625 C 23.56521 42.90805 23.653561 42.90505 23.71875 42.90625 C 23.78363 42.907199 23.810036 42.905947 23.875 42.90625 C 24.00308 42.906996 24.153315 42.90825 24.28125 42.90625 C 24.504096 42.90275 24.713802 42.88645 24.9375 42.875 L 26.25 45.71875 C 27.386368 45.602263 28.517238 45.430198 29.65625 45.125 C 30.795261 44.819803 31.895134 44.404803 32.9375 43.9375 L 32.65625 40.84375 C 32.72352 40.8094 32.77703 40.753849 32.84375 40.71875 C 32.89061 40.69409 32.922513 40.68177 32.96875 40.65625 C 33.072378 40.60044 33.178534 40.527664 33.28125 40.46875 C 33.404946 40.39932 33.502591 40.320544 33.625 40.25 C 33.66178 40.22882 33.710541 40.20406 33.75 40.1875 C 33.76713 40.17714 33.79542 40.16667 33.8125 40.15625 C 33.84177 40.14171 33.87854 40.11073 33.90625 40.09375 C 33.98928 40.04289 34.042697 39.989675 34.125 39.9375 C 34.14417 39.92556 34.16751 39.88571 34.1875 39.875 C 34.25897 39.82918 34.365598 39.829518 34.4375 39.78125 C 34.51965 39.72711 34.606313 39.680596 34.6875 39.625 C 34.832315 39.522144 34.952926 39.387578 35.09375 39.28125 C 35.200989 39.20259 35.300808 39.142314 35.40625 39.0625 C 35.46641 39.01713 35.565069 38.984159 35.625 38.9375 C 35.64335 38.92331 35.66922 38.88932 35.6875 38.875 C 35.77806 38.80398 35.816498 38.761571 35.90625 38.6875 C 36.136176 38.497745 36.375187 38.289477 36.59375 38.09375 C 36.67289 38.02294 36.765892 37.947887 36.84375 37.875 C 37.009749 37.719598 37.181215 37.566084 37.34375 37.40625 C 37.40991 37.34118 37.497632 37.254041 37.5625 37.1875 C 37.64723 37.10141 37.698181 37.057123 37.78125 36.96875 C 37.82325 36.9252 37.865321 36.85697 37.90625 36.8125 C 37.94729 36.76789 38.021843 36.732559 38.0625 36.6875 L 40.96875 37.75 C 41.689914 36.864098 42.379154 35.958711 42.96875 34.9375 C 43.558347 33.916289 44.030868 32.848749 44.4375 31.78125 L 42.03125 29.78125 C 42.09012 29.599526 42.136364 29.401909 42.1875 29.21875 C 42.1915 29.20513 42.1835 29.2011 42.1875 29.1875 C 42.1899 29.1789 42.1851 29.16488 42.1875 29.15625 C 42.1915 29.14233 42.21382 29.13857 42.21875 29.125 C 42.23956 29.0533 42.22944 28.977992 42.25 28.90625 C 42.256 28.88407 42.27527 28.86597 42.28125 28.84375 C 42.29095 28.80754 42.30304 28.78623 42.3125 28.75 C 42.3301 28.68284 42.32693 28.599019 42.34375 28.53125 C 42.3777 28.39679 42.40584 28.261086 42.4375 28.125 C 42.45402 28.05744 42.48137 27.973362 42.5 27.90625 C 42.53241 27.789487 42.57081 27.68089 42.59375 27.5625 C 42.59815 27.53963 42.62092 27.52285 42.625 27.5 C 42.63827 27.4317 42.64405 27.349365 42.65625 27.28125 C 42.65805 27.27205 42.65445 27.25915 42.65625 27.25 C 42.65805 27.2404 42.62329 27.22827 42.625 27.21875 C 42.6385 27.12725 42.67284 27.060925 42.6875 26.96875 C 42.70738 26.844521 42.73501 26.686755 42.75 26.5625 C 42.76209 26.47522 42.77042 26.399835 42.78125 26.3125 C 42.78505 26.27999 42.77735 26.25127 42.78125 26.21875 C 42.78785 26.17283 42.77353 26.139409 42.78125 26.09375 C 42.79659 25.961922 42.83058 25.820152 42.84375 25.6875 C 42.85275 25.58897 42.87403 25.504191 42.875 25.40625 C 42.8768 25.38631 42.84208 25.36371 42.84375 25.34375 C 42.84495 25.33035 42.87407 25.32589 42.875 25.3125 C 42.8812 25.22402 42.90138 25.119736 42.90625 25.03125 C 42.91275 24.913728 42.90425 24.805758 42.90625 24.6875 C 42.90865 24.62193 42.90125 24.53395 42.90625 24.46875 C 42.90805 24.40355 42.93642 24.346439 42.9375 24.28125 C 42.938449 24.21638 42.937197 24.158714 42.9375 24.09375 C 42.938246 23.96567 42.9395 23.815434 42.9375 23.6875 C 42.934499 23.496416 42.916609 23.319238 42.90625 23.125 L 33.90625 14.09375 z "
       id="path4597" />
    <path
       inkscape:connector-curvature="0"
       id="path4523"
       d="M 21.671169,1.4771379 C 20.496648,1.597536 19.324532,1.7745441 18.147277,2.0899883 16.970025,2.4054327 15.853964,2.8326967 14.7766,3.3156893 l 0.275782,3.2481076 c -0.06953,0.035498 -0.114894,0.055654 -0.183853,0.091927 -0.04944,0.023298 -0.105113,0.066095 -0.153213,0.091927 -0.106953,0.058992 -0.199494,0.1238332 -0.306426,0.1838551 -0.127849,0.071766 -0.241191,0.1415849 -0.36771,0.2144976 -0.05569,0.033533 -0.128478,0.058139 -0.183856,0.091927 -0.03025,0.015047 -0.06329,0.043742 -0.09193,0.061286 -0.08582,0.052559 -0.160075,0.099281 -0.245139,0.1532125 -0.01988,0.012604 -0.04147,0.04858 -0.06129,0.061286 -0.05742,0.030729 -0.129599,0.056462 -0.183855,0.091927 -0.01985,0.013156 -0.04136,0.017258 -0.06129,0.030642 -0.08569,0.057045 -0.162125,0.1248964 -0.245139,0.1838551 -0.151179,0.1035376 -0.280971,0.1981818 -0.428997,0.3064253 -0.11069,0.083578 -0.225775,0.1612053 -0.337066,0.2451402 -0.06218,0.046892 -0.152554,0.074357 -0.214499,0.1225701 -0.01896,0.014714 -0.0424,0.046499 -0.06129,0.061286 -0.0936,0.073405 -0.152375,0.1685822 -0.245139,0.2451402 -0.237646,0.1961269 -0.478876,0.3799075 -0.704778,0.5822079 -0.0818,0.073178 -0.164668,0.1391632 -0.24514,0.2144972 -0.171572,0.1606196 -0.352932,0.3557223 -0.520923,0.5209219 -0.06838,0.06726 -0.147452,0.115082 -0.214499,0.183856 -0.087575,0.08898 -0.1592812,0.184442 -0.2451392,0.275782 -0.0434,0.04502 -0.080257,0.0766 -0.1225706,0.12257 -0.042397,0.04611 -0.1111986,0.106642 -0.1532126,0.153213 L 6.4724766,9.7199763 C 5.7270994,10.635621 4.9981766,11.575519 4.388785,12.631016 3.7793935,13.686513 3.3075853,14.806429 2.8873013,15.909767 l 2.4820444,2.053049 c -0.060837,0.187823 -0.1003508,0.392899 -0.1532125,0.582207 -0.00394,0.01412 0.00405,0.01658 0,0.03064 -0.00258,0.0088 0.00255,0.0217 0,0.03063 -0.00408,0.01407 -0.026557,0.0472 -0.030642,0.06129 -0.026294,0.07258 -0.041,0.139682 -0.061286,0.214498 -0.00621,0.02292 -0.024505,0.03832 -0.030642,0.06129 -0.010015,0.03743 -0.020859,0.0851 -0.030642,0.122571 -0.018194,0.06941 -0.013255,0.144453 -0.030642,0.214498 -0.014033,0.05559 -0.019899,0.09669 -0.030642,0.153212 -0.018827,0.07493 -0.074781,0.138972 -0.091927,0.214498 -0.00207,0.0094 0.032822,0.02127 0.030642,0.03064 -0.01585,0.07054 -0.046026,0.143947 -0.061286,0.214498 -0.033493,0.120683 -0.068222,0.245346 -0.091927,0.367711 -0.00455,0.02363 -0.026443,0.03767 -0.030642,0.06129 -0.013709,0.0706 -0.018015,0.144094 -0.030642,0.214497 -0.00171,0.0094 0.0017,0.02119 0,0.03064 -0.00174,0.0099 0.032376,0.0208 0.030642,0.03064 -0.013939,0.09457 -0.046142,0.180516 -0.061286,0.275783 -0.00759,0.04742 -0.023965,0.10579 -0.030642,0.153213 -0.012422,0.08044 -0.019548,0.164549 -0.030642,0.245139 -0.012485,0.09021 -0.019442,0.185518 -0.030642,0.275784 -0.00391,0.0336 0.00403,0.05831 0,0.09193 -0.00567,0.04656 -0.025207,0.106516 -0.030642,0.153211 -0.023269,0.137341 -0.048531,0.258833 -0.061286,0.398353 -0.00405,0.04432 -9.996e-4,0.108901 0,0.153213 -0.00529,0.05688 -0.025824,0.09623 -0.030642,0.153212 -2.102e-4,0.02062 0.03213,0.04074 0.030642,0.06129 -0.00111,0.01363 -0.029564,0.04765 -0.030642,0.06129 -0.00635,0.09145 -0.025602,0.184329 -0.030642,0.275783 -0.00672,0.121469 0.00191,0.245483 0,0.36771 -0.00277,0.06871 0.0018,0.11516 0,0.183855 -0.00523,0.06739 -0.029601,0.145572 -0.030642,0.214497 -0.00101,0.06706 3.167e-4,0.116712 0,0.183856 -7.715e-4,0.132382 -0.00191,0.266124 0,0.398354 0.00362,0.230329 0.01874,0.473569 0.030642,0.704777 l -2.9416815,1.348278 c 0.1203981,1.174522 0.2974063,2.377279 0.6128504,3.554534 0.3154444,1.177252 0.7427085,2.262671 1.225701,3.340035 L 6.5644082,32.91638 c 0.035499,0.06953 0.086298,0.114894 0.12257,0.183853 0.00487,0.0093 0.025749,0.02143 0.030642,0.03064 0.019999,0.03928 0.04042,0.0837 0.061286,0.12257 0.058992,0.106952 0.1238331,0.199494 0.1838551,0.306426 0.072599,0.126579 0.1410882,0.272375 0.2144976,0.398353 0.049728,0.08532 0.1016955,0.16113 0.1532127,0.24514 0.035509,0.05795 0.055758,0.126433 0.091927,0.183855 0.019075,0.02821 0.043307,0.03293 0.061286,0.06129 0.043546,0.07705 0.074331,0.17134 0.1225701,0.245141 0.012966,0.01978 0.048269,0.04154 0.061286,0.06129 0.2202978,0.334286 0.4631539,0.659004 0.7047779,0.980561 0.014184,0.01888 0.01641,0.01185 0.030642,0.03064 0.042203,0.0654 0.074291,0.152467 0.1225701,0.214498 0.014714,0.01896 0.046499,0.0424 0.061286,0.06129 0.074186,0.09386 0.1697009,0.182899 0.2451402,0.27578 0.1961268,0.237648 0.3799076,0.478878 0.5822079,0.70478 0.06347,0.07095 0.1171317,0.146011 0.1838552,0.214497 0.00972,0.01048 0.020971,-0.01045 0.030646,0 0.1281364,0.138639 0.2647336,0.267001 0.398352,0.398354 0.03432,0.03362 0.08853,0.08871 0.122571,0.122569 0.06813,0.06775 0.11508,0.147451 0.183855,0.214498 0.03832,0.03688 0.08428,0.05494 0.122571,0.09193 0.0518,0.04982 0.101962,0.103306 0.153212,0.153213 0.04502,0.04341 0.0766,0.110898 0.122569,0.153213 0.04611,0.04242 0.076,0.08057 0.122571,0.122571 l -1.1031315,3.03361 c 0.9156445,0.745376 1.8555425,1.474299 2.9110395,2.083692 1.055496,0.60939 2.175412,1.050556 3.27875,1.47084 l 2.05305,-2.482044 c 0.187822,0.06084 0.3929,0.10036 0.582209,0.153213 0.01411,0.0039 0.01658,0.02656 0.03064,0.03064 0.04616,0.01324 0.107142,0.0177 0.153211,0.03063 0.05042,0.0183 0.10189,0.04656 0.153213,0.06129 0.02292,0.0062 0.03833,-0.0062 0.06129,0 0.03741,0.01002 0.05447,0.02086 0.09193,0.03063 0.06942,0.01819 0.144454,0.04391 0.214498,0.06129 0.107465,0.02677 0.229762,0.03468 0.337067,0.06129 0.02335,0.0055 0.03788,0.02524 0.06129,0.03063 0.02349,0.0054 0.03782,-0.0053 0.06129,0 0.177261,0.04298 0.373081,0.088 0.551565,0.122571 0.02364,0.0044 0.03767,0.02642 0.06129,0.03064 0.07019,0.01496 0.144091,0.01801 0.214498,0.03063 0.113844,0.01714 0.222312,0.0124 0.337067,0.03064 0.04742,0.0076 0.10579,0.02396 0.153213,0.03063 0.08098,0.01254 0.16344,0.0499 0.24514,0.06129 0.09021,0.0125 0.185516,-0.0112 0.275783,0 0.0336,0.0039 0.05831,0.02661 0.09193,0.03063 0.03357,0.0044 0.05838,-0.0044 0.09193,0 0.03335,0.0041 0.08904,-0.0042 0.122569,0 0.117902,0.02115 0.219386,0.04962 0.337068,0.06129 0.102106,0.0094 0.205191,0.023 0.306425,0.03064 0.03423,0.0028 0.05793,-0.0026 0.09193,0 0.09145,0.0064 0.184327,0.0256 0.275782,0.03064 0.131724,0.0073 0.265758,-0.0019 0.398353,0 0.05836,0.0024 0.1255,0.02912 0.183856,0.03063 0.0674,0.0019 0.14712,-0.0012 0.214498,0 0.06706,9.81e-4 0.116709,-3.13e-4 0.183854,0 0.13238,7.71e-4 0.266123,0.0021 0.398353,0 0.230328,-0.0036 0.47357,-0.0188 0.704778,-0.03063 l 1.348274,2.941718 c 1.174522,-0.120398 2.346637,-0.297406 3.523891,-0.612851 1.177253,-0.315444 2.293315,-0.742708 3.370678,-1.225701 l -0.275782,-3.217465 c 0.06953,-0.0355 0.114893,-0.08629 0.183853,-0.12257 0.04843,-0.02549 0.105423,-0.03491 0.153213,-0.06129 0.107107,-0.05768 0.200261,-0.122964 0.306426,-0.183856 0.127849,-0.07176 0.241191,-0.172227 0.36771,-0.24514 0.03802,-0.02189 0.08179,-0.04418 0.12257,-0.06129 0.0177,-0.01071 0.04364,-0.01987 0.06129,-0.03064 0.03025,-0.01503 0.06329,-0.04374 0.09193,-0.06129 0.08582,-0.05257 0.160073,-0.09929 0.24514,-0.153212 0.01981,-0.01234 0.04063,-0.05022 0.06129,-0.06129 0.07387,-0.04736 0.170824,-0.07268 0.24514,-0.12257 0.08491,-0.05596 0.161226,-0.09575 0.245139,-0.153213 0.149677,-0.106309 0.283444,-0.22717 0.428997,-0.337068 0.110839,-0.0813 0.228084,-0.162647 0.337066,-0.24514 0.06218,-0.04689 0.152556,-0.07435 0.214499,-0.122571 0.01897,-0.01467 0.0424,-0.04649 0.06129,-0.06129 0.0936,-0.0734 0.152375,-0.13794 0.24514,-0.214498 0.237646,-0.196126 0.478876,-0.410551 0.704777,-0.61285 0.0818,-0.07319 0.164668,-0.139164 0.24514,-0.214498 0.171573,-0.16062 0.352932,-0.325079 0.520924,-0.49028 0.06838,-0.06726 0.147452,-0.145723 0.214498,-0.214498 0.08758,-0.08898 0.159281,-0.1538 0.245139,-0.24514 0.04341,-0.04501 0.08027,-0.107249 0.122571,-0.153212 0.04242,-0.04611 0.111191,-0.076 0.153213,-0.12257 l 3.002967,1.103129 c 0.745377,-0.915646 1.4743,-1.855541 2.083691,-2.911039 0.609393,-1.055498 1.081199,-2.175411 1.501484,-3.278751 L 42.630708,29.97466 c 0.06085,-0.187825 0.10036,-0.3929 0.153213,-0.582208 0.0041,-0.01408 -0.0041,-0.01658 0,-0.03064 0.0025,-0.0089 -0.0025,-0.02172 0,-0.03064 0.0041,-0.01439 0.02554,-0.01661 0.03064,-0.03064 0.02151,-0.07411 0.04004,-0.140346 0.06129,-0.214496 0.0062,-0.02293 0.02445,-0.06896 0.03063,-0.09193 0.01002,-0.03743 0.02086,-0.05448 0.03064,-0.09193 0.01819,-0.06941 0.01325,-0.144452 0.03063,-0.214497 0.03509,-0.138974 0.0592,-0.28834 0.09193,-0.428995 0.01707,-0.06983 0.04204,-0.145133 0.06129,-0.214498 0.0335,-0.120683 0.06822,-0.245346 0.09193,-0.367711 0.0045,-0.02364 0.02642,-0.03767 0.03064,-0.06129 0.01372,-0.07059 0.01803,-0.144096 0.03064,-0.214498 0.0019,-0.0095 -0.0019,-0.02118 0,-0.03064 0.0019,-0.0099 -0.0324,-0.02079 -0.03064,-0.03064 0.01395,-0.09457 0.04614,-0.180514 0.06129,-0.275784 0.02055,-0.128399 0.0458,-0.269925 0.06129,-0.398352 0.0125,-0.09021 0.01944,-0.185516 0.03064,-0.275783 0.0039,-0.0336 -0.004,-0.05831 0,-0.09193 0.0068,-0.04746 0.02266,-0.07538 0.03063,-0.122571 0.01586,-0.136254 0.04768,-0.291889 0.06129,-0.428995 0.0093,-0.101838 0.02963,-0.205195 0.03064,-0.306425 0.0019,-0.02061 -0.03236,-0.04066 -0.03064,-0.06129 0.0012,-0.01385 0.02967,-0.01679 0.03064,-0.03063 0.0064,-0.09145 0.0256,-0.184327 0.03063,-0.275783 0.0067,-0.121468 -0.0021,-0.245483 0,-0.367711 0.0025,-0.06777 -0.0052,-0.147108 0,-0.214497 0.0019,-0.06739 0.02952,-0.116479 0.03064,-0.183856 9.81e-4,-0.06705 -3.13e-4,-0.147352 0,-0.214497 7.71e-4,-0.132381 0.0021,-0.266124 0,-0.398353 -0.0036,-0.23033 -0.0188,-0.47357 -0.03064,-0.704778 L 46.4916,21.6399 c -0.120358,-1.174512 -0.297393,-2.346618 -0.612837,-3.523871 -0.315445,-1.177254 -0.74271,-2.293315 -1.225701,-3.370678 l -3.217465,0.306424 c -0.0355,-0.06953 -0.08629,-0.145535 -0.122572,-0.214496 -0.0048,-0.0093 -0.02574,-0.02145 -0.03064,-0.03064 -0.02001,-0.03928 -0.0404,-0.08371 -0.06129,-0.12257 -0.059,-0.106953 -0.123832,-0.199494 -0.183854,-0.306426 -0.0726,-0.126579 -0.141091,-0.241731 -0.214498,-0.367709 -0.05023,-0.08488 -0.101797,-0.191828 -0.153213,-0.275784 -0.05257,-0.08582 -0.09929,-0.160074 -0.153212,-0.245139 -0.04353,-0.07706 -0.07433,-0.171337 -0.122571,-0.24514 -0.01298,-0.01978 -0.04827,-0.01091 -0.06129,-0.03064 -0.220297,-0.334287 -0.463152,-0.659005 -0.704778,-0.980559 -0.01415,-0.01899 -0.01778,-0.04139 -0.03063,-0.06129 -0.0422,-0.06541 -0.07429,-0.152468 -0.122571,-0.214499 -0.01467,-0.01897 -0.04649,-0.01174 -0.06129,-0.03064 -0.07419,-0.09386 -0.169699,-0.182899 -0.24514,-0.275782 -0.196125,-0.237647 -0.379908,-0.478875 -0.582207,-0.704777 -0.06348,-0.07094 -0.117134,-0.146011 -0.183856,-0.214499 -0.140855,-0.144584 -0.284115,-0.287073 -0.428995,-0.428996 -0.03411,-0.03353 -0.08829,-0.05863 -0.12257,-0.09193 -0.06816,-0.06778 -0.115079,-0.147452 -0.183855,-0.2144965 -0.03821,-0.03726 -0.08451,-0.085146 -0.12257,-0.1225706 C 37.492195,9.8233839 37.442033,9.7698964 37.390788,9.719982 37.345218,9.67712 37.314428,9.63925 37.268216,9.5974124 37.222116,9.5550044 37.192226,9.5168564 37.145647,9.4748419 L 38.248773,6.4412268 C 37.333128,5.6958497 36.393231,4.9669269 35.337734,4.3575352 34.282236,3.7481444 33.162321,3.2763358 32.058983,2.8560514 l -2.053048,2.4820445 c -0.187824,-0.060836 -0.392898,-0.1003508 -0.582208,-0.1532125 -0.01425,-0.00413 -0.01652,0.00457 -0.03064,0 -0.0975,-0.027989 -0.209059,-0.065367 -0.306425,-0.091927 -0.02292,-0.00621 -0.03832,-0.024504 -0.06129,-0.030642 -0.03721,-0.00999 -0.05461,-0.020865 -0.09193,-0.030642 -0.06885,-0.017967 -0.144343,-0.014694 -0.214497,-0.030642 -0.107465,-0.026772 -0.229763,-0.065316 -0.337069,-0.091927 -0.0234,-0.00556 -0.03776,0.00447 -0.06129,0 -0.02349,-0.00533 -0.03782,-0.025377 -0.06129,-0.030642 -0.178402,-0.041106 -0.373764,-0.083269 -0.551567,-0.1225701 -0.113818,-0.021923 -0.223135,-0.013854 -0.337067,-0.030642 -0.09408,-0.016586 -0.181169,-0.047198 -0.275784,-0.061286 -0.04742,-0.00759 -0.105789,-0.02396 -0.153213,-0.030642 -0.08098,-0.012536 -0.163437,-0.019268 -0.245139,-0.030642 -0.09021,-0.012486 -0.185515,-0.019442 -0.275783,-0.030642 -0.03358,-0.00433 -0.05837,0.00439 -0.09193,0 -0.03311,-0.00403 -0.05859,0.00414 -0.09193,0 -0.03287,-0.00389 -0.08942,-0.02469 -0.122569,-0.030642 -0.117903,-0.021153 -0.219386,-0.049616 -0.337069,-0.061286 -0.102107,-0.00934 -0.205191,-0.023001 -0.306425,-0.030642 -0.03423,-0.00289 -0.05793,0.00254 -0.09193,0 -0.09145,-0.00635 -0.184328,-0.025602 -0.275784,-0.030642 -0.06736,-0.00353 -0.14708,0.00269 -0.214496,0 -0.06514,0.00277 -0.118856,0.031504 -0.183856,0.030642 -0.05835,-0.00223 -0.1255,-0.029118 -0.183855,-0.030642 -0.06739,-0.00177 -0.14712,-0.02951 -0.214497,-0.030642 -0.06705,-0.00101 -0.116712,3.167e-4 -0.183855,0 -0.132382,-7.71e-4 -0.266124,-0.00192 -0.398355,0 -0.230327,0.00362 -0.473569,0.01874 -0.704777,0.030642 L 21.67115,1.4771423 z"
       style="fill:none;stroke:url(#linearGradient4531);stroke-width:0.51678747;stroke-linecap:butt;stroke-linejoin:miter;stroke-miterlimit:4;stroke-opacity:1;stroke-dasharray:none" />
  </g>
  <g
     inkscape:groupmode="layer"
     id="layer3"
     inkscape:label="Emblem"
     style="display:inline">
    <path
       sodipodi:type="arc"
       style="fill:#ff6600;fill-opacity:1;fill-rule:nonzero;stroke:#ff6600;stroke-width:0.50000000000000000;stroke-miterlimit:4;stroke-dasharray:none;stroke-opacity:1"
       id="path4630"
       sodipodi:cx="24"
       sodipodi:cy="24"
       sodipodi:rx="14"
       sodipodi:ry="14"
       d="m 38,24 a 14,14 0 1 1 -28,0 14,14 0 1 1 28,0 z" />
    <path
       style="fill:#ffffff;fill-opacity:1;fill-rule:nonzero;stroke:none;stroke-opacity:1;stroke-width:0.50000000000000000;stroke-miterlimit:4;stroke-dasharray:none;stroke-linecap:round;stroke-linejoin:round"
       d="m 18.015675,14.000025 0.0937,3.21875 c 9.03881,0.1513 12.7987,7.6538 12.65625,12.75 l 3.25,0.0312 c -0.07,-7.9672 -5.62311,-15.517 -16,-16 z m 0.0312,5.34375 0.0312,3.15625 c 4.10871,0.1749 7.35375,2.6929 7.40625,7.5 l 3.15625,0 c -0.092,-5.469 -3.84067,-10.30305 -10.59375,-10.65625 z m 2.1875,6.21875 c -1.23569,0 -2.25,0.9845 -2.25,2.1875 0,1.20299 1.01431,2.15625 2.25,2.15625 1.23569,0 2.25,-0.95326 2.25,-2.15625 0,-1.203 -1.01431,-2.1875 -2.25,-2.1875 z"
       id="path5270"
       inkscape:connector-curvature="0" />
    <path
       d="m 38,24 a 14,14 0 1 1 -28,0 14,14 0 1 1 28,0 z"
       sodipodi:ry="14"
       sodipodi:rx="14"
       sodipodi:cy="24"
       sodipodi:cx="24"
       id="path4636"
       style="fill:none;fill-opacity:1;fill-rule:nonzero;stroke:url(#linearGradient4644);stroke-width:0.50000000000000000;stroke-miterlimit:4;stroke-dasharray:none;stroke-opacity:1"
       sodipodi:type="arc" />
    <path
       style="fill:url(#radialGradient4675);stroke:none;stroke-width:0.51678747000000003;stroke-linecap:butt;stroke-linejoin:miter;stroke-miterlimit:4;stroke-opacity:1;stroke-dasharray:none;fill-opacity:1"
       d="M 21.671169,1.4771379 C 20.496648,1.597536 19.324532,1.7745441 18.147277,2.0899883 16.970025,2.4054327 15.853964,2.8326967 14.7766,3.3156893 l 0.275782,3.2481076 c -0.06953,0.035498 -0.114894,0.055654 -0.183853,0.091927 -0.04944,0.023298 -0.105113,0.066095 -0.153213,0.091927 -0.106953,0.058992 -0.199494,0.1238332 -0.306426,0.1838551 -0.127849,0.071766 -0.241191,0.1415849 -0.36771,0.2144976 -0.05569,0.033533 -0.128478,0.058139 -0.183856,0.091927 -0.03025,0.015047 -0.06329,0.043742 -0.09193,0.061286 -0.08582,0.052559 -0.160075,0.099281 -0.245139,0.1532125 -0.01988,0.012604 -0.04147,0.04858 -0.06129,0.061286 -0.05742,0.030729 -0.129599,0.056462 -0.183855,0.091927 -0.01985,0.013156 -0.04136,0.017258 -0.06129,0.030642 -0.08569,0.057045 -0.162125,0.1248964 -0.245139,0.1838551 -0.151179,0.1035376 -0.280971,0.1981818 -0.428997,0.3064253 -0.11069,0.083578 -0.225775,0.1612053 -0.337066,0.2451402 -0.06218,0.046892 -0.152554,0.074357 -0.214499,0.1225701 -0.01896,0.014714 -0.0424,0.046499 -0.06129,0.061286 -0.0936,0.073405 -0.152375,0.1685822 -0.245139,0.2451402 -0.237646,0.1961269 -0.478876,0.3799075 -0.704778,0.5822079 -0.0818,0.073178 -0.164668,0.1391632 -0.24514,0.2144972 -0.171572,0.1606196 -0.352932,0.3557223 -0.520923,0.5209219 -0.06838,0.06726 -0.147452,0.115082 -0.214499,0.183856 -0.087575,0.08898 -0.1592812,0.184442 -0.2451392,0.275782 -0.0434,0.04502 -0.080257,0.0766 -0.1225706,0.12257 -0.042397,0.04611 -0.1111986,0.106642 -0.1532126,0.153213 L 6.4724766,9.7199763 C 5.7270994,10.635621 4.9981766,11.575519 4.388785,12.631016 3.7793935,13.686513 3.3075853,14.806429 2.8873013,15.909767 l 2.4820444,2.053049 c -0.060837,0.187823 -0.1003508,0.392899 -0.1532125,0.582207 -0.00394,0.01412 0.00405,0.01658 0,0.03064 -0.00258,0.0088 0.00255,0.0217 0,0.03063 -0.00408,0.01407 -0.026557,0.0472 -0.030642,0.06129 -0.026294,0.07258 -0.041,0.139682 -0.061286,0.214498 -0.00621,0.02292 -0.024505,0.03832 -0.030642,0.06129 -0.010015,0.03743 -0.020859,0.0851 -0.030642,0.122571 -0.018194,0.06941 -0.013255,0.144453 -0.030642,0.214498 -0.014033,0.05559 -0.019899,0.09669 -0.030642,0.153212 -0.018827,0.07493 -0.074781,0.138972 -0.091927,0.214498 -0.00207,0.0094 0.032822,0.02127 0.030642,0.03064 -0.01585,0.07054 -0.046026,0.143947 -0.061286,0.214498 -0.033493,0.120683 -0.068222,0.245346 -0.091927,0.367711 -0.00455,0.02363 -0.026443,0.03767 -0.030642,0.06129 -0.013709,0.0706 -0.018015,0.144094 -0.030642,0.214497 -0.00171,0.0094 0.0017,0.02119 0,0.03064 -0.00174,0.0099 0.032376,0.0208 0.030642,0.03064 -0.013939,0.09457 -0.046142,0.180516 -0.061286,0.275783 -0.00759,0.04742 -0.023965,0.10579 -0.030642,0.153213 -0.012422,0.08044 -0.019548,0.164549 -0.030642,0.245139 -0.012485,0.09021 -0.019442,0.185518 -0.030642,0.275784 -0.00391,0.0336 0.00403,0.05831 0,0.09193 -0.00567,0.04656 -0.025207,0.106516 -0.030642,0.153211 -0.023269,0.137341 -0.048531,0.258833 -0.061286,0.398353 -0.00405,0.04432 -9.996e-4,0.108901 0,0.153213 -0.00529,0.05688 -0.025824,0.09623 -0.030642,0.153212 -2.102e-4,0.02062 0.03213,0.04074 0.030642,0.06129 -0.00111,0.01363 -0.029564,0.04765 -0.030642,0.06129 -0.00635,0.09145 -0.025602,0.184329 -0.030642,0.275783 -0.00672,0.121469 0.00191,0.245483 0,0.36771 -0.00277,0.06871 0.0018,0.11516 0,0.183855 -0.00523,0.06739 -0.029601,0.145572 -0.030642,0.214497 -0.00101,0.06706 3.167e-4,0.116712 0,0.183856 -7.715e-4,0.132382 -0.00191,0.266124 0,0.398354 0.00362,0.230329 0.01874,0.473569 0.030642,0.704777 l -2.9416815,1.348278 c 0.1203981,1.174522 0.2974063,2.377279 0.6128504,3.554534 0.3154444,1.177252 0.7427085,2.262671 1.225701,3.340035 L 6.5644082,32.91638 c 0.035499,0.06953 0.086298,0.114894 0.12257,0.183853 0.00487,0.0093 0.025749,0.02143 0.030642,0.03064 0.019999,0.03928 0.04042,0.0837 0.061286,0.12257 0.058992,0.106952 0.1238331,0.199494 0.1838551,0.306426 0.072599,0.126579 0.1410882,0.272375 0.2144976,0.398353 0.049728,0.08532 0.1016955,0.16113 0.1532127,0.24514 0.035509,0.05795 0.055758,0.126433 0.091927,0.183855 0.019075,0.02821 0.043307,0.03293 0.061286,0.06129 0.043546,0.07705 0.074331,0.17134 0.1225701,0.245141 0.012966,0.01978 0.048269,0.04154 0.061286,0.06129 0.2202978,0.334286 0.4631539,0.659004 0.7047779,0.980561 0.014184,0.01888 0.01641,0.01185 0.030642,0.03064 0.042203,0.0654 0.074291,0.152467 0.1225701,0.214498 0.014714,0.01896 0.046499,0.0424 0.061286,0.06129 0.074186,0.09386 0.1697009,0.182899 0.2451402,0.27578 0.1961268,0.237648 0.3799076,0.478878 0.5822079,0.70478 0.06347,0.07095 0.1171317,0.146011 0.1838552,0.214497 0.00972,0.01048 0.020971,-0.01045 0.030646,0 0.1281364,0.138639 0.2647336,0.267001 0.398352,0.398354 0.03432,0.03362 0.08853,0.08871 0.122571,0.122569 0.06813,0.06775 0.11508,0.147451 0.183855,0.214498 0.03832,0.03688 0.08428,0.05494 0.122571,0.09193 0.0518,0.04982 0.101962,0.103306 0.153212,0.153213 0.04502,0.04341 0.0766,0.110898 0.122569,0.153213 0.04611,0.04242 0.076,0.08057 0.122571,0.122571 l -1.1031315,3.03361 c 0.9156445,0.745376 1.8555425,1.474299 2.9110395,2.083692 1.055496,0.60939 2.175412,1.050556 3.27875,1.47084 l 2.05305,-2.482044 c 0.187822,0.06084 0.3929,0.10036 0.582209,0.153213 0.01411,0.0039 0.01658,0.02656 0.03064,0.03064 0.04616,0.01324 0.107142,0.0177 0.153211,0.03063 0.05042,0.0183 0.10189,0.04656 0.153213,0.06129 0.02292,0.0062 0.03833,-0.0062 0.06129,0 0.03741,0.01002 0.05447,0.02086 0.09193,0.03063 0.06942,0.01819 0.144454,0.04391 0.214498,0.06129 0.107465,0.02677 0.229762,0.03468 0.337067,0.06129 0.02335,0.0055 0.03788,0.02524 0.06129,0.03063 0.02349,0.0054 0.03782,-0.0053 0.06129,0 0.177261,0.04298 0.373081,0.088 0.551565,0.122571 0.02364,0.0044 0.03767,0.02642 0.06129,0.03064 0.07019,0.01496 0.144091,0.01801 0.214498,0.03063 0.113844,0.01714 0.222312,0.0124 0.337067,0.03064 0.04742,0.0076 0.10579,0.02396 0.153213,0.03063 0.08098,0.01254 0.16344,0.0499 0.24514,0.06129 0.09021,0.0125 0.185516,-0.0112 0.275783,0 0.0336,0.0039 0.05831,0.02661 0.09193,0.03063 0.03357,0.0044 0.05838,-0.0044 0.09193,0 0.03335,0.0041 0.08904,-0.0042 0.122569,0 0.117902,0.02115 0.219386,0.04962 0.337068,0.06129 0.102106,0.0094 0.205191,0.023 0.306425,0.03064 0.03423,0.0028 0.05793,-0.0026 0.09193,0 0.09145,0.0064 0.184327,0.0256 0.275782,0.03064 0.131724,0.0073 0.265758,-0.0019 0.398353,0 0.05836,0.0024 0.1255,0.02912 0.183856,0.03063 0.0674,0.0019 0.14712,-0.0012 0.214498,0 0.06706,9.81e-4 0.116709,-3.13e-4 0.183854,0 0.13238,7.71e-4 0.266123,0.0021 0.398353,0 0.230328,-0.0036 0.47357,-0.0188 0.704778,-0.03063 l 1.348274,2.941718 c 1.174522,-0.120398 2.346637,-0.297406 3.523891,-0.612851 1.177253,-0.315444 2.293315,-0.742708 3.370678,-1.225701 l -0.275782,-3.217465 c 0.06953,-0.0355 0.114893,-0.08629 0.183853,-0.12257 0.04843,-0.02549 0.105423,-0.03491 0.153213,-0.06129 0.107107,-0.05768 0.200261,-0.122964 0.306426,-0.183856 0.127849,-0.07176 0.241191,-0.172227 0.36771,-0.24514 0.03802,-0.02189 0.08179,-0.04418 0.12257,-0.06129 0.0177,-0.01071 0.04364,-0.01987 0.06129,-0.03064 0.03025,-0.01503 0.06329,-0.04374 0.09193,-0.06129 0.08582,-0.05257 0.160073,-0.09929 0.24514,-0.153212 0.01981,-0.01234 0.04063,-0.05022 0.06129,-0.06129 0.07387,-0.04736 0.170824,-0.07268 0.24514,-0.12257 0.08491,-0.05596 0.161226,-0.09575 0.245139,-0.153213 0.149677,-0.106309 0.283444,-0.22717 0.428997,-0.337068 0.110839,-0.0813 0.228084,-0.162647 0.337066,-0.24514 0.06218,-0.04689 0.152556,-0.07435 0.214499,-0.122571 0.01897,-0.01467 0.0424,-0.04649 0.06129,-0.06129 0.0936,-0.0734 0.152375,-0.13794 0.24514,-0.214498 0.237646,-0.196126 0.478876,-0.410551 0.704777,-0.61285 0.0818,-0.07319 0.164668,-0.139164 0.24514,-0.214498 0.171573,-0.16062 0.352932,-0.325079 0.520924,-0.49028 0.06838,-0.06726 0.147452,-0.145723 0.214498,-0.214498 0.08758,-0.08898 0.159281,-0.1538 0.245139,-0.24514 0.04341,-0.04501 0.08027,-0.107249 0.122571,-0.153212 0.04242,-0.04611 0.111191,-0.076 0.153213,-0.12257 l 3.002967,1.103129 c 0.745377,-0.915646 1.4743,-1.855541 2.083691,-2.911039 0.609393,-1.055498 1.081199,-2.175411 1.501484,-3.278751 L 42.630708,29.97466 c 0.06085,-0.187825 0.10036,-0.3929 0.153213,-0.582208 0.0041,-0.01408 -0.0041,-0.01658 0,-0.03064 0.0025,-0.0089 -0.0025,-0.02172 0,-0.03064 0.0041,-0.01439 0.02554,-0.01661 0.03064,-0.03064 0.02151,-0.07411 0.04004,-0.140346 0.06129,-0.214496 0.0062,-0.02293 0.02445,-0.06896 0.03063,-0.09193 0.01002,-0.03743 0.02086,-0.05448 0.03064,-0.09193 0.01819,-0.06941 0.01325,-0.144452 0.03063,-0.214497 0.03509,-0.138974 0.0592,-0.28834 0.09193,-0.428995 0.01707,-0.06983 0.04204,-0.145133 0.06129,-0.214498 0.0335,-0.120683 0.06822,-0.245346 0.09193,-0.367711 0.0045,-0.02364 0.02642,-0.03767 0.03064,-0.06129 0.01372,-0.07059 0.01803,-0.144096 0.03064,-0.214498 0.0019,-0.0095 -0.0019,-0.02118 0,-0.03064 0.0019,-0.0099 -0.0324,-0.02079 -0.03064,-0.03064 0.01395,-0.09457 0.04614,-0.180514 0.06129,-0.275784 0.02055,-0.128399 0.0458,-0.269925 0.06129,-0.398352 0.0125,-0.09021 0.01944,-0.185516 0.03064,-0.275783 0.0039,-0.0336 -0.004,-0.05831 0,-0.09193 0.0068,-0.04746 0.02266,-0.07538 0.03063,-0.122571 0.01586,-0.136254 0.04768,-0.291889 0.06129,-0.428995 0.0093,-0.101838 0.02963,-0.205195 0.03064,-0.306425 0.0019,-0.02061 -0.03236,-0.04066 -0.03064,-0.06129 0.0012,-0.01385 0.02967,-0.01679 0.03064,-0.03063 0.0064,-0.09145 0.0256,-0.184327 0.03063,-0.275783 0.0067,-0.121468 -0.0021,-0.245483 0,-0.367711 0.0025,-0.06777 -0.0052,-0.147108 0,-0.214497 0.0019,-0.06739 0.02952,-0.116479 0.03064,-0.183856 9.81e-4,-0.06705 -3.13e-4,-0.147352 0,-0.214497 7.71e-4,-0.132381 0.0021,-0.266124 0,-0.398353 -0.0036,-0.23033 -0.0188,-0.47357 -0.03064,-0.704778 L 46.4916,21.6399 c -0.120358,-1.174512 -0.297393,-2.346618 -0.612837,-3.523871 -0.315445,-1.177254 -0.74271,-2.293315 -1.225701,-3.370678 l -3.217465,0.306424 c -0.0355,-0.06953 -0.08629,-0.145535 -0.122572,-0.214496 -0.0048,-0.0093 -0.02574,-0.02145 -0.03064,-0.03064 -0.02001,-0.03928 -0.0404,-0.08371 -0.06129,-0.12257 -0.059,-0.106953 -0.123832,-0.199494 -0.183854,-0.306426 -0.0726,-0.126579 -0.141091,-0.241731 -0.214498,-0.367709 -0.05023,-0.08488 -0.101797,-0.191828 -0.153213,-0.275784 -0.05257,-0.08582 -0.09929,-0.160074 -0.153212,-0.245139 -0.04353,-0.07706 -0.07433,-0.171337 -0.122571,-0.24514 -0.01298,-0.01978 -0.04827,-0.01091 -0.06129,-0.03064 -0.220297,-0.334287 -0.463152,-0.659005 -0.704778,-0.980559 -0.01415,-0.01899 -0.01778,-0.04139 -0.03063,-0.06129 -0.0422,-0.06541 -0.07429,-0.152468 -0.122571,-0.214499 -0.01467,-0.01897 -0.04649,-0.01174 -0.06129,-0.03064 -0.07419,-0.09386 -0.169699,-0.182899 -0.24514,-0.275782 -0.196125,-0.237647 -0.379908,-0.478875 -0.582207,-0.704777 -0.06348,-0.07094 -0.117134,-0.146011 -0.183856,-0.214499 -0.140855,-0.144584 -0.284115,-0.287073 -0.428995,-0.428996 -0.03411,-0.03353 -0.08829,-0.05863 -0.12257,-0.09193 -0.06816,-0.06778 -0.115079,-0.147452 -0.183855,-0.2144965 -0.03821,-0.03726 -0.08451,-0.085146 -0.12257,-0.1225706 C 37.492195,9.8233839 37.442033,9.7698964 37.390788,9.719982 37.345218,9.67712 37.314428,9.63925 37.268216,9.5974124 37.222116,9.5550044 37.192226,9.5168564 37.145647,9.4748419 L 38.248773,6.4412268 C 37.333128,5.6958497 36.393231,4.9669269 35.337734,4.3575352 34.282236,3.7481444 33.162321,3.2763358 32.058983,2.8560514 l -2.053048,2.4820445 c -0.187824,-0.060836 -0.392898,-0.1003508 -0.582208,-0.1532125 -0.01425,-0.00413 -0.01652,0.00457 -0.03064,0 -0.0975,-0.027989 -0.209059,-0.065367 -0.306425,-0.091927 -0.02292,-0.00621 -0.03832,-0.024504 -0.06129,-0.030642 -0.03721,-0.00999 -0.05461,-0.020865 -0.09193,-0.030642 -0.06885,-0.017967 -0.144343,-0.014694 -0.214497,-0.030642 -0.107465,-0.026772 -0.229763,-0.065316 -0.337069,-0.091927 -0.0234,-0.00556 -0.03776,0.00447 -0.06129,0 -0.02349,-0.00533 -0.03782,-0.025377 -0.06129,-0.030642 -0.178402,-0.041106 -0.373764,-0.083269 -0.551567,-0.1225701 -0.113818,-0.021923 -0.223135,-0.013854 -0.337067,-0.030642 -0.09408,-0.016586 -0.181169,-0.047198 -0.275784,-0.061286 -0.04742,-0.00759 -0.105789,-0.02396 -0.153213,-0.030642 -0.08098,-0.012536 -0.163437,-0.019268 -0.245139,-0.030642 -0.09021,-0.012486 -0.185515,-0.019442 -0.275783,-0.030642 -0.03358,-0.00433 -0.05837,0.00439 -0.09193,0 -0.03311,-0.00403 -0.05859,0.00414 -0.09193,0 -0.03287,-0.00389 -0.08942,-0.02469 -0.122569,-0.030642 -0.117903,-0.021153 -0.219386,-0.049616 -0.337069,-0.061286 -0.102107,-0.00934 -0.205191,-0.023001 -0.306425,-0.030642 -0.03423,-0.00289 -0.05793,0.00254 -0.09193,0 -0.09145,-0.00635 -0.184328,-0.025602 -0.275784,-0.030642 -0.06736,-0.00353 -0.14708,0.00269 -0.214496,0 -0.06514,0.00277 -0.118856,0.031504 -0.183856,0.030642 -0.05835,-0.00223 -0.1255,-0.029118 -0.183855,-0.030642 -0.06739,-0.00177 -0.14712,-0.02951 -0.214497,-0.030642 -0.06705,-0.00101 -0.116712,3.167e-4 -0.183855,0 -0.132382,-7.71e-4 -0.266124,-0.00192 -0.398355,0 -0.230327,0.00362 -0.473569,0.01874 -0.704777,0.030642 L 21.67115,1.4771423 z"
       id="path4658"
       inkscape:connector-curvature="0" />
  </g>
</svg>
