<?xml version="1.0" encoding="UTF-8" standalone="no"?>
<!-- Created with Inkscape (http://www.inkscape.org/) -->

<svg
   xmlns:dc="http://purl.org/dc/elements/1.1/"
   xmlns:cc="http://creativecommons.org/ns#"
   xmlns:rdf="http://www.w3.org/1999/02/22-rdf-syntax-ns#"
   xmlns:svg="http://www.w3.org/2000/svg"
   xmlns="http://www.w3.org/2000/svg"
   xmlns:xlink="http://www.w3.org/1999/xlink"
   xmlns:sodipodi="http://sodipodi.sourceforge.net/DTD/sodipodi-0.dtd"
   xmlns:inkscape="http://www.inkscape.org/namespaces/inkscape"
   width="48"
   height="48"
   id="svg2"
   version="1.1"
   inkscape:version="0.48.5 r10040"
   sodipodi:docname="ic_launcher.svg"
   inkscape:export-filename="/Users/tughi/Projects/Aggregator/aggregator-android/app/src/main/res/drawable-xxxhdpi/ic_launcher.png"
   inkscape:export-xdpi="360"
   inkscape:export-ydpi="360">
  <defs
     id="defs4">
    <linearGradient
       id="linearGradient3989">
      <stop
         style="stop-color:#ffffff;stop-opacity:0.40000001;"
         offset="0"
         id="stop3991" />
      <stop
         style="stop-color:#757575;stop-opacity:0.2;"
         offset="0.5"
         id="stop3995" />
      <stop
         style="stop-color:#212121;stop-opacity:0.2;"
         offset="1"
         id="stop3998" />
    </linearGradient>
    <linearGradient
       id="linearGradient3981">
      <stop
         style="stop-color:#a0a0a0;stop-opacity:1;"
         offset="0"
         id="stop3983" />
      <stop
         style="stop-color:#b3b3b3;stop-opacity:1;"
         offset="1"
         id="stop3985" />
    </linearGradient>
    <linearGradient
       inkscape:collect="always"
       id="linearGradient3995">
      <stop
         style="stop-color:#bf360c;stop-opacity:1"
         offset="0"
         id="stop3997" />
      <stop
         style="stop-color:#ff6b09;stop-opacity:1"
         offset="1"
         id="stop3999" />
    </linearGradient>
    <linearGradient
       id="linearGradient4001">
      <stop
         style="stop-color:#bf360c;stop-opacity:1;"
         offset="0"
         id="stop4003" />
      <stop
         style="stop-color:#ff6d00;stop-opacity:1;"
         offset="1"
         id="stop4005" />
    </linearGradient>
    <linearGradient
       id="linearGradient3962">
      <stop
         id="stop3964"
         offset="0"
         style="stop-color:#ffffff;stop-opacity:1;" />
      <stop
         style="stop-color:#757575;stop-opacity:0.2;"
         offset="0.5"
         id="stop3966" />
      <stop
         id="stop3968"
         offset="1"
         style="stop-color:#212121;stop-opacity:0.2;" />
    </linearGradient>
    <linearGradient
       inkscape:collect="always"
       id="linearGradient4669">
      <stop
         style="stop-color:#ffffff;stop-opacity:0.1"
         offset="0"
         id="stop4671" />
      <stop
         style="stop-color:#ffffff;stop-opacity:0;"
         offset="1"
         id="stop4673" />
    </linearGradient>
    <linearGradient
       id="linearGradient4638">
      <stop
         style="stop-color:#c0360c;stop-opacity:0.2;"
         offset="0"
         id="stop4640" />
      <stop
         style="stop-color:#ffffff;stop-opacity:0.2;"
         offset="1"
         id="stop4642" />
    </linearGradient>
    <linearGradient
       inkscape:collect="always"
       id="linearGradient4628">
      <stop
         style="stop-color:#bf360c;stop-opacity:0"
         offset="0"
         id="stop4630" />
      <stop
         style="stop-color:#000000;stop-opacity:0;"
         offset="1"
         id="stop4632" />
    </linearGradient>
    <linearGradient
       id="linearGradient4618">
      <stop
         style="stop-color:#ffffff;stop-opacity:0.2"
         offset="0"
         id="stop4620" />
      <stop
         style="stop-color:#bf360c;stop-opacity:1;"
         offset="1"
         id="stop4622" />
    </linearGradient>
    <linearGradient
       id="linearGradient4606">
      <stop
         style="stop-color:#bf360c;stop-opacity:0.4"
         offset="0"
         id="stop4608" />
      <stop
         id="stop4614"
         offset="0.75"
         style="stop-color:#ffffff;stop-opacity:0" />
      <stop
         style="stop-color:#ffffff;stop-opacity:0"
         offset="1"
         id="stop4610" />
    </linearGradient>
    <linearGradient
       id="linearGradient4525">
      <stop
         style="stop-color:#ffffff;stop-opacity:1;"
         offset="0"
         id="stop4527" />
      <stop
         id="stop4533"
         offset="0.5"
         style="stop-color:#fafafa;stop-opacity:0.2;" />
      <stop
         style="stop-color:#212121;stop-opacity:0.2;"
         offset="1"
         id="stop4529" />
    </linearGradient>
    <linearGradient
       id="linearGradient4198">
      <stop
         style="stop-color:#ffffff;stop-opacity:0.4"
         offset="0"
         id="stop4200" />
      <stop
         id="stop4208"
         offset="0.5"
         style="stop-color:#e0e0e0;stop-opacity:0.2" />
      <stop
         style="stop-color:#212121;stop-opacity:0.2"
         offset="1"
         id="stop4202" />
    </linearGradient>
    <linearGradient
       id="linearGradient4815">
      <stop
         style="stop-color:#212121;stop-opacity:0.2"
         offset="0"
         id="stop4817" />
      <stop
         id="stop4595"
         offset="0.5"
         style="stop-color:#e0e0e0;stop-opacity:0.2;" />
      <stop
         style="stop-color:#e0e0e0;stop-opacity:0;"
         offset="1"
         id="stop4819" />
    </linearGradient>
    <linearGradient
       id="linearGradient4803">
      <stop
         style="stop-color:#ff6600;stop-opacity:1"
         offset="0"
         id="stop4805" />
      <stop
         id="stop4813"
         offset="0.63"
         style="stop-color:#ffffff;stop-opacity:1;" />
      <stop
         style="stop-color:#ffffff;stop-opacity:1"
         offset="1"
         id="stop4807" />
    </linearGradient>
    <linearGradient
       inkscape:collect="always"
       id="linearGradient3846">
      <stop
         style="stop-color:#000000;stop-opacity:0"
         offset="0"
         id="stop3848" />
      <stop
         style="stop-color:#000000;stop-opacity:0.1"
         offset="1"
         id="stop3850" />
    </linearGradient>
    <linearGradient
       id="linearGradient3839">
      <stop
         style="stop-color:#cccccc;stop-opacity:1"
         offset="0"
         id="stop3841" />
      <stop
         id="stop3847"
         offset="0.5"
         style="stop-color:#999999;stop-opacity:1" />
      <stop
         style="stop-color:#cccccc;stop-opacity:1"
         offset="1"
         id="stop3843" />
    </linearGradient>
    <linearGradient
       id="linearGradient3833">
      <stop
         style="stop-color:#ffffff;stop-opacity:0.49803922"
         offset="0"
         id="stop3835" />
      <stop
         style="stop-color:#ffffff;stop-opacity:0.12711865"
         offset="1"
         id="stop3837" />
    </linearGradient>
    <linearGradient
       id="linearGradient3830">
      <stop
         id="stop3832"
         offset="0"
         style="stop-color:#a0a0a0;stop-opacity:1" />
      <stop
         id="stop3834"
         offset="1"
         style="stop-color:#d7d7d7;stop-opacity:1" />
    </linearGradient>
    <linearGradient
       id="linearGradient4506">
      <stop
         id="stop4508"
         offset="0"
         style="stop-color:#ffffff;stop-opacity:0.78431374;" />
      <stop
         id="stop4510"
         offset="1"
         style="stop-color:#ffffff;stop-opacity:0" />
    </linearGradient>
    <linearGradient
       id="linearGradient4107">
      <stop
         id="stop4109"
         offset="0"
         style="stop-color:#ffffff;stop-opacity:0.53435117;" />
      <stop
         id="stop4113"
         offset="1"
         style="stop-color:#ffffff;stop-opacity:0;" />
    </linearGradient>
    <linearGradient
       id="linearGradient4000">
      <stop
         style="stop-color:#99cc33;stop-opacity:1"
         offset="0"
         id="stop4002" />
      <stop
         style="stop-color:#669900;stop-opacity:1"
         offset="1"
         id="stop4004" />
    </linearGradient>
    <linearGradient
       id="linearGradient3939">
      <stop
         style="stop-color:#000000;stop-opacity:1;"
         offset="0"
         id="stop3941" />
      <stop
         id="stop3947"
         offset="0.5"
         style="stop-color:#000000;stop-opacity:1;" />
      <stop
         style="stop-color:#cccccc;stop-opacity:1;"
         offset="1"
         id="stop3943" />
    </linearGradient>
    <linearGradient
       inkscape:collect="always"
       xlink:href="#linearGradient3939"
       id="linearGradient3945"
       x1="24"
       y1="4"
       x2="24"
       y2="24"
       gradientUnits="userSpaceOnUse" />
    <linearGradient
       inkscape:collect="always"
       xlink:href="#linearGradient3939"
       id="linearGradient3974"
       gradientUnits="userSpaceOnUse"
       x1="24"
       y1="4"
       x2="24"
       y2="24"
       gradientTransform="matrix(0.96592582,-0.25881905,0.25881905,0.96592582,-5.3938799,1011.3916)" />
    <linearGradient
       inkscape:collect="always"
       xlink:href="#linearGradient3939"
       id="linearGradient3978"
       gradientUnits="userSpaceOnUse"
       gradientTransform="matrix(0,-1,1,0,0,1052.3622)"
       x1="24"
       y1="4"
       x2="24"
       y2="24" />
    <linearGradient
       inkscape:collect="always"
       xlink:href="#linearGradient3939"
       id="linearGradient3982"
       gradientUnits="userSpaceOnUse"
       gradientTransform="matrix(-0.70710678,-0.70710678,0.70710678,-0.70710678,24,1062.3033)"
       x1="24"
       y1="4"
       x2="24"
       y2="24" />
    <linearGradient
       inkscape:collect="always"
       xlink:href="#linearGradient3939"
       id="linearGradient3986"
       gradientUnits="userSpaceOnUse"
       gradientTransform="matrix(-1,0,0,-1,47.999982,1052.3622)"
       x1="24"
       y1="4"
       x2="24"
       y2="24" />
    <linearGradient
       inkscape:collect="always"
       xlink:href="#linearGradient3939"
       id="linearGradient3990"
       gradientUnits="userSpaceOnUse"
       gradientTransform="matrix(-0.70710678,0.70710678,-0.70710678,-0.70710678,57.941111,1028.3622)"
       x1="24"
       y1="4"
       x2="24"
       y2="24" />
    <linearGradient
       inkscape:collect="always"
       xlink:href="#linearGradient3939"
       id="linearGradient3994"
       gradientUnits="userSpaceOnUse"
       gradientTransform="matrix(0,1,-1,0,47.999988,1004.3622)"
       x1="24"
       y1="4"
       x2="24"
       y2="24" />
    <linearGradient
       inkscape:collect="always"
       xlink:href="#linearGradient3939"
       id="linearGradient3998"
       gradientUnits="userSpaceOnUse"
       gradientTransform="matrix(0.70710678,0.70710678,-0.70710678,0.70710678,23.99999,994.42108)"
       x1="24"
       y1="4"
       x2="24"
       y2="24" />
    <linearGradient
       inkscape:collect="always"
       xlink:href="#linearGradient4000"
       id="linearGradient4006"
       x1="8"
       y1="24"
       x2="40"
       y2="24"
       gradientUnits="userSpaceOnUse" />
    <linearGradient
       inkscape:collect="always"
       xlink:href="#linearGradient3939"
       id="linearGradient4032"
       gradientUnits="userSpaceOnUse"
       gradientTransform="matrix(0.70710678,-0.70710678,0.70710678,0.70710678,-9.9411255,24)"
       x1="24"
       y1="4"
       x2="24"
       y2="24" />
    <linearGradient
       inkscape:collect="always"
       xlink:href="#linearGradient3939"
       id="linearGradient4055"
       gradientUnits="userSpaceOnUse"
       gradientTransform="matrix(0.25881905,0.96592582,-0.96592582,0.25881905,40.970552,998.96832)"
       x1="24"
       y1="4"
       x2="24"
       y2="24" />
    <linearGradient
       inkscape:collect="always"
       xlink:href="#linearGradient3939"
       id="linearGradient4057"
       gradientUnits="userSpaceOnUse"
       gradientTransform="matrix(-0.50000001,0.86602541,-0.86602541,-0.50000001,56.784607,1019.5776)"
       x1="24"
       y1="4"
       x2="24"
       y2="24" />
    <linearGradient
       inkscape:collect="always"
       xlink:href="#linearGradient3939"
       id="linearGradient4059"
       gradientUnits="userSpaceOnUse"
       gradientTransform="matrix(-0.96592582,0.25881905,-0.25881905,-0.96592582,53.393866,1045.3328)"
       x1="24"
       y1="4"
       x2="24"
       y2="24" />
    <linearGradient
       inkscape:collect="always"
       xlink:href="#linearGradient3939"
       id="linearGradient4061"
       gradientUnits="userSpaceOnUse"
       gradientTransform="matrix(-0.86602541,-0.50000001,0.50000001,-0.86602541,32.784586,1061.1468)"
       x1="24"
       y1="4"
       x2="24"
       y2="24" />
    <linearGradient
       inkscape:collect="always"
       xlink:href="#linearGradient3939"
       id="linearGradient4063"
       gradientUnits="userSpaceOnUse"
       gradientTransform="matrix(-0.25881905,-0.96592582,0.96592582,-0.25881905,7.0294458,1057.7561)"
       x1="24"
       y1="4"
       x2="24"
       y2="24" />
    <linearGradient
       inkscape:collect="always"
       xlink:href="#linearGradient3939"
       id="linearGradient4065"
       gradientUnits="userSpaceOnUse"
       gradientTransform="matrix(0.50000001,-0.86602541,0.86602541,0.50000001,-8.7846198,1037.1468)"
       x1="24"
       y1="4"
       x2="24"
       y2="24" />
    <linearGradient
       inkscape:collect="always"
       xlink:href="#linearGradient3939"
       id="linearGradient4067"
       gradientUnits="userSpaceOnUse"
       x1="24"
       y1="4"
       x2="24"
       y2="24"
       gradientTransform="matrix(0.86602541,0.50000001,-0.50000001,0.86602541,15.215391,995.57759)" />
    <linearGradient
       inkscape:collect="always"
       xlink:href="#linearGradient3939"
       id="linearGradient4081"
       gradientUnits="userSpaceOnUse"
       gradientTransform="matrix(0.86602541,0.50000001,-0.50000001,0.86602541,15.215391,995.57759)"
       x1="24"
       y1="4"
       x2="24"
       y2="24" />
    <linearGradient
       inkscape:collect="always"
       xlink:href="#linearGradient3939"
       id="linearGradient4083"
       gradientUnits="userSpaceOnUse"
       gradientTransform="matrix(0.96592582,-0.25881905,0.25881905,0.96592582,-5.3938799,1011.3916)"
       x1="24"
       y1="4"
       x2="24"
       y2="24" />
    <linearGradient
       inkscape:collect="always"
       xlink:href="#linearGradient3939"
       id="linearGradient4085"
       gradientUnits="userSpaceOnUse"
       gradientTransform="matrix(0.50000001,-0.86602541,0.86602541,0.50000001,-8.7846198,1037.1468)"
       x1="24"
       y1="4"
       x2="24"
       y2="24" />
    <linearGradient
       inkscape:collect="always"
       xlink:href="#linearGradient3939"
       id="linearGradient4087"
       gradientUnits="userSpaceOnUse"
       gradientTransform="matrix(-0.25881905,-0.96592582,0.96592582,-0.25881905,7.0294458,1057.7561)"
       x1="24"
       y1="4"
       x2="24"
       y2="24" />
    <linearGradient
       inkscape:collect="always"
       xlink:href="#linearGradient3939"
       id="linearGradient4089"
       gradientUnits="userSpaceOnUse"
       gradientTransform="matrix(-0.86602541,-0.50000001,0.50000001,-0.86602541,32.784586,1061.1468)"
       x1="24"
       y1="4"
       x2="24"
       y2="24" />
    <linearGradient
       inkscape:collect="always"
       xlink:href="#linearGradient3939"
       id="linearGradient4091"
       gradientUnits="userSpaceOnUse"
       gradientTransform="matrix(-0.96592582,0.25881905,-0.25881905,-0.96592582,53.393866,1045.3328)"
       x1="24"
       y1="4"
       x2="24"
       y2="24" />
    <linearGradient
       inkscape:collect="always"
       xlink:href="#linearGradient3939"
       id="linearGradient4093"
       gradientUnits="userSpaceOnUse"
       gradientTransform="matrix(-0.50000001,0.86602541,-0.86602541,-0.50000001,56.784607,1019.5776)"
       x1="24"
       y1="4"
       x2="24"
       y2="24" />
    <linearGradient
       inkscape:collect="always"
       xlink:href="#linearGradient3939"
       id="linearGradient4095"
       gradientUnits="userSpaceOnUse"
       gradientTransform="matrix(0.25881905,0.96592582,-0.96592582,0.25881905,40.970552,998.96832)"
       x1="24"
       y1="4"
       x2="24"
       y2="24" />
    <linearGradient
       inkscape:collect="always"
       xlink:href="#linearGradient4107"
       id="linearGradient4105"
       x1="8"
       y1="24"
       x2="40"
       y2="24"
       gradientUnits="userSpaceOnUse"
       gradientTransform="matrix(0,1,-1,0,48,0)" />
    <linearGradient
       inkscape:collect="always"
       xlink:href="#linearGradient4107"
       id="linearGradient4117"
       gradientUnits="userSpaceOnUse"
       x1="8"
       y1="24"
       x2="40"
       y2="24" />
    <linearGradient
       inkscape:collect="always"
       xlink:href="#linearGradient3939"
       id="linearGradient4304"
       gradientUnits="userSpaceOnUse"
       gradientTransform="matrix(0.25881905,0.96592582,-0.96592582,0.25881905,40.970552,998.96832)"
       x1="24"
       y1="4"
       x2="24"
       y2="24" />
    <linearGradient
       inkscape:collect="always"
       xlink:href="#linearGradient3939"
       id="linearGradient4307"
       gradientUnits="userSpaceOnUse"
       gradientTransform="matrix(-0.50000001,0.86602541,-0.86602541,-0.50000001,56.784607,1019.5776)"
       x1="24"
       y1="4"
       x2="24"
       y2="24" />
    <linearGradient
       inkscape:collect="always"
       xlink:href="#linearGradient3939"
       id="linearGradient4310"
       gradientUnits="userSpaceOnUse"
       gradientTransform="matrix(-0.96592582,0.25881905,-0.25881905,-0.96592582,53.393866,1045.3328)"
       x1="24"
       y1="4"
       x2="24"
       y2="24" />
    <linearGradient
       inkscape:collect="always"
       xlink:href="#linearGradient3939"
       id="linearGradient4313"
       gradientUnits="userSpaceOnUse"
       gradientTransform="matrix(-0.86602541,-0.50000001,0.50000001,-0.86602541,32.784586,1061.1468)"
       x1="24"
       y1="4"
       x2="24"
       y2="24" />
    <linearGradient
       inkscape:collect="always"
       xlink:href="#linearGradient3939"
       id="linearGradient4316"
       gradientUnits="userSpaceOnUse"
       gradientTransform="matrix(-0.25881905,-0.96592582,0.96592582,-0.25881905,7.0294458,1057.7561)"
       x1="24"
       y1="4"
       x2="24"
       y2="24" />
    <linearGradient
       inkscape:collect="always"
       xlink:href="#linearGradient3939"
       id="linearGradient4319"
       gradientUnits="userSpaceOnUse"
       gradientTransform="matrix(0.50000001,-0.86602541,0.86602541,0.50000001,-8.7846198,1037.1468)"
       x1="24"
       y1="4"
       x2="24"
       y2="24" />
    <linearGradient
       inkscape:collect="always"
       xlink:href="#linearGradient3939"
       id="linearGradient4322"
       gradientUnits="userSpaceOnUse"
       gradientTransform="matrix(0.96592582,-0.25881905,0.25881905,0.96592582,-5.3938799,1011.3916)"
       x1="24"
       y1="4"
       x2="24"
       y2="24" />
    <linearGradient
       inkscape:collect="always"
       xlink:href="#linearGradient3939"
       id="linearGradient4325"
       gradientUnits="userSpaceOnUse"
       gradientTransform="matrix(0.86602541,0.50000001,-0.50000001,0.86602541,15.215391,995.57759)"
       x1="24"
       y1="4"
       x2="24"
       y2="24" />
    <radialGradient
       inkscape:collect="always"
       xlink:href="#linearGradient4506"
       id="radialGradient4514"
       cx="13.5"
       cy="24"
       fx="13.5"
       fy="24"
       r="16"
       gradientUnits="userSpaceOnUse" />
    <linearGradient
       inkscape:collect="always"
       xlink:href="#linearGradient4000"
       id="linearGradient4671"
       gradientUnits="userSpaceOnUse"
       x1="8"
       y1="24"
       x2="40"
       y2="24" />
    <radialGradient
       inkscape:collect="always"
       xlink:href="#linearGradient3833"
       id="radialGradient4674"
       gradientUnits="userSpaceOnUse"
       cx="13.5"
       cy="24"
       fx="13.5"
       fy="24"
       r="16" />
    <filter
       id="filter4802"
       inkscape:label="Drop shadow"
       width="1.5"
       height="1.5"
       x="-.25"
       y="-.25">
      <feGaussianBlur
         id="feGaussianBlur4804"
         in="SourceAlpha"
         stdDeviation="1"
         result="blur" />
      <feColorMatrix
         id="feColorMatrix4806"
         result="bluralpha"
         type="matrix"
         values="1 0 0 0 0 0 1 0 0 0 0 0 1 0 0 0 0 0 1 0 " />
      <feOffset
         id="feOffset4808"
         in="bluralpha"
         dx="0"
         dy="1"
         result="offsetBlur" />
      <feMerge
         id="feMerge4810">
        <feMergeNode
           id="feMergeNode4812"
           in="offsetBlur" />
        <feMergeNode
           id="feMergeNode4814"
           in="SourceGraphic" />
      </feMerge>
    </filter>
    <linearGradient
       inkscape:collect="always"
       xlink:href="#linearGradient3830"
       id="linearGradient3840"
       x1="23.958588"
       y1="8.9539347"
       x2="23.958588"
       y2="39.094296"
       gradientUnits="userSpaceOnUse" />
    <linearGradient
       inkscape:collect="always"
       xlink:href="#linearGradient3846"
       id="linearGradient3852"
       x1="24"
       y1="4"
       x2="24"
       y2="44"
       gradientUnits="userSpaceOnUse" />
    <linearGradient
       inkscape:collect="always"
       xlink:href="#linearGradient3846"
       id="linearGradient3870"
       gradientUnits="userSpaceOnUse"
       x1="24"
       y1="4"
       x2="24"
       y2="44"
       gradientTransform="matrix(1.05,0,0,1.05,-1.1999994,-1.2249986)" />
    <linearGradient
       inkscape:collect="always"
       xlink:href="#linearGradient4815"
       id="linearGradient4821"
       x1="24"
       y1="24"
       x2="44"
       y2="44"
       gradientUnits="userSpaceOnUse" />
    <linearGradient
       inkscape:collect="always"
       xlink:href="#linearGradient4198"
       id="linearGradient4204"
       x1="0"
       y1="0"
       x2="0"
       y2="48"
       gradientUnits="userSpaceOnUse" />
    <filter
       style="color-interpolation-filters:sRGB;"
       inkscape:label="Drop Shadow"
       id="filter3525">
      <feFlood
         flood-opacity="0.2"
         flood-color="rgb(0,0,0)"
         result="flood"
         id="feFlood3527" />
      <feComposite
         in="flood"
         in2="SourceGraphic"
         operator="in"
         result="composite1"
         id="feComposite3529" />
      <feGaussianBlur
         in="composite"
         stdDeviation="0.6"
         result="blur"
         id="feGaussianBlur3531" />
      <feOffset
         dx="0"
         dy="0.6"
         result="offset"
         id="feOffset3533" />
      <feComposite
         in="SourceGraphic"
         in2="offset"
         operator="over"
         result="fbSourceGraphic"
         id="feComposite3535" />
      <feColorMatrix
         result="fbSourceGraphicAlpha"
         in="fbSourceGraphic"
         values="0 0 0 -1 0 0 0 0 -1 0 0 0 0 -1 0 0 0 0 1 0"
         id="feColorMatrix3573" />
      <feFlood
         id="feFlood3575"
         flood-opacity="0.2"
         flood-color="rgb(0,0,0)"
         result="flood"
         in="fbSourceGraphic" />
      <feComposite
         id="feComposite3577"
         in2="fbSourceGraphic"
         in="flood"
         operator="in"
         result="composite1" />
      <feGaussianBlur
         id="feGaussianBlur3579"
         in="composite"
         stdDeviation="0.6"
         result="blur" />
      <feOffset
         id="feOffset3581"
         dx="0"
         dy="0.6"
         result="offset" />
      <feComposite
         id="feComposite3583"
         in2="offset"
         in="fbSourceGraphic"
         operator="over"
         result="composite2" />
    </filter>
    <linearGradient
       inkscape:collect="always"
       xlink:href="#linearGradient3989"
       id="linearGradient4531"
       x1="24"
       y1="1.7461228"
       x2="24"
       y2="46.251846"
       gradientUnits="userSpaceOnUse"
       gradientTransform="matrix(1.0335749,0,0,1.0335749,-0.80579789,-0.80474869)" />
    <filter
       style="color-interpolation-filters:sRGB;"
       inkscape:label="Drop Shadow"
       id="filter4571">
      <feFlood
         flood-opacity="0.5"
         flood-color="rgb(0,0,0)"
         result="flood"
         id="feFlood4573" />
      <feComposite
         in="flood"
         in2="SourceGraphic"
         operator="in"
         result="composite1"
         id="feComposite4575" />
      <feGaussianBlur
         in="composite"
         stdDeviation="0.6"
         result="blur"
         id="feGaussianBlur4577" />
      <feOffset
         dx="0"
         dy="0.6"
         result="offset"
         id="feOffset4579" />
      <feComposite
         in="SourceGraphic"
         in2="offset"
         operator="over"
         result="composite2"
         id="feComposite4581" />
    </filter>
    <linearGradient
       inkscape:collect="always"
       xlink:href="#linearGradient4525"
       id="linearGradient4603"
       gradientUnits="userSpaceOnUse"
       x1="0"
       y1="0"
       x2="0"
       y2="48" />
    <linearGradient
       inkscape:collect="always"
       xlink:href="#linearGradient4606"
       id="linearGradient4612"
       x1="25"
       y1="23"
       x2="40"
       y2="38"
       gradientUnits="userSpaceOnUse" />
    <linearGradient
       inkscape:collect="always"
       xlink:href="#linearGradient4618"
       id="linearGradient4624"
       x1="25"
       y1="10"
       x2="25"
       y2="38"
       gradientUnits="userSpaceOnUse" />
    <linearGradient
       inkscape:collect="always"
       xlink:href="#linearGradient4628"
       id="linearGradient4634"
       x1="25"
       y1="38"
       x2="25"
       y2="10"
       gradientUnits="userSpaceOnUse" />
    <linearGradient
       inkscape:collect="always"
       xlink:href="#linearGradient4638"
       id="linearGradient4644"
       x1="24"
       y1="38"
       x2="24"
       y2="10"
       gradientUnits="userSpaceOnUse" />
    <filter
       style="color-interpolation-filters:sRGB;"
       inkscape:label="Drop Shadow"
       id="filter4646">
      <feFlood
         flood-opacity="0.5"
         flood-color="rgb(0,0,0)"
         result="flood"
         id="feFlood4648" />
      <feComposite
         in="flood"
         in2="SourceGraphic"
         operator="in"
         result="composite1"
         id="feComposite4650" />
      <feGaussianBlur
         in="composite"
         stdDeviation="0.6"
         result="blur"
         id="feGaussianBlur4652" />
      <feOffset
         dx="0"
         dy="0.6"
         result="offset"
         id="feOffset4654" />
      <feComposite
         in="SourceGraphic"
         in2="offset"
         operator="over"
         result="composite2"
         id="feComposite4656" />
    </filter>
    <radialGradient
       inkscape:collect="always"
       xlink:href="#linearGradient4669"
       id="radialGradient4675"
       cx="1.3317705e-14"
       cy="8.4188359e-06"
       fx="1.3317705e-14"
       fy="8.4188359e-06"
       r="22.491604"
       gradientTransform="matrix(0,2.1341297,-2.1341298,0,1.7966889e-5,0)"
       gradientUnits="userSpaceOnUse" />
    <filter
       style="color-interpolation-filters:sRGB;"
       inkscape:label="Drop Shadow"
       id="filter4679">
      <feFlood
         flood-opacity="0.5"
         flood-color="rgb(191,54,12)"
         result="flood"
         id="feFlood4681" />
      <feComposite
         in="flood"
         in2="SourceGraphic"
         operator="in"
         result="composite1"
         id="feComposite4683" />
      <feGaussianBlur
         in="composite"
         stdDeviation="0.6"
         result="blur"
         id="feGaussianBlur4685" />
      <feOffset
         dx="0"
         dy="0.6"
         result="offset"
         id="feOffset4687" />
      <feComposite
         in="SourceGraphic"
         in2="offset"
         operator="over"
         result="composite2"
         id="feComposite4689" />
    </filter>
    <linearGradient
       inkscape:collect="always"
       xlink:href="#linearGradient4525"
       id="linearGradient3948"
       x1="18"
       y1="14"
       x2="18"
       y2="30"
       gradientUnits="userSpaceOnUse"
       gradientTransform="matrix(1.0158124,0,0,1.0158124,-0.4111229,-0.34787329)" />
    <filter
       style="color-interpolation-filters:sRGB;"
       inkscape:label="Drop Shadow"
       id="filter3950">
      <feFlood
         flood-opacity="0.5"
         flood-color="rgb(0,0,0)"
         result="flood"
         id="feFlood3952" />
      <feComposite
         in="flood"
         in2="SourceGraphic"
         operator="in"
         result="composite1"
         id="feComposite3954" />
      <feGaussianBlur
         in="composite"
         stdDeviation="0.6"
         result="blur"
         id="feGaussianBlur3956" />
      <feOffset
         dx="0"
         dy="0.6"
         result="offset"
         id="feOffset3958" />
      <feComposite
         in="SourceGraphic"
         in2="offset"
         operator="over"
         result="composite2"
         id="feComposite3960" />
    </filter>
    <filter
       style="color-interpolation-filters:sRGB;"
       inkscape:label="Drop Shadow"
       id="filter3970">
      <feFlood
         flood-opacity="0.5"
         flood-color="rgb(0,0,0)"
         result="flood"
         id="feFlood3972" />
      <feComposite
         in="flood"
         in2="SourceGraphic"
         operator="in"
         result="composite1"
         id="feComposite3974" />
      <feGaussianBlur
         in="composite"
         stdDeviation="0.6"
         result="blur"
         id="feGaussianBlur3976" />
      <feOffset
         dx="0"
         dy="0.6"
         result="offset"
         id="feOffset3978" />
      <feComposite
         in="SourceGraphic"
         in2="offset"
         operator="over"
         result="composite2"
         id="feComposite3980" />
    </filter>
    <linearGradient
       inkscape:collect="always"
       xlink:href="#linearGradient4001"
       id="linearGradient4007"
       x1="18.757908"
       y1="29.167852"
       x2="29.142014"
       y2="39.55196"
       gradientUnits="userSpaceOnUse" />
    <linearGradient
       inkscape:collect="always"
       xlink:href="#linearGradient4001"
       id="linearGradient4011"
       gradientUnits="userSpaceOnUse"
       x1="18.757908"
       y1="29.167852"
       x2="29.142014"
       y2="39.55196"
       gradientTransform="translate(4,-4)" />
    <linearGradient
       inkscape:collect="always"
       xlink:href="#linearGradient4001"
       id="linearGradient4015"
       gradientUnits="userSpaceOnUse"
       gradientTransform="translate(8,-8)"
       x1="18.757908"
       y1="29.167852"
       x2="29.142014"
       y2="39.55196" />
    <linearGradient
       inkscape:collect="always"
       xlink:href="#linearGradient3962"
       id="linearGradient3949"
       x1="24"
       y1="38.25"
       x2="24"
       y2="9.75"
       gradientUnits="userSpaceOnUse" />
    <linearGradient
       inkscape:collect="always"
       xlink:href="#linearGradient3995"
       id="linearGradient4002"
       x1="18"
       y1="28"
       x2="30"
       y2="40"
       gradientUnits="userSpaceOnUse" />
  </defs>
  <sodipodi:namedview
     id="base"
     pagecolor="#000000"
     bordercolor="#666666"
     borderopacity="1.0"
     inkscape:pageopacity="0"
     inkscape:pageshadow="2"
     inkscape:zoom="10.051237"
     inkscape:cx="23.90051"
     inkscape:cy="20.05164"
     inkscape:document-units="px"
     inkscape:current-layer="layer2"
     showgrid="false"
     inkscape:showpageshadow="false"
     borderlayer="true"
     showguides="false"
     inkscape:guide-bbox="true"
     inkscape:window-width="1276"
     inkscape:window-height="755"
     inkscape:window-x="0"
     inkscape:window-y="0"
     inkscape:window-maximized="1">
    <sodipodi:guide
       orientation="1,0"
       position="24,24"
       id="guide2985" />
    <sodipodi:guide
       id="guide2987"
       position="4,4"
       orientation="1,0" />
    <sodipodi:guide
       orientation="1,0"
       position="44,44"
       id="guide2989" />
    <sodipodi:guide
       orientation="0,1"
       position="44,44"
       id="guide2991" />
    <sodipodi:guide
       orientation="0,1"
       position="4,4"
       id="guide2993" />
    <inkscape:grid
       type="xygrid"
       id="grid4196" />
    <sodipodi:guide
       orientation="0.70710678,0.70710678"
       position="18.671864,18.746104"
       id="guide3990" />
    <sodipodi:guide
       orientation="0.70710678,0.70710678"
       position="29.355408,29.429648"
       id="guide3992" />
    <sodipodi:guide
       orientation="-0.70710678,0.70710678"
       position="18.757907,18.832147"
       id="guide3994" />
    <sodipodi:guide
       orientation="-0.70710678,0.70710678"
       position="32.206465,11.512493"
       id="guide3996" />
    <sodipodi:guide
       orientation="1,0"
       position="-16.263302,44"
       id="guide3951" />
    <sodipodi:guide
       orientation="1,0"
       position="18,27"
       id="guide3959" />
  </sodipodi:namedview>
  <metadata
     id="metadata7">
    <rdf:RDF>
      <cc:Work
         rdf:about="">
        <dc:format>image/svg+xml</dc:format>
        <dc:type
           rdf:resource="http://purl.org/dc/dcmitype/StillImage" />
        <dc:title />
      </cc:Work>
    </rdf:RDF>
  </metadata>
  <g
     inkscape:groupmode="layer"
     id="layer3"
     inkscape:label="Emblem"
     style="display:inline">
    <path
       sodipodi:type="arc"
       style="fill:#ff6600;fill-opacity:1;fill-rule:nonzero;stroke:#ff6600;stroke-width:0.5;stroke-miterlimit:4;stroke-opacity:1;stroke-dasharray:none"
       id="path4630"
       sodipodi:cx="24"
       sodipodi:cy="24"
       sodipodi:rx="14"
       sodipodi:ry="14"
       d="m 38,24 a 14,14 0 1 1 -28,0 14,14 0 1 1 28,0 z"
       transform="matrix(1.122807,0,0,1.122807,-2.9473679,-2.9473679)" />
    <path
       style="fill:url(#linearGradient4002);stroke:none;stroke-width:1px;stroke-linecap:butt;stroke-linejoin:miter;stroke-opacity:1;opacity:0.50000000000000000;fill-opacity:1"
       d="m 18,14.15625 0,13.5 c 0,-1.255242 1.029018,-2.28125 2.3125,-2.28125 1.283481,0 2.34375,1.026009 2.34375,2.28125 0,1.255232 -1.062409,2.25 -2.34375,2.25 -0.640671,0 -1.207043,-0.250654 -1.625,-0.65625 L 31,41.59375 41.6875,30.90625 29.90625,19.15625 C 32.574619,22.077893 33.9653,25.92561 34,29.875 L 34.03125,30 33.875,30 l -3.1875,-0.03125 -0.125,0 0,-0.125 C 30.631672,27.369104 29.748434,24.277957 27.75,21.8125 25.751566,19.347043 22.631459,17.48011 18.21875,17.40625 l -0.09375,0 -0.03125,-0.09375 -0.0625,-3.125 L 18,14.15625 z"
       id="path3982" />
    <path
       style="fill:#ffffff;fill-opacity:1;fill-rule:nonzero;stroke:#ffffff;stroke-width:0.2539531;stroke-linecap:butt;stroke-linejoin:miter;stroke-miterlimit:4;stroke-opacity:1;stroke-dasharray:none;filter:url(#filter3970)"
       d="m 18.142652,14.127251 0.09221,3.167562 c 8.895063,0.148892 12.595158,7.532079 12.454974,12.547232 l 3.198314,0.0307 C 33.819263,22.032254 28.354466,14.602521 18.142603,14.127202 z m 0.0307,5.258766 0.03071,3.106056 c 4.043367,0.172119 7.2368,2.650074 7.288466,7.380725 l 3.106055,0 C 28.508044,24.490773 24.81899,19.733601 18.173307,19.386017 z m 2.152713,6.119852 c -1.216039,0 -2.214218,0.968844 -2.214218,2.152712 0,1.183858 0.998179,2.121959 2.214218,2.121959 1.216038,0 2.214216,-0.938101 2.214216,-2.121959 0,-1.183868 -0.998178,-2.152712 -2.214216,-2.152712 z"
       id="path5270"
       inkscape:connector-curvature="0" />
    <path
       inkscape:connector-curvature="0"
       id="path3939"
       d="m 18.142652,14.127251 0.09221,3.167562 c 8.895063,0.148892 12.595158,7.532079 12.454974,12.547232 l 3.198314,0.0307 C 33.819263,22.032254 28.354466,14.602521 18.142603,14.127202 z m 0.0307,5.258766 0.03071,3.106056 c 4.043367,0.172119 7.2368,2.650074 7.288466,7.380725 l 3.106055,0 C 28.508044,24.490773 24.81899,19.733601 18.173307,19.386017 z m 2.152713,6.119852 c -1.216039,0 -2.214218,0.968844 -2.214218,2.152712 0,1.183858 0.998179,2.121959 2.214218,2.121959 1.216038,0 2.214216,-0.938101 2.214216,-2.121959 0,-1.183868 -0.998178,-2.152712 -2.214216,-2.152712 z"
       style="fill:none;stroke:url(#linearGradient3948);stroke-width:0.2539531;stroke-linecap:butt;stroke-linejoin:miter;stroke-miterlimit:4;stroke-opacity:1;stroke-dasharray:none" />
  </g>
  <g
     inkscape:groupmode="layer"
     id="layer2"
     inkscape:label="Wheel"
     style="display:inline">
    <path
       style="fill:#b3b3b3;fill-opacity:1;fill-rule:nonzero;stroke:#bdbdbd;stroke-width:0.51700000000000002;stroke-linecap:butt;stroke-linejoin:miter;stroke-miterlimit:4;stroke-opacity:1;stroke-dasharray:none;filter:url(#filter4646)"
       d="M 21.65625 1.46875 C 20.481729 1.5891481 19.333505 1.7783058 18.15625 2.09375 C 16.978998 2.4091944 15.858614 2.8295074 14.78125 3.3125 L 15.0625 6.5625 C 14.99297 6.597998 14.943959 6.619977 14.875 6.65625 C 14.82556 6.679548 14.76685 6.724168 14.71875 6.75 C 14.611797 6.808992 14.513182 6.8774781 14.40625 6.9375 C 14.278401 7.009266 14.157769 7.0833374 14.03125 7.15625 C 13.97556 7.189783 13.899128 7.216212 13.84375 7.25 C 13.8135 7.265047 13.77864 7.294956 13.75 7.3125 C 13.66418 7.365059 13.616314 7.3835685 13.53125 7.4375 C 13.51137 7.450104 13.48857 7.487294 13.46875 7.5 C 13.41133 7.530729 13.335506 7.558285 13.28125 7.59375 C 13.2614 7.606906 13.23868 7.611616 13.21875 7.625 C 13.13306 7.682045 13.051764 7.7535413 12.96875 7.8125 C 12.817571 7.9160376 12.679276 8.0167564 12.53125 8.125 C 12.42056 8.208578 12.298791 8.2910651 12.1875 8.375 C 12.12532 8.421892 12.061945 8.451787 12 8.5 C 11.98104 8.514714 11.95639 8.547713 11.9375 8.5625 C 11.8439 8.635905 11.780264 8.7359419 11.6875 8.8125 C 11.449854 9.0086269 11.194652 9.1726996 10.96875 9.375 C 10.88695 9.448178 10.799222 9.5184161 10.71875 9.59375 C 10.547178 9.7543696 10.386741 9.9597996 10.21875 10.125 C 10.15037 10.19225 10.067047 10.243726 10 10.3125 C 9.912425 10.40148 9.835858 10.47116 9.75 10.5625 C 9.7066 10.60752 9.667314 10.64153 9.625 10.6875 C 9.582603 10.73361 9.510764 10.797179 9.46875 10.84375 L 6.46875 9.71875 C 5.7233728 10.634396 4.9843916 11.569503 4.375 12.625 C 3.7656085 13.680497 3.295284 14.802912 2.875 15.90625 L 5.375 17.96875 C 5.314163 18.156573 5.2716117 18.341941 5.21875 18.53125 C 5.21481 18.54537 5.2228 18.54844 5.21875 18.5625 C 5.21617 18.5713 5.2213 18.58482 5.21875 18.59375 C 5.21467 18.60782 5.191585 18.64216 5.1875 18.65625 C 5.161206 18.72883 5.145286 18.800184 5.125 18.875 C 5.11879 18.89792 5.099887 18.91453 5.09375 18.9375 C 5.083735 18.97493 5.072283 19.025029 5.0625 19.0625 C 5.044306 19.13191 5.048637 19.211205 5.03125 19.28125 C 5.017217 19.33684 5.010743 19.380978 5 19.4375 C 4.981173 19.51243 4.923396 19.580724 4.90625 19.65625 C 4.90418 19.66565 4.93968 19.67813 4.9375 19.6875 C 4.92165 19.75804 4.89026 19.835699 4.875 19.90625 C 4.841507 20.026933 4.804955 20.127635 4.78125 20.25 C 4.7767 20.27363 4.754199 20.28888 4.75 20.3125 C 4.736291 20.3831 4.731377 20.460847 4.71875 20.53125 C 4.71704 20.54065 4.72045 20.55305 4.71875 20.5625 C 4.71701 20.5724 4.751734 20.5839 4.75 20.59375 C 4.736061 20.68832 4.702644 20.779733 4.6875 20.875 C 4.67991 20.92242 4.662927 20.983827 4.65625 21.03125 C 4.643828 21.11169 4.636094 21.200659 4.625 21.28125 C 4.612515 21.37146 4.60495 21.472234 4.59375 21.5625 C 4.58984 21.5961 4.59778 21.59138 4.59375 21.625 C 4.58808 21.67156 4.567935 21.734555 4.5625 21.78125 C 4.539231 21.918591 4.512755 22.04798 4.5 22.1875 C 4.49595 22.23182 4.4990004 22.299438 4.5 22.34375 C 4.49471 22.40063 4.473568 22.443018 4.46875 22.5 C 4.4685398 22.52062 4.501488 22.54195 4.5 22.5625 C 4.49889 22.57613 4.469828 22.61136 4.46875 22.625 C 4.4624 22.71645 4.44254 22.814796 4.4375 22.90625 C 4.43078 23.027719 4.43941 23.127773 4.4375 23.25 C 4.43473 23.31871 4.4393 23.368805 4.4375 23.4375 C 4.43227 23.50489 4.407291 23.587325 4.40625 23.65625 C 4.40524 23.72331 4.4065667 23.776606 4.40625 23.84375 C 4.4054785 23.976132 4.40434 24.11777 4.40625 24.25 C 4.40987 24.480329 4.425598 24.706292 4.4375 24.9375 L 1.5 26.3125 C 1.6203981 27.487022 1.8095559 28.666495 2.125 29.84375 C 2.4404444 31.021002 2.8607575 32.110137 3.34375 33.1875 L 6.5625 32.90625 C 6.597999 32.97578 6.651228 33.024791 6.6875 33.09375 C 6.69237 33.10305 6.713857 33.11579 6.71875 33.125 C 6.738749 33.16428 6.760384 33.21113 6.78125 33.25 C 6.840242 33.356952 6.908728 33.455568 6.96875 33.5625 C 7.041349 33.689079 7.1140906 33.842772 7.1875 33.96875 C 7.237228 34.05407 7.2922328 34.13474 7.34375 34.21875 C 7.379259 34.2767 7.401331 34.31758 7.4375 34.375 C 7.456575 34.40321 7.450771 34.40914 7.46875 34.4375 C 7.512296 34.51455 7.545511 34.613698 7.59375 34.6875 C 7.606716 34.70728 7.643233 34.73025 7.65625 34.75 C 7.8765478 35.084286 8.133376 35.428443 8.375 35.75 C 8.389184 35.76888 8.392018 35.76245 8.40625 35.78125 C 8.448453 35.84665 8.482971 35.906719 8.53125 35.96875 C 8.545964 35.9877 8.578963 36.01236 8.59375 36.03125 C 8.667936 36.12511 8.7683107 36.219619 8.84375 36.3125 C 9.0398768 36.550148 9.2039497 36.805349 9.40625 37.03125 C 9.46972 37.1022 9.5270265 37.181513 9.59375 37.25 C 9.60347 37.26048 9.615325 37.23955 9.625 37.25 C 9.7531364 37.388639 9.8976316 37.493647 10.03125 37.625 C 10.06557 37.65862 10.12221 37.71614 10.15625 37.75 C 10.22438 37.81775 10.274975 37.901703 10.34375 37.96875 C 10.38207 38.00563 10.43046 38.02551 10.46875 38.0625 C 10.52055 38.11232 10.5425 38.168843 10.59375 38.21875 C 10.63877 38.26216 10.67278 38.332684 10.71875 38.375 C 10.76486 38.41742 10.79718 38.458 10.84375 38.5 L 9.75 41.53125 C 10.665644 42.276626 11.600753 43.015608 12.65625 43.625 C 13.711746 44.234391 14.834162 44.673467 15.9375 45.09375 L 18 42.59375 C 18.187822 42.65459 18.373191 42.697147 18.5625 42.75 C 18.57661 42.7539 18.57969 42.77718 18.59375 42.78125 C 18.63991 42.79449 18.703931 42.79957 18.75 42.8125 C 18.80042 42.8308 18.854927 42.86027 18.90625 42.875 C 18.92917 42.8812 18.94579 42.8688 18.96875 42.875 C 19.00616 42.88503 19.02504 42.89647 19.0625 42.90625 C 19.13192 42.92444 19.211206 42.95137 19.28125 42.96875 C 19.388715 42.99552 19.517695 43.00464 19.625 43.03125 C 19.64835 43.03675 19.66409 43.0571 19.6875 43.0625 C 19.71099 43.0679 19.72653 43.0572 19.75 43.0625 C 19.927261 43.10548 20.102766 43.15293 20.28125 43.1875 C 20.30489 43.1919 20.32013 43.21454 20.34375 43.21875 C 20.41394 43.23371 20.492093 43.23738 20.5625 43.25 C 20.676344 43.26714 20.791495 43.26301 20.90625 43.28125 C 20.95367 43.28885 21.015077 43.30583 21.0625 43.3125 C 21.14348 43.32504 21.2308 43.36361 21.3125 43.375 C 21.40271 43.3875 21.503483 43.3638 21.59375 43.375 C 21.62735 43.3789 21.62263 43.40223 21.65625 43.40625 C 21.68982 43.41065 21.71645 43.40185 21.75 43.40625 C 21.78335 43.41035 21.84147 43.40205 21.875 43.40625 C 21.992902 43.4274 22.101068 43.45708 22.21875 43.46875 C 22.320856 43.47815 22.430016 43.49237 22.53125 43.5 C 22.56548 43.5028 22.591 43.4974 22.625 43.5 C 22.71645 43.5064 22.814795 43.52622 22.90625 43.53125 C 23.037974 43.53855 23.148655 43.52935 23.28125 43.53125 C 23.33961 43.53365 23.410394 43.56098 23.46875 43.5625 C 23.53615 43.5644 23.620122 43.5613 23.6875 43.5625 C 23.75456 43.56348 23.807855 43.562186 23.875 43.5625 C 24.00738 43.563271 24.14902 43.5646 24.28125 43.5625 C 24.511578 43.5589 24.737542 43.54309 24.96875 43.53125 L 26.34375 46.46875 C 27.518272 46.348352 28.666496 46.159195 29.84375 45.84375 C 31.021003 45.528306 32.141387 45.107993 33.21875 44.625 L 32.9375 41.40625 C 33.00703 41.37075 33.05604 41.31753 33.125 41.28125 C 33.17343 41.25576 33.23346 41.24513 33.28125 41.21875 C 33.388357 41.16107 33.487585 41.092142 33.59375 41.03125 C 33.721599 40.95949 33.842231 40.854162 33.96875 40.78125 C 34.00677 40.75936 34.05297 40.73586 34.09375 40.71875 C 34.11145 40.70804 34.1386 40.69827 34.15625 40.6875 C 34.1865 40.67247 34.22136 40.64255 34.25 40.625 C 34.33582 40.57243 34.383683 40.55392 34.46875 40.5 C 34.48856 40.48766 34.51059 40.44857 34.53125 40.4375 C 34.60512 40.39014 34.706934 40.36239 34.78125 40.3125 C 34.86616 40.25654 34.947337 40.21371 35.03125 40.15625 C 35.180927 40.049941 35.323197 39.922398 35.46875 39.8125 C 35.579589 39.7312 35.703518 39.644994 35.8125 39.5625 C 35.87468 39.51561 35.938057 39.48572 36 39.4375 C 36.01897 39.42283 36.04361 39.3898 36.0625 39.375 C 36.1561 39.30159 36.219735 39.232808 36.3125 39.15625 C 36.550146 38.960124 36.805349 38.764799 37.03125 38.5625 C 37.11305 38.48931 37.200778 38.419084 37.28125 38.34375 C 37.452823 38.183131 37.613258 38.00895 37.78125 37.84375 C 37.84963 37.77649 37.932954 37.693775 38 37.625 C 38.08758 37.53602 38.164142 37.46634 38.25 37.375 C 38.29341 37.32999 38.3327 37.29596 38.375 37.25 C 38.41742 37.20389 38.489228 37.17157 38.53125 37.125 L 41.53125 38.21875 C 42.276627 37.303104 43.015609 36.367998 43.625 35.3125 C 44.234393 34.257002 44.704715 33.13459 45.125 32.03125 L 42.625 29.96875 C 42.68585 29.780925 42.728397 29.595558 42.78125 29.40625 C 42.78535 29.39217 42.77715 29.38906 42.78125 29.375 C 42.78375 29.3661 42.77875 29.35267 42.78125 29.34375 C 42.78535 29.32936 42.8074 29.32653 42.8125 29.3125 C 42.83401 29.23839 42.85375 29.167901 42.875 29.09375 C 42.8812 29.07083 42.90007 29.02297 42.90625 29 C 42.91627 28.96257 42.92772 28.9437 42.9375 28.90625 C 42.95569 28.83684 42.95137 28.757545 42.96875 28.6875 C 43.00384 28.548526 43.02977 28.390655 43.0625 28.25 C 43.07957 28.18017 43.10575 28.100615 43.125 28.03125 C 43.1585 27.910567 43.19504 27.809865 43.21875 27.6875 C 43.22325 27.66386 43.24578 27.64862 43.25 27.625 C 43.26372 27.55441 43.26864 27.476652 43.28125 27.40625 C 43.28315 27.39675 43.27935 27.38446 43.28125 27.375 C 43.28315 27.3651 43.24824 27.3536 43.25 27.34375 C 43.26395 27.24918 43.29735 27.15777 43.3125 27.0625 C 43.33305 26.9341 43.35951 26.784677 43.375 26.65625 C 43.3875 26.56604 43.39505 26.465267 43.40625 26.375 C 43.41015 26.3414 43.40225 26.34612 43.40625 26.3125 C 43.41305 26.26504 43.42953 26.23469 43.4375 26.1875 C 43.45336 26.051246 43.48639 25.887106 43.5 25.75 C 43.5093 25.648162 43.53024 25.53873 43.53125 25.4375 C 43.53315 25.41689 43.49828 25.39563 43.5 25.375 C 43.5012 25.36115 43.53028 25.35759 43.53125 25.34375 C 43.53765 25.2523 43.55747 25.153956 43.5625 25.0625 C 43.5692 24.941032 43.5604 24.840978 43.5625 24.71875 C 43.565 24.65098 43.5573 24.567389 43.5625 24.5 C 43.5644 24.43261 43.59263 24.379877 43.59375 24.3125 C 43.594731 24.24545 43.593437 24.160895 43.59375 24.09375 C 43.594521 23.961369 43.59585 23.819729 43.59375 23.6875 C 43.59015 23.45717 43.57434 23.231208 43.5625 23 L 46.5 21.625 C 46.379642 20.450488 46.190444 19.302253 45.875 18.125 C 45.559555 16.947746 45.139241 15.827363 44.65625 14.75 L 41.4375 15.0625 C 41.402 14.99297 41.34878 14.912711 41.3125 14.84375 C 41.3077 14.83445 41.28615 14.82169 41.28125 14.8125 C 41.26124 14.77322 41.23964 14.72636 41.21875 14.6875 C 41.15975 14.580547 41.091272 14.481932 41.03125 14.375 C 40.95865 14.248422 40.885907 14.125978 40.8125 14 C 40.76227 13.91512 40.707666 13.802706 40.65625 13.71875 C 40.60368 13.63293 40.585172 13.585065 40.53125 13.5 C 40.48772 13.42294 40.45449 13.323803 40.40625 13.25 C 40.39327 13.23022 40.35677 13.23849 40.34375 13.21875 C 40.123453 12.884462 39.866626 12.540304 39.625 12.21875 C 39.61085 12.19976 39.6066 12.17615 39.59375 12.15625 C 39.55155 12.09084 39.51703 12.030781 39.46875 11.96875 C 39.45408 11.94978 39.42105 11.9564 39.40625 11.9375 C 39.33206 11.84364 39.231691 11.749134 39.15625 11.65625 C 38.960125 11.418603 38.796049 11.163402 38.59375 10.9375 C 38.53027 10.86656 38.472972 10.787238 38.40625 10.71875 C 38.265395 10.574167 38.11363 10.454422 37.96875 10.3125 C 37.93464 10.27897 37.87803 10.25204 37.84375 10.21875 C 37.77559 10.15097 37.725026 10.067045 37.65625 10 C 37.61804 9.96274 37.56931 9.912425 37.53125 9.875 C 37.47945 9.825192 37.4575 9.7686645 37.40625 9.71875 C 37.36068 9.675888 37.32746 9.635587 37.28125 9.59375 C 37.23515 9.551342 37.20283 9.510765 37.15625 9.46875 L 38.25 6.4375 C 37.334355 5.6921229 36.399247 4.9531417 35.34375 4.34375 C 34.288252 3.7343592 33.165838 3.2640344 32.0625 2.84375 L 30 5.34375 C 29.812176 5.2829138 29.62681 5.2403617 29.4375 5.1875 C 29.42325 5.18337 29.42037 5.19207 29.40625 5.1875 C 29.30875 5.159511 29.191116 5.12031 29.09375 5.09375 C 29.07083 5.08754 29.05422 5.068638 29.03125 5.0625 C 28.99404 5.05251 28.97482 5.041027 28.9375 5.03125 C 28.86865 5.013283 28.788904 5.015948 28.71875 5 C 28.611285 4.973228 28.482306 4.932861 28.375 4.90625 C 28.3516 4.90069 28.33603 4.91071 28.3125 4.90625 C 28.28901 4.90092 28.27347 4.880265 28.25 4.875 C 28.071598 4.833894 27.896553 4.7893011 27.71875 4.75 C 27.604932 4.728077 27.488932 4.735538 27.375 4.71875 C 27.28092 4.702164 27.188365 4.670338 27.09375 4.65625 C 27.04633 4.64866 26.984924 4.631682 26.9375 4.625 C 26.85652 4.612464 26.769202 4.605124 26.6875 4.59375 C 26.59729 4.581264 26.496518 4.5737 26.40625 4.5625 C 26.37267 4.55817 26.37731 4.56689 26.34375 4.5625 C 26.31064 4.55847 26.28334 4.56664 26.25 4.5625 C 26.21713 4.55861 26.158149 4.537202 26.125 4.53125 C 26.007097 4.510097 25.898933 4.48042 25.78125 4.46875 C 25.679143 4.45941 25.569984 4.445141 25.46875 4.4375 C 25.43452 4.43461 25.409 4.44004 25.375 4.4375 C 25.28355 4.43115 25.185206 4.41129 25.09375 4.40625 C 25.02639 4.40272 24.942416 4.40894 24.875 4.40625 C 24.80986 4.40902 24.78375 4.438362 24.71875 4.4375 C 24.6604 4.43527 24.589605 4.407774 24.53125 4.40625 C 24.46386 4.40448 24.379877 4.376132 24.3125 4.375 C 24.24545 4.37399 24.192143 4.3753167 24.125 4.375 C 23.992618 4.3742289 23.850981 4.37308 23.71875 4.375 C 23.488423 4.37862 23.262458 4.394348 23.03125 4.40625 L 21.65625 1.46875 z M 24 8.28125 C 32.681529 8.28125 39.71875 15.318471 39.71875 24 C 39.71875 32.681529 32.681529 39.71875 24 39.71875 C 15.318471 39.71875 8.28125 32.681529 8.28125 24 C 8.28125 15.318471 15.318471 8.28125 24 8.28125 z "
       id="path4247" />
    <path
       inkscape:connector-curvature="0"
       id="path4523"
       d="M 21.671169,1.4771379 C 20.496648,1.597536 19.324532,1.7745441 18.147277,2.0899883 16.970025,2.4054327 15.853964,2.8326967 14.7766,3.3156893 l 0.275782,3.2481076 c -0.06953,0.035498 -0.114894,0.055654 -0.183853,0.091927 -0.04944,0.023298 -0.105113,0.066095 -0.153213,0.091927 -0.106953,0.058992 -0.199494,0.1238332 -0.306426,0.1838551 -0.127849,0.071766 -0.241191,0.1415849 -0.36771,0.2144976 -0.05569,0.033533 -0.128478,0.058139 -0.183856,0.091927 -0.03025,0.015047 -0.06329,0.043742 -0.09193,0.061286 -0.08582,0.052559 -0.160075,0.099281 -0.245139,0.1532125 -0.01988,0.012604 -0.04147,0.04858 -0.06129,0.061286 -0.05742,0.030729 -0.129599,0.056462 -0.183855,0.091927 -0.01985,0.013156 -0.04136,0.017258 -0.06129,0.030642 -0.08569,0.057045 -0.162125,0.1248964 -0.245139,0.1838551 -0.151179,0.1035376 -0.280971,0.1981818 -0.428997,0.3064253 -0.11069,0.083578 -0.225775,0.1612053 -0.337066,0.2451402 -0.06218,0.046892 -0.152554,0.074357 -0.214499,0.1225701 -0.01896,0.014714 -0.0424,0.046499 -0.06129,0.061286 -0.0936,0.073405 -0.152375,0.1685822 -0.245139,0.2451402 -0.237646,0.1961269 -0.478876,0.3799075 -0.704778,0.5822079 -0.0818,0.073178 -0.164668,0.1391632 -0.24514,0.2144972 -0.171572,0.1606196 -0.352932,0.3557223 -0.520923,0.5209219 -0.06838,0.06726 -0.147452,0.115082 -0.214499,0.183856 -0.087575,0.08898 -0.1592812,0.184442 -0.2451392,0.275782 -0.0434,0.04502 -0.080257,0.0766 -0.1225706,0.12257 -0.042397,0.04611 -0.1111986,0.106642 -0.1532126,0.153213 L 6.4724766,9.7199763 C 5.7270994,10.635621 4.9981766,11.575519 4.388785,12.631016 3.7793935,13.686513 3.3075853,14.806429 2.8873013,15.909767 l 2.4820444,2.053049 c -0.060837,0.187823 -0.1003508,0.392899 -0.1532125,0.582207 -0.00394,0.01412 0.00405,0.01658 0,0.03064 -0.00258,0.0088 0.00255,0.0217 0,0.03063 -0.00408,0.01407 -0.026557,0.0472 -0.030642,0.06129 -0.026294,0.07258 -0.041,0.139682 -0.061286,0.214498 -0.00621,0.02292 -0.024505,0.03832 -0.030642,0.06129 -0.010015,0.03743 -0.020859,0.0851 -0.030642,0.122571 -0.018194,0.06941 -0.013255,0.144453 -0.030642,0.214498 -0.014033,0.05559 -0.019899,0.09669 -0.030642,0.153212 -0.018827,0.07493 -0.074781,0.138972 -0.091927,0.214498 -0.00207,0.0094 0.032822,0.02127 0.030642,0.03064 -0.01585,0.07054 -0.046026,0.143947 -0.061286,0.214498 -0.033493,0.120683 -0.068222,0.245346 -0.091927,0.367711 -0.00455,0.02363 -0.026443,0.03767 -0.030642,0.06129 -0.013709,0.0706 -0.018015,0.144094 -0.030642,0.214497 -0.00171,0.0094 0.0017,0.02119 0,0.03064 -0.00174,0.0099 0.032376,0.0208 0.030642,0.03064 -0.013939,0.09457 -0.046142,0.180516 -0.061286,0.275783 -0.00759,0.04742 -0.023965,0.10579 -0.030642,0.153213 -0.012422,0.08044 -0.019548,0.164549 -0.030642,0.245139 -0.012485,0.09021 -0.019442,0.185518 -0.030642,0.275784 -0.00391,0.0336 0.00403,0.05831 0,0.09193 -0.00567,0.04656 -0.025207,0.106516 -0.030642,0.153211 -0.023269,0.137341 -0.048531,0.258833 -0.061286,0.398353 -0.00405,0.04432 -9.996e-4,0.108901 0,0.153213 -0.00529,0.05688 -0.025824,0.09623 -0.030642,0.153212 -2.102e-4,0.02062 0.03213,0.04074 0.030642,0.06129 -0.00111,0.01363 -0.029564,0.04765 -0.030642,0.06129 -0.00635,0.09145 -0.025602,0.184329 -0.030642,0.275783 -0.00672,0.121469 0.00191,0.245483 0,0.36771 -0.00277,0.06871 0.0018,0.11516 0,0.183855 -0.00523,0.06739 -0.029601,0.145572 -0.030642,0.214497 -0.00101,0.06706 3.167e-4,0.116712 0,0.183856 -7.715e-4,0.132382 -0.00191,0.266124 0,0.398354 0.00362,0.230329 0.01874,0.473569 0.030642,0.704777 l -2.9416815,1.348278 c 0.1203981,1.174522 0.2974063,2.377279 0.6128504,3.554534 0.3154444,1.177252 0.7427085,2.262671 1.225701,3.340035 L 6.5644082,32.91638 c 0.035499,0.06953 0.086298,0.114894 0.12257,0.183853 0.00487,0.0093 0.025749,0.02143 0.030642,0.03064 0.019999,0.03928 0.04042,0.0837 0.061286,0.12257 0.058992,0.106952 0.1238331,0.199494 0.1838551,0.306426 0.072599,0.126579 0.1410882,0.272375 0.2144976,0.398353 0.049728,0.08532 0.1016955,0.16113 0.1532127,0.24514 0.035509,0.05795 0.055758,0.126433 0.091927,0.183855 0.019075,0.02821 0.043307,0.03293 0.061286,0.06129 0.043546,0.07705 0.074331,0.17134 0.1225701,0.245141 0.012966,0.01978 0.048269,0.04154 0.061286,0.06129 0.2202978,0.334286 0.4631539,0.659004 0.7047779,0.980561 0.014184,0.01888 0.01641,0.01185 0.030642,0.03064 0.042203,0.0654 0.074291,0.152467 0.1225701,0.214498 0.014714,0.01896 0.046499,0.0424 0.061286,0.06129 0.074186,0.09386 0.1697009,0.182899 0.2451402,0.27578 0.1961268,0.237648 0.3799076,0.478878 0.5822079,0.70478 0.06347,0.07095 0.1171317,0.146011 0.1838552,0.214497 0.00972,0.01048 0.020971,-0.01045 0.030646,0 0.1281364,0.138639 0.2647336,0.267001 0.398352,0.398354 0.03432,0.03362 0.08853,0.08871 0.122571,0.122569 0.06813,0.06775 0.11508,0.147451 0.183855,0.214498 0.03832,0.03688 0.08428,0.05494 0.122571,0.09193 0.0518,0.04982 0.101962,0.103306 0.153212,0.153213 0.04502,0.04341 0.0766,0.110898 0.122569,0.153213 0.04611,0.04242 0.076,0.08057 0.122571,0.122571 l -1.1031315,3.03361 c 0.9156445,0.745376 1.8555425,1.474299 2.9110395,2.083692 1.055496,0.60939 2.175412,1.050556 3.27875,1.47084 l 2.05305,-2.482044 c 0.187822,0.06084 0.3929,0.10036 0.582209,0.153213 0.01411,0.0039 0.01658,0.02656 0.03064,0.03064 0.04616,0.01324 0.107142,0.0177 0.153211,0.03063 0.05042,0.0183 0.10189,0.04656 0.153213,0.06129 0.02292,0.0062 0.03833,-0.0062 0.06129,0 0.03741,0.01002 0.05447,0.02086 0.09193,0.03063 0.06942,0.01819 0.144454,0.04391 0.214498,0.06129 0.107465,0.02677 0.229762,0.03468 0.337067,0.06129 0.02335,0.0055 0.03788,0.02524 0.06129,0.03063 0.02349,0.0054 0.03782,-0.0053 0.06129,0 0.177261,0.04298 0.373081,0.088 0.551565,0.122571 0.02364,0.0044 0.03767,0.02642 0.06129,0.03064 0.07019,0.01496 0.144091,0.01801 0.214498,0.03063 0.113844,0.01714 0.222312,0.0124 0.337067,0.03064 0.04742,0.0076 0.10579,0.02396 0.153213,0.03063 0.08098,0.01254 0.16344,0.0499 0.24514,0.06129 0.09021,0.0125 0.185516,-0.0112 0.275783,0 0.0336,0.0039 0.05831,0.02661 0.09193,0.03063 0.03357,0.0044 0.05838,-0.0044 0.09193,0 0.03335,0.0041 0.08904,-0.0042 0.122569,0 0.117902,0.02115 0.219386,0.04962 0.337068,0.06129 0.102106,0.0094 0.205191,0.023 0.306425,0.03064 0.03423,0.0028 0.05793,-0.0026 0.09193,0 0.09145,0.0064 0.184327,0.0256 0.275782,0.03064 0.131724,0.0073 0.265758,-0.0019 0.398353,0 0.05836,0.0024 0.1255,0.02912 0.183856,0.03063 0.0674,0.0019 0.14712,-0.0012 0.214498,0 0.06706,9.81e-4 0.116709,-3.13e-4 0.183854,0 0.13238,7.71e-4 0.266123,0.0021 0.398353,0 0.230328,-0.0036 0.47357,-0.0188 0.704778,-0.03063 l 1.348274,2.941718 c 1.174522,-0.120398 2.346637,-0.297406 3.523891,-0.612851 1.177253,-0.315444 2.293315,-0.742708 3.370678,-1.225701 l -0.275782,-3.217465 c 0.06953,-0.0355 0.114893,-0.08629 0.183853,-0.12257 0.04843,-0.02549 0.105423,-0.03491 0.153213,-0.06129 0.107107,-0.05768 0.200261,-0.122964 0.306426,-0.183856 0.127849,-0.07176 0.241191,-0.172227 0.36771,-0.24514 0.03802,-0.02189 0.08179,-0.04418 0.12257,-0.06129 0.0177,-0.01071 0.04364,-0.01987 0.06129,-0.03064 0.03025,-0.01503 0.06329,-0.04374 0.09193,-0.06129 0.08582,-0.05257 0.160073,-0.09929 0.24514,-0.153212 0.01981,-0.01234 0.04063,-0.05022 0.06129,-0.06129 0.07387,-0.04736 0.170824,-0.07268 0.24514,-0.12257 0.08491,-0.05596 0.161226,-0.09575 0.245139,-0.153213 0.149677,-0.106309 0.283444,-0.22717 0.428997,-0.337068 0.110839,-0.0813 0.228084,-0.162647 0.337066,-0.24514 0.06218,-0.04689 0.152556,-0.07435 0.214499,-0.122571 0.01897,-0.01467 0.0424,-0.04649 0.06129,-0.06129 0.0936,-0.0734 0.152375,-0.13794 0.24514,-0.214498 0.237646,-0.196126 0.478876,-0.410551 0.704777,-0.61285 0.0818,-0.07319 0.164668,-0.139164 0.24514,-0.214498 0.171573,-0.16062 0.352932,-0.325079 0.520924,-0.49028 0.06838,-0.06726 0.147452,-0.145723 0.214498,-0.214498 0.08758,-0.08898 0.159281,-0.1538 0.245139,-0.24514 0.04341,-0.04501 0.08027,-0.107249 0.122571,-0.153212 0.04242,-0.04611 0.111191,-0.076 0.153213,-0.12257 l 3.002967,1.103129 c 0.745377,-0.915646 1.4743,-1.855541 2.083691,-2.911039 0.609393,-1.055498 1.081199,-2.175411 1.501484,-3.278751 L 42.630708,29.97466 c 0.06085,-0.187825 0.10036,-0.3929 0.153213,-0.582208 0.0041,-0.01408 -0.0041,-0.01658 0,-0.03064 0.0025,-0.0089 -0.0025,-0.02172 0,-0.03064 0.0041,-0.01439 0.02554,-0.01661 0.03064,-0.03064 0.02151,-0.07411 0.04004,-0.140346 0.06129,-0.214496 0.0062,-0.02293 0.02445,-0.06896 0.03063,-0.09193 0.01002,-0.03743 0.02086,-0.05448 0.03064,-0.09193 0.01819,-0.06941 0.01325,-0.144452 0.03063,-0.214497 0.03509,-0.138974 0.0592,-0.28834 0.09193,-0.428995 0.01707,-0.06983 0.04204,-0.145133 0.06129,-0.214498 0.0335,-0.120683 0.06822,-0.245346 0.09193,-0.367711 0.0045,-0.02364 0.02642,-0.03767 0.03064,-0.06129 0.01372,-0.07059 0.01803,-0.144096 0.03064,-0.214498 0.0019,-0.0095 -0.0019,-0.02118 0,-0.03064 0.0019,-0.0099 -0.0324,-0.02079 -0.03064,-0.03064 0.01395,-0.09457 0.04614,-0.180514 0.06129,-0.275784 0.02055,-0.128399 0.0458,-0.269925 0.06129,-0.398352 0.0125,-0.09021 0.01944,-0.185516 0.03064,-0.275783 0.0039,-0.0336 -0.004,-0.05831 0,-0.09193 0.0068,-0.04746 0.02266,-0.07538 0.03063,-0.122571 0.01586,-0.136254 0.04768,-0.291889 0.06129,-0.428995 0.0093,-0.101838 0.02963,-0.205195 0.03064,-0.306425 0.0019,-0.02061 -0.03236,-0.04066 -0.03064,-0.06129 0.0012,-0.01385 0.02967,-0.01679 0.03064,-0.03063 0.0064,-0.09145 0.0256,-0.184327 0.03063,-0.275783 0.0067,-0.121468 -0.0021,-0.245483 0,-0.367711 0.0025,-0.06777 -0.0052,-0.147108 0,-0.214497 0.0019,-0.06739 0.02952,-0.116479 0.03064,-0.183856 9.81e-4,-0.06705 -3.13e-4,-0.147352 0,-0.214497 7.71e-4,-0.132381 0.0021,-0.266124 0,-0.398353 -0.0036,-0.23033 -0.0188,-0.47357 -0.03064,-0.704778 L 46.4916,21.6399 c -0.120358,-1.174512 -0.297393,-2.346618 -0.612837,-3.523871 -0.315445,-1.177254 -0.74271,-2.293315 -1.225701,-3.370678 l -3.217465,0.306424 c -0.0355,-0.06953 -0.08629,-0.145535 -0.122572,-0.214496 -0.0048,-0.0093 -0.02574,-0.02145 -0.03064,-0.03064 -0.02001,-0.03928 -0.0404,-0.08371 -0.06129,-0.12257 -0.059,-0.106953 -0.123832,-0.199494 -0.183854,-0.306426 -0.0726,-0.126579 -0.141091,-0.241731 -0.214498,-0.367709 -0.05023,-0.08488 -0.101797,-0.191828 -0.153213,-0.275784 -0.05257,-0.08582 -0.09929,-0.160074 -0.153212,-0.245139 -0.04353,-0.07706 -0.07433,-0.171337 -0.122571,-0.24514 -0.01298,-0.01978 -0.04827,-0.01091 -0.06129,-0.03064 -0.220297,-0.334287 -0.463152,-0.659005 -0.704778,-0.980559 -0.01415,-0.01899 -0.01778,-0.04139 -0.03063,-0.06129 -0.0422,-0.06541 -0.07429,-0.152468 -0.122571,-0.214499 -0.01467,-0.01897 -0.04649,-0.01174 -0.06129,-0.03064 -0.07419,-0.09386 -0.169699,-0.182899 -0.24514,-0.275782 -0.196125,-0.237647 -0.379908,-0.478875 -0.582207,-0.704777 -0.06348,-0.07094 -0.117134,-0.146011 -0.183856,-0.214499 -0.140855,-0.144584 -0.284115,-0.287073 -0.428995,-0.428996 -0.03411,-0.03353 -0.08829,-0.05863 -0.12257,-0.09193 -0.06816,-0.06778 -0.115079,-0.147452 -0.183855,-0.2144965 -0.03821,-0.03726 -0.08451,-0.085146 -0.12257,-0.1225706 C 37.492195,9.8233839 37.442033,9.7698964 37.390788,9.719982 37.345218,9.67712 37.314428,9.63925 37.268216,9.5974124 37.222116,9.5550044 37.192226,9.5168564 37.145647,9.4748419 L 38.248773,6.4412268 C 37.333128,5.6958497 36.393231,4.9669269 35.337734,4.3575352 34.282236,3.7481444 33.162321,3.2763358 32.058983,2.8560514 l -2.053048,2.4820445 c -0.187824,-0.060836 -0.392898,-0.1003508 -0.582208,-0.1532125 -0.01425,-0.00413 -0.01652,0.00457 -0.03064,0 -0.0975,-0.027989 -0.209059,-0.065367 -0.306425,-0.091927 -0.02292,-0.00621 -0.03832,-0.024504 -0.06129,-0.030642 -0.03721,-0.00999 -0.05461,-0.020865 -0.09193,-0.030642 -0.06885,-0.017967 -0.144343,-0.014694 -0.214497,-0.030642 -0.107465,-0.026772 -0.229763,-0.065316 -0.337069,-0.091927 -0.0234,-0.00556 -0.03776,0.00447 -0.06129,0 -0.02349,-0.00533 -0.03782,-0.025377 -0.06129,-0.030642 -0.178402,-0.041106 -0.373764,-0.083269 -0.551567,-0.1225701 -0.113818,-0.021923 -0.223135,-0.013854 -0.337067,-0.030642 -0.09408,-0.016586 -0.181169,-0.047198 -0.275784,-0.061286 -0.04742,-0.00759 -0.105789,-0.02396 -0.153213,-0.030642 -0.08098,-0.012536 -0.163437,-0.019268 -0.245139,-0.030642 -0.09021,-0.012486 -0.185515,-0.019442 -0.275783,-0.030642 -0.03358,-0.00433 -0.05837,0.00439 -0.09193,0 -0.03311,-0.00403 -0.05859,0.00414 -0.09193,0 -0.03287,-0.00389 -0.08942,-0.02469 -0.122569,-0.030642 -0.117903,-0.021153 -0.219386,-0.049616 -0.337069,-0.061286 -0.102107,-0.00934 -0.205191,-0.023001 -0.306425,-0.030642 -0.03423,-0.00289 -0.05793,0.00254 -0.09193,0 -0.09145,-0.00635 -0.184328,-0.025602 -0.275784,-0.030642 -0.06736,-0.00353 -0.14708,0.00269 -0.214496,0 -0.06514,0.00277 -0.118856,0.031504 -0.183856,0.030642 -0.05835,-0.00223 -0.1255,-0.029118 -0.183855,-0.030642 -0.06739,-0.00177 -0.14712,-0.02951 -0.214497,-0.030642 -0.06705,-0.00101 -0.116712,3.167e-4 -0.183855,0 -0.132382,-7.71e-4 -0.266124,-0.00192 -0.398355,0 -0.230327,0.00362 -0.473569,0.01874 -0.704777,0.030642 L 21.67115,1.4771423 z"
       style="fill:none;stroke:url(#linearGradient4531);stroke-width:0.51678747000000003;stroke-linecap:butt;stroke-linejoin:miter;stroke-miterlimit:4;stroke-opacity:1;stroke-dasharray:none;opacity:1" />
    <path
       transform="matrix(1.122807,0,0,1.122807,-2.9473679,-2.9473679)"
       d="m 38,24 a 14,14 0 1 1 -28,0 14,14 0 1 1 28,0 z"
       sodipodi:ry="14"
       sodipodi:rx="14"
       sodipodi:cy="24"
       sodipodi:cx="24"
       id="path3938"
       style="display:inline;fill:none;fill-opacity:1;fill-rule:nonzero;stroke:url(#linearGradient3949);stroke-width:0.50000000000000000;stroke-miterlimit:4;stroke-opacity:1;stroke-dasharray:none;opacity:0.40000000000000002"
       sodipodi:type="arc" />
  </g>
  <g
     inkscape:groupmode="layer"
     id="layer1"
     inkscape:label="Light"
     sodipodi:insensitive="true">
    <path
       style="fill:url(#radialGradient4675);fill-opacity:1;stroke:none;display:inline"
       d="M 21.671169,1.4771379 C 20.496648,1.597536 19.324532,1.7745441 18.147277,2.0899883 16.970025,2.4054327 15.853964,2.8326967 14.7766,3.3156893 l 0.275782,3.2481076 c -0.06953,0.035498 -0.114894,0.055654 -0.183853,0.091927 -0.04944,0.023298 -0.105113,0.066095 -0.153213,0.091927 -0.106953,0.058992 -0.199494,0.1238332 -0.306426,0.1838551 -0.127849,0.071766 -0.241191,0.1415849 -0.36771,0.2144976 -0.05569,0.033533 -0.128478,0.058139 -0.183856,0.091927 -0.03025,0.015047 -0.06329,0.043742 -0.09193,0.061286 -0.08582,0.052559 -0.160075,0.099281 -0.245139,0.1532125 -0.01988,0.012604 -0.04147,0.04858 -0.06129,0.061286 -0.05742,0.030729 -0.129599,0.056462 -0.183855,0.091927 -0.01985,0.013156 -0.04136,0.017258 -0.06129,0.030642 -0.08569,0.057045 -0.162125,0.1248964 -0.245139,0.1838551 -0.151179,0.1035376 -0.280971,0.1981818 -0.428997,0.3064253 -0.11069,0.083578 -0.225775,0.1612053 -0.337066,0.2451402 -0.06218,0.046892 -0.152554,0.074357 -0.214499,0.1225701 -0.01896,0.014714 -0.0424,0.046499 -0.06129,0.061286 -0.0936,0.073405 -0.152375,0.1685822 -0.245139,0.2451402 -0.237646,0.1961269 -0.478876,0.3799075 -0.704778,0.5822079 -0.0818,0.073178 -0.164668,0.1391632 -0.24514,0.2144972 -0.171572,0.1606196 -0.352932,0.3557223 -0.520923,0.5209219 -0.06838,0.06726 -0.147452,0.115082 -0.214499,0.183856 -0.087575,0.08898 -0.1592812,0.184442 -0.2451392,0.275782 -0.0434,0.04502 -0.080257,0.0766 -0.1225706,0.12257 -0.042397,0.04611 -0.1111986,0.106642 -0.1532126,0.153213 L 6.4724766,9.7199763 C 5.7270994,10.635621 4.9981766,11.575519 4.388785,12.631016 3.7793935,13.686513 3.3075853,14.806429 2.8873013,15.909767 l 2.4820444,2.053049 c -0.060837,0.187823 -0.1003508,0.392899 -0.1532125,0.582207 -0.00394,0.01412 0.00405,0.01658 0,0.03064 -0.00258,0.0088 0.00255,0.0217 0,0.03063 -0.00408,0.01407 -0.026557,0.0472 -0.030642,0.06129 -0.026294,0.07258 -0.041,0.139682 -0.061286,0.214498 -0.00621,0.02292 -0.024505,0.03832 -0.030642,0.06129 -0.010015,0.03743 -0.020859,0.0851 -0.030642,0.122571 -0.018194,0.06941 -0.013255,0.144453 -0.030642,0.214498 -0.014033,0.05559 -0.019899,0.09669 -0.030642,0.153212 -0.018827,0.07493 -0.074781,0.138972 -0.091927,0.214498 -0.00207,0.0094 0.032822,0.02127 0.030642,0.03064 -0.01585,0.07054 -0.046026,0.143947 -0.061286,0.214498 -0.033493,0.120683 -0.068222,0.245346 -0.091927,0.367711 -0.00455,0.02363 -0.026443,0.03767 -0.030642,0.06129 -0.013709,0.0706 -0.018015,0.144094 -0.030642,0.214497 -0.00171,0.0094 0.0017,0.02119 0,0.03064 -0.00174,0.0099 0.032376,0.0208 0.030642,0.03064 -0.013939,0.09457 -0.046142,0.180516 -0.061286,0.275783 -0.00759,0.04742 -0.023965,0.10579 -0.030642,0.153213 -0.012422,0.08044 -0.019548,0.164549 -0.030642,0.245139 -0.012485,0.09021 -0.019442,0.185518 -0.030642,0.275784 -0.00391,0.0336 0.00403,0.05831 0,0.09193 -0.00567,0.04656 -0.025207,0.106516 -0.030642,0.153211 -0.023269,0.137341 -0.048531,0.258833 -0.061286,0.398353 -0.00405,0.04432 -9.996e-4,0.108901 0,0.153213 -0.00529,0.05688 -0.025824,0.09623 -0.030642,0.153212 -2.102e-4,0.02062 0.03213,0.04074 0.030642,0.06129 -0.00111,0.01363 -0.029564,0.04765 -0.030642,0.06129 -0.00635,0.09145 -0.025602,0.184329 -0.030642,0.275783 -0.00672,0.121469 0.00191,0.245483 0,0.36771 -0.00277,0.06871 0.0018,0.11516 0,0.183855 -0.00523,0.06739 -0.029601,0.145572 -0.030642,0.214497 -0.00101,0.06706 3.167e-4,0.116712 0,0.183856 -7.715e-4,0.132382 -0.00191,0.266124 0,0.398354 0.00362,0.230329 0.01874,0.473569 0.030642,0.704777 l -2.9416815,1.348278 c 0.1203981,1.174522 0.2974063,2.377279 0.6128504,3.554534 0.3154444,1.177252 0.7427085,2.262671 1.225701,3.340035 L 6.5644082,32.91638 c 0.035499,0.06953 0.086298,0.114894 0.12257,0.183853 0.00487,0.0093 0.025749,0.02143 0.030642,0.03064 0.019999,0.03928 0.04042,0.0837 0.061286,0.12257 0.058992,0.106952 0.1238331,0.199494 0.1838551,0.306426 0.072599,0.126579 0.1410882,0.272375 0.2144976,0.398353 0.049728,0.08532 0.1016955,0.16113 0.1532127,0.24514 0.035509,0.05795 0.055758,0.126433 0.091927,0.183855 0.019075,0.02821 0.043307,0.03293 0.061286,0.06129 0.043546,0.07705 0.074331,0.17134 0.1225701,0.245141 0.012966,0.01978 0.048269,0.04154 0.061286,0.06129 0.2202978,0.334286 0.4631539,0.659004 0.7047779,0.980561 0.014184,0.01888 0.01641,0.01185 0.030642,0.03064 0.042203,0.0654 0.074291,0.152467 0.1225701,0.214498 0.014714,0.01896 0.046499,0.0424 0.061286,0.06129 0.074186,0.09386 0.1697009,0.182899 0.2451402,0.27578 0.1961268,0.237648 0.3799076,0.478878 0.5822079,0.70478 0.06347,0.07095 0.1171317,0.146011 0.1838552,0.214497 0.00972,0.01048 0.020971,-0.01045 0.030646,0 0.1281364,0.138639 0.2647336,0.267001 0.398352,0.398354 0.03432,0.03362 0.08853,0.08871 0.122571,0.122569 0.06813,0.06775 0.11508,0.147451 0.183855,0.214498 0.03832,0.03688 0.08428,0.05494 0.122571,0.09193 0.0518,0.04982 0.101962,0.103306 0.153212,0.153213 0.04502,0.04341 0.0766,0.110898 0.122569,0.153213 0.04611,0.04242 0.076,0.08057 0.122571,0.122571 l -1.1031315,3.03361 c 0.9156445,0.745376 1.8555425,1.474299 2.9110395,2.083692 1.055496,0.60939 2.175412,1.050556 3.27875,1.47084 l 2.05305,-2.482044 c 0.187822,0.06084 0.3929,0.10036 0.582209,0.153213 0.01411,0.0039 0.01658,0.02656 0.03064,0.03064 0.04616,0.01324 0.107142,0.0177 0.153211,0.03063 0.05042,0.0183 0.10189,0.04656 0.153213,0.06129 0.02292,0.0062 0.03833,-0.0062 0.06129,0 0.03741,0.01002 0.05447,0.02086 0.09193,0.03063 0.06942,0.01819 0.144454,0.04391 0.214498,0.06129 0.107465,0.02677 0.229762,0.03468 0.337067,0.06129 0.02335,0.0055 0.03788,0.02524 0.06129,0.03063 0.02349,0.0054 0.03782,-0.0053 0.06129,0 0.177261,0.04298 0.373081,0.088 0.551565,0.122571 0.02364,0.0044 0.03767,0.02642 0.06129,0.03064 0.07019,0.01496 0.144091,0.01801 0.214498,0.03063 0.113844,0.01714 0.222312,0.0124 0.337067,0.03064 0.04742,0.0076 0.10579,0.02396 0.153213,0.03063 0.08098,0.01254 0.16344,0.0499 0.24514,0.06129 0.09021,0.0125 0.185516,-0.0112 0.275783,0 0.0336,0.0039 0.05831,0.02661 0.09193,0.03063 0.03357,0.0044 0.05838,-0.0044 0.09193,0 0.03335,0.0041 0.08904,-0.0042 0.122569,0 0.117902,0.02115 0.219386,0.04962 0.337068,0.06129 0.102106,0.0094 0.205191,0.023 0.306425,0.03064 0.03423,0.0028 0.05793,-0.0026 0.09193,0 0.09145,0.0064 0.184327,0.0256 0.275782,0.03064 0.131724,0.0073 0.265758,-0.0019 0.398353,0 0.05836,0.0024 0.1255,0.02912 0.183856,0.03063 0.0674,0.0019 0.14712,-0.0012 0.214498,0 0.06706,9.81e-4 0.116709,-3.13e-4 0.183854,0 0.13238,7.71e-4 0.266123,0.0021 0.398353,0 0.230328,-0.0036 0.47357,-0.0188 0.704778,-0.03063 l 1.348274,2.941718 c 1.174522,-0.120398 2.346637,-0.297406 3.523891,-0.612851 1.177253,-0.315444 2.293315,-0.742708 3.370678,-1.225701 l -0.275782,-3.217465 c 0.06953,-0.0355 0.114893,-0.08629 0.183853,-0.12257 0.04843,-0.02549 0.105423,-0.03491 0.153213,-0.06129 0.107107,-0.05768 0.200261,-0.122964 0.306426,-0.183856 0.127849,-0.07176 0.241191,-0.172227 0.36771,-0.24514 0.03802,-0.02189 0.08179,-0.04418 0.12257,-0.06129 0.0177,-0.01071 0.04364,-0.01987 0.06129,-0.03064 0.03025,-0.01503 0.06329,-0.04374 0.09193,-0.06129 0.08582,-0.05257 0.160073,-0.09929 0.24514,-0.153212 0.01981,-0.01234 0.04063,-0.05022 0.06129,-0.06129 0.07387,-0.04736 0.170824,-0.07268 0.24514,-0.12257 0.08491,-0.05596 0.161226,-0.09575 0.245139,-0.153213 0.149677,-0.106309 0.283444,-0.22717 0.428997,-0.337068 0.110839,-0.0813 0.228084,-0.162647 0.337066,-0.24514 0.06218,-0.04689 0.152556,-0.07435 0.214499,-0.122571 0.01897,-0.01467 0.0424,-0.04649 0.06129,-0.06129 0.0936,-0.0734 0.152375,-0.13794 0.24514,-0.214498 0.237646,-0.196126 0.478876,-0.410551 0.704777,-0.61285 0.0818,-0.07319 0.164668,-0.139164 0.24514,-0.214498 0.171573,-0.16062 0.352932,-0.325079 0.520924,-0.49028 0.06838,-0.06726 0.147452,-0.145723 0.214498,-0.214498 0.08758,-0.08898 0.159281,-0.1538 0.245139,-0.24514 0.04341,-0.04501 0.08027,-0.107249 0.122571,-0.153212 0.04242,-0.04611 0.111191,-0.076 0.153213,-0.12257 l 3.002967,1.103129 c 0.745377,-0.915646 1.4743,-1.855541 2.083691,-2.911039 0.609393,-1.055498 1.081199,-2.175411 1.501484,-3.278751 L 42.630708,29.97466 c 0.06085,-0.187825 0.10036,-0.3929 0.153213,-0.582208 0.0041,-0.01408 -0.0041,-0.01658 0,-0.03064 0.0025,-0.0089 -0.0025,-0.02172 0,-0.03064 0.0041,-0.01439 0.02554,-0.01661 0.03064,-0.03064 0.02151,-0.07411 0.04004,-0.140346 0.06129,-0.214496 0.0062,-0.02293 0.02445,-0.06896 0.03063,-0.09193 0.01002,-0.03743 0.02086,-0.05448 0.03064,-0.09193 0.01819,-0.06941 0.01325,-0.144452 0.03063,-0.214497 0.03509,-0.138974 0.0592,-0.28834 0.09193,-0.428995 0.01707,-0.06983 0.04204,-0.145133 0.06129,-0.214498 0.0335,-0.120683 0.06822,-0.245346 0.09193,-0.367711 0.0045,-0.02364 0.02642,-0.03767 0.03064,-0.06129 0.01372,-0.07059 0.01803,-0.144096 0.03064,-0.214498 0.0019,-0.0095 -0.0019,-0.02118 0,-0.03064 0.0019,-0.0099 -0.0324,-0.02079 -0.03064,-0.03064 0.01395,-0.09457 0.04614,-0.180514 0.06129,-0.275784 0.02055,-0.128399 0.0458,-0.269925 0.06129,-0.398352 0.0125,-0.09021 0.01944,-0.185516 0.03064,-0.275783 0.0039,-0.0336 -0.004,-0.05831 0,-0.09193 0.0068,-0.04746 0.02266,-0.07538 0.03063,-0.122571 0.01586,-0.136254 0.04768,-0.291889 0.06129,-0.428995 0.0093,-0.101838 0.02963,-0.205195 0.03064,-0.306425 0.0019,-0.02061 -0.03236,-0.04066 -0.03064,-0.06129 0.0012,-0.01385 0.02967,-0.01679 0.03064,-0.03063 0.0064,-0.09145 0.0256,-0.184327 0.03063,-0.275783 0.0067,-0.121468 -0.0021,-0.245483 0,-0.367711 0.0025,-0.06777 -0.0052,-0.147108 0,-0.214497 0.0019,-0.06739 0.02952,-0.116479 0.03064,-0.183856 9.81e-4,-0.06705 -3.13e-4,-0.147352 0,-0.214497 7.71e-4,-0.132381 0.0021,-0.266124 0,-0.398353 -0.0036,-0.23033 -0.0188,-0.47357 -0.03064,-0.704778 L 46.4916,21.6399 c -0.120358,-1.174512 -0.297393,-2.346618 -0.612837,-3.523871 -0.315445,-1.177254 -0.74271,-2.293315 -1.225701,-3.370678 l -3.217465,0.306424 c -0.0355,-0.06953 -0.08629,-0.145535 -0.122572,-0.214496 -0.0048,-0.0093 -0.02574,-0.02145 -0.03064,-0.03064 -0.02001,-0.03928 -0.0404,-0.08371 -0.06129,-0.12257 -0.059,-0.106953 -0.123832,-0.199494 -0.183854,-0.306426 -0.0726,-0.126579 -0.141091,-0.241731 -0.214498,-0.367709 -0.05023,-0.08488 -0.101797,-0.191828 -0.153213,-0.275784 -0.05257,-0.08582 -0.09929,-0.160074 -0.153212,-0.245139 -0.04353,-0.07706 -0.07433,-0.171337 -0.122571,-0.24514 -0.01298,-0.01978 -0.04827,-0.01091 -0.06129,-0.03064 -0.220297,-0.334287 -0.463152,-0.659005 -0.704778,-0.980559 -0.01415,-0.01899 -0.01778,-0.04139 -0.03063,-0.06129 -0.0422,-0.06541 -0.07429,-0.152468 -0.122571,-0.214499 -0.01467,-0.01897 -0.04649,-0.01174 -0.06129,-0.03064 -0.07419,-0.09386 -0.169699,-0.182899 -0.24514,-0.275782 -0.196125,-0.237647 -0.379908,-0.478875 -0.582207,-0.704777 -0.06348,-0.07094 -0.117134,-0.146011 -0.183856,-0.214499 -0.140855,-0.144584 -0.284115,-0.287073 -0.428995,-0.428996 -0.03411,-0.03353 -0.08829,-0.05863 -0.12257,-0.09193 -0.06816,-0.06778 -0.115079,-0.147452 -0.183855,-0.2144965 -0.03821,-0.03726 -0.08451,-0.085146 -0.12257,-0.1225706 C 37.492195,9.8233839 37.442033,9.7698964 37.390788,9.719982 37.345218,9.67712 37.314428,9.63925 37.268216,9.5974124 37.222116,9.5550044 37.192226,9.5168564 37.145647,9.4748419 L 38.248773,6.4412268 C 37.333128,5.6958497 36.393231,4.9669269 35.337734,4.3575352 34.282236,3.7481444 33.162321,3.2763358 32.058983,2.8560514 l -2.053048,2.4820445 c -0.187824,-0.060836 -0.392898,-0.1003508 -0.582208,-0.1532125 -0.01425,-0.00413 -0.01652,0.00457 -0.03064,0 -0.0975,-0.027989 -0.209059,-0.065367 -0.306425,-0.091927 -0.02292,-0.00621 -0.03832,-0.024504 -0.06129,-0.030642 -0.03721,-0.00999 -0.05461,-0.020865 -0.09193,-0.030642 -0.06885,-0.017967 -0.144343,-0.014694 -0.214497,-0.030642 -0.107465,-0.026772 -0.229763,-0.065316 -0.337069,-0.091927 -0.0234,-0.00556 -0.03776,0.00447 -0.06129,0 -0.02349,-0.00533 -0.03782,-0.025377 -0.06129,-0.030642 -0.178402,-0.041106 -0.373764,-0.083269 -0.551567,-0.1225701 -0.113818,-0.021923 -0.223135,-0.013854 -0.337067,-0.030642 -0.09408,-0.016586 -0.181169,-0.047198 -0.275784,-0.061286 -0.04742,-0.00759 -0.105789,-0.02396 -0.153213,-0.030642 -0.08098,-0.012536 -0.163437,-0.019268 -0.245139,-0.030642 -0.09021,-0.012486 -0.185515,-0.019442 -0.275783,-0.030642 -0.03358,-0.00433 -0.05837,0.00439 -0.09193,0 -0.03311,-0.00403 -0.05859,0.00414 -0.09193,0 -0.03287,-0.00389 -0.08942,-0.02469 -0.122569,-0.030642 -0.117903,-0.021153 -0.219386,-0.049616 -0.337069,-0.061286 -0.102107,-0.00934 -0.205191,-0.023001 -0.306425,-0.030642 -0.03423,-0.00289 -0.05793,0.00254 -0.09193,0 -0.09145,-0.00635 -0.184328,-0.025602 -0.275784,-0.030642 -0.06736,-0.00353 -0.14708,0.00269 -0.214496,0 -0.06514,0.00277 -0.118856,0.031504 -0.183856,0.030642 -0.05835,-0.00223 -0.1255,-0.029118 -0.183855,-0.030642 -0.06739,-0.00177 -0.14712,-0.02951 -0.214497,-0.030642 -0.06705,-0.00101 -0.116712,3.167e-4 -0.183855,0 -0.132382,-7.71e-4 -0.266124,-0.00192 -0.398355,0 -0.230327,0.00362 -0.473569,0.01874 -0.704777,0.030642 L 21.67115,1.4771423 z"
       id="path4658"
       inkscape:connector-curvature="0" />
  </g>
</svg>
